<?xml version="1.0" encoding="utf-8"?>
<!-- Generator: Adobe Illustrator 22.1.0, SVG Export Plug-In . SVG Version: 6.00 Build 0)  -->
<svg version="1.1" id="Capa_1" xmlns="http://www.w3.org/2000/svg" xmlns:xlink="http://www.w3.org/1999/xlink" x="0px" y="0px"
	 viewBox="-354 46 850.2 589.5" style="enable-background:new -354 46 850.2 589.5;" xml:space="preserve">
<style type="text/css">
	.st0{fill:#EFEEEA;}
</style>
<g>
	<polygon class="st0" points="-192.3,503.7 -192.9,504.3 -193.5,504.3 -194.2,504.3 -194.8,504.3 -195.5,503.7 -196.1,503.7 
		-196.8,503.7 -197.4,503.7 -198.1,503.7 -198.7,503.7 -199.3,503.7 -200,503.7 -200.7,503.7 -200.7,504.3 -200.7,504.9 -200,505.6 
		-199.3,505.6 -198.7,506.3 -198.1,506.9 -198.1,507.5 -198.1,508.2 -198.1,508.8 -198.7,509.5 -198.7,510.1 -198.7,510.8 
		-198.7,511.4 -199.3,512.1 -199.3,512.7 -199.3,513.4 -200,514 -200,514.6 -200,515.3 -200.7,515.9 -200.7,516.6 -201.3,517.2 
		-201.3,517.9 -202,519.2 -202,519.8 -202.6,521.1 -203.2,521.8 -203.2,522.4 -203.9,521.8 -203.9,521.1 -204.5,520.5 -204.5,519.8 
		-205.2,519.2 -205.2,518.5 -205.8,517.2 -206.5,515.9 -206.5,515.3 -207.1,514.6 -207.1,514 -207.1,513.4 -207.8,512.7 
		-207.8,512.1 -207.8,511.4 -208.4,510.8 -208.4,510.1 -209,509.5 -209,508.8 -209,508.2 -209,507.5 -209,506.9 -208.4,506.3 
		-207.8,506.3 -207.1,505.6 -206.5,504.9 -205.8,504.3 -206.5,503.7 -207.1,503.7 -207.8,503.7 -208.4,503.7 -209,503.7 
		-209.7,503.7 -210.3,503.7 -211,503.7 -211.6,503.7 -212.3,503.7 -212.9,503.7 -213.6,503.7 -214.2,503.7 -214.9,503.7 
		-215.5,503.7 -216.2,503.7 -216.2,504.3 -216.8,504.9 -216.2,505.6 -215.5,505.6 -214.9,506.3 -214.2,506.9 -214.2,507.5 
		-213.6,508.2 -213.6,508.8 -212.9,509.5 -212.9,510.1 -212.9,510.8 -212.3,511.4 -212.3,512.1 -212.3,512.7 -211.6,513.4 
		-211.6,514 -211.6,514.6 -211,515.3 -211,515.9 -210.3,516.6 -210.3,517.2 -209.7,517.9 -209.7,518.5 -209,519.2 -209,519.8 
		-209,520.5 -208.4,521.1 -208.4,521.8 -207.8,522.4 -207.8,523 -207.8,523.7 -207.1,524.3 -206.5,525 -206.5,525.6 -205.8,526.3 
		-205.8,526.9 -205.8,527.6 -205.2,528.2 -205.2,528.9 -204.5,529.5 -204.5,530.1 -203.9,530.1 -203.2,529.5 -203.2,528.9 
		-202.6,528.2 -202.6,527.6 -202,526.9 -202,526.3 -202,525.6 -201.3,525 -201.3,524.3 -200.7,523.7 -200.7,523 -200,521.8 
		-200,521.1 -199.3,520.5 -199.3,519.8 -198.7,519.2 -198.7,517.9 -198.1,517.2 -198.1,516.6 -198.1,515.9 -197.4,515.3 
		-197.4,514.6 -196.8,514 -196.8,513.4 -196.8,512.7 -196.1,512.1 -196.1,511.4 -196.1,510.8 -195.5,510.1 -195.5,509.5 
		-195.5,508.8 -194.8,508.2 -194.8,507.5 -194.2,506.9 -194.2,506.3 -193.5,506.3 -192.9,505.6 -192.3,505.6 -192.3,504.9 
		-191.6,504.9 -192.3,504.3 	"/>
	<path class="st0" d="M-167.1,514v-0.6v-0.7v-0.7v-0.7v-0.7l-0.7-0.6v-0.7l-0.6-0.7v-0.7l-0.7-0.7v-0.6h-0.7v-0.7l-0.7-0.7h-0.7
		v-0.7h-0.6l-0.7-0.7l-0.7-0.6h-0.7h-0.7l-0.6-0.7h-0.7h-0.7h-0.7h-0.7h-0.6h-0.7l-0.7,0.7h-0.7h-0.6l-0.7,0.6h-0.7l-0.7,0.7h-0.7
		v0.7h-0.6l-0.7,0.7v0.7h-0.7v0.6l-0.7,0.7v0.7h-0.7v0.7l-0.6,0.7v0.6l-0.7,0.7v0.7v0.7v0.7l-0.7,0.6v0.7v0.7v0.7v0.6v0.7v0.7v0.7
		v0.7v1.3v0.7l0.7,0.7v0.7v0.6l0.7,0.7v0.7l0.6,0.7v0.7h0.7v0.6l0.7,0.7l0.7,0.7l0.7,0.7l0.6,0.7h0.7l0.7,0.6h0.7h0.7h0.6v0.7h0.7
		h0.7h0.7h0.6h0.7l0.7-0.7h0.7h0.7h0.6l0.7-0.6l0.7-0.7h0.7v-0.7h0.7l0.6-0.7l0.7-0.7v-0.6h0.7V525l0.7-0.7v-0.7h0.7V523l0.6-0.6
		v-0.7v-0.7l0.7-0.7v-0.7v-0.6v-0.7v-0.7v-0.7l0.7-0.7v-0.6l-0.7-0.7V514z M-170.9,517.2v0.7v1.3v0.6l-0.6,0.7v0.7v0.7v0.7l-0.7,0.6
		v0.7l-0.7,0.7v0.7h-0.7v0.7h-0.7l-0.6,0.6l-0.7,0.7h-0.7h-0.7h-0.7h-0.6h-0.7l-0.7-0.7h-0.7l-0.6-0.6V525h-0.7l-0.7-0.7v-0.7
		l-0.7-0.7v-0.6l-0.7-0.7v-0.7v-0.7v-0.7l-0.6-0.6v-0.7v-0.7v-0.7v-0.7v-0.6v-1.3V514v-0.6v-0.7v-0.7l0.6-0.7v-0.7v-0.6l0.7-0.7
		l0.7-0.7v-0.7h0.7v-0.7l0.7-0.6h0.6l0.7-0.7h0.7h0.7h0.6h0.7h0.7v0.7h0.7h0.7v0.6l0.6,0.7h0.7v0.7l0.7,0.7v0.7l0.7,0.6v0.7v0.7
		l0.7,0.7v0.7v0.6v0.7v0.7v0.7l0.6,0.6V517.2z"/>
	<polygon class="st0" points="-152.2,527.6 -152.9,526.9 -153.5,526.9 -154.1,526.3 -154.8,525.6 -154.8,525 -155.4,524.3 
		-155.4,523 -155.4,493.3 -155.4,492.7 -155.4,492 -155.4,491.4 -155.4,490.7 -155.4,490.1 -155.4,489.4 -155.4,488.8 -155.4,488.2 
		-155.4,487.5 -155.4,486.9 -155.4,486.2 -155.4,484.9 -155.4,484.3 -155.4,483.6 -155.4,483 -155.4,482.4 -155.4,481.7 
		-156.1,481.7 -156.7,481.7 -157.4,482.4 -158,483 -158.7,483 -158.7,483.6 -159.3,483.6 -159.9,484.3 -160.6,484.3 -161.3,484.9 
		-161.9,484.9 -162.5,485.6 -162.5,486.2 -162.5,486.9 -161.9,487.5 -161.3,488.2 -160.6,488.2 -160.6,488.8 -159.9,488.8 
		-159.9,489.4 -159.9,490.1 -159.3,490.7 -159.3,491.4 -159.3,492 -159.3,492.7 -159.3,493.3 -159.3,524.3 -159.3,525 -159.3,525.6 
		-159.9,526.3 -159.9,526.9 -160.6,527.6 -161.3,527.6 -161.9,528.2 -161.9,528.9 -161.9,529.5 -161.9,530.1 -161.3,530.1 
		-160.6,530.1 -159.9,530.1 -159.3,529.5 -158.7,529.5 -158,529.5 -157.4,529.5 -156.7,529.5 -156.1,529.5 -155.4,529.5 
		-154.8,529.5 -154.1,529.5 -153.5,529.5 -152.9,529.5 -152.2,529.5 -151.6,529.5 -150.9,529.5 -150.9,528.9 -150.9,528.2 
		-151.6,527.6 	"/>
	<polygon class="st0" points="-141.9,529.5 -141.2,529.5 -140.6,529.5 -139.9,529.5 -139.3,529.5 -138.6,529.5 -138,529.5 
		-137.4,529.5 -136.7,529.5 -136.1,529.5 -135.4,528.9 -134.7,528.9 -134.1,528.2 -133.5,528.2 -132.8,527.6 -132.2,527.6 
		-132.2,526.9 -131.5,526.9 -130.9,527.6 -130.2,527.6 -130.2,528.2 -129.6,528.9 -128.9,529.5 -128.9,530.1 -128.3,530.1 
		-125.7,528.2 -125.1,528.2 -125.1,527.6 -124.4,527.6 -124.4,526.9 -124.4,526.3 -125.1,525.6 -125.7,525.6 -126.4,525.6 -127,525 
		-127.7,524.3 -127.7,523.7 -127.7,523 -127.7,514.6 -127.7,514 -127.7,513.4 -127.7,512.7 -127.7,512.1 -127.7,511.4 -127.7,510.8 
		-127.7,510.1 -127.7,509.5 -127.7,508.8 -127.7,508.2 -127.7,506.9 -127.7,505.6 -127.7,504.9 -127.7,504.3 -127.7,503.7 
		-128.3,503 -128.9,503 -129.6,503.7 -130.2,503.7 -130.9,503.7 -131.5,504.3 -132.2,504.3 -132.8,504.9 -133.5,504.9 -134.1,505.6 
		-134.7,506.3 -134.7,506.9 -134.7,507.5 -134.1,507.5 -134.1,508.2 -133.5,508.2 -132.8,508.2 -132.8,508.8 -132.2,508.8 
		-132.2,509.5 -131.5,510.1 -131.5,510.8 -131.5,512.1 -131.5,512.7 -131.5,513.4 -131.5,519.8 -131.5,520.5 -131.5,521.1 
		-131.5,521.8 -131.5,522.4 -132.2,522.4 -132.2,523 -132.2,523.7 -132.8,524.3 -133.5,525 -134.1,525 -134.7,525.6 -135.4,525.6 
		-136.1,525.6 -136.7,525.6 -137.4,525.6 -138,525.6 -138.6,525.6 -138.6,525 -139.3,525 -139.9,524.3 -139.9,523.7 -140.6,523.7 
		-140.6,523 -140.6,522.4 -141.2,521.8 -141.2,521.1 -141.2,520.5 -141.2,519.8 -141.2,518.5 -141.2,514.6 -141.2,514 -141.2,513.4 
		-141.2,512.7 -141.2,512.1 -141.2,511.4 -141.2,510.8 -141.2,510.1 -141.2,509.5 -141.2,508.8 -141.2,508.2 -141.2,504.3 
		-141.2,503.7 -141.2,503 -141.9,503 -142.5,503 -143.2,503 -143.8,503.7 -144.4,503.7 -145.1,504.3 -145.7,504.3 -145.7,504.9 
		-146.4,504.9 -147,504.9 -147.7,505.6 -148.3,505.6 -148.3,506.3 -148.3,506.9 -147.7,507.5 -147,508.2 -146.4,508.2 -146.4,508.8 
		-145.7,509.5 -145.7,510.1 -145.1,510.8 -145.1,511.4 -145.1,512.1 -145.1,512.7 -145.1,513.4 -145.1,520.5 -145.1,521.1 
		-145.1,521.8 -145.1,523 -145.1,523.7 -145.1,524.3 -144.4,525 -144.4,525.6 -144.4,526.3 -143.8,526.9 -143.8,527.6 -143.2,527.6 
		-143.2,528.2 -142.5,528.9 -141.9,528.9 	"/>
	<polygon class="st0" points="-87.6,512.7 -87.6,513.4 -87.6,514 -87.6,514.6 -87.6,523.7 -87.6,524.3 -87.6,525 -87.6,525.6 
		-87.6,526.3 -88.2,526.9 -88.9,527.6 -89.5,527.6 -90.2,527.6 -90.2,528.2 -90.2,528.9 -90.2,529.5 -89.5,529.5 -88.9,529.5 
		-88.2,529.5 -87.6,529.5 -87,529.5 -86.3,529.5 -85.7,529.5 -85,529.5 -84.4,529.5 -83.7,529.5 -83.1,529.5 -82.4,529.5 
		-81.8,529.5 -81.1,529.5 -80.5,529.5 -79.8,529.5 -79.2,529.5 -79.2,528.9 -79.2,528.2 -79.8,527.6 -80.5,527.6 -81.1,527.6 
		-81.8,526.9 -82.4,526.9 -83.1,526.3 -83.1,525.6 -83.1,525 -83.7,524.3 -83.7,523.7 -83.7,512.7 -83.7,512.1 -83.7,510.8 
		-83.7,510.1 -83.7,509.5 -83.7,508.8 -83.7,508.2 -84.4,507.5 -84.4,506.9 -84.4,506.3 -85,505.6 -85.7,504.9 -85.7,504.3 
		-86.3,504.3 -86.3,503.7 -87,503.7 -87.6,503 -88.2,503 -88.9,503 -89.5,503 -90.2,503 -90.2,502.4 -90.8,502.4 -90.8,503 
		-91.5,503 -92.1,503 -92.8,503 -93.4,503 -94.1,503.7 -94.7,503.7 -95.3,504.3 -96,504.3 -96.7,504.9 -97.3,504.9 -97.9,505.6 
		-99.2,506.3 -99.9,505.6 -99.9,504.9 -100.5,504.3 -101.2,503.7 -101.8,503 -102.5,503 -103.1,503 -103.7,503 -104.4,502.4 
		-104.4,503 -105,503 -105.7,503 -106.3,503 -107,503 -107.6,503 -108.3,503.7 -108.9,503.7 -108.9,504.3 -109.6,504.3 
		-110.2,504.3 -110.2,504.9 -110.9,505.6 -111.5,505.6 -111.5,506.3 -112.2,506.3 -112.8,506.9 -112.8,506.3 -113.4,505.6 
		-113.4,504.9 -113.4,503.7 -114.1,503 -114.1,502.4 -114.7,503 -115.4,503 -116,503.7 -116.7,503.7 -117.3,504.3 -118,504.9 
		-118.6,505.6 -119.2,506.3 -119.9,506.3 -119.9,506.9 -120.5,506.9 -120.5,507.5 -119.9,508.2 -119.2,508.8 -118.6,508.8 
		-118,508.8 -118,509.5 -117.3,510.1 -117.3,510.8 -117.3,511.4 -116.7,512.7 -116.7,513.4 -116.7,523.7 -116.7,525 -117.3,525.6 
		-117.3,526.3 -117.3,526.9 -118,527.6 -118.6,527.6 -119.2,528.2 -119.9,528.2 -119.9,528.9 -119.9,529.5 -119.9,530.1 
		-119.2,530.1 -118.6,530.1 -118,530.1 -117.3,529.5 -116.7,529.5 -116,529.5 -115.4,529.5 -114.7,529.5 -114.1,529.5 -113.4,529.5 
		-112.8,529.5 -112.2,529.5 -111.5,529.5 -110.9,529.5 -110.2,529.5 -109.6,529.5 -108.9,529.5 -108.3,528.9 -108.3,528.2 
		-108.9,527.6 -109.6,527.6 -110.2,527.6 -110.9,527.6 -111.5,526.9 -112.2,526.9 -112.2,526.3 -112.8,525.6 -112.8,525 
		-112.8,524.3 -112.8,523.7 -112.8,511.4 -112.8,510.8 -112.8,510.1 -112.2,510.1 -112.2,509.5 -111.5,508.8 -110.9,508.8 
		-110.9,508.2 -110.2,508.2 -109.6,507.5 -108.9,507.5 -108.3,507.5 -107.6,507.5 -107,506.9 -106.3,506.9 -105.7,507.5 -105,507.5 
		-104.4,507.5 -104.4,508.2 -103.7,508.2 -103.7,508.8 -103.1,509.5 -103.1,510.1 -103.1,510.8 -102.5,511.4 -102.5,512.1 
		-102.5,512.7 -102.5,513.4 -102.5,514 -102.5,514.6 -102.5,523.7 -102.5,524.3 -102.5,525 -102.5,525.6 -102.5,526.3 -103.1,526.9 
		-103.1,527.6 -103.7,527.6 -104.4,527.6 -105,528.2 -105,528.9 -105,529.5 -104.4,530.1 -103.7,530.1 -103.1,530.1 -102.5,529.5 
		-101.8,529.5 -101.2,529.5 -100.5,529.5 -99.9,529.5 -99.2,529.5 -98.6,529.5 -97.9,529.5 -97.3,529.5 -96.7,529.5 -96,529.5 
		-95.3,529.5 -94.7,529.5 -94.7,528.9 -94.7,528.2 -95.3,528.2 -95.3,527.6 -96,527.6 -96.7,527.6 -97.3,526.9 -97.9,526.9 
		-97.9,526.3 -98.6,526.3 -98.6,525.6 -98.6,525 -98.6,523.7 -98.6,510.8 -98.6,510.1 -97.9,509.5 -97.3,508.8 -96.7,508.2 
		-96,508.2 -95.3,508.2 -95.3,507.5 -94.7,507.5 -94.1,507.5 -93.4,507.5 -92.8,507.5 -92.1,507.5 -91.5,507.5 -90.8,507.5 
		-90.2,507.5 -89.5,508.2 -88.9,508.2 -88.9,508.8 -88.2,509.5 -88.2,510.1 -88.2,510.8 -87.6,511.4 -87.6,512.1 	"/>
	<path class="st0" d="M-72.1,517.9l11.7-4.5h0.6h0.7l0.7-0.7v-0.7h0.7v-0.7v-0.7v-0.6h-0.7l-0.7-0.7v-0.7v-0.7l-0.7-0.7l-0.6-0.6
		v-0.7l-0.7-0.7v-0.7h-0.7l-0.7-0.7l-0.7-0.6h-0.6l-0.7-0.7H-65h-0.7l-0.7-0.7h-0.6h-0.7l-0.7,0.7h-0.7h-0.7h-0.6v0.7h-0.7l-0.7,0.6
		l-0.7,0.7h-0.6v0.7l-0.7,0.7l-0.7,0.7l-0.7,0.6v0.7l-0.7,0.7v0.7v0.7H-76v0.6v0.7v0.7l-0.7,0.7v0.7v0.6v0.7v1.3v0.6v0.7v0.7v0.7
		v0.7v0.6v0.7v0.7l0.7,0.7v0.7v0.6v0.7l0.6,0.7l0.7,0.7v0.7l0.7,0.6l0.7,0.7v0.7h0.7l0.6,0.7l0.7,0.7h0.7v0.6h0.7h0.6h0.7l0.7,0.7
		h0.7h0.7h0.6v-0.7h0.7h0.7h0.7l0.7-0.6h0.6h0.7v-0.7h0.7l0.7-0.7h0.7l0.6-0.7l0.7-0.7l0.7-0.6l0.7-0.7v-0.7v-0.7V523h-0.7h-0.7
		l-0.7,0.7l-0.6,0.7l-0.7,0.7h-0.7h-0.7v0.7h-0.7h-0.6h-0.7v0.6H-65h-0.7h-0.7h-0.6h-0.7v-0.6h-0.7h-0.7V525h-0.7v-0.7h-0.6v-0.7
		l-0.7-0.7v-0.6l-0.7-0.7v-0.7v-0.7l-0.7-0.7v-0.6V517.9z M-72.1,514.6V514v-1.3v-0.7v-0.7v-0.7v-0.6l0.7-0.7v-0.7v-0.7l0.7-0.7
		v-0.6h0.7v-0.7h0.6h0.7v-0.7h0.7h0.7h0.7l0.6,0.7h0.7l0.7,0.7v0.6l0.7,0.7l0.7,0.7v0.7v0.7v0.6v0.7h-0.7v0.7l-0.7,0.7h-0.7
		l-6.5,2.6V514.6z"/>
	<path class="st0" d="M263.8,502.4h-0.6h-0.7h-0.7h-0.7h-0.6L260,503h-0.7l-0.7,0.7H258l-0.6,0.6l-0.7,0.7l-0.7,0.7l-0.7,0.7v0.7
		h-0.7v0.6l-0.6,0.7v0.7l-0.7,0.7v0.7h-0.7v0.6v0.7v0.7l-0.7,0.7v0.7v0.6v0.7v0.7v0.7v0.6v0.7v0.7v0.7v0.7v0.6l0.7,0.7v0.7v0.7v0.7
		l0.7,0.6v0.7v0.7l0.7,0.7v0.7l0.6,0.6v0.7h0.7l0.7,0.7v0.7h0.7l0.7,0.7l0.6,0.6h0.7h0.7l0.7,0.7h0.7h0.6h0.7v-0.7h0.7h0.7v-0.6h0.6
		h0.7l0.7-0.7l1.3-0.7l0.6-0.7h0.7l0.7-0.7v0.7v0.7l0.7,0.7v1.3l0.7,0.7l0.6,0.7v-0.7h0.7h0.7l0.7-0.7l0.7-0.6h0.6v-0.7h1.3v-0.7
		l0.7-0.7h0.6v-0.7v-0.6h-0.6V525h-0.7h-0.7l-0.7,0.7l-0.6-0.7h-0.7v-0.7v-0.7v-31v-1.3v-0.7v-0.7v-0.7v-0.7v-0.6v-0.7v-0.7v-0.7
		v-1.3v-0.7v-0.7V483v-0.6v-0.7l-0.7-0.7h-0.7l-0.7,0.7l-0.6,0.7H269l-0.7,0.6h-0.7v0.7h-0.7h-0.6v0.7h-0.7l-0.7,0.7h-0.7v0.7v0.6
		l0.7,0.7h0.7l0.7,0.7h0.6v0.7h0.7v0.6l0.7,0.7v0.7v0.7v11.6v0.7h-0.7h-0.7h-0.6h-0.7h-0.7h-0.7v-0.7H263.8z M265.1,506.3v0.7h0.7
		l0.7,0.6l0.6,0.7l0.7,0.7v0.7l0.7,0.7v0.6v11.7v0.6h-0.7v0.7l-0.7,0.7h-0.6l-0.7,0.7h-0.7l-0.7,0.7h-0.7h-0.6h-0.7h-0.7l-0.7-0.7
		h-0.6v-0.7H260v-0.7h-0.7l-0.7-0.7v-0.6l-0.7-0.7l-0.6-0.7v-0.7v-0.7l-0.7-0.6v-0.7v-0.7v-0.7v-0.7v-0.6l-0.7-0.7v-0.7V514l0.7-0.6
		v-1.3v-0.7v-0.7v-0.6v-0.7h0.7v-0.7v-0.7l0.6-0.7l0.7-0.6l0.7-0.7h0.7l0.7-0.7h0.6h0.7h0.7h0.7v0.7h0.6h0.7H265.1z"/>
	<polygon class="st0" points="282.6,512.7 282.6,523.7 282.6,524.3 281.9,525 281.9,525.6 281.9,526.3 281.3,526.3 281.3,526.9 
		280.6,526.9 280,527.6 279.3,528.2 280,528.9 280,529.5 280.6,529.5 281.3,529.5 281.9,529.5 282.6,529.5 282.6,528.9 283.2,528.9 
		283.9,528.9 284.5,528.9 285.2,528.9 285.8,528.9 286.5,528.9 287.1,528.9 287.8,529.5 288.4,529.5 289,529.5 289.7,529.5 
		290.3,529.5 291,529.5 291,528.9 291,528.2 291,527.6 290.3,527.6 289.7,526.9 289,526.9 288.4,526.3 287.8,526.3 287.1,526.3 
		287.1,525.6 286.5,525 286.5,524.3 286.5,523.7 286.5,513.4 286.5,512.7 286.5,512.1 286.5,511.4 286.5,510.8 287.1,510.1 
		287.1,509.5 287.8,508.8 288.4,508.8 289,508.2 289.7,508.2 290.3,508.8 291,508.8 291.6,508.8 292.3,508.8 292.9,509.5 
		293.6,509.5 294.2,509.5 294.2,508.8 294.8,508.2 294.8,507.5 294.8,506.9 294.8,506.3 294.8,505.6 294.8,504.9 294.8,504.3 
		294.8,503.7 294.8,503 294.2,503 293.6,503 292.9,503 292.3,503 291.6,503 291,503 290.3,503.7 289.7,504.3 289,504.3 289,504.9 
		287.8,505.6 287.8,506.3 287.1,506.3 286.5,506.9 285.8,506.3 285.8,505.6 285.8,504.3 285.8,503.7 285.8,503 285.2,502.4 
		284.5,502.4 283.9,503 283.2,503.7 282.6,503.7 282.6,504.3 281.9,504.3 281.3,504.9 280.6,505.6 280,505.6 279.3,506.3 
		279.3,506.9 279.3,507.5 280,508.2 280.6,508.2 281.3,508.8 281.3,509.5 281.9,509.5 281.9,510.1 281.9,510.8 282.6,510.8 
		282.6,512.1 	"/>
	<polygon class="st0" points="307.1,487.5 306.5,487.5 305.8,486.9 305.2,486.9 304.5,486.9 303.9,487.5 303.3,487.5 303.3,488.2 
		302.6,488.8 302.6,489.4 302,489.4 302,490.1 302,490.7 302,491.4 302,492 302.6,492.7 302.6,493.3 303.3,493.3 303.3,494 
		303.9,494 304.5,494.6 305.2,494.6 305.2,494 305.8,494 306.5,493.3 307.1,492.7 307.1,492 307.1,491.4 307.8,490.7 307.8,490.1 
		307.8,489.4 307.8,488.8 307.1,488.8 307.1,488.2 	"/>
	<polygon class="st0" points="309.7,526.9 309.1,526.9 308.4,526.9 307.8,526.3 307.1,525.6 307.1,525 306.5,525 306.5,524.3 
		306.5,523.7 306.5,523 306.5,522.4 306.5,521.8 306.5,521.1 306.5,520.5 306.5,519.8 306.5,519.2 306.5,518.5 306.5,517.9 
		306.5,517.2 306.5,516.6 306.5,515.9 306.5,515.3 306.5,514.6 306.5,514 306.5,512.7 306.5,512.1 306.5,511.4 306.5,510.8 
		306.5,510.1 306.5,509.5 306.5,508.8 306.5,508.2 306.5,507.5 306.5,506.9 306.5,506.3 306.5,505.6 306.5,504.9 306.5,504.3 
		306.5,503.7 306.5,503 305.8,502.4 305.2,502.4 304.5,503 303.9,503.7 303.3,504.3 302.6,504.9 302,504.9 301.3,505.6 300.7,505.6 
		300,506.3 299.4,506.3 299.4,506.9 298.7,507.5 299.4,508.2 300,508.2 300,508.8 300.7,508.8 301.3,509.5 301.3,510.1 302,510.1 
		302,510.8 302,511.4 302.6,512.1 302.6,512.7 302.6,513.4 302.6,514.6 302.6,523 302.6,523.7 302.6,524.3 302.6,525 302,525.6 
		302,526.3 301.3,526.9 300.7,527.6 300,527.6 300,528.2 299.4,528.2 300,528.9 300,529.5 300.7,529.5 301.3,529.5 302,529.5 
		302.6,529.5 303.3,529.5 303.9,529.5 304.5,529.5 305.2,529.5 305.8,529.5 306.5,529.5 307.1,529.5 307.8,529.5 308.4,529.5 
		309.1,529.5 309.7,529.5 310.3,528.9 310.3,528.2 310.3,527.6 309.7,527.6 	"/>
	<polygon class="st0" points="336.2,503.7 335.5,503.7 334.9,503.7 334.3,503.7 333.6,503.7 333,503.7 332.3,503.7 331.7,503.7 
		331,503.7 330.4,503 329.7,503 329.1,503 329.1,503.7 329.1,504.3 329.7,504.9 330.4,505.6 331,506.3 331.7,506.9 331.7,507.5 
		331,508.2 331,508.8 331,509.5 331,510.1 330.4,510.8 330.4,511.4 330.4,512.1 329.7,512.7 329.7,513.4 329.7,514 329.1,514.6 
		329.1,515.3 328.5,516.6 328.5,517.2 327.8,517.9 327.8,518.5 327.2,519.8 327.2,520.5 326.5,521.1 326.5,521.8 326.5,522.4 
		325.9,521.8 325.9,521.1 325.2,520.5 325.2,519.8 324.6,518.5 323.9,517.9 323.9,516.6 323.3,515.9 323.3,515.3 322.6,514 
		322.6,513.4 322,512.7 322,512.1 322,511.4 321.3,511.4 321.3,510.8 321.3,510.1 320.7,509.5 320.7,508.8 320.7,508.2 320.7,507.5 
		320.7,506.9 320.7,506.3 321.3,506.3 322,505.6 322.6,505.6 322.6,504.9 323.3,504.9 323.3,504.3 323.3,503.7 323.3,503 322.6,503 
		322,503 321.3,503 321.3,503.7 320.7,503.7 320,503.7 319.4,503.7 318.8,503.7 318.1,503.7 317.5,503.7 316.8,503.7 316.2,503.7 
		315.5,503.7 314.9,503.7 314.2,503.7 313.6,503.7 313,503.7 313,504.3 313,504.9 313.6,504.9 313.6,505.6 314.2,506.3 314.9,506.3 
		315.5,506.9 315.5,507.5 316.2,508.2 316.2,508.8 316.2,509.5 316.8,510.1 316.8,510.8 316.8,511.4 317.5,512.1 317.5,512.7 
		318.1,513.4 318.1,514 318.1,514.6 318.8,515.3 318.8,515.9 319.4,516.6 319.4,517.2 319.4,517.9 320,518.5 320,519.2 320.7,519.8 
		320.7,520.5 321.3,521.1 321.3,521.8 322,522.4 322,523 322.6,523.7 322.6,524.3 322.6,525 323.3,525.6 323.3,526.3 323.9,526.9 
		324.6,527.6 324.6,528.2 325.2,528.9 325.2,529.5 325.9,529.5 326.5,528.9 326.5,528.2 327.2,527.6 327.2,526.9 327.2,526.3 
		327.8,525.6 327.8,525 328.5,524.3 328.5,523.7 328.5,523 329.1,522.4 329.1,521.8 329.7,521.1 329.7,519.8 330.4,519.2 
		330.4,518.5 331,517.9 331,517.2 331.7,516.6 331.7,515.9 331.7,515.3 332.3,514 333,513.4 333,512.7 333,512.1 333.6,511.4 
		333.6,510.8 333.6,510.1 333.6,509.5 334.3,509.5 334.3,508.8 334.3,508.2 334.9,507.5 334.9,506.9 335.5,506.3 335.5,505.6 
		336.2,505.6 336.9,505.6 337.5,504.9 337.5,504.3 337.5,503.7 336.9,503.7 	"/>
	<path class="st0" d="M359.4,509.5h-0.6v-0.7h-0.7v-0.7v-0.7l-0.7-0.6v-0.7l-0.7-0.7l-0.6-0.7v-0.7h-0.7l-0.7-0.6V503h-0.7h-0.7
		l-0.6-0.7h-0.7h-0.7h-0.7h-0.7h-0.6h-0.7l-0.7,0.7h-0.7h-0.7v0.7h-0.6l-0.7,0.6l-0.7,0.7h-0.7v0.7l-0.6,0.7l-0.7,0.7v0.6h-0.7v0.7
		v0.7l-0.7,0.7v0.7v0.6l-0.7,0.7v0.7v0.7v0.7v0.6v0.7v0.7l-0.6,0.7v0.6v0.7l0.6,0.7v0.7v0.7v0.6v0.7v0.7v0.7l0.7,0.7v0.6v0.7
		l0.7,0.7v0.7h0.7v0.7l0.7,0.6v0.7h0.6l0.7,0.7l0.7,0.7h0.7v0.7h0.6h0.7v0.6h0.7h0.7h0.7h0.6h0.7h0.7h0.7h0.7v-0.6h0.6h0.7h0.7v-0.7
		h0.7l0.7-0.7h0.6v-0.7h0.7l0.7-0.7l0.7-0.6l0.6-0.7l0.7-0.7v-0.7V523l-0.7-0.6h-0.6v0.6h-0.7l-0.7,0.7l-0.7,0.7h-0.6l-0.7,0.7h-0.7
		h-0.7v0.7h-0.7H353h-0.7h-0.7h-0.7h-0.7h-0.6l-0.7-0.7l-0.7-0.7l-0.7-0.7l-0.7-0.7v-0.6l-0.6-0.7v-0.7v-0.7l-0.7-0.7v-0.6v-0.7
		v-0.7l11.6-4.5v-0.7h0.7l0.7-0.7h0.6v-0.7h0.7v-0.7v-0.6h-0.7V509.5z M354.3,510.1l-0.7,0.6v0.7l-0.6,0.7h-0.7l-7.1,3.2V514v-0.6
		v-0.7l0.7-0.7v-0.7v-1.3v-0.7v-0.7l0.7-0.7v-0.7l0.6-0.6v-0.7h0.7l0.7-0.7h0.7h0.7h0.6h0.7h0.7l0.7,0.7l0.7,0.7l0.6,0.6v0.7v0.7
		l0.7,0.7V510.1z"/>
	<path class="st0" d="M302.6,577.6c-1.1,0-2,0.9-2,2c0,28.3-23,51.3-51.3,51.3c-0.6,0-1.1,0.3-1.5,0.7h-333
		c-0.4-0.4-0.9-0.7-1.5-0.7c-28.3,0-51.3-23-51.3-51.3c0-1.1-0.9-2-2-2s-2,0.9-2,2c0,30.1,24.2,54.6,54.1,55.3
		c0.4,0.4,0.9,0.7,1.5,0.7h335.9c0.6,0,1.1-0.3,1.5-0.7c29.6-1,53.5-25.4,53.5-55.2C304.6,578.5,303.7,577.6,302.6,577.6z"/>
	<path class="st0" d="M-23.6,596.7v-0.7h0.6l0.7-0.7h0.7l0.7-0.7l0.7-0.7h0.6l0.7-0.6v-0.7v-0.7h-0.7h-0.6h-0.7h-0.7v-0.7l-0.7-0.7
		v-0.6V565v-0.7v-0.7v-0.7v-0.6v-0.7v-0.7v-0.7v-0.7v-0.6v-0.7v-0.7v-0.7v-0.6V556v-0.7H-23h-0.6l-0.7,0.7l-0.7,0.7h-0.7v0.6h-0.7
		l-0.6,0.7h-0.7h-0.7v0.7l-0.7,0.7h0.7v0.6h0.7v0.7h0.7h0.6v0.7h0.7v0.7v0.7v1.3v9v0.7h-0.7h-0.6h-0.7h-0.7h-0.7h-0.6v-0.7h-0.7
		h-0.7h-0.7v0.7H-32h-0.6h-0.7v0.7H-34l-0.7,0.7l-0.7,0.6h-0.6v0.7l-0.7,0.7l-0.7,0.7v0.7l-0.7,0.6v0.7v0.7h-0.7v0.7v0.7v0.6v0.7
		h-0.6v0.7v0.7v0.6v0.7v0.7v0.7l0.6,0.7v0.6v0.7v0.7v0.7l0.7,0.7v0.6v0.7h0.7v0.7v0.7h0.7v0.7h0.7v0.6h0.6v0.7h0.7v0.7h0.7h0.7
		l0.7,0.7h0.6h0.7h0.7l0.7-0.7h0.7l0.6-0.7h0.7v-0.7h1.3v-0.6h0.6h0.7l0.7,0.6v0.7v0.7l0.7,0.7v0.7H-23.6z M-25.6,579.9v9.7v0.7
		l-0.7,0.6l-0.6,0.7h-0.7l-0.7,0.7h-0.7h-0.6h-0.7h-0.7h-0.7v-0.7H-32l-0.6-0.7l-0.7-0.6v-0.7H-34v-0.7l-0.7-0.7v-0.7V587l-0.7-0.7
		v-0.7v-0.7v-0.7v-0.6v-0.7v-0.7v-0.7v-0.6v-0.7v-0.7l0.7-0.7v-0.7V578l0.7-0.7v-0.7h0.7l0.7-0.7h0.6h0.7h0.7h0.7h0.7h0.6l0.7,0.7
		h0.7v0.7h0.7v0.7h0.6v0.6l0.7,0.7V579.9z"/>
	<polygon class="st0" points="-10.7,581.8 -10.1,581.2 -10.1,580.5 -10.1,579.9 -10.1,579.2 -9.4,578.6 -8.8,578 -8.1,578 -7.5,578 
		-6.8,578 -6.2,578.6 -5.5,578.6 -4.9,578.6 -4.3,578.6 -3.6,578.6 -3.6,578 -3.6,577.3 -3,576.7 -3,576 -3,575.4 -3,574.7 
		-3.6,574.1 -3.6,573.4 -4.3,573.4 -4.9,573.4 -5.5,573.4 -6.2,573.4 -6.8,574.1 -7.5,574.1 -8.1,574.7 -8.8,575.4 -9.4,576 
		-10.1,576 -10.1,576.7 -10.7,576.7 -10.7,576 -10.7,575.4 -10.7,574.7 -10.7,574.1 -10.7,573.4 -11.4,573.4 -11.4,572.8 -12,572.8 
		-12.7,573.4 -12.7,574.1 -13.3,574.1 -14,574.7 -14.6,574.7 -14.6,575.4 -15.2,575.4 -15.9,576 -16.5,576 -16.5,576.7 -16.5,577.3 
		-15.9,577.3 -15.9,578 -15.2,578 -14.6,578.6 -14,579.2 -14,579.9 -14,580.5 -14,581.8 -14,590.9 -14,591.5 -14,592.2 -14,592.8 
		-14.6,592.8 -14.6,593.5 -15.2,593.5 -15.9,594.1 -15.9,594.7 -15.9,595.4 -15.2,595.4 -14.6,595.4 -14,595.4 -13.3,595.4 
		-12.7,595.4 -12,595.4 -11.4,595.4 -10.7,595.4 -10.1,595.4 -9.4,595.4 -8.8,595.4 -8.1,595.4 -7.5,595.4 -6.8,595.4 -6.2,594.7 
		-6.8,594.1 -7.5,593.5 -8.1,593.5 -8.8,592.8 -9.4,592.8 -10.1,592.8 -10.1,592.2 -10.1,591.5 -10.1,590.9 -10.7,590.2 
		-10.7,582.5 	"/>
	<polygon class="st0" points="2.8,581.2 2.8,581.8 2.8,582.5 2.8,583.1 2.8,590.2 2.8,590.9 2.8,591.5 2.8,592.2 2.8,592.8 
		2.2,592.8 2.2,593.5 1.5,593.5 0.9,594.1 0.9,594.7 0.9,595.4 1.5,595.4 2.2,595.4 2.8,595.4 3.5,595.4 4.1,595.4 4.8,595.4 
		5.4,595.4 6.1,595.4 6.7,595.4 7.4,595.4 8,595.4 8.7,595.4 9.3,595.4 9.3,594.7 9.3,594.1 9.3,593.5 8.7,593.5 8,593.5 7.4,592.8 
		6.7,592.2 6.7,591.5 6.1,590.9 6.1,590.2 6.1,589.6 6.1,588.9 6.1,588.3 6.1,587.6 6.1,587 6.1,586.4 6.1,585.7 6.1,585.1 
		6.1,584.4 6.1,583.8 6.1,583.1 6.1,582.5 6.1,581.8 6.1,581.2 6.1,580.5 6.1,579.9 6.1,579.2 6.1,578.6 6.1,578 6.1,577.3 
		6.1,576.7 6.1,576 6.1,575.4 6.1,574.7 6.1,574.1 6.1,573.4 6.1,572.8 5.4,572.8 5.4,573.4 4.8,573.4 4.1,574.1 3.5,574.7 
		2.8,574.7 2.8,575.4 2.2,575.4 1.5,576 0.9,576 0.3,576.7 0.3,577.3 0.3,578 0.9,578 1.5,578.6 2.2,578.6 2.2,579.2 2.8,579.9 
		2.8,580.5 	"/>
	<polygon class="st0" points="6.1,560.5 5.4,559.9 4.8,559.9 4.8,560.5 4.1,560.5 3.5,561.2 3.5,561.8 2.8,561.8 2.8,562.5 
		2.8,563.1 2.8,563.7 2.8,564.4 2.8,565 3.5,565.7 4.1,566.3 4.8,566.3 5.4,566.3 6.1,565.7 6.7,565 6.7,564.4 7.4,563.7 7.4,563.1 
		7.4,562.5 7.4,561.8 7.4,561.2 6.7,561.2 6.7,560.5 	"/>
	<polygon class="st0" points="22.9,594.7 22.9,594.1 23.5,594.1 23.5,593.5 23.5,592.8 24.2,592.2 24.2,591.5 24.8,590.9 
		24.8,590.2 24.8,589.6 25.5,588.9 25.5,588.3 26.1,587.6 26.1,587 26.1,586.4 26.7,585.7 26.7,585.1 27.4,584.4 27.4,583.8 
		28,583.1 28,582.5 28,581.8 28,581.2 28.7,581.2 28.7,580.5 28.7,579.9 28.7,579.2 29.3,579.2 29.3,578.6 29.3,578 29.3,577.3 
		30,577.3 30,576.7 30.6,576 31.3,576 31.3,575.4 31.9,575.4 31.9,574.7 32.6,574.7 31.9,574.1 31.3,574.1 30.6,574.1 30,574.1 
		29.3,574.1 28.7,574.1 28,574.1 27.4,574.1 26.7,574.1 26.1,573.4 25.5,573.4 25.5,574.1 25.5,574.7 25.5,575.4 26.1,575.4 
		26.7,576 27.4,576.7 27.4,577.3 26.7,578 26.7,578.6 26.7,579.2 26.7,579.9 26.1,579.9 26.1,580.5 26.1,581.2 26.1,581.8 
		25.5,582.5 25.5,583.1 24.8,583.8 24.8,584.4 24.8,585.1 24.2,585.7 24.2,586.4 23.5,587.6 23.5,588.3 22.9,588.9 22.2,588.9 
		22.2,588.3 21.6,587.6 21.6,587 20.9,585.7 20.9,585.1 20.3,584.4 20.3,583.8 19.7,583.1 19.7,582.5 19.7,581.8 19,581.2 19,580.5 
		19,579.9 18.4,579.2 18.4,578.6 18.4,578 17.7,577.3 17.7,576.7 18.4,576 19,576 19.7,575.4 20.3,575.4 20.3,574.7 20.3,574.1 
		20.3,573.4 19.7,573.4 19,573.4 18.4,574.1 17.7,574.1 17,574.1 16.4,574.1 15.8,574.1 15.1,574.1 14.5,574.1 13.8,574.1 
		13.2,574.1 12.5,574.1 11.9,574.1 11.9,574.7 11.9,575.4 12.5,575.4 13.2,576 13.8,576.7 13.8,577.3 14.5,578 14.5,578.6 
		14.5,579.2 15.1,579.9 15.1,580.5 15.8,581.2 15.8,581.8 15.8,582.5 16.4,583.1 16.4,583.8 16.4,584.4 17,585.1 17,585.7 
		17.7,586.4 17.7,587 18.4,587.6 18.4,588.3 18.4,588.9 19,588.9 19,589.6 19,590.2 19.7,590.9 19.7,591.5 20.3,591.5 20.3,592.2 
		20.3,592.8 20.9,593.5 20.9,594.1 21.6,594.7 21.6,595.4 22.2,595.4 22.9,595.4 	"/>
	<path class="st0" d="M39,574.7h-0.6v0.6h-0.7v0.7l-0.7,0.7v0.7h-0.7v0.7v0.6l-0.7,0.7v0.7v0.7v0.7h-0.6v0.6v0.7v0.7v0.7v0.6v0.7
		v0.7v0.7v0.7v0.6v0.7l0.6,0.7v0.7v0.7l0.7,0.6v0.7l0.7,0.7l0.7,0.7v0.7h0.7v0.6H39v0.7h0.7l0.7,0.7H41h0.6h0.7h0.7h0.7h0.7h0.6h0.7
		l0.7-0.7h0.7l0.7-0.7h0.6l0.7-0.6l0.7-0.7l0.7-0.7h0.7v-0.7v-0.7v-0.6v-0.7H50v0.7h-0.7l-0.7,0.6l-0.7,0.7h-0.6l-0.7,0.7h-0.7h-0.7
		h-0.7v0.7h-0.6h-0.7v-0.7h-0.7h-0.7l-0.7-0.7l-0.6-0.7l-0.7-0.6v-0.7l-0.7-0.7v-0.7v-0.7L39,587v-0.7v-0.7l9.7-3.9h0.7l0.7-0.6h0.7
		v-0.7v-0.7v-0.7H50v-0.7V578h-0.7v-0.7v-0.7l-0.7-0.7l-0.7-0.7v-0.6h-0.6v-0.7h-0.7l-0.7-0.7h-0.7l-0.7-0.7h-0.6h-0.7h-0.7h-0.7
		l-0.7,0.7H41h-0.7v0.7h-0.7L39,574.7z M41,576h0.6v-0.7h0.7h0.7h0.7l0.7,0.7h0.6v0.7h0.7v0.7v0.7h0.7v0.6v0.7v0.7l-0.7,0.7
		l-0.7,0.7l-5.8,2.6v-0.7v-0.7v-0.7v-0.6v-0.7v-0.7v-0.7v-0.7l0.7-0.6v-0.7l0.7-0.7L41,576z"/>
	<polygon class="st0" points="64.9,581.8 64.9,582.5 64.9,583.1 64.9,583.8 64.9,584.4 64.9,585.1 64.9,585.7 64.9,586.4 64.9,587 
		64.9,587.6 64.9,588.3 64.9,588.9 65.5,589.6 65.5,590.2 65.5,590.9 66.2,591.5 66.2,592.2 66.8,592.2 66.8,592.8 66.8,593.5 
		67.4,593.5 67.4,594.1 68.1,594.1 68.8,594.7 69.4,594.7 70,595.4 70.7,595.4 71.3,595.4 71.3,596.1 72,596.1 72.6,596.1 
		73.3,596.1 73.9,596.1 74.6,595.4 75.2,595.4 75.8,595.4 76.5,594.7 77.1,594.7 77.8,594.1 78.4,593.5 79.1,592.8 79.7,592.2 
		79.7,591.5 79.7,590.9 79.1,590.9 78.4,591.5 77.8,591.5 77.8,592.2 77.1,592.2 76.5,592.8 75.8,592.8 75.2,592.8 74.6,592.8 
		73.9,592.8 73.3,592.8 72.6,592.8 72.6,592.2 72,592.2 71.3,592.2 71.3,591.5 70.7,591.5 70.7,590.9 70,590.2 70,589.6 69.4,589.6 
		69.4,588.9 69.4,588.3 68.8,587.6 68.8,587 68.8,586.4 68.8,585.7 68.8,585.1 68.8,584.4 68.8,583.8 68.8,583.1 68.8,582.5 
		68.8,581.8 68.8,581.2 68.8,580.5 68.8,579.9 68.8,579.2 69.4,579.2 69.4,578.6 69.4,578 70,578 70,577.3 70.7,576.7 71.3,576 
		72,576 72.6,576 73.3,576 73.9,576 74.6,576.7 75.2,577.3 75.8,577.3 75.8,578 76.5,578 76.5,578.6 77.1,579.2 77.8,579.2 
		78.4,578.6 79.1,578 79.1,577.3 79.7,576.7 79.7,576 79.7,575.4 79.1,575.4 79.1,574.7 78.4,574.7 77.8,574.1 77.1,574.1 
		77.1,573.4 76.5,573.4 75.8,573.4 75.2,573.4 74.6,573.4 73.9,573.4 73.3,573.4 72.6,573.4 72,573.4 71.3,573.4 70.7,574.1 
		70,574.1 70,574.7 69.4,574.7 68.8,575.4 68.1,575.4 68.1,576 67.4,576 67.4,576.7 66.8,577.3 66.8,578 66.2,578 66.2,578.6 
		66.2,579.2 65.5,579.2 65.5,579.9 65.5,580.5 65.5,581.2 64.9,581.2 	"/>
	<polygon class="st0" points="95.2,572.8 94.6,572.8 94,572.8 93.3,573.4 92.6,573.4 92,574.1 91.3,574.1 91.3,574.7 90.7,574.7 
		90.1,575.4 89.4,576 88.8,576 88.8,575.4 88.8,574.7 88.8,565 88.8,564.4 88.8,563.7 88.8,563.1 88.8,562.5 88.8,561.8 88.8,561.2 
		88.8,560.5 88.8,559.9 88.8,559.2 88.8,558.6 88.8,557.9 88.8,557.3 88.8,556.7 88.8,556 88.8,555.3 88.1,555.3 87.5,555.3 
		86.8,556 86.2,556 86.2,556.7 85.5,556.7 84.9,557.3 84.3,557.3 84.3,557.9 83.6,557.9 83,558.6 82.3,559.2 83,559.9 83.6,560.5 
		84.3,560.5 84.3,561.2 84.9,561.2 84.9,561.8 84.9,562.5 85.5,563.1 85.5,563.7 85.5,564.4 85.5,565 85.5,590.9 85.5,591.5 
		85.5,592.2 85.5,592.8 84.9,592.8 84.9,593.5 84.3,593.5 83.6,594.1 83,594.7 83,595.4 83.6,595.4 84.3,595.4 84.9,595.4 
		85.5,595.4 86.2,595.4 86.8,595.4 87.5,595.4 88.1,595.4 88.8,595.4 89.4,595.4 90.1,595.4 90.7,595.4 91.3,595.4 92,595.4 
		92,594.7 92,594.1 91.3,593.5 90.7,593.5 90.1,593.5 89.4,592.8 89.4,592.2 88.8,592.2 88.8,591.5 88.8,590.9 88.8,579.9 
		88.8,579.2 88.8,578.6 89.4,578.6 90.1,578 90.7,577.3 91.3,577.3 91.3,576.7 92,576.7 92.6,576.7 93.3,576.7 94,576.7 94.6,576.7 
		95.2,576.7 95.9,577.3 96.5,577.3 96.5,578 97.2,578.6 97.2,579.2 97.2,579.9 97.8,579.9 97.8,580.5 97.8,581.2 97.8,581.8 
		97.8,582.5 97.8,583.1 97.8,590.9 97.8,591.5 97.8,592.2 97.8,592.8 97.2,593.5 96.5,593.5 95.9,594.1 95.9,594.7 95.9,595.4 
		96.5,595.4 97.2,595.4 97.8,595.4 98.5,595.4 99.1,595.4 99.8,595.4 100.4,595.4 101,595.4 101.7,595.4 102.3,595.4 103,595.4 
		103.6,595.4 104.3,595.4 104.9,595.4 104.9,594.7 104.3,594.1 103.6,594.1 103,593.5 102.3,593.5 101.7,592.8 101.7,592.2 
		101,591.5 101,590.9 101,581.2 101,580.5 101,579.9 101,579.2 101,578.6 101,578 100.4,577.3 100.4,576.7 100.4,576 99.8,575.4 
		99.8,574.7 99.1,574.7 99.1,574.1 98.5,573.4 97.8,573.4 97.2,573.4 97.2,572.8 96.5,572.8 95.9,572.8 	"/>
	<path class="st0" d="M117.2,579.2v0.7v1.9v0.7l-0.7,0.7h-0.7l-0.6,0.7h-0.7H114l-0.7,0.6h-0.7H112l-0.7,0.7h-0.7l-0.7,0.7h-0.7v0.7
		h-0.6v0.7l-0.7,0.6v0.7h-0.7v0.7v0.7v0.7v0.6v0.7v0.7v0.7l0.7,0.7v0.6h0.7v0.7l0.6,0.7h0.7h0.7v0.7h0.7h0.7l0.6-0.7h0.7h0.7h0.7
		v-0.7h0.7l0.6-0.7h0.7v-0.6h0.7l0.7,0.6v0.7h0.7v0.7h0.6h0.7h0.7l0.7-0.7h0.6l0.7-0.7l0.7-0.6h0.7v-0.7v-0.7v-0.7H123h-0.7h-0.7
		h-0.6h-0.7v-0.7v-0.6v-11.7V578v-0.7v-0.7l-0.7-0.7v-0.7v-0.6h-0.7v-0.7l-0.6-0.7h-0.7h-0.7v-0.7h-0.7h-0.7h-0.6l-0.7,0.7H114h-0.7
		l-0.7,0.7H112l-0.7,0.7h-0.7v0.6h-0.7l-0.7,0.7l-0.6,0.7v0.7l-0.7,0.7v0.6l0.7,0.7v0.7h0.6h0.7h0.7l0.7-0.7l0.7-0.7V578l0.6-0.7
		v-0.7l0.7-0.7l0.7-0.7h0.7h0.7l0.6,0.7l0.7,0.7v0.7l0.7,0.7v0.6V579.2z M117.2,585.7v0.7v4.5v0.7h-0.7v0.7h-0.7l-0.6,0.7h-0.7H114
		h-0.7h-0.7l-0.6-0.7h-0.7v-0.7v-0.7l-0.7-0.6v-0.7v-0.7h0.7v-0.7v-0.7h0.7V587l0.6-0.7h0.7l0.7-0.7h0.7l0.7-0.7h0.6h0.7h0.7V585.7z
		"/>
	<polygon class="st0" points="130.8,572.8 130.8,573.4 130.1,573.4 129.5,574.1 128.8,574.7 128.2,575.4 127.5,575.4 127.5,576 
		126.9,576 126.2,576.7 126.2,577.3 126.9,578 127.5,578 128.2,578.6 128.8,578.6 128.8,579.2 128.8,579.9 128.8,580.5 128.8,581.8 
		128.8,590.2 128.8,590.9 128.8,591.5 128.8,592.2 128.8,592.8 128.2,593.5 128.2,594.1 127.5,594.1 126.9,594.1 126.9,594.7 
		126.9,595.4 126.9,596.1 127.5,596.1 128.2,596.1 128.2,595.4 128.8,595.4 129.5,595.4 130.1,595.4 130.8,595.4 131.4,595.4 
		132,595.4 132.7,595.4 133.4,595.4 134,595.4 134.6,595.4 135.3,595.4 135.9,595.4 135.9,594.7 135.9,594.1 135.3,593.5 
		134.6,593.5 134,593.5 133.4,592.8 132.7,592.2 132.7,591.5 132,590.9 132,580.5 132.7,579.9 132.7,579.2 132.7,578.6 133.4,578.6 
		134,578 134.6,577.3 135.3,577.3 135.9,577.3 135.9,576.7 136.6,576.7 137.2,576.7 137.9,576.7 138.5,576.7 139.2,577.3 
		139.8,577.3 139.8,578 140.4,578 140.4,578.6 140.4,579.2 141.1,579.2 141.1,579.9 141.1,580.5 141.1,581.2 141.7,581.8 
		141.7,582.5 141.7,583.1 141.7,590.9 141.7,591.5 141.1,592.2 141.1,592.8 141.1,593.5 140.4,593.5 139.8,594.1 139.2,594.1 
		139.2,594.7 139.2,595.4 139.8,595.4 140.4,595.4 141.1,595.4 141.7,595.4 142.4,595.4 143,595.4 143.7,595.4 144.3,595.4 
		145,595.4 145.6,595.4 146.3,595.4 146.9,595.4 147.6,595.4 148.2,595.4 148.2,594.7 148.2,594.1 147.6,594.1 146.9,593.5 
		146.3,593.5 145.6,593.5 145.6,592.8 145,592.8 145,592.2 145,591.5 145,590.9 145,590.2 145,581.2 145,580.5 145,579.9 
		144.3,579.2 144.3,578.6 144.3,578 144.3,577.3 144.3,576.7 143.7,576 143.7,575.4 143,575.4 143,574.7 142.4,574.1 141.7,574.1 
		141.7,573.4 141.1,573.4 140.4,573.4 139.8,573.4 139.2,572.8 139.2,573.4 138.5,573.4 137.9,573.4 137.2,573.4 136.6,573.4 
		136.6,574.1 135.9,574.1 135.3,574.1 135.3,574.7 134.6,574.7 134,575.4 133.4,576 132.7,576 132.7,576.7 132,576 132,575.4 
		132,574.7 132,574.1 131.4,573.4 131.4,572.8 	"/>
	<polygon class="st0" points="155.9,574.1 155.9,573.4 155.3,572.8 154.7,573.4 154,574.1 153.4,574.1 153.4,574.7 152.7,574.7 
		152.1,575.4 151.4,576 150.8,576 150.8,576.7 150.1,576.7 150.8,577.3 150.8,578 151.4,578 152.1,578 152.1,578.6 152.7,578.6 
		152.7,579.2 152.7,579.9 153.4,579.9 153.4,580.5 153.4,581.8 153.4,590.2 153.4,590.9 153.4,591.5 152.7,592.2 152.7,592.8 
		152.7,593.5 152.1,593.5 152.1,594.1 151.4,594.1 150.8,594.7 150.8,595.4 151.4,596.1 152.1,596.1 152.7,595.4 153.4,595.4 
		154,595.4 154.7,595.4 155.3,595.4 155.9,595.4 156.6,595.4 157.2,595.4 157.9,595.4 158.6,595.4 159.2,595.4 159.8,595.4 
		159.8,594.7 159.8,594.1 159.8,593.5 159.2,593.5 158.6,593.5 157.9,593.5 157.2,592.8 156.6,592.2 156.6,591.5 156.6,590.9 
		156.6,580.5 156.6,579.9 156.6,579.2 157.2,578.6 157.9,578 158.6,577.3 159.2,577.3 159.8,577.3 160.5,576.7 161.1,576.7 
		161.8,576.7 162.4,576.7 163.1,577.3 163.7,577.3 163.7,578 164.4,578 165,578.6 165,579.2 165,579.9 165.6,580.5 165.6,581.2 
		165.6,581.8 165.6,582.5 165.6,583.1 165.6,590.9 165.6,591.5 165.6,592.2 165,592.8 165,593.5 164.4,593.5 164.4,594.1 
		163.7,594.1 163.1,594.7 163.1,595.4 163.7,595.4 164.4,595.4 165,595.4 165.6,595.4 166.3,595.4 166.9,595.4 167.6,595.4 
		168.2,595.4 168.9,595.4 169.5,595.4 170.2,595.4 170.8,595.4 171.5,595.4 172.1,595.4 172.8,594.7 172.1,594.1 171.5,594.1 
		170.8,593.5 170.2,593.5 169.5,593.5 169.5,592.8 168.9,592.2 168.9,591.5 168.9,590.9 168.9,590.2 168.9,581.2 168.9,580.5 
		168.9,579.9 168.9,579.2 168.9,578.6 168.9,578 168.2,577.3 168.2,576.7 168.2,576 167.6,576 167.6,575.4 166.9,574.7 166.9,574.1 
		166.3,574.1 165.6,573.4 165,573.4 164.4,573.4 163.7,573.4 163.1,572.8 163.1,573.4 162.4,573.4 161.8,573.4 161.1,573.4 
		160.5,574.1 159.8,574.1 159.2,574.7 158.6,574.7 157.9,575.4 157.2,576 156.6,576 155.9,575.4 155.9,574.7 	"/>
	<path class="st0" d="M183.7,572.8h-0.6h-0.7h-0.7h-0.7v0.7h-0.7h-0.6l-0.7,0.7h-0.7l-0.7,0.7l-0.6,0.6l-0.7,0.7v0.7l-0.7,0.7v0.7
		l-0.7,0.6v0.7l-0.7,0.7v0.7v0.7v0.6v0.7l-0.6,0.7v0.7v0.6v0.7v0.7v0.7l0.6,0.7v0.6v0.7v0.7v0.7l0.7,0.7v0.6l0.7,0.7v0.7h0.7v0.7
		v0.7h0.7v0.6h0.6l0.7,0.7h0.7v0.7h0.7h0.6h0.7h0.7h0.7h0.7h0.6h0.7h0.7v-0.7h0.7h0.7v-0.7h0.6l0.7-0.6l0.7-0.7h0.7v-0.7h0.7v-0.7
		h0.6v-0.7v-0.6l-0.6-0.7l-0.7,0.7h-0.7v0.6h-0.7l-0.7,0.7h-0.6l-0.7,0.7H185h-0.7l-0.7,0.7h-0.6l-0.7-0.7h-0.7h-0.7l-0.7-0.7v-0.7
		h-0.6v-0.6h-0.7v-0.7v-0.7h-0.7v-0.7v-0.7V587v-0.7l-0.7-0.7l9.7-3.9h0.7h0.7l0.7-0.6v-0.7h0.6v-0.7l-0.6-0.7l-0.7-0.7V578
		l-0.7-0.7v-0.7V576h-0.7v-0.7l-0.7-0.6l-0.6-0.7h-0.7l-0.7-0.7h-0.7v-0.7H183.7z M185,578v0.6v0.7v0.7v0.7h-0.7v0.7h-0.7l-5.8,2.6
		v-0.7v-0.7v-0.7v-0.6v-0.7v-0.7l0.7-0.7v-0.7V578l0.7-0.7v-0.7h0.7V576h0.6v-0.7h0.7h0.7h0.7l0.7,0.7h0.6l0.7,0.7v0.7L185,578z"/>
	<polygon class="st0" points="196,564.4 196,565 196,590.9 196,591.5 196,592.2 195.4,592.8 195.4,593.5 194.7,593.5 194.1,594.1 
		193.4,594.7 193.4,595.4 194.1,595.4 194.7,595.4 195.4,595.4 196,595.4 196.7,595.4 197.3,595.4 198,595.4 198.6,595.4 
		199.2,595.4 199.9,595.4 200.5,595.4 201.2,595.4 201.8,595.4 202.5,595.4 203.1,595.4 203.1,594.7 203.1,594.1 202.5,593.5 
		201.8,593.5 201.2,593.5 200.5,592.8 199.9,592.8 199.9,592.2 199.9,591.5 199.2,591.5 199.2,590.9 199.2,590.2 199.2,565 
		199.2,564.4 199.2,563.7 199.2,563.1 199.2,562.5 199.2,561.8 199.2,561.2 199.2,560.5 199.2,559.9 199.2,559.2 199.2,558.6 
		199.2,557.3 199.2,556.7 199.2,556 199.2,555.3 198.6,555.3 198,555.3 197.3,556 196.7,556.7 196,557.3 195.4,557.3 194.7,557.9 
		194.1,557.9 194.1,558.6 193.4,558.6 193.4,559.2 193.4,559.9 194.1,560.5 194.7,561.2 195.4,561.8 195.4,562.5 196,563.1 
		196,563.7 	"/>
	<polygon class="st0" points="27.1,57.7 27.7,58.3 28.4,58.3 28.4,59 28.4,59.7 28.4,60.3 28.4,61.6 28.4,73.9 28.4,74.5 28.4,75.2 
		28.4,75.8 29,76.4 29,77.1 29,77.7 29,78.4 29.7,78.4 29.7,79 29.7,79.7 30.3,79.7 30.3,80.3 30.9,80.3 30.9,81 31.6,81 32.2,81 
		32.2,81.6 32.9,81.6 33.5,81.6 34.2,81.6 34.8,81.6 35.5,81.6 36.1,81 36.8,81 37.4,81 38.1,80.3 38.7,79.7 39.4,79.7 40,79 
		40,78.4 40,77.7 40,77.1 39.4,77.1 38.7,77.7 38.1,77.7 37.4,77.7 36.8,77.7 36.1,77.7 35.5,77.7 34.8,77.7 34.2,77.7 33.5,77.1 
		32.9,76.4 32.9,75.8 32.9,75.2 32.9,74.5 32.2,73.9 32.2,73.2 32.2,72.6 32.2,71.3 32.2,60.3 32.2,59.7 32.2,59 32.9,58.3 
		33.5,58.3 37.4,58.3 38.1,58.3 38.7,57.7 39.4,57.1 39.4,56.4 39.4,55.1 39.4,54.5 33.5,54.5 32.9,54.5 32.9,53.8 32.9,49.3 
		32.2,48.7 31.6,48.7 30.9,48.7 30.9,49.3 30.3,50 30.3,50.6 29.7,51.2 29.7,51.9 29,52.5 28.4,53.2 28.4,53.8 27.7,53.8 27.7,54.5 
		27.1,54.5 26.4,55.1 25.8,55.8 25.8,56.4 25.8,57.1 26.4,57.7 	"/>
	<path class="st0" d="M44.5,73.9v0.7l0.7,0.7v0.7v0.6h0.7v0.7l0.6,0.7l0.7,0.7l0.7,0.7v0.6h0.7h0.7v0.7h0.6h0.7L51,81h0.7h0.6h0.7
		h0.7h0.7h0.7h0.6h0.7h0.7h0.7l0.7-0.7h0.6l0.7-0.7L60,79h0.7v-0.7h0.7l0.6-0.7v-0.7h0.7v-0.7l0.7-0.6v-0.7l0.7-0.7v-0.7l0.7-0.7
		v-0.6v-0.7l0.6-0.7v-0.7V70v-0.6v-0.7V68v-0.7v-0.7v-0.6v-0.7v-0.7v-0.7v-0.6v-0.7l-0.6-0.7v-0.7v-0.7l-0.7-0.6v-0.7L63.3,59v-0.7
		l-0.7-0.7l-0.7-0.6l-0.6-0.7l-0.7-0.7H60l-0.7-0.7h-0.7h-0.6v-0.7h-0.7h-0.7h-0.7h-0.7h-0.6h-0.7h-0.7h-0.7h-0.7l-0.6,0.7H51
		l-0.7,0.7h-0.7v0.7h-0.6l-0.7,0.7l-0.7,0.6l-0.7,0.7L46.4,59v0.7h-0.6v0.7l-0.7,0.6v0.7v0.7l-0.7,0.7v0.7l-0.7,0.6v0.7v0.7v0.7v0.6
		V68v0.7v0.7V70v0.7v0.7v0.7v0.7l0.7,0.6V73.9z M48.4,70.6V70v-0.6v-0.7V68v-1.3v-0.6v-0.7v-0.7v-0.7v-0.6v-0.7l0.7-0.7v-0.7v-0.7
		l0.6-0.6l0.7-0.7V59H51l0.7-0.7l0.6-0.7h0.7h0.7h0.7h0.7h0.6h0.7l0.7,0.7l0.7,0.7h0.7v0.7l0.6,0.7v0.6h0.7v0.7v0.7l0.7,0.7v0.7
		l0.7,0.6v0.7v0.7v0.7v1.3V68v0.7v0.7V70v1.3v0.7v0.7v0.6L60,73.9v0.7l-0.7,0.7v0.7h-0.7v0.6l-0.6,0.7l-0.7,0.7h-0.7l-0.7,0.7h-0.7
		h-0.6h-0.7l-0.7-0.7h-0.7h-0.7v-0.7h-0.6L51,76.4l-0.7-0.6v-0.7l-0.7-0.7v-0.7h-0.6v-0.7v-0.6v-0.7l-0.7-0.7V70.6z"/>
	<polygon class="st0" points="71,60.3 71.6,60.3 72.3,60.9 72.3,61.6 72.9,62.2 72.9,62.9 72.9,63.5 72.9,64.2 72.9,74.5 72.9,75.8 
		72.9,76.4 72.9,77.1 72.3,77.7 72.3,78.4 71.6,79 71,79 70.4,79.7 70.4,80.3 70.4,81 70.4,81.6 71,81.6 71.6,81.6 72.3,81.6 
		72.9,81 73.6,81 74.2,81 74.9,81 75.5,81 76.2,81 76.8,81 77.5,81 78.1,81 78.8,81 79.4,81 80.1,81 80.7,81 81.3,80.3 81.3,79.7 
		80.7,79 80.1,79 79.4,79 78.8,78.4 78.1,78.4 77.5,77.7 77.5,77.1 76.8,76.4 76.8,75.8 76.8,75.2 76.8,62.9 76.8,62.2 77.5,61.6 
		77.5,60.9 78.1,60.3 78.8,60.3 78.8,59.7 79.4,59.7 80.1,59.7 80.1,59 80.7,59 81.3,59 82,59 82.6,58.3 83.3,58.3 83.9,59 84.6,59 
		85.2,59 85.2,59.7 85.9,59.7 86.5,60.3 86.5,60.9 87.1,60.9 87.1,61.6 87.1,62.2 87.8,62.9 87.8,63.5 87.8,64.2 87.8,64.8 
		87.8,65.5 87.8,66.1 87.8,75.2 87.8,75.8 87.8,76.4 87.8,77.1 87.8,77.7 87.1,78.4 86.5,79 85.9,79 85.2,79 85.2,79.7 85.2,80.3 
		85.2,81 85.9,81 86.5,81 87.1,81 87.8,81 88.5,81 89.1,81 89.7,81 90.4,81 91,81 91.7,81 92.3,81 93,81 93.6,81 94.3,81 94.9,81 
		95.5,81 96.2,81 96.2,80.3 96.2,79.7 95.5,79.7 94.9,79 94.3,79 93.6,79 93,78.4 92.3,77.7 92.3,77.1 91.7,76.4 91.7,75.8 
		91.7,75.2 91.7,64.2 91.7,63.5 91.7,62.9 91.7,62.2 91.7,61.6 91.7,60.9 91.7,60.3 91,59.7 91,59 91,58.3 91,57.7 90.4,57.7 
		90.4,57.1 89.7,56.4 89.1,55.8 88.5,55.1 87.8,54.5 87.1,54.5 86.5,54.5 85.9,54.5 85.2,54.5 84.6,54.5 83.9,54.5 83.3,54.5 
		82.6,54.5 82,55.1 81.3,55.1 80.7,55.8 80.1,55.8 79.4,56.4 78.8,57.1 78.1,57.1 77.5,57.7 76.8,58.3 76.8,57.7 76.8,57.1 
		76.2,55.8 76.2,55.1 76.2,54.5 75.5,53.8 74.9,54.5 74.2,54.5 73.6,55.1 73.6,55.8 72.9,55.8 72.3,56.4 71.6,57.1 71,57.1 
		70.4,57.7 69.7,57.7 69.7,58.3 69.7,59 70.4,59.7 	"/>
	<path class="st0" d="M98.8,72.6v0.6v0.7v0.7h0.7v0.7l0.7,0.7v0.6v0.7h0.7v0.7h0.7v0.7L102,79l0.7,0.6h0.7v0.7h0.7h0.7V81h0.6h0.7
		h0.7h0.7h0.7h0.6h0.7h0.7h0.7l0.6-0.7h0.7l0.7-0.7h0.7h0.7V79h0.6v-0.7h0.7l0.7-0.7l0.7-0.7l0.7-0.7v-0.6h0.6v-0.7l-0.6-0.7h-0.7
		h-0.7v0.7h-0.7l-0.7,0.7h-0.6l-0.7,0.6h-0.7l-0.7,0.7H111h-0.6l-0.7,0.7h-0.7h-0.7l-0.6-0.7h-0.7h-0.7l-0.7-0.7l-0.7-0.6l-0.6-0.7
		v-0.7l-0.7-0.7v-0.7l-0.7-0.6v-0.7v-0.7V70l-0.7-0.6l12.3-4.5l0.7-0.7h0.7l0.7-0.6v-0.7v-0.7v-0.7h-0.7v-0.7l-0.7-0.6v-0.7V59
		l-0.7-0.7v-0.7h-0.7v-0.6l-0.6-0.7l-0.7-0.7l-0.7-0.7h-0.7v-0.7H111h-0.6l-0.7-0.6h-0.7h-0.7h-0.6h-0.7h-0.7l-0.7,0.6h-0.7
		l-0.6,0.7H104l-0.7,0.7h-0.7v0.7l-0.7,0.7l-0.6,0.6l-0.7,0.7V59l-0.7,0.7v0.7h-0.7v0.6v0.7l-0.7,0.7v0.7v0.7v0.6v0.7l-0.6,0.7v0.7
		v0.6v0.7v1.3v0.7v1.3v0.7l0.6,0.7V72.6z M102.7,66.1v-0.7v-1.3v-0.6v-0.7l0.7-0.7v-0.7v-0.7v-0.6l0.7-0.7V59l0.7-0.7l0.6-0.7h0.7
		v-0.6h0.7h0.7h0.7h0.6h0.7v0.6h0.7l0.7,0.7V59l0.6,0.7v0.7v0.6v0.7v0.7v0.7l-0.6,0.7l-0.7,0.6l-7.1,2.6V66.1z"/>
	<path class="st0" d="M494.2,256.1h-25.7c-0.2-28.6-7.5-55.5-20.3-79l19.8-11.3c0.6-0.4,1-1,1-1.7c0-0.3-0.1-0.7-0.3-1
		c-0.2-0.3-0.4-0.5-0.7-0.7c-0.6-0.9-1.8-1.3-2.7-0.7l-19.5,11.2c-14.6-25-35.4-46-60.3-60.7L395.7,94c0.2-0.3,0.3-0.6,0.3-1
		c0-0.7-0.4-1.4-1-1.8c-1-0.5-2.2-0.2-2.7,0.8l-10.1,18.2c-23.2-12.9-49.8-20.5-78-21.1V68.7c0-1.1-0.9-2-2-2s-2,0.9-2,2v20.5
		c-29.1,0.1-56.5,7.7-80.3,20.8L209,91.4c-0.5-1-1.8-1.3-2.7-0.7c-0.6,0.4-1,1-1,1.7c0,0.3,0.1,0.7,0.3,1l10.7,18.6
		c-24.8,14.5-45.6,35.2-60.2,59.9l-20.1-11.6c-1-0.6-2.2-0.2-2.7,0.7c-0.2,0.3-0.3,0.7-0.3,1c0,0.7,0.4,1.4,1,1.7l20.1,11.6
		c-13.3,23.8-21,51.1-21.3,80.2l-25.7-0.1c0,0,0,0,0,0c-1.1,0-2,0.9-2,2c0,0,0,0,0,0c0,1.1,0.9,2,2,2l25.7,0.1
		c0.4,29.5,8.5,57.2,22.3,81.2l-24,13.8c-0.6,0.4-1,1-1,1.7c0,0.3,0.1,0.7,0.3,1c0.4,0.6,1,1,1.7,1c0.3,0,0.7-0.1,1-0.3l24.1-13.9
		c15.2,24.9,36.6,45.5,62.1,59.7l-14.4,26c-0.2,0.3-0.2,0.6-0.3,1c0,0.7,0.4,1.4,1,1.8c0.3,0.2,0.6,0.3,1,0.3c0.7,0,1.4-0.4,1.8-1
		l14.4-26c23.1,12.2,49.4,19.1,77.3,19.2v20.5c0,1.1,0.9,2,2,2s2-0.9,2-2v-20.5c28.8-0.6,55.7-8.4,79.2-21.7l14.5,25.2
		c0.4,0.6,1,1,1.7,1c0.3,0,0.7-0.1,1-0.3c0.6-0.4,1-1,1-1.7c0-0.3-0.1-0.7-0.3-1l-14.5-25.2c24-14.4,44.2-34.7,58.5-58.8l23.7,13.6
		c0.3,0.2,0.7,0.3,1,0.3c0.7,0,1.4-0.4,1.7-1c0.2-0.3,0.3-0.7,0.3-1c0-0.7-0.4-1.4-1-1.7l-23.7-13.6c13.1-23.4,20.8-50.2,21.3-78.8
		h25.7c1.1,0,2-0.9,2-2S495.3,256.1,494.2,256.1z M300.7,421c-90.4,0-163.9-73.5-163.9-163.9c0-90.4,73.5-163.9,163.9-163.9
		c0.4,0,0.8,0,1.3,0c0,0,0.1,0,0.1,0c0,0,0.1,0,0.1,0c32.6,0.3,62.9,10.1,88.3,26.9l-16.6,23.7c-21.1-13.7-46.3-21.6-73.2-21.6
		c-74.5,0-135.1,60.6-135.1,135s60.6,135,135.1,135c74.5,0,135-60.6,135-135c0-43.9-21.1-83-53.6-107.6l16.6-23.7
		c40,29.9,65.9,77.6,65.9,131.3C464.5,347.5,391,421,300.7,421z M304.8,260l75-107.2c31.5,24,51.9,61.8,51.9,104.4
		c0,72.3-58.8,131-131,131c-72.3,0-131.1-58.8-131.1-131s58.8-131,131.1-131c26.1,0,50.5,7.7,71,20.9l-75.1,107.2L304.8,260z"/>
	<path class="st0" d="M-157.9,425v20.5c0,1.1,0.9,2,2,2s2-0.9,2-2v-20.5c28.8-0.6,55.8-8.4,79.3-21.8l14.5,25.2c0.4,0.6,1,1,1.7,1
		c0.3,0,0.7-0.1,1-0.3c0.6-0.4,1-1,1-1.7c0-0.3-0.1-0.7-0.3-1l-14.5-25.2c24-14.4,44.2-34.7,58.4-58.8L10.9,356
		c0.3,0.2,0.7,0.3,1,0.3c0.7,0,1.4-0.4,1.7-1c0.2-0.3,0.3-0.7,0.3-1c0-0.7-0.4-1.4-1-1.7l-23.7-13.6c13.1-23.4,20.8-50.2,21.3-78.8
		h25.8c1.1,0,2-0.9,2-2s-0.9-2-2-2H10.5c-0.2-28.6-7.5-55.5-20.3-79l19.8-11.3c0.6-0.4,1-1,1-1.7c0-0.3-0.1-0.7-0.3-1
		c-0.2-0.3-0.4-0.6-0.8-0.7c-0.6-0.9-1.8-1.2-2.7-0.7L-12.1,173c-14.6-25-35.4-46-60.3-60.7L-62.3,94c0.2-0.3,0.3-0.6,0.3-1
		c0-0.7-0.4-1.4-1-1.8c-1-0.5-2.2-0.2-2.7,0.8l-10.1,18.2c-23.2-12.9-49.8-20.5-78-21.1V68.7c0-1.1-0.9-2-2-2s-2,0.9-2,2v20.5
		c-29.1,0.1-56.5,7.7-80.3,20.8l-10.6-18.6c-0.5-1-1.8-1.3-2.7-0.7c-0.6,0.4-1,1-1,1.7c0,0.3,0.1,0.7,0.3,1l10.6,18.6
		c-24.8,14.5-45.6,35.2-60.2,59.9l-20.1-11.6c-1-0.5-2.2-0.2-2.7,0.7c-0.2,0.3-0.3,0.7-0.3,1c0,0.7,0.4,1.4,1,1.7l20.1,11.6
		c-13.3,23.8-21,51.1-21.3,80.2l-25.7-0.1c0,0,0,0,0,0c-1.1,0-2,0.9-2,2c0,0,0,0,0,0c0,1.1,0.9,2,2,2l25.7,0.1
		c0.4,29.5,8.5,57.2,22.3,81.2l-24,13.8c-0.6,0.4-1,1-1,1.7c0,0.3,0.1,0.7,0.3,1c0.4,0.6,1,1,1.7,1c0.3,0,0.7-0.1,1-0.3l24-13.9
		c15.2,24.9,36.6,45.5,62.1,59.7l-14.4,26c-0.2,0.3-0.2,0.6-0.3,1c0,0.7,0.4,1.4,1,1.8c0.3,0.2,0.6,0.3,1,0.3c0.7,0,1.4-0.4,1.8-1
		l14.4-26C-212.1,417.9-185.8,424.9-157.9,425z M-321.2,257.7c0-0.1,0-0.1,0-0.2c0,0,0,0,0,0c0-0.1,0-0.2,0-0.3c0-0.1,0-0.1,0-0.2
		c0-90.4,73.5-163.9,163.9-163.9c0.4,0,0.8,0,1.3,0c0,0,0.1,0,0.1,0c0,0,0.1,0,0.1,0c32.6,0.3,62.9,10.1,88.3,26.9l-16.6,23.7
		c-21.1-13.7-46.3-21.7-73.3-21.7c-74.5,0-135,60.6-135,135s60.6,135,135,135c74.5,0,135-60.6,135-135c0-43.9-21-82.9-53.6-107.6
		l16.6-23.7c40,29.9,65.9,77.6,65.9,131.3C6.5,347.5-67,421-157.3,421C-247.5,421-320.9,347.8-321.2,257.7z M-153.2,260l75.1-107.2
		c31.5,24,51.9,61.8,51.9,104.3c0,72.3-58.8,131-131,131s-131-58.8-131-131s58.8-131,131-131c26.1,0,50.5,7.7,71,20.9l-75.1,107.2
		L-153.2,260z"/>
</g>
</svg>
