<?xml version="1.0" encoding="utf-8"?>
<!-- Generator: Adobe Illustrator 22.1.0, SVG Export Plug-In . SVG Version: 6.00 Build 0)  -->
<svg version="1.1" id="Capa_1" xmlns="http://www.w3.org/2000/svg" xmlns:xlink="http://www.w3.org/1999/xlink" x="0px" y="0px"
	 viewBox="-348.9 33.8 845.2 601.7" style="enable-background:new -348.9 33.8 845.2 601.7;" xml:space="preserve">
<style type="text/css">
	.st0{fill:#141515;}
	.st1{fill:none;stroke:#141515;stroke-width:4;stroke-linecap:round;stroke-linejoin:round;stroke-miterlimit:10;}
	.st2{fill:none;stroke:#141515;stroke-width:3.9969;stroke-linecap:round;stroke-linejoin:round;stroke-miterlimit:10;}
	.st3{fill:none;stroke:#141515;stroke-width:3.9969;stroke-miterlimit:10;}
	.st4{fill:none;stroke:#141515;stroke-width:10.0063;stroke-miterlimit:10;}
</style>
<polygon class="st0" points="-189.6,506.9 -190.3,506.9 -190.3,507.6 -190.9,507.6 -191.5,508.3 -191.5,508.3 -192.2,508.3 
	-192.2,508.9 -192.8,509.5 -192.8,510.2 -193.5,510.8 -193.5,511.5 -193.5,511.5 -193.5,512.1 -194.1,512.8 -194.1,513.4 
	-194.1,513.4 -194.1,514.1 -194.8,514.7 -194.8,515.4 -194.8,516 -195.4,516.6 -195.4,517.3 -196.1,517.9 -196.1,518.6 
	-196.1,519.2 -196.7,519.9 -196.7,521.2 -197.3,521.8 -197.3,522.5 -198,523.1 -198,523.8 -198.7,525 -198.7,525.7 -199.3,526.3 
	-199.3,527 -200,527.6 -200,528.3 -200,528.9 -200.6,529.6 -200.6,529.6 -200.6,530.2 -201.2,530.9 -201.2,531.5 -201.2,531.5 
	-201.9,532.1 -201.9,532.1 -201.9,532.1 -202.5,532.1 -202.5,532.1 -202.5,531.5 -203.2,530.9 -203.2,530.2 -203.8,529.6 
	-203.8,528.9 -203.8,528.3 -204.5,527.6 -204.5,527 -205.1,526.3 -205.1,526.3 -205.8,525.7 -205.8,525 -205.8,524.4 -206.4,523.8 
	-206.4,523.1 -207,522.5 -207,521.8 -207,521.2 -207.7,520.5 -207.7,519.9 -208.3,519.2 -208.3,519.2 -208.3,518.6 -209,517.9 
	-209,517.3 -209.6,516.6 -209.6,516 -209.6,515.4 -210.3,514.7 -210.3,514.1 -210.3,513.4 -210.9,512.8 -210.9,512.1 -210.9,511.5 
	-211.6,510.8 -211.6,510.8 -211.6,510.2 -212.2,509.5 -212.2,508.9 -212.9,508.3 -212.9,508.3 -212.9,508.3 -213.5,507.6 
	-214.2,507.6 -214.8,506.9 -214.8,506.9 -214.2,506.3 -214.2,505.7 -213.5,505.7 -213.5,505.7 -213.5,505.7 -212.9,505.7 
	-212.2,505.7 -211.6,505.7 -211.6,505.7 -210.9,505.7 -210.3,505.7 -209.6,505.7 -209,505.7 -208.3,505.7 -207.7,505.7 -207,505.7 
	-206.4,505.7 -205.8,505.7 -205.8,505.7 -205.1,505.7 -205.1,505.7 -205.1,505.7 -204.5,505.7 -204.5,505.7 -203.8,506.3 
	-204.5,506.9 -204.5,506.9 -205.1,507.6 -205.1,507.6 -205.8,508.3 -206.4,508.3 -207,508.9 -207,508.9 -207,509.5 -207,509.5 
	-207,510.2 -207,510.8 -207,510.8 -207,511.5 -206.4,512.1 -206.4,512.1 -206.4,512.8 -205.8,513.4 -205.8,514.1 -205.8,514.7 
	-205.1,515.4 -205.1,516 -205.1,516.6 -204.5,517.3 -204.5,517.9 -203.8,519.2 -203.8,519.2 -203.2,520.5 -203.2,521.2 
	-202.5,521.8 -202.5,522.5 -201.9,523.1 -201.9,523.8 -201.2,524.4 -201.2,524.4 -201.2,524.4 -201.2,524.4 -201.2,524.4 
	-201.2,524.4 -201.2,523.8 -200.6,523.1 -200.6,523.1 -200,521.8 -200,521.2 -199.3,519.9 -199.3,519.2 -198.7,518.6 -198.7,517.9 
	-198,517.3 -198,516.6 -198,516 -197.3,515.4 -197.3,514.7 -197.3,514.1 -196.7,513.4 -196.7,512.8 -196.7,512.1 -196.7,511.5 
	-196.1,510.8 -196.1,510.8 -196.1,510.2 -196.1,510.2 -196.1,509.5 -196.1,508.9 -196.7,508.3 -197.3,507.6 -197.3,507.6 
	-198,507.6 -198.7,506.9 -198.7,506.3 -198.7,506.3 -198.7,505.7 -198,505.7 -198,505.7 -197.3,505.7 -196.7,505.7 -196.7,505.7 
	-196.1,505.7 -195.4,505.7 -194.8,505.7 -194.1,505.7 -193.5,505.7 -192.8,506.3 -192.2,506.3 -191.5,506.3 -191.5,506.3 
	-190.9,506.3 -190.9,506.3 -190.3,505.7 -190.3,506.3 -189.6,506.9 "/>
<path class="st0" d="M-164.4,517.9v0.6l-0.7,0.7v0.7v0.7v0.7v0.6v0.7l-0.7,0.7v0.7v0.7l-0.6,0.6v0.7h-0.7v0.7l-0.7,0.7v0.7h-0.7v0.6
	l-0.7,0.7l0,0l-0.6,0.7h-0.7v0.7h-0.7l-0.7,0.7l0,0l-0.7,0.6h-0.6h-0.7l0,0h-0.7l-0.7,0.7h-0.7h-0.6l0,0h-0.7h-0.7h-0.7v-0.7h-0.6
	h-0.7h-0.7l-0.7-0.6l0,0h-0.7l-0.6-0.7l0,0l-0.7-0.7l0,0l-0.7-0.7l-0.7-0.7l0,0v-0.6h-0.7V527l-0.6-0.7v-0.7l-0.7-0.7v-0.6l0,0v-0.7
	l-0.7-0.7v-0.7v-1.3v-0.7v-0.7v-0.7l0,0v-0.7v-0.6v-0.7v-0.7V516l0.7-0.6v-0.7v-0.7v-0.7l0.7-0.7v-0.6l0.6-0.7v-0.7h0.7v-0.7
	l0.7-0.7v-0.6l0,0h0.7v-0.7l0.7-0.7h0.6v-0.7h0.7l0.7-0.7l0,0h0.7l0.7-0.6h0.6l0,0h0.7l0.7-0.7h0.7h0.6l0,0l0,0h0.7h0.7h0.7h0.7
	l0.6,0.7h0.7l0,0h0.7l0.7,0.6l0,0l0.7,0.7h0.6v0.7h0.7l0.7,0.7l0,0v0.7h0.7v0.6l0.7,0.7v0.7l0.6,0.7l0,0v0.7l0.7,0.6v0.7v0.7v0.7
	v0.7v0.6v1.3L-164.4,517.9L-164.4,517.9L-164.4,517.9z M-168.9,519.9v-0.7v-0.7l-0.6-0.6v-0.7v-0.7V516v-0.6v-0.7l-0.7-0.7v-0.7
	v-0.7l-0.7-0.6v-0.7l0,0l-0.7-0.7v-0.7h-0.7l-0.6-0.7v-0.6h-0.7h-0.7v-0.7h-0.7h-0.7h-0.6l0,0h-0.7l0,0h-0.7l-0.7,0.7h-0.6l0,0
	l-0.7,0.6v0.7h-0.7v0.7l-0.7,0.7l0,0l-0.7,0.7v0.6v0.7l-0.6,0.7v0.7v0.7v0.6v0.7v1.3v0.6v0.7v0.7v0.7v0.7l0.6,0.6v0.7v0.7v0.7
	l0.7,0.7v0.6l0,0l0.7,0.7l0,0v0.7l0.7,0.7h0.7v0.7l0.6,0.6h0.7l0,0l0.7,0.7h0.7h0.6l0,0h0.7h0.7h0.7l0.7-0.7l0,0l0.6-0.6h0.7V527
	h0.7v-0.7l0.7-0.7l0,0V525l0.7-0.6v-0.7v-0.7v-0.7l0.6-0.7v-0.6V519.9L-168.9,519.9L-168.9,519.9z"/>
<polygon class="st0" points="-148.9,530.9 -148.9,531.5 -148.9,531.5 -149.6,531.5 -149.6,531.5 -150.2,531.5 -150.9,531.5 
	-150.9,531.5 -151.5,531.5 -152.1,531.5 -152.8,531.5 -152.8,531.5 -153.4,531.5 -154.1,531.5 -154.7,531.5 -155.4,531.5 
	-156,531.5 -156,531.5 -156.7,531.5 -157.3,531.5 -157.9,532.1 -158.6,532.1 -159.3,532.1 -159.9,532.1 -159.9,531.5 -159.9,531.5 
	-159.9,530.9 -159.9,530.2 -159.9,530.2 -159.3,529.6 -158.6,529.6 -157.9,528.9 -157.9,528.9 -157.9,528.3 -157.3,527.6 
	-157.3,527 -157.3,526.3 -157.3,526.3 -157.3,495.3 -157.3,494.7 -157.3,494 -157.3,493.4 -157.3,492.7 -157.9,492.1 -157.9,491.4 
	-157.9,491.4 -157.9,490.8 -158.6,490.8 -158.6,490.2 -159.3,490.2 -159.9,489.5 -159.9,489.5 -160.5,488.9 -160.5,488.9 
	-160.5,488.2 -160.5,488.2 -160.5,487.6 -159.9,486.9 -159.9,486.9 -159.3,486.9 -158.6,486.3 -157.9,486.3 -157.9,486.3 
	-157.3,485.6 -156.7,485.6 -156.7,485 -156,485 -155.4,484.4 -154.7,483.7 -154.7,483.7 -154.1,483.7 -154.1,483.7 -153.4,483.7 
	-153.4,483.7 -153.4,484.4 -153.4,485 -153.4,485 -153.4,485.6 -153.4,486.3 -153.4,486.9 -153.4,488.2 -153.4,488.9 -153.4,489.5 
	-153.4,490.2 -153.4,490.8 -153.4,491.4 -153.4,492.1 -153.4,492.7 -153.4,493.4 -153.4,494 -153.4,494.7 -153.4,495.3 -153.4,525 
	-153.4,526.3 -152.8,527 -152.8,527.6 -152.8,527.6 -152.1,528.3 -152.1,528.3 -151.5,528.9 -151.5,528.9 -150.9,528.9 
	-150.2,529.6 -149.6,529.6 -149.6,529.6 -148.9,530.2 -148.9,530.2 -148.9,530.9 "/>
<polygon class="st0" points="-122.4,528.9 -122.4,528.9 -122.4,529.6 -123.1,529.6 -123.1,530.2 -123.7,530.2 -126.3,532.1 
	-126.3,532.1 -126.3,532.1 -126.9,532.1 -126.9,531.5 -127.6,530.9 -128.2,530.2 -128.2,529.6 -128.9,529.6 -129.5,528.9 
	-129.5,528.9 -129.5,528.9 -130.2,528.9 -130.2,529.6 -130.8,529.6 -131.5,530.2 -132.1,530.2 -132.7,530.9 -133.4,530.9 
	-133.4,530.9 -134.1,531.5 -134.7,531.5 -135.4,531.5 -135.4,531.5 -136,531.5 -136,531.5 -136.6,531.5 -137.3,531.5 -137.9,531.5 
	-138.6,531.5 -139.2,531.5 -139.9,531.5 -139.9,530.9 -140.5,530.9 -141.2,530.2 -141.2,530.2 -141.2,529.6 -141.8,529.6 
	-141.8,529.6 -141.8,528.9 -142.4,528.3 -142.4,528.3 -142.4,527.6 -142.4,527 -143.1,526.3 -143.1,525.7 -143.1,525 -143.1,523.8 
	-143.1,523.1 -143.1,522.5 -143.1,515.4 -143.1,514.7 -143.1,514.1 -143.1,513.4 -143.1,512.8 -143.7,512.1 -143.7,511.5 
	-143.7,511.5 -144.4,510.8 -144.4,510.2 -145,510.2 -145.7,509.5 -145.7,509.5 -146.3,508.9 -146.3,508.9 -146.3,508.3 
	-146.3,507.6 -145.7,507.6 -145,506.9 -144.4,506.9 -143.7,506.9 -143.7,506.3 -143.1,506.3 -142.4,505.7 -142.4,505.7 
	-141.8,505.7 -141.2,505 -140.5,505 -140.5,505 -139.9,505 -139.2,505 -139.2,505 -139.2,505.7 -139.2,506.3 -139.2,510.2 
	-139.2,510.2 -139.2,510.8 -139.2,511.5 -139.2,512.1 -139.2,512.8 -139.2,513.4 -139.2,514.1 -139.2,514.7 -139.2,515.4 
	-139.2,516 -139.2,516.6 -139.2,520.5 -139.2,521.8 -139.2,522.5 -139.2,523.1 -139.2,523.8 -138.6,524.4 -138.6,525 -138.6,525.7 
	-137.9,525.7 -137.9,526.3 -137.9,526.3 -137.3,527 -136.6,527 -136.6,527.6 -136,527.6 -135.4,527.6 -134.7,527.6 -134.1,527.6 
	-134.1,527.6 -133.4,527.6 -132.7,527.6 -132.7,527.6 -132.1,527 -131.5,527 -131.5,527 -130.8,526.3 -130.8,526.3 -130.2,525.7 
	-130.2,525 -130.2,524.4 -129.5,524.4 -129.5,523.8 -129.5,523.1 -129.5,522.5 -129.5,521.8 -129.5,515.4 -129.5,514.7 
	-129.5,514.1 -129.5,512.8 -129.5,512.1 -129.5,512.1 -130.2,511.5 -130.2,511.5 -130.2,510.8 -130.8,510.8 -130.8,510.2 
	-131.5,510.2 -132.1,510.2 -132.1,509.5 -132.7,509.5 -132.7,508.9 -132.7,508.9 -132.7,508.3 -132.1,507.6 -132.1,507.6 
	-131.5,506.9 -130.8,506.9 -130.2,506.3 -129.5,506.3 -128.9,505.7 -128.2,505.7 -127.6,505.7 -127.6,505.7 -126.9,505 -126.9,505 
	-126.3,505 -126.3,505 -126.3,505 -125.7,505.7 -125.7,506.3 -125.7,506.9 -125.7,506.9 -125.7,506.9 -125.7,507.6 -125.7,508.9 
	-125.7,510.2 -125.7,510.8 -125.7,511.5 -125.7,512.1 -125.7,512.8 -125.7,513.4 -125.7,514.1 -125.7,514.7 -125.7,515.4 
	-125.7,516 -125.7,516.6 -125.7,525 -125.7,525.7 -125.7,526.3 -125,527 -125,527 -124.4,527.6 -124.4,527.6 -123.7,527.6 
	-123.1,527.6 -122.4,528.3 -122.4,528.3 -122.4,528.9 "/>
<polygon class="st0" points="-77.2,530.9 -77.2,531.5 -77.2,531.5 -77.8,531.5 -78.5,531.5 -79.1,531.5 -79.8,531.5 -79.8,531.5 
	-80.4,531.5 -81.1,531.5 -81.7,531.5 -82.4,531.5 -83,531.5 -83,531.5 -83.7,531.5 -84.3,531.5 -85,531.5 -85,531.5 -85.6,531.5 
	-86.2,531.5 -86.9,531.5 -86.9,531.5 -87.5,531.5 -88.2,531.5 -88.2,531.5 -88.2,530.9 -88.2,530.2 -88.2,530.2 -88.2,529.6 
	-87.5,529.6 -86.9,529.6 -86.9,529.6 -86.2,528.9 -86.2,528.9 -85.6,528.3 -85.6,527.6 -85.6,527 -85.6,526.3 -85.6,525.7 
	-85.6,516.6 -85.6,516 -85.6,515.4 -85.6,514.7 -85.6,514.1 -85.6,513.4 -86.2,512.8 -86.2,512.1 -86.2,511.5 -86.9,510.8 
	-86.9,510.8 -86.9,510.2 -87.5,510.2 -88.2,509.5 -88.2,509.5 -88.8,509.5 -88.8,509.5 -89.5,509.5 -90.1,509.5 -90.8,509.5 
	-91.4,509.5 -91.4,509.5 -92.1,509.5 -92.7,509.5 -93.3,509.5 -93.3,510.2 -94,510.2 -94.7,510.2 -95.3,510.8 -95.9,511.5 
	-95.9,511.5 -96.6,512.1 -96.6,512.1 -96.6,512.8 -96.6,525.7 -96.6,527 -96.6,527.6 -96.6,528.3 -95.9,528.3 -95.9,528.9 
	-95.9,528.9 -95.3,528.9 -94.7,529.6 -94,529.6 -93.3,529.6 -93.3,530.2 -92.7,530.2 -92.7,530.2 -92.7,530.9 -92.7,531.5 
	-92.7,531.5 -93.3,531.5 -93.3,531.5 -94,531.5 -94.7,531.5 -94.7,531.5 -95.3,531.5 -95.9,531.5 -95.9,531.5 -96.6,531.5 
	-97.2,531.5 -97.9,531.5 -98.5,531.5 -98.5,531.5 -99.2,531.5 -99.8,531.5 -100.5,531.5 -101.1,532.1 -101.7,532.1 -101.7,532.1 
	-102.4,532.1 -103,531.5 -103,531.5 -103,531.5 -103,530.9 -103,530.2 -103,530.2 -102.4,529.6 -101.7,529.6 -101.7,529.6 
	-101.1,529.6 -101.1,528.9 -100.5,528.3 -100.5,527.6 -100.5,527 -100.5,526.3 -100.5,525.7 -100.5,516.6 -100.5,516 -100.5,515.4 
	-100.5,514.7 -100.5,514.1 -100.5,513.4 -101.1,512.8 -101.1,512.1 -101.1,511.5 -101.7,510.8 -101.7,510.8 -101.7,510.2 
	-102.4,510.2 -102.4,509.5 -103,509.5 -103.7,509.5 -104.3,508.9 -104.3,508.9 -105,508.9 -105.6,509.5 -106.3,509.5 -106.3,509.5 
	-106.9,509.5 -107.6,509.5 -108.2,510.2 -108.2,510.2 -108.9,510.2 -108.9,510.8 -109.5,510.8 -110.2,511.5 -110.2,512.1 
	-110.8,512.1 -110.8,512.8 -110.8,513.4 -110.8,513.4 -110.8,525.7 -110.8,526.3 -110.8,527 -110.8,527.6 -110.2,528.3 
	-110.2,528.9 -110.2,528.9 -109.5,528.9 -108.9,529.6 -108.2,529.6 -107.6,529.6 -107.6,529.6 -106.9,529.6 -106.3,530.2 
	-106.3,530.2 -106.3,530.9 -106.9,531.5 -107.6,531.5 -108.2,531.5 -108.9,531.5 -109.5,531.5 -110.2,531.5 -110.8,531.5 
	-111.4,531.5 -111.4,531.5 -112.1,531.5 -112.7,531.5 -113.4,531.5 -114,531.5 -114,531.5 -114.7,531.5 -115.3,531.5 -115.3,531.5 
	-116,532.1 -116,532.1 -116.6,532.1 -117.2,532.1 -117.2,532.1 -117.9,532.1 -117.9,531.5 -117.9,530.9 -117.9,530.9 -117.9,530.2 
	-117.2,530.2 -116.6,529.6 -116,529.6 -116,529.6 -115.3,528.9 -115.3,528.9 -115.3,528.3 -115.3,527.6 -114.7,527 -114.7,525.7 
	-114.7,515.4 -114.7,514.7 -115.3,513.4 -115.3,512.8 -115.3,512.1 -115.3,512.1 -116,511.5 -116,510.8 -116.6,510.8 -116.6,510.8 
	-117.2,510.8 -117.9,510.2 -117.9,510.2 -117.9,510.2 -118.5,509.5 -118.5,509.5 -118.5,508.9 -117.9,508.9 -117.9,508.3 
	-117.2,508.3 -116.6,507.6 -116,506.9 -116,506.9 -115.3,506.3 -114.7,505.7 -114,505.7 -113.4,505 -112.7,505 -112.7,505 
	-112.7,505 -112.1,504.4 -112.1,505 -112.1,505 -111.4,505.7 -111.4,506.9 -111.4,507.6 -110.8,508.3 -110.8,508.9 -110.8,508.9 
	-110.8,508.9 -110.2,508.3 -109.5,508.3 -109.5,507.6 -108.9,507.6 -108.2,506.9 -108.2,506.3 -107.6,506.3 -106.9,506.3 
	-106.9,505.7 -106.3,505.7 -106.3,505.7 -105.6,505 -105,505 -104.3,505 -104.3,505 -103.7,505 -103,505 -102.4,505 -102.4,504.4 
	-101.7,505 -101.1,505 -100.5,505 -100.5,505 -99.8,505 -99.2,505.7 -99.2,505.7 -98.5,506.3 -98.5,506.3 -97.9,506.9 -97.9,507.6 
	-97.2,508.3 -97.2,508.3 -97.2,508.3 -95.9,507.6 -95.9,507.6 -95.3,506.9 -94.7,506.9 -94,506.3 -94,506.3 -93.3,506.3 
	-92.7,505.7 -92.7,505.7 -92.1,505.7 -91.4,505 -90.8,505 -90.8,505 -90.1,505 -89.5,505 -88.8,505 -88.8,504.4 -88.2,504.4 
	-88.2,505 -87.5,505 -86.9,505 -86.2,505 -86.2,505 -85.6,505 -85,505.7 -85,505.7 -84.3,505.7 -84.3,506.3 -83.7,506.3 
	-83.7,506.9 -83,507.6 -83,507.6 -82.4,508.3 -82.4,508.9 -82.4,509.5 -82.4,509.5 -81.7,510.2 -81.7,510.8 -81.7,511.5 
	-81.7,512.1 -81.7,512.8 -81.7,514.1 -81.7,514.7 -81.7,514.7 -81.7,525.7 -81.7,526.3 -81.1,527 -81.1,527.6 -81.1,528.3 
	-81.1,528.3 -80.4,528.9 -80.4,528.9 -79.8,528.9 -79.1,529.6 -78.5,529.6 -77.8,529.6 -77.2,530.2 -77.2,530.2 -77.2,530.9 "/>
<path class="st0" d="M-55.9,525.7v0.7l0,0v0.7l-0.7,0.7l0,0l-0.7,0.6l-0.7,0.7l-0.6,0.7l0,0h-0.7l-0.7,0.7h-0.7v0.7h-0.7h-0.6
	l-0.7,0.6l0,0H-63h-0.7h-0.7v0.7h-0.6h-0.7l0,0h-0.7l-0.7-0.7l0,0h-0.7h-0.6h-0.7v-0.6h-0.7l-0.7-0.7l0,0l-0.6-0.7h-0.7v-0.7
	l-0.7-0.7l0,0l0,0l-0.7-0.6V527l-0.7-0.7l0,0l-0.6-0.7V525v-0.6v-0.7l-0.7-0.7v-0.7v-0.7v-0.6v-0.7v-0.7v-0.7v-0.7v-0.6v-1.3V516
	v-0.6v-0.7l0.7-0.7v-0.7v-0.7v-0.6h0.6v-0.7v-0.7l0.7-0.7v-0.7l0.7-0.6l0,0l0.7-0.7l0,0l0.7-0.7v-0.7h0.6l0.7-0.7l0,0l0.7-0.6h0.7
	V505h0.6h0.7h0.7l0,0l0.7-0.7h0.7h0.6l0,0l0.7,0.7h0.7h0.7l0,0l0.7,0.7h0.6l0.7,0.6l0,0l0.7,0.7h0.7v0.7l0.7,0.7v0.7l0.6,0.6l0,0
	l0.7,0.7v0.7l0,0v0.7l0.7,0.7l0,0h0.7v0.6v0.7l0,0v0.7h-0.7v0.7l-0.7,0.7h-0.7h-0.6l-11.7,4.5v1.3v0.6l0.7,0.7v0.7v0.7l0.7,0.7v0.6
	l0,0l0.7,0.7v0.7h0.6v0.7h0.7v0.7h0.7h0.7v0.6h0.7h0.6h0.7l0,0h0.7h0.7v-0.6h0.7h0.6h0.7V527h0.7h0.7l0.7-0.7l0,0l0.6-0.7l0.7-0.7
	h0.7l0,0h0.7l0,0V525.7L-55.9,525.7L-55.9,525.7z M-61.7,512.1v-0.7v-0.7l-0.7-0.7l0,0l-0.7-0.7v-0.6l0,0l-0.7-0.7h-0.7l-0.6-0.7
	l0,0h-0.7l0,0h-0.7h-0.7v0.7h-0.7l0,0h-0.6v0.7h-0.7v0.6l-0.7,0.7l0,0v0.7v0.7l-0.7,0.7v0.6v0.7v0.7v0.7v1.3v0.7v0.7l6.5-2.6h0.7
	l0.7-0.7v-0.7h0.7v-0.7V512.1L-61.7,512.1z"/>
<path class="st0" d="M278.1,527.6v0.6l0,0l0,0v0.7h-0.6l-0.7,0.7v0.7h-1.3v0.7h-0.6l-0.7,0.6l-0.7,0.7h-0.7h-0.7l0,0v0.7l0,0
	l-0.6-0.7l0,0l-0.7-0.7v-1.3l-0.7-0.7v-0.7v-0.7l0,0l0,0l-0.7,0.7l0,0h-0.7l-0.6,0.7l-1.3,0.7l0,0l-0.7,0.7h-0.7h-0.6v0.6h-0.7h-0.7
	v0.7h-0.7h-0.6l0,0l0,0H262l-0.7-0.7h-0.7l0,0H260l-0.6-0.6l0,0l-0.7-0.7h-0.7v-0.7l-0.7-0.7h-0.7v-0.7l-0.6-0.6l0,0V527l-0.7-0.7
	v-0.7V525l-0.7-0.6v-0.7v-0.7v-0.7l-0.7-0.7v-0.6v-0.7v-0.7v-0.7v-0.7v-0.6v-0.7v-0.7V516v-0.6v-0.7l0.7-0.7v-0.7v-0.7v-0.6h0.7
	v-0.7l0.7-0.7v-0.7l0.6-0.7v-0.6h0.7v-0.7l0.7-0.7l0.7-0.7l0,0l0.7-0.7l0.6-0.6l0,0h0.7l0.7-0.7h0.7l0,0l0.7-0.7h0.6l0,0h0.7h0.7
	l0,0h0.7h0.6h0.7v0.7h0.7h0.7h0.7h0.6l0,0h0.7h0.7v-0.7l0,0v-11.6v-0.7v-0.7l-0.7-0.7v-0.6l0,0h-0.7v-0.7h-0.6l-0.7-0.7l0,0h-0.7
	l-0.7-0.7v-0.6v-0.7h0.7l0.7-0.7l0,0h0.7v-0.7h0.6h0.7V485h0.7l0.7-0.6h0.7l0.6-0.7l0,0l0.7-0.7h0.7l0,0l0,0l0.7,0.7v0.7v0.6l0,0
	v0.7v0.7v0.7v1.3v0.7v0.7v0.7v0.6v0.7v0.7v0.7v0.7v1.3l0,0v31v0.7v0.7h0.7l0,0l0.6,0.7l0.7-0.7h0.7l0,0h0.7v0.7H278.1L278.1,527.6
	L278.1,527.6z M270.4,524.4v-11.7v-0.6l-0.7-0.7v-0.7l0,0l-0.7-0.7l-0.6-0.7l0,0l-0.7-0.6h-0.7v-0.7h-0.7h-0.7h-0.6v-0.7h-0.7h-0.7
	l0,0h-0.7h-0.6l-0.7,0.7l0,0h-0.7l0,0l-0.7,0.7l0,0l-0.7,0.6l0,0l-0.6,0.7v0.7v0.7h-0.7v0.7v0.6v0.7v0.7v1.3l-0.7,0.6v0.7v0.7
	l0.7,0.7v0.6v0.7v0.7v0.7v0.7l0.7,0.6v0.7v0.7l0.6,0.7l0,0l0.7,0.7v0.6l0.7,0.7h0.7v0.7h0.7v0.7h0.6l0.7,0.7h0.7l0,0h0.7l0,0h0.6
	h0.7l0,0l0.7-0.7h0.7l0.7-0.7l0,0h0.6l0.7-0.7V525h0.7V524.4L270.4,524.4z"/>
<polygon class="st0" points="296.8,507.6 296.8,508.3 296.8,508.9 296.8,509.5 296.8,510.2 296.2,510.8 296.2,510.8 296.2,511.5 
	295.6,511.5 295.6,511.5 294.9,511.5 294.9,511.5 294.3,510.8 293.6,510.8 293,510.8 292.3,510.8 291.7,510.2 291.7,510.2 
	291,510.2 291,510.2 290.4,510.8 289.8,510.8 289.8,510.8 289.1,511.5 289.1,511.5 289.1,512.1 288.5,512.8 288.5,513.4 
	288.5,514.1 288.5,514.7 288.5,515.4 288.5,525.7 288.5,526.3 288.5,527 289.1,527.6 289.1,527.6 289.1,528.3 289.8,528.3 
	289.8,528.3 290.4,528.3 291,528.9 291.7,528.9 291.7,528.9 292.3,529.6 293,529.6 293,530.2 293,530.2 293,530.9 293,531.5 
	292.3,531.5 291.7,531.5 291,531.5 290.4,531.5 289.8,531.5 289.8,531.5 289.1,530.9 288.5,530.9 287.8,530.9 287.2,530.9 
	286.5,530.9 286.5,530.9 285.9,530.9 285.2,530.9 284.6,530.9 284.6,531.5 283.9,531.5 283.3,531.5 283.3,531.5 283.3,531.5 
	282.6,531.5 282,531.5 282,531.5 282,530.9 281.3,530.2 282,529.6 282,529.6 282.6,528.9 283.3,528.9 283.3,528.3 283.9,528.3 
	283.9,527.6 283.9,527 284.6,526.3 284.6,525.7 284.6,525.7 284.6,514.7 284.6,514.1 284.6,512.8 283.9,512.8 283.9,512.1 
	283.9,512.1 283.9,511.5 283.3,511.5 283.3,510.8 282.6,510.2 282,510.2 282,510.2 281.3,509.5 281.3,509.5 281.3,508.9 
	281.3,508.3 281.3,508.3 282,507.6 282.6,507.6 283.3,506.9 283.3,506.9 283.9,506.3 284.6,506.3 284.6,505.7 285.2,505.7 
	285.2,505.7 285.9,505 286.5,504.4 286.5,504.4 286.5,504.4 287.2,504.4 287.2,504.4 287.8,505 287.8,505.7 287.8,506.3 
	287.8,507.6 287.8,508.3 288.5,508.9 288.5,508.9 288.5,508.9 288.5,508.9 288.5,508.9 289.1,508.3 289.8,508.3 289.8,507.6 
	291,506.9 291,506.3 291.7,506.3 292.3,505.7 292.3,505.7 293,505 293.6,505 294.3,505 294.3,505 294.9,505 295.6,505 295.6,505 
	296.2,505 296.8,505 296.8,505.7 296.8,506.3 296.8,506.9 296.8,507.6 "/>
<path class="st0" d="M309.8,492.1v0.7l-0.7,0.7v0.6v0.7l-0.6,0.7l0,0l-0.7,0.7h-0.7v0.7h-0.7l0,0l-0.7-0.7h-0.6v-0.7h-0.7v-0.7l0,0
	L304,494v-0.6v-0.7v-0.7v-0.7h0.7v-0.7l0.7-0.6v-0.7h0.6l0.7-0.7l0,0h0.7h0.7l0,0l0.7,0.7h0.6v0.7v0.6h0.7v0.7V492.1L309.8,492.1z
	 M312.3,530.2v0.7l-0.6,0.6l0,0l0,0h-0.7h-0.7h-0.7l0,0h-0.7h-0.6h-0.7h-0.7l0,0h-0.7h-0.7h-0.6h-0.7l0,0H304h-0.7l0,0h-0.6H302l0,0
	v-0.6l-0.7-0.7h0.7v-0.7h0.7l0.6-0.7l0,0l0.7-0.7l0,0v-0.6l0.7-0.7v-0.7v-0.7V525v-8.4v-1.3v-0.7v-0.7l-0.7-0.7v-0.7l0,0v-0.6h-0.7
	v-0.7l-0.6-0.7H302v-0.7h-0.7l-0.7-0.7l0,0l0.7-0.6v-0.7h0.7l0,0l0.7-0.7h0.6l0.7-0.7l0,0h0.7l0.7-0.7l0,0l0.6-0.6l0,0l0.7-0.7
	l0.7-0.7l0,0h0.7l0,0l0.7,0.7v0.7v0.6l0,0v0.7v0.7v0.7v0.7v0.6v0.7v0.7v0.7v0.7v0.6v0.7v0.7v0.7v1.3v0.7v0.7v0.7v0.6v0.7v0.7v0.7
	v0.7v0.6v0.7v0.7v0.7v0.7v0.6v0.7v0.7v0.7h0.6v0.7l0.7,0.6l0,0l0.7,0.7h0.7h0.7v0.7h0.6V530.2L312.3,530.2L312.3,530.2z"/>
<polygon class="st0" points="339.5,506.3 339.5,506.9 339.5,506.9 338.9,507.6 338.2,507.6 337.5,507.6 337.5,508.3 336.9,508.9 
	336.9,509.5 336.3,510.2 336.3,510.2 336.3,510.8 336.3,511.5 335.6,511.5 335.6,512.1 335.6,512.8 335.6,513.4 335,514.1 
	335,514.7 335,515.4 334.3,516 334.3,516 333.7,517.3 333.7,517.9 333.7,518.6 333,519.2 333,519.9 332.4,520.5 332.4,521.2 
	331.7,521.8 331.7,523.1 331.1,523.8 331.1,524.4 330.5,525 330.5,525.7 330.5,526.3 329.8,527 329.8,527.6 329.2,528.3 
	329.2,528.9 329.2,529.6 328.5,530.2 328.5,530.2 328.5,530.9 327.9,531.5 327.9,531.5 327.9,531.5 327.9,531.5 327.2,531.5 
	327.2,531.5 327.2,530.9 326.6,530.2 326.6,529.6 325.9,528.9 325.9,528.9 325.3,528.3 325.3,527.6 324.6,527 324.6,526.3 
	324.6,525.7 324,525 324,524.4 323.3,523.8 323.3,523.1 322.7,522.5 322.7,522.5 322.7,521.8 322,521.2 322,520.5 321.4,519.9 
	321.4,519.2 321.4,518.6 320.8,517.9 320.8,517.3 320.1,516.6 320.1,516 320.1,515.4 319.5,514.7 319.5,514.7 319.5,514.1 
	318.8,513.4 318.8,512.8 318.8,512.1 318.2,511.5 318.2,510.8 318.2,510.2 317.5,509.5 317.5,508.9 316.9,508.3 316.9,508.3 
	316.2,508.3 316.2,508.3 315.6,507.6 315.6,506.9 315,506.9 315,506.3 315,505.7 315.6,505.7 315.6,505.7 316.2,505.7 316.2,505.7 
	316.9,505.7 316.9,505.7 317.5,505.7 318.2,505.7 318.8,505.7 319.5,505.7 320.1,505.7 320.8,505.7 321.4,505.7 322,505.7 
	322.7,505.7 323.3,505.7 323.3,505 324,505 324.6,505 324.6,505 324.6,505 325.3,505 325.3,505.7 325.3,505.7 325.3,506.3 
	325.3,506.9 324.6,506.9 324.6,507.6 324,507.6 323.3,508.3 322.7,508.3 322.7,508.9 322.7,508.9 322.7,508.9 322.7,509.5 
	322.7,510.2 322.7,510.8 322.7,510.8 322.7,511.5 323.3,512.1 323.3,512.8 323.3,513.4 324,513.4 324,514.1 324,514.7 324.6,515.4 
	324.6,516 325.3,517.3 325.3,517.9 325.9,518.6 325.9,518.6 325.9,519.9 326.6,520.5 327.2,521.8 327.2,522.5 327.9,523.1 
	327.9,523.8 327.9,523.8 327.9,523.8 328.5,524.4 328.5,524.4 328.5,524.4 328.5,523.8 328.5,523.8 328.5,523.1 329.2,522.5 
	329.2,521.8 329.8,520.5 329.8,519.9 330.5,519.2 330.5,518.6 331.1,517.3 331.1,516.6 331.7,516 331.7,515.4 331.7,514.7 
	332.4,514.1 332.4,513.4 332.4,512.8 333,512.1 333,511.5 333,511.5 333,510.8 333,510.2 333.7,509.5 333.7,509.5 333.7,508.9 
	333,508.3 333,508.3 332.4,507.6 332.4,507.6 331.7,506.9 331.1,506.3 331.1,506.3 331.1,506.3 331.1,505.7 331.1,505 331.7,505 
	332.4,505 332.4,505 333,505.7 333.7,505.7 334.3,505.7 335,505.7 335.6,505.7 336.3,505.7 336.9,505.7 337.5,505.7 337.5,505.7 
	338.2,505.7 338.9,505.7 338.9,505.7 339.5,505.7 339.5,505.7 339.5,506.3 "/>
<path class="st0" d="M362.1,525.7L362.1,525.7v0.7l-0.7,0.7l0,0l-0.6,0.7l-0.7,0.6l0,0l-0.7,0.7h-0.7v0.7h-0.6l-0.7,0.7h-0.7v0.7
	h-0.7h-0.7H355v0.6h-0.7h-0.7h-0.7h-0.7l0,0l0,0h-0.6h-0.7h-0.7h-0.7v-0.6h-0.7h-0.6v-0.7h-0.7l-0.7-0.7l0,0l-0.7-0.7H346v-0.7l0,0
	l-0.7-0.6V527h-0.7v-0.7l-0.7-0.7V525v-0.6l-0.7-0.7v-0.7v-0.7v-0.7v-0.6v-0.7v-0.7l-0.6-0.7v-0.7v-0.6l0.6-0.7v-0.7V516v-0.6v-0.7
	v-0.7v-0.7l0.7-0.7v-0.6v-0.7l0.7-0.7v-0.7v-0.7h0.7v-0.6l0.7-0.7l0,0l0.6-0.7v-0.7h0.7l0.7-0.7l0,0l0.7-0.6h0.6V505h0.7h0.7
	l0.7-0.7l0,0h0.7h0.6h0.7l0,0h0.7h0.7h0.7l0,0l0.6,0.7h0.7h0.7v0.7l0.7,0.6h0.7v0.7l0.6,0.7l0,0l0.7,0.7v0.7l0.7,0.6v0.7v0.7h0.7
	v0.7h0.6l0,0v0.7h0.7v0.6v0.7h-0.7v0.7h-0.6l-0.7,0.7h-0.7v0.7l-11.6,4.5v0.7v0.7v0.6l0.7,0.7v0.7v0.7l0.6,0.7v0.6l0.7,0.7l0,0
	l0.7,0.7l0,0l0.7,0.7l0,0l0.7,0.7l0,0h0.6h0.7h0.7l0,0h0.7h0.7l0,0h0.6h0.7V527h0.7h0.7l0.7-0.7l0,0h0.6l0.7-0.7l0.7-0.7h0.7v-0.6
	h0.6l0,0l0.7,0.6V525.7L362.1,525.7L362.1,525.7z M356.3,512.1v-0.7l-0.7-0.7v-0.7v-0.7l-0.6-0.6l0,0l-0.7-0.7l0,0l-0.7-0.7h-0.7
	h-0.7l0,0l0,0h-0.6h-0.7l0,0h-0.7l-0.7,0.7l0,0h-0.7v0.7l0,0l-0.6,0.6v0.7l-0.7,0.7v0.7l0,0v0.7v1.3v0.7l-0.7,0.7v0.7v0.6v1.3
	l7.1-3.2h0.7l0.6-0.7l0,0v-0.7L356.3,512.1L356.3,512.1L356.3,512.1z"/>
<path class="st1" d="M-137.9,581.6c0,29.4,23.9,53.3,53.3,53.3"/>
<line class="st1" x1="-84.3" y1="635.5" x2="251.6" y2="635.5"/>
<path class="st1" d="M251.3,634.9c29.4,0,53.3-23.9,53.3-53.3"/>
<path class="st0" d="M-17.1,594.8L-17.1,594.8L-17.1,594.8v0.7l0,0l0,0l-0.7,0.6h-0.6l-0.7,0.7l0,0l-0.7,0.7h-0.7l-0.7,0.7l0,0h-0.6
	v0.7h-0.7l0,0v-0.7l0,0l-0.7-0.7v-0.7v-0.7l-0.7-0.6v-0.7l0,0l0,0v0.7h-0.7h-0.6v0.6h-1.3v0.7h-0.7l0,0l-0.6,0.7h-0.7l0,0l-0.7,0.7
	l0,0h-0.7l0,0l0,0H-30h-0.6l0,0l-0.7-0.7H-32l0,0h-0.7v-0.7h-0.7v-0.7h-0.6v-0.6h-0.7v-0.7h-0.7v-0.7v-0.7h-0.7v-0.7v-0.6l-0.7-0.7
	l0,0v-0.7v-0.7v-0.7V589l-0.6-0.7v-0.7v-0.7v-0.7l0,0v-0.6v-0.7v-0.7h0.6v-0.7v-0.6v-0.7v-0.7h0.7v-0.7v-0.7l0.7-0.6l0,0v-0.7
	l0.7-0.7l0,0l0.7-0.7v-0.7h0.6l0.7-0.6l0,0l0.7-0.7l0,0h0.7v-0.7h0.7h0.6l0,0h0.7v-0.7h0.7h0.7l0,0h0.7v0.7h0.6h0.7l0,0h0.7h0.7h0.6
	l0,0h0.7l0,0v-0.7l0,0v-9v-1.3l0,0v-0.7v-0.7h-0.7l0,0v-0.7h-0.6h-0.7v-0.7h-0.7v-0.6h-0.7l0.7-0.7v-0.7h0.7l0,0l0,0h0.7l0.6-0.7
	l0,0h0.7v-0.6h0.7l0.7-0.7l0,0l0.7-0.7h0.6l0,0l0,0h0.7l0,0v0.7v0.7l0,0v0.6v0.7v0.7v0.7v0.6v0.7v0.7v0.7v0.7v0.6v0.7v0.7l0,0v0.7
	v25.2v0.6l0.7,0.7v0.7l0,0h0.7l0,0h0.7h0.6l0,0h0.7V594.8L-17.1,594.8L-17.1,594.8z M-23.6,591.6v-9.7v-0.7l0,0l-0.7-0.7V580h-0.6
	v-0.7h-0.7v-0.7h-0.7l0,0l-0.7-0.7h-0.6l0,0h-0.7l0,0h-0.7l0,0h-0.7H-30l0,0h-0.6l0,0l-0.7,0.7l0,0H-32v0.7l0,0l-0.7,0.7l0,0v0.6
	v0.7l-0.7,0.7l0,0v0.7v0.7v0.6v0.7v0.7v0.7v0.6v0.7l0,0v0.7v0.7l0.7,0.7v0.6l0,0v0.7l0.7,0.7v0.7h0.7v0.7l0,0l0.7,0.6l0.6,0.7l0,0
	h0.7v0.7h0.7l0,0h0.7h0.7l0,0l0,0h0.6h0.7l0,0l0.7-0.7h0.7l0,0l0.6-0.7l0,0l0.7-0.6l0,0V591.6L-23.6,591.6z"/>
<polygon class="st0" points="-1,577.4 -1,578 -1,578.7 -1.6,579.3 -1.6,580 -1.6,580 -1.6,580.6 -2.3,580.6 -2.3,580.6 -2.9,580.6 
	-2.9,580.6 -2.9,580.6 -3.5,580.6 -4.2,580.6 -4.8,580 -4.8,580 -5.5,580 -6.1,580 -6.1,580 -6.1,580 -6.8,580 -7.4,580.6 
	-7.4,580.6 -7.4,580.6 -8.1,581.2 -8.1,581.2 -8.1,581.9 -8.1,582.5 -8.1,583.2 -8.7,583.8 -8.7,584.5 -8.7,592.2 -8.1,592.9 
	-8.1,593.5 -8.1,594.2 -8.1,594.8 -7.4,594.8 -7.4,594.8 -7.4,594.8 -6.8,594.8 -6.1,595.5 -5.5,595.5 -5.5,595.5 -4.8,596.1 
	-4.8,596.1 -4.2,596.7 -4.2,596.7 -4.8,597.4 -4.8,597.4 -4.8,597.4 -5.5,597.4 -6.1,597.4 -6.8,597.4 -6.8,597.4 -7.4,597.4 
	-8.1,597.4 -8.7,597.4 -8.7,597.4 -9.4,597.4 -10,597.4 -10,597.4 -10.7,597.4 -11.3,597.4 -11.3,597.4 -12,597.4 -12,597.4 
	-12.6,597.4 -12.6,597.4 -12.6,597.4 -13.2,597.4 -13.9,597.4 -13.9,597.4 -13.9,597.4 -13.9,596.7 -13.9,596.1 -13.9,596.1 
	-13.2,595.5 -12.6,595.5 -12.6,594.8 -12,594.8 -12,594.2 -12,594.2 -12,593.5 -12,592.9 -12,592.9 -12,583.8 -12,582.5 -12,581.9 
	-12,581.9 -12,581.2 -12,581.2 -12,581.2 -12.6,580.6 -12.6,580.6 -13.2,580 -13.9,580 -13.9,579.3 -13.9,579.3 -14.5,579.3 
	-14.5,578.7 -14.5,578 -13.9,578 -13.9,578 -13.2,577.4 -12.6,577.4 -12.6,576.7 -12,576.7 -12,576.7 -11.3,576.1 -11.3,576.1 
	-10.7,576.1 -10.7,575.4 -10,574.8 -10,574.8 -10,574.8 -9.4,574.8 -9.4,575.4 -8.7,575.4 -8.7,576.1 -8.7,576.7 -8.7,577.4 
	-8.7,578 -8.7,578.7 -8.7,578.7 -8.1,578.7 -8.1,578.7 -8.1,578.7 -8.1,578 -7.4,578 -6.8,577.4 -6.1,576.7 -6.1,576.7 -5.5,576.1 
	-5.5,576.1 -4.8,576.1 -4.2,575.4 -4.2,575.4 -3.5,575.4 -3.5,575.4 -2.9,575.4 -2.9,575.4 -2.3,575.4 -1.6,575.4 -1.6,575.4 
	-1.6,576.1 -1,576.7 -1,577.4 -1,577.4 "/>
<path class="st0" d="M9.4,565.1L9.4,565.1v0.7l-0.7,0.7v0.7l0,0l-0.7,0.7l0,0l-0.7,0.6l0,0H6.8l0,0H6.1l-0.7-0.6l0,0l0,0L4.8,567
	v-0.7l0,0v-0.7l0,0v-0.7v-0.6v-0.7h0.7v-0.7l0.7-0.7l0,0h0.6v-0.7h0.7l0,0l0.7,0.7l0,0h0.7v0.7h0.7v0.7v0.7V565.1L9.4,565.1z
	 M11.3,596.7v0.7l0,0l0,0h-0.7l0,0H10H9.4l0,0H8.7H8.1l0,0H7.4H6.8l0,0H6.1H5.5l0,0H4.8H4.2l0,0l0,0H3.5H2.9l0,0l0,0v-0.7v-0.7l0,0
	l0.6-0.6l0,0h0.7v-0.7h0.7v-0.7v-0.7v-0.7v-0.6l0,0v-7.1v-0.7v-0.7v-0.6v-0.7v-0.7l0,0l-0.7-0.7l0,0v-0.7H3.5L2.9,580l0,0H2.3v-0.7
	l0,0v-0.7l0,0l0.7-0.7l0,0h0.6l0.7-0.7l0,0h0.7v-0.6h0.7l0.7-0.7l0,0l0,0l0.6-0.7h0.7v-0.7l0,0h0.7v0.7v0.7v0.7l0,0l0,0v0.6v0.7v0.7
	v0.7v0.7v0.6v0.7l0,0v0.7v0.7v0.7v0.6v0.7v0.7v0.7v0.6v0.7l0,0v0.7v0.7v0.7v0.6v0.7v0.7v0.7l0,0v0.7v0.6l0.7,0.7l0,0v0.7l0,0
	l0.7,0.7l0,0l0.6,0.7h0.7l0,0h0.7v0.6V596.7L11.3,596.7L11.3,596.7z"/>
<polygon class="st0" points="34.6,576.7 33.9,576.7 33.9,577.4 33.3,577.4 33.3,578 32.6,578 32.6,578 32,578.7 32,579.3 
	31.3,579.3 31.3,580 31.3,580.6 31.3,580.6 31.3,581.2 30.7,581.2 30.7,581.9 30.7,582.5 30.7,583.2 30,583.2 30,583.8 30,584.5 
	30,585.1 29.4,585.8 29.4,585.8 29.4,586.4 28.7,587.1 28.7,587.7 28.1,588.4 28.1,589 28.1,589.6 27.5,590.3 27.5,590.9 
	26.8,591.6 26.8,592.2 26.8,592.9 26.2,593.5 26.2,594.2 26.2,594.2 25.5,594.8 25.5,595.5 25.5,596.1 24.9,596.1 24.9,596.7 
	24.9,596.7 24.9,597.4 24.2,597.4 24.2,598.1 24.2,598.1 24.2,597.4 24.2,597.4 23.6,597.4 23.6,596.7 22.9,596.1 22.9,595.5 
	22.9,595.5 22.3,594.8 22.3,594.2 22.3,593.5 21.7,593.5 21.7,592.9 21,592.2 21,591.6 21,590.9 20.4,590.9 20.4,590.3 20.4,589.6 
	19.7,589 19.7,589 19.7,588.4 19,587.7 19,587.1 19,587.1 18.4,586.4 18.4,585.8 18.4,585.1 17.8,584.5 17.8,584.5 17.8,583.8 
	17.8,583.2 17.1,582.5 17.1,582.5 17.1,581.9 16.5,581.2 16.5,580.6 16.5,580 16.5,580 15.8,579.3 15.8,578.7 15.8,578.7 15.2,578 
	15.2,578 15.2,578 14.5,577.4 13.9,577.4 13.9,576.7 13.9,576.7 13.9,576.1 13.9,576.1 14.5,576.1 14.5,576.1 15.2,576.1 
	15.2,576.1 15.8,576.1 15.8,576.1 16.5,576.1 17.1,576.1 17.1,576.1 17.8,576.1 18.4,576.1 19,576.1 19.7,576.1 19.7,576.1 
	20.4,576.1 21,575.4 21,575.4 21.7,575.4 21.7,575.4 21.7,575.4 22.3,575.4 22.3,576.1 22.3,576.1 22.3,576.7 22.3,577.4 
	21.7,577.4 21.7,577.4 21,578 20.4,578 20.4,578 19.7,578.7 19.7,578.7 19.7,578.7 19.7,579.3 20.4,580 20.4,580 20.4,580.6 
	20.4,581.2 20.4,581.2 21,581.9 21,582.5 21,582.5 21,583.2 21.7,583.8 21.7,584.5 21.7,585.1 22.3,585.8 22.3,586.4 22.9,587.1 
	22.9,587.1 22.9,587.7 23.6,589 23.6,589.6 24.2,590.3 24.2,590.3 24.2,590.9 24.9,590.9 24.9,591.6 24.9,591.6 24.9,591.6 
	24.9,591.6 24.9,590.9 24.9,590.9 25.5,590.3 25.5,590.3 25.5,589.6 26.2,588.4 26.2,587.7 26.8,587.1 26.8,586.4 26.8,585.8 
	27.5,585.1 27.5,584.5 27.5,584.5 28.1,583.8 28.1,583.2 28.1,582.5 28.1,581.9 28.7,581.9 28.7,581.2 28.7,580.6 28.7,580 
	28.7,580 29.4,579.3 29.4,579.3 29.4,578.7 28.7,578 28.7,578 28.1,577.4 28.1,577.4 27.5,577.4 27.5,576.7 27.5,576.7 27.5,576.7 
	27.5,576.1 27.5,575.4 28.1,575.4 28.1,575.4 28.1,575.4 28.7,576.1 29.4,576.1 29.4,576.1 30,576.1 30.7,576.1 31.3,576.1 
	32,576.1 32.6,576.1 32.6,576.1 33.3,576.1 33.3,576.1 33.3,576.1 33.9,576.1 33.9,576.1 34.6,576.7 "/>
<path class="st0" d="M52.7,592.9L52.7,592.9v0.7l0,0v0.7H52l-0.7,0.7l0,0l-0.7,0.7l0,0l-0.7,0.6h-0.6l0,0l-0.7,0.7l0,0h-0.7
	l-0.7,0.7l0,0h-0.7h-0.6l0,0h-0.7h-0.7l0,0h-0.7h-0.7l0,0H43l0,0h-0.7l-0.7-0.7l0,0H41v-0.7h-0.6v-0.6h-0.7v-0.7l0,0l-0.7-0.7l0,0
	l-0.7-0.7v-0.7l0,0l-0.7-0.6v-0.7l0,0v-0.7l-0.6-0.7v-0.7V589v-0.7v-0.7v-0.7l0,0v-0.7v-0.6v-0.7v-0.7v-0.7v-0.6h0.6v-0.7v-0.7v-0.7
	l0.7-0.7l0,0V580v-0.7h0.7v-0.7l0.7-0.7l0,0v-0.7h0.7v-0.6H41l0.7-0.7l0,0h0.7v-0.7H43l0,0h0.6l0.7-0.7l0,0h0.7h0.7l0,0h0.7l0,0h0.6
	l0.7,0.7l0,0h0.7l0.7,0.7l0,0h0.7v0.7h0.6v0.6l0.7,0.7l0,0l0.7,0.7v0.7v0.7l0,0H52v0.6v0.7l0,0h0.7v0.7l0,0v0.7l0,0v0.7H52l-0.7,0.6
	l0,0h-0.7l-9.7,3.9v0.7v0.7l0.7,0.6v0.7v0.7l0,0l0.7,0.7v0.7l0,0l0.7,0.6l0,0l0.6,0.7l0,0l0.7,0.7l0,0h0.7l0,0h0.7v0.7h0.7h0.6v-0.7
	h0.7l0,0h0.7l0,0h0.7l0.7-0.7l0,0h0.6l0.7-0.7l0,0l0.7-0.6H52v-0.7h0.7l0,0v0.7V592.9L52.7,592.9L52.7,592.9z M48.1,581.2v-0.7V580
	h-0.7v-0.7v-0.7h-0.7V578h-0.6l0,0l-0.7-0.7h-0.7l0,0l0,0h-0.7l0,0h-0.7v0.7H43l0,0l-0.7,0.7l0,0l-0.7,0.7l0,0v0.7l0,0l-0.7,0.6v0.7
	v0.7v0.7v0.7v0.6v0.7v0.7v0.7l5.8-2.6l0,0l0.7-0.7l0,0l0.7-0.7V581.2L48.1,581.2L48.1,581.2z"/>
<polygon class="st0" points="81.7,593.5 81.7,594.2 81.7,594.2 81.1,594.8 81.1,594.8 80.4,595.5 80.4,595.5 79.8,596.1 79.8,596.1 
	79.1,596.7 78.5,596.7 78.5,596.7 77.8,597.4 77.2,597.4 77.2,597.4 76.6,597.4 76.6,597.4 75.9,598.1 75.3,598.1 75.3,598.1 
	74.6,598.1 74.6,598.1 74,598.1 73.3,598.1 73.3,597.4 72.7,597.4 72,597.4 72,597.4 71.4,596.7 71.4,596.7 70.8,596.7 70.1,596.1 
	70.1,596.1 69.4,596.1 69.4,595.5 68.8,595.5 68.8,594.8 68.8,594.8 68.8,594.2 68.2,594.2 68.2,593.5 67.5,592.9 67.5,592.9 
	67.5,592.2 67.5,591.6 66.9,590.9 66.9,590.3 66.9,590.3 66.9,589.6 66.9,589 66.9,588.4 66.9,587.7 66.9,587.1 66.9,587.1 
	66.9,586.4 66.9,585.8 66.9,585.1 66.9,584.5 66.9,583.8 66.9,583.2 67.5,583.2 67.5,582.5 67.5,581.9 67.5,581.2 68.2,581.2 
	68.2,580.6 68.2,580 68.8,580 68.8,579.3 69.4,578.7 69.4,578.7 69.4,578 70.1,578 70.1,577.4 70.8,577.4 71.4,576.7 71.4,576.7 
	72,576.7 72,576.1 72.7,576.1 72.7,576.1 73.3,575.4 74,575.4 74,575.4 74.6,575.4 75.3,575.4 75.3,575.4 75.9,575.4 75.9,575.4 
	76.6,575.4 77.2,575.4 77.2,575.4 77.8,575.4 78.5,575.4 78.5,575.4 79.1,575.4 79.1,576.1 79.8,576.1 79.8,576.1 80.4,576.7 
	81.1,576.7 81.1,577.4 81.7,577.4 81.7,578 81.7,578 81.7,578 81.7,578.7 81.1,579.3 81.1,580 80.4,580.6 80.4,580.6 79.8,581.2 
	79.8,581.2 79.8,581.2 79.1,581.2 79.1,581.2 78.5,580.6 78.5,580 77.8,580 77.8,579.3 77.2,579.3 76.6,578.7 76.6,578.7 75.9,578 
	75.9,578 75.3,578 75.3,578 74.6,578 74.6,578 74,578 73.3,578 73.3,578 72.7,578.7 72.7,578.7 72,579.3 72,579.3 72,580 71.4,580 
	71.4,580.6 71.4,581.2 70.8,581.2 70.8,581.9 70.8,582.5 70.8,583.2 70.8,583.8 70.8,584.5 70.8,585.1 70.8,585.1 70.8,585.8 
	70.8,586.4 70.8,587.1 70.8,587.7 70.8,588.4 70.8,589 70.8,589.6 71.4,590.3 71.4,590.3 71.4,590.9 71.4,591.6 72,591.6 72,592.2 
	72,592.2 72.7,592.9 72.7,593.5 73.3,593.5 73.3,594.2 74,594.2 74.6,594.2 74.6,594.8 75.3,594.8 75.3,594.8 75.9,594.8 
	76.6,594.8 76.6,594.8 77.2,594.8 77.8,594.8 77.8,594.8 78.5,594.8 79.1,594.2 79.1,594.2 79.8,594.2 79.8,593.5 80.4,593.5 
	81.1,592.9 81.1,592.9 81.1,592.9 81.1,592.9 81.7,592.9 81.7,593.5 81.7,593.5 "/>
<polygon class="st0" points="106.9,596.7 106.9,597.4 106.3,597.4 106.3,597.4 105.6,597.4 105,597.4 104.3,597.4 103.7,597.4 
	103,597.4 103,597.4 102.4,597.4 101.8,597.4 101.1,597.4 101.1,597.4 100.5,597.4 100.5,597.4 99.8,597.4 99.8,597.4 99.2,597.4 
	99.2,597.4 99.2,597.4 98.5,597.4 97.9,597.4 97.9,597.4 97.9,597.4 97.9,596.7 97.9,596.7 97.9,596.1 97.9,596.1 98.5,595.5 
	98.5,595.5 99.2,595.5 99.8,594.8 99.8,594.8 99.8,594.8 99.8,594.2 99.8,593.5 99.8,592.9 99.8,592.9 99.8,585.1 99.8,584.5 
	99.8,583.8 99.8,583.2 99.8,582.5 99.8,581.9 99.2,581.9 99.2,581.2 99.2,580.6 99.2,580.6 98.5,580 98.5,580 98.5,579.3 
	97.9,579.3 97.9,579.3 97.2,578.7 97.2,578.7 96.6,578.7 96,578.7 96,578.7 96,578.7 95.3,578.7 94.6,578.7 94.6,578.7 94,578.7 
	93.3,578.7 93.3,579.3 92.7,579.3 92.7,579.3 92.1,580 92.1,580 91.4,580.6 90.8,580.6 90.8,581.2 90.8,581.9 90.8,581.9 
	90.8,592.9 90.8,592.9 90.8,593.5 90.8,594.2 91.4,594.2 91.4,594.8 91.4,594.8 92.1,595.5 92.7,595.5 92.7,595.5 93.3,595.5 
	94,596.1 94,596.1 94,596.7 94,596.7 94,597.4 94,597.4 94,597.4 93.3,597.4 93.3,597.4 92.7,597.4 92.7,597.4 92.1,597.4 
	91.4,597.4 91.4,597.4 90.8,597.4 90.1,597.4 90.1,597.4 89.5,597.4 88.8,597.4 88.8,597.4 88.2,597.4 87.5,597.4 87.5,597.4 
	86.9,597.4 86.3,597.4 85.6,597.4 85.6,597.4 85.6,597.4 85,597.4 85,596.7 85,596.7 85,596.7 85.6,596.1 85.6,596.1 86.3,595.5 
	86.9,595.5 86.9,595.5 86.9,594.8 87.5,594.8 87.5,594.2 87.5,593.5 87.5,592.9 87.5,567 87.5,566.4 87.5,565.7 87.5,565.1 
	87.5,565.1 86.9,564.5 86.9,563.8 86.9,563.8 86.9,563.2 86.3,563.2 86.3,562.5 85.6,562.5 85,561.9 85,561.9 84.3,561.2 
	84.3,561.2 85,560.6 85,560.6 85.6,559.9 85.6,559.9 86.3,559.9 86.3,559.3 86.9,559.3 86.9,559.3 87.5,558.7 88.2,558.7 88.2,558 
	88.8,558 89.5,557.3 89.5,557.3 90.1,557.3 90.1,557.3 90.1,557.3 90.8,557.3 90.8,558 90.8,558.7 90.8,558.7 90.8,559.3 
	90.8,559.9 90.8,560.6 90.8,561.2 90.8,561.9 90.8,562.5 90.8,563.2 90.8,563.8 90.8,564.5 90.8,565.1 90.8,565.7 90.8,566.4 
	90.8,566.4 90.8,567 90.8,576.7 90.8,577.4 90.8,578 90.8,578 90.8,578 90.8,578 91.4,578 91.4,578 92.1,577.4 92.1,577.4 
	92.7,576.7 93.3,576.7 93.3,576.1 94,576.1 94.6,575.4 94.6,575.4 95.3,575.4 95.3,575.4 96,574.8 96.6,574.8 96.6,574.8 
	97.2,574.8 97.2,574.8 97.9,574.8 98.5,574.8 98.5,574.8 99.2,574.8 99.2,575.4 99.8,575.4 100.5,575.4 100.5,575.4 101.1,576.1 
	101.1,576.1 101.1,576.7 101.8,576.7 101.8,577.4 101.8,577.4 102.4,578 102.4,578.7 102.4,578.7 102.4,579.3 103,580 103,580.6 
	103,580.6 103,581.2 103,581.9 103,582.5 103,583.2 103,592.9 103,593.5 103,593.5 103.7,594.2 103.7,594.8 103.7,594.8 
	104.3,595.5 104.3,595.5 105,595.5 105,595.5 105.6,596.1 105.6,596.1 106.3,596.1 106.3,596.1 106.9,596.7 106.9,596.7 "/>
<path class="st0" d="M125.7,594.8L125.7,594.8v0.7H125l-0.7,0.6l0,0l0,0l-0.7,0.7h-0.6l-0.7,0.7l0,0h-0.7l0,0l0,0h-0.7h-0.6v-0.7
	h-0.7l0,0v-0.7l-0.7-0.6l0,0l0,0h-0.7v0.6h-0.7l-0.6,0.7l0,0h-0.7v0.7H116h-0.7l0,0h-0.7l-0.6,0.7l0,0h-0.7h-0.7v-0.7h-0.7l0,0h-0.7
	l-0.6-0.7l0,0v-0.7h-0.7v-0.6l0,0l-0.7-0.7v-0.7v-0.7v-0.7v-0.6l0,0l0,0v-0.7l0,0v-0.7l0,0v-0.7h0.7v-0.7l0,0l0.7-0.6l0,0v-0.7h0.6
	v-0.7h0.7l0,0l0.7-0.7h0.7l0,0l0.7-0.7h0.6h0.7l0.7-0.6l0,0h0.7h0.7l0.6-0.7l0,0h0.7l0.7-0.7l0,0v-0.7l0,0v-1.9v-0.7v-0.7l0,0V580
	l-0.7-0.7v-0.7l0,0l-0.7-0.7l0,0l0,0l-0.6-0.7h-0.7l0,0H116l0,0l-0.7,0.7l0,0l-0.7,0.7l0,0v0.7l0,0L114,580v0.6l-0.7,0.7l0,0
	l-0.7,0.7l0,0h-0.7l0,0h-0.7l0,0h-0.6v-0.7l0,0l-0.7-0.7V580l0,0l0.7-0.7l0,0v-0.7l0.6-0.7l0,0l0.7-0.7h0.7v-0.6h0.7l0.7-0.7l0,0
	h0.6l0.7-0.7l0,0h0.7l0,0h0.7l0.7-0.7l0,0h0.6l0,0h0.7h0.7v0.7h0.7h0.7l0,0l0.6,0.7l0,0v0.7h0.7v0.6l0,0v0.7l0.7,0.7v0.7l0,0v0.7
	v0.6v11.7v0.6l0,0v0.7h0.7l0,0h0.6l0,0h0.7l0,0h0.7l0,0h0.7v0.7V594.8L125.7,594.8L125.7,594.8z M119.2,588.4v-0.7v-0.7h-0.7h-0.7
	l0,0h-0.6l-0.7,0.7l0,0H116l-0.7,0.7l0,0h-0.7L114,589l0,0v0.6h-0.7v0.7l0,0v0.7h-0.7v0.7l0,0v0.7l0.7,0.6l0,0v0.7v0.7h0.7l0,0
	l0.6,0.7l0,0h0.7h0.7l0,0h0.7l0,0h0.7l0.6-0.7l0,0h0.7v-0.7h0.7v-0.7l0,0V588.4z"/>
<polygon class="st0" points="150.2,596.7 150.2,597.4 150.2,597.4 149.6,597.4 149.6,597.4 148.9,597.4 148.3,597.4 147.6,597.4 
	147,597.4 147,597.4 146.3,597.4 145.7,597.4 145.7,597.4 145,597.4 144.4,597.4 144.4,597.4 143.7,597.4 143.7,597.4 143.1,597.4 
	143.1,597.4 142.4,597.4 141.8,597.4 141.8,597.4 141.2,597.4 141.2,597.4 141.2,596.7 141.2,596.7 141.2,596.1 141.8,596.1 
	141.8,596.1 142.4,595.5 142.4,595.5 143.1,595.5 143.1,594.8 143.1,594.2 143.7,593.5 143.7,592.9 143.7,592.9 143.7,585.1 
	143.7,584.5 143.7,583.8 143.1,583.2 143.1,582.5 143.1,582.5 143.1,581.9 143.1,581.2 142.4,581.2 142.4,580.6 142.4,580 
	141.8,580 141.8,580 141.8,579.3 141.2,579.3 141.2,579.3 140.5,578.7 139.9,578.7 139.9,578.7 139.2,578.7 138.6,578.7 
	138.6,578.7 137.9,578.7 137.9,579.3 137.3,579.3 136.6,579.3 136.6,579.3 136,580 136,580 135.4,580.6 134.7,580.6 134.7,581.2 
	134.7,581.9 134.7,581.9 134,582.5 134,592.9 134,592.9 134.7,593.5 134.7,594.2 134.7,594.2 135.4,594.8 135.4,594.8 136,595.5 
	136,595.5 136.6,595.5 136.6,595.5 137.3,595.5 137.9,596.1 137.9,596.1 137.9,596.7 137.9,596.7 137.9,597.4 137.3,597.4 
	136.6,597.4 136.6,597.4 136,597.4 136,597.4 135.4,597.4 134.7,597.4 134.7,597.4 134,597.4 133.4,597.4 133.4,597.4 132.8,597.4 
	132.1,597.4 132.1,597.4 131.5,597.4 130.8,597.4 130.2,597.4 130.2,598.1 129.5,598.1 128.9,598.1 128.9,598.1 128.9,597.4 
	128.9,597.4 128.9,596.7 128.9,596.7 128.9,596.1 129.5,596.1 130.2,596.1 130.2,595.5 130.2,595.5 130.8,594.8 130.8,594.8 
	130.8,594.2 130.8,593.5 130.8,592.9 130.8,592.2 130.8,583.8 130.8,582.5 130.8,581.9 130.8,581.9 130.8,581.2 130.8,580.6 
	130.8,580.6 130.2,580.6 130.2,580.6 129.5,580 129.5,580 128.9,580 128.9,580 128.2,579.3 128.2,578.7 128.2,578.7 128.9,578 
	128.9,578 129.5,578 129.5,577.4 130.2,577.4 130.8,576.7 130.8,576.7 131.5,576.1 131.5,576.1 132.1,575.4 132.8,575.4 
	132.8,574.8 133.4,574.8 133.4,574.8 133.4,574.8 133.4,575.4 134,576.1 134,576.7 134,576.7 134,577.4 134,578 134.7,578.7 
	134.7,578.7 134.7,578.7 134.7,578 134.7,578 135.4,578 136,577.4 136.6,576.7 136.6,576.7 137.3,576.7 137.3,576.1 137.9,576.1 
	138.6,576.1 138.6,575.4 139.2,575.4 139.2,575.4 139.9,575.4 140.5,575.4 140.5,575.4 141.2,575.4 141.2,574.8 141.8,575.4 
	141.8,575.4 142.4,575.4 143.1,575.4 143.1,575.4 143.7,575.4 143.7,576.1 144.4,576.1 144.4,576.1 145,576.7 145,576.7 145,577.4 
	145.7,577.4 145.7,578 145.7,578 146.3,578.7 146.3,579.3 146.3,579.3 146.3,580 146.3,580.6 146.3,581.2 147,581.9 147,582.5 
	147,583.2 147,583.2 147,592.2 147,592.9 147,593.5 147,594.2 147,594.8 147.6,594.8 147.6,595.5 148.3,595.5 148.3,595.5 
	148.9,595.5 149.6,596.1 150.2,596.1 150.2,596.1 150.2,596.7 150.2,596.7 "/>
<polygon class="st0" points="174.8,596.7 174.1,597.4 174.1,597.4 173.5,597.4 173.5,597.4 172.8,597.4 172.2,597.4 172.2,597.4 
	171.5,597.4 170.9,597.4 170.2,597.4 170.2,597.4 169.6,597.4 168.9,597.4 168.9,597.4 168.3,597.4 167.6,597.4 167.6,597.4 
	167,597.4 167,597.4 166.4,597.4 166.4,597.4 165.7,597.4 165.7,597.4 165.1,597.4 165.1,596.7 165.1,596.7 165.7,596.1 
	165.7,596.1 166.4,596.1 166.4,595.5 167,595.5 167,595.5 167,594.8 167.6,594.2 167.6,593.5 167.6,592.9 167.6,592.9 167.6,585.1 
	167.6,584.5 167.6,583.8 167.6,583.2 167.6,582.5 167.6,582.5 167,581.9 167,581.2 167,581.2 167,580.6 166.4,580 166.4,580 
	165.7,580 165.7,579.3 165.1,579.3 165.1,579.3 164.4,578.7 164.4,578.7 163.8,578.7 163.8,578.7 163.1,578.7 162.5,578.7 
	162.5,578.7 161.8,579.3 161.2,579.3 161.2,579.3 160.6,579.3 159.9,580 159.9,580 159.2,580.6 159.2,580.6 158.6,581.2 
	158.6,581.9 158.6,581.9 158.6,582.5 158.6,592.9 158.6,592.9 158.6,593.5 158.6,594.2 158.6,594.2 159.2,594.8 159.2,594.8 
	159.9,595.5 160.6,595.5 160.6,595.5 161.2,595.5 161.8,595.5 161.8,596.1 161.8,596.1 161.8,596.7 161.8,596.7 161.8,597.4 
	161.2,597.4 161.2,597.4 160.6,597.4 160.6,597.4 159.9,597.4 159.2,597.4 159.2,597.4 158.6,597.4 157.9,597.4 157.9,597.4 
	157.3,597.4 156.7,597.4 156.7,597.4 156,597.4 155.4,597.4 155.4,597.4 154.7,597.4 154.1,598.1 153.4,598.1 153.4,598.1 
	153.4,598.1 152.8,597.4 152.8,597.4 152.8,596.7 152.8,596.7 153.4,596.1 153.4,596.1 154.1,596.1 154.1,595.5 154.7,595.5 
	154.7,594.8 154.7,594.8 154.7,594.2 155.4,593.5 155.4,592.9 155.4,592.2 155.4,583.8 155.4,582.5 155.4,581.9 154.7,581.9 
	154.7,581.2 154.7,580.6 154.7,580.6 154.7,580.6 154.1,580.6 154.1,580 153.4,580 152.8,580 152.8,580 152.8,579.3 152.1,578.7 
	152.8,578.7 152.8,578 153.4,578 153.4,578 154.1,577.4 154.1,577.4 154.7,576.7 155.4,576.7 155.4,576.1 156,576.1 156.7,575.4 
	156.7,575.4 157.3,574.8 157.3,574.8 157.3,574.8 157.3,574.8 157.9,575.4 157.9,576.1 157.9,576.7 157.9,576.7 157.9,577.4 
	158.6,578 158.6,578.7 158.6,578.7 158.6,578.7 158.6,578 159.2,578 159.2,578 159.9,577.4 160.6,576.7 160.6,576.7 161.2,576.7 
	161.8,576.1 161.8,576.1 162.5,576.1 163.1,575.4 163.1,575.4 163.8,575.4 163.8,575.4 164.4,575.4 165.1,575.4 165.1,575.4 
	165.1,574.8 165.7,575.4 166.4,575.4 166.4,575.4 167,575.4 167.6,575.4 167.6,575.4 168.3,576.1 168.3,576.1 168.9,576.1 
	168.9,576.7 168.9,576.7 169.6,577.4 169.6,577.4 169.6,578 170.2,578 170.2,578.7 170.2,579.3 170.2,579.3 170.9,580 170.9,580.6 
	170.9,581.2 170.9,581.9 170.9,582.5 170.9,583.2 170.9,583.2 170.9,592.2 170.9,592.9 170.9,593.5 170.9,594.2 171.5,594.8 
	171.5,594.8 171.5,595.5 172.2,595.5 172.8,595.5 172.8,595.5 173.5,596.1 174.1,596.1 174.1,596.1 174.8,596.7 174.8,596.7 "/>
<path class="st0" d="M192.2,592.9L192.2,592.9v0.7h-0.6v0.7h-0.7v0.7h-0.7l-0.7,0.7l0,0l-0.7,0.6l0,0h-0.6v0.7h-0.7H187v0.7h-0.7
	h-0.7l0,0h-0.6l0,0h-0.7h-0.7l0,0h-0.7h-0.7l0,0h-0.6h-0.7v-0.7h-0.7l0,0l-0.7-0.7h-0.6v-0.6h-0.7v-0.7l0,0v-0.7H178v-0.7l-0.7-0.7
	l0,0v-0.6l-0.7-0.7l0,0v-0.7v-0.7v-0.7V589l-0.6-0.7v-0.7v-0.7l0,0v-0.7v-0.6v-0.7l0.6-0.7v-0.7v-0.6l0,0v-0.7v-0.7l0.7-0.7v-0.7
	l0,0l0.7-0.6v-0.7l0,0l0.7-0.7V578l0,0l0.7-0.7l0,0l0.6-0.6l0,0l0.7-0.7h0.7l0,0l0.7-0.7l0,0h0.6h0.7v-0.7h0.7l0,0h0.7h0.7l0,0h0.6
	h0.7v0.7h0.7l0,0l0.7,0.7h0.7l0,0l0.6,0.7l0,0l0.7,0.6v0.7h0.7v0.7v0.7l0.7,0.7l0,0l0,0v0.6l0.7,0.7l0,0l0,0l0.6,0.7l0,0v0.7h-0.6
	v0.7l0,0l-0.7,0.6h-0.7h-0.7l-9.7,3.9l0.7,0.7v0.7v0.6v0.7v0.7h0.7v0.7v0.7h0.7v0.6h0.6v0.7l0,0l0.7,0.7h0.7l0,0h0.7l0,0l0.7,0.7
	l0,0h0.6l0.7-0.7l0,0h0.7l0,0h0.7l0,0l0.7-0.7h0.6l0,0l0.7-0.7h0.7v-0.6h0.7l0.7-0.7l0,0l0,0l0.6,0.7V592.9L192.2,592.9L192.2,592.9
	z M187,581.2v-0.7V580l0,0l-0.7-0.7v-0.7l0,0l-0.7-0.7l0,0h-0.6l-0.7-0.7l0,0h-0.7l0,0l0,0h-0.7h-0.7v0.7h-0.6l0,0v0.7h-0.7v0.7l0,0
	l-0.7,0.7l0,0v0.6v0.7l-0.7,0.7v0.7v0.7v0.6v0.7v0.7v0.7l5.8-2.6h0.7v-0.7h0.7v-0.7V581.2L187,581.2L187,581.2z"/>
<polygon class="st0" points="205.1,596.7 205.1,596.7 205.1,597.4 204.5,597.4 204.5,597.4 203.8,597.4 203.2,597.4 203.2,597.4 
	202.5,597.4 202.5,597.4 201.9,597.4 201.2,597.4 201.2,597.4 200.6,597.4 200,597.4 200,597.4 199.3,597.4 198.7,597.4 
	198.7,597.4 198,597.4 197.4,597.4 196.7,597.4 196.1,597.4 196.1,597.4 196.1,597.4 195.4,597.4 195.4,596.7 196.1,596.1 
	196.1,596.1 196.7,595.5 196.7,595.5 197.4,595.5 197.4,594.8 197.4,594.8 198,594.2 198,593.5 198,592.9 198,592.9 198,567 
	198,566.4 198,565.7 198,565.1 198,565.1 197.4,564.5 197.4,563.8 197.4,563.8 197.4,563.8 196.7,563.2 196.7,563.2 196.1,562.5 
	196.1,562.5 196.1,562.5 195.4,561.9 195.4,561.9 195.4,561.2 195.4,561.2 195.4,560.6 196.1,560.6 196.1,559.9 196.7,559.9 
	196.7,559.9 197.4,559.3 197.4,559.3 198,559.3 198.7,558.7 198.7,558.7 199.3,558 199.3,558 200,557.3 200.6,557.3 200.6,557.3 
	200.6,557.3 201.2,557.3 201.2,557.3 201.2,558 201.2,558.7 201.2,558.7 201.2,559.3 201.2,559.3 201.2,560.6 201.2,561.2 
	201.2,561.2 201.2,561.9 201.2,562.5 201.2,563.2 201.2,563.8 201.2,564.5 201.2,565.1 201.2,565.7 201.2,566.4 201.2,566.4 
	201.2,567 201.2,592.2 201.2,592.9 201.2,593.5 201.9,593.5 201.9,594.2 201.9,594.8 202.5,594.8 202.5,594.8 203.2,595.5 
	203.2,595.5 203.8,595.5 204.5,595.5 204.5,595.5 205.1,596.1 205.1,596.1 205.1,596.7 "/>
<polygon class="st0" points="42,79.7 42,80.4 42,80.4 42,81 41.4,81.7 40.7,81.7 40.1,82.3 40.1,82.3 39.4,83 38.8,83 38.8,83 
	38.1,83 37.5,83.6 36.8,83.6 36.2,83.6 36.2,83.6 35.5,83.6 34.9,83.6 34.2,83.6 34.2,83 33.6,83 32.9,83 32.9,82.3 32.3,82.3 
	32.3,81.7 31.7,81.7 31.7,81 31.7,80.4 31,80.4 31,79.7 31,79.1 31,78.4 30.4,77.8 30.4,77.2 30.4,76.5 30.4,75.9 30.4,63.6 
	30.4,62.3 30.4,61.7 30.4,61 30.4,61 30.4,60.3 29.7,60.3 29.7,60.3 29.1,59.7 28.4,59.7 27.8,59.1 27.8,58.4 27.8,57.8 28.4,57.1 
	28.4,57.1 29.1,56.5 29.7,56.5 29.7,55.8 30.4,55.8 30.4,55.2 31,54.5 31,54.5 31.7,53.9 31.7,53.2 32.3,52.6 32.3,52 32.9,51.3 
	32.9,50.7 33.6,50.7 33.6,50.7 34.2,50.7 34.2,50.7 34.9,51.3 34.9,55.8 34.9,56.5 34.9,56.5 35.5,56.5 35.5,56.5 41.4,56.5 
	41.4,57.1 41.4,57.1 41.4,58.4 41.4,58.4 41.4,59.1 40.7,59.7 40.7,59.7 40.1,60.3 39.4,60.3 35.5,60.3 34.9,60.3 34.9,60.3 
	34.9,60.3 34.2,61 34.2,61.7 34.2,62.3 34.2,73.3 34.2,74.6 34.2,75.2 34.2,75.9 34.9,76.5 34.9,77.2 34.9,77.8 34.9,78.4 
	34.9,78.4 35.5,79.1 35.5,79.1 36.2,79.7 36.2,79.7 36.8,79.7 37.5,79.7 38.1,79.7 38.1,79.7 38.8,79.7 39.4,79.7 40.1,79.7 
	40.7,79.7 40.7,79.7 41.4,79.1 42,79.1 42,79.1 42,79.7 42,79.7 "/>
<path class="st0" d="M67.2,69.4V70v0.7v0.7V72v0.7v0.7l-0.6,0.7v0.7v0.6l-0.7,0.7v0.7l0,0l-0.7,0.7v0.7l-0.7,0.6v0.7h-0.7v0.7
	l-0.6,0.7h-0.7V81H62l-0.7,0.6l0,0l-0.7,0.7h-0.6l0,0L59.4,83h-0.7h-0.7l0,0h-0.7h-0.6h-0.7l0,0h-0.7h-0.7h-0.7h-0.6H53l0,0
	l-0.7-0.7h-0.7h-0.6v-0.7h-0.7h-0.7V81l-0.7-0.7l0,0l-0.7-0.7l0,0l-0.6-0.7v-0.7h-0.7v-0.6v-0.7l-0.7-0.7v-0.7v-0.7l-0.7-0.6v-0.7
	v-0.7v-0.7V72v-0.6v-0.7l0,0V70v-1.3v-0.6v-0.7v-0.7v-0.7l0.7-0.6l0,0v-0.7l0.7-0.7v-0.7v-0.7l0.7-0.6v-0.7h0.6V61l0.7-0.7l0,0
	l0.7-0.7l0,0l0.7-0.6l0,0l0.7-0.7h0.6v-0.7h0.7l0.7-0.7h0.7l0,0l0.6-0.7h0.7h0.7l0,0h0.7h0.7l0,0h0.6h0.7h0.7h0.7h0.7v0.7h0.6h0.7
	l0.7,0.7l0,0h0.7l0.7,0.7l0,0l0.6,0.7l0,0l0.7,0.6l0,0l0.7,0.7V61l0.7,0.7l0,0v0.7l0.7,0.6v0.7v0.7l0.6,0.7v0.7v0.6v0.7v0.7v0.7v0.6
	V69.4L67.2,69.4z M62.7,71.3v-0.7V70v-0.7v-1.3v-0.7v-0.7v-0.7L62,65.5v-0.7l0,0l-0.7-0.7v-0.7v-0.7h-0.7v-0.6l-0.6-0.7V61h-0.7
	l-0.7-0.7l0,0l-0.7-0.7h-0.7l0,0h-0.6h-0.7l0,0h-0.7h-0.7l0,0h-0.7l-0.6,0.7l0,0L53,61h-0.7v0.7l-0.7,0.7l0,0l-0.6,0.6v0.7v0.7
	l-0.7,0.7v0.7v0.6v0.7v0.7v0.7v0.6V70v0.7v0.7V72v0.7v0.7l0.7,0.7v0.7v0.6v0.7h0.6v0.7l0.7,0.7l0,0v0.7l0.7,0.6l0,0l0.7,0.7h0.6v0.7
	h0.7h0.7l0.7,0.7l0,0h0.7h0.6h0.7l0.7-0.7l0,0h0.7l0.7-0.7l0,0l0.6-0.7v-0.6h0.7v-0.7l0.7-0.7v-0.7l0,0l0.7-0.7v-0.6v-0.7v-0.7V72
	V71.3L62.7,71.3L62.7,71.3z"/>
<polygon class="st0" points="98.2,82.3 98.2,83 97.5,83 96.9,83 96.9,83 96.3,83 95.6,83 95,83 94.3,83 93.7,83 93,83 92.4,83 
	92.4,83 91.7,83 91.1,83 90.5,83 90.5,83 89.8,83 89.1,83 89.1,83 88.5,83 87.9,83 87.2,83 87.2,83 87.2,82.3 87.2,82.3 87.2,82.3 
	87.2,81.7 87.2,81 87.9,81 88.5,81 89.1,80.4 89.1,80.4 89.8,79.7 89.8,79.1 89.8,78.4 89.8,77.8 89.8,77.2 89.8,68.1 89.8,67.5 
	89.8,66.8 89.8,66.2 89.8,65.5 89.8,64.9 89.1,64.2 89.1,63.6 89.1,62.9 88.5,62.9 88.5,62.3 88.5,62.3 87.9,61.7 87.2,61.7 
	87.2,61 86.6,61 86.6,61 85.9,61 85.3,60.3 84.6,60.3 84.6,60.3 84,61 83.3,61 82.7,61 82.1,61 82.1,61.7 81.4,61.7 80.8,61.7 
	80.8,62.3 80.1,62.3 79.5,62.9 79.5,63.6 78.8,64.2 78.8,64.2 78.8,64.9 78.8,77.2 78.8,77.8 78.8,78.4 79.5,79.1 79.5,79.1 
	79.5,79.7 80.1,80.4 80.8,80.4 80.8,80.4 81.4,81 82.1,81 82.7,81 82.7,81 83.3,81.7 83.3,81.7 83.3,82.3 82.7,83 82.7,83 82.1,83 
	81.4,83 80.8,83 80.8,83 80.1,83 79.5,83 78.8,83 78.2,83 78.2,83 77.5,83 76.9,83 76.2,83 75.6,83 75.6,83 74.9,83 74.3,83.6 
	73.6,83.6 73,83.6 73,83.6 72.4,83.6 72.4,83 72.4,82.3 72.4,82.3 72.4,82.3 72.4,81.7 73,81 73.6,81 73.6,81 74.3,80.4 74.3,80.4 
	74.3,79.7 74.9,79.1 74.9,78.4 74.9,77.8 74.9,76.5 74.9,66.2 74.9,65.5 74.9,64.9 74.9,64.2 74.3,63.6 74.3,62.9 74.3,62.9 
	74.3,62.9 73.6,62.3 73.6,62.3 73,62.3 72.4,61.7 72.4,61.7 71.7,61 71.7,61 71.7,60.3 71.7,59.7 72.4,59.7 73,59.1 73.6,59.1 
	73.6,59.1 74.3,58.4 74.9,57.8 75.6,57.8 75.6,57.1 76.2,56.5 76.9,56.5 77.5,55.8 77.5,55.8 77.5,55.8 77.5,55.8 78.2,56.5 
	78.2,57.1 78.2,57.8 78.2,57.8 78.8,59.1 78.8,59.7 78.8,60.3 78.8,60.3 78.8,60.3 79.5,59.7 79.5,59.7 80.1,59.1 80.8,59.1 
	81.4,58.4 81.4,58.4 82.1,57.8 82.7,57.8 83.3,57.1 83.3,57.1 84,57.1 84.6,56.5 85.3,56.5 85.3,56.5 85.9,56.5 86.6,56.5 
	87.2,56.5 87.2,56.5 87.9,56.5 87.9,56.5 88.5,56.5 89.1,56.5 89.8,56.5 89.8,56.5 90.5,57.1 90.5,57.1 91.1,57.8 91.1,57.8 
	91.7,58.4 91.7,58.4 92.4,59.1 92.4,59.7 93,59.7 93,60.3 93,61 93,61.7 93.7,62.3 93.7,62.9 93.7,63.6 93.7,64.2 93.7,64.9 
	93.7,65.5 93.7,66.2 93.7,77.2 93.7,77.8 93.7,78.4 94.3,79.1 94.3,79.7 94.3,79.7 95,80.4 95,80.4 95.6,81 96.3,81 96.9,81 
	97.5,81.7 98.2,81.7 98.2,82.3 98.2,82.3 "/>
<path class="st0" d="M119.5,77.2v0.7h-0.6v0.6l0,0l-0.7,0.7l-0.7,0.7l-0.7,0.7h-0.7V81h-0.6v0.6H115h-0.7l-0.7,0.7l0,0H113l-0.6,0.7
	h-0.7l0,0h-0.7h-0.7h-0.6h-0.7l0,0l0,0h-0.7h-0.7h-0.7h-0.6v-0.7H106h-0.7v-0.7h-0.7L104,81l0,0l-0.6-0.7v-0.7h-0.7v-0.7h-0.7v-0.7
	v-0.6l-0.7-0.7v-0.7h-0.7v-0.7v-0.7v-0.6v-0.7l-0.6-0.7v-0.7v-1.3v-0.7l0,0v-1.3v-0.7v-0.6v-0.7l0.6-0.7v-0.7v-0.6v-0.7v-0.7
	l0.7-0.7v-0.7v-0.6h0.7v-0.7l0.7-0.7v-0.7l0.7-0.7l0,0l0.6-0.6l0,0l0.7-0.7v-0.7h0.7l0.7-0.7l0,0h0.7l0.6-0.7h0.7l0,0l0.7-0.6h0.7
	h0.7l0,0h0.6h0.7h0.7l0,0l0.7,0.6h0.6h0.7v0.7h0.7l0.7,0.7l0,0l0.7,0.7l0.6,0.7v0.6h0.7v0.7l0.7,0.7v0.7v0.7l0,0l0.7,0.6v0.7l0,0
	h0.7v0.7l0,0v0.7v0.7l0,0l-0.7,0.6h-0.7l-0.7,0.7l0,0l-12.3,4.5l0.7,0.6v1.3v0.7v0.7l0.7,0.6v0.7l0,0l0.7,0.7v0.7l0.6,0.7l0,0
	l0.7,0.6l0,0l0.7,0.7h0.7l0,0h0.7l0.6,0.7l0,0h0.7h0.7l0,0l0.7-0.7h0.6l0,0h0.7l0.7-0.7h0.7l0,0l0.7-0.6h0.6l0.7-0.7h0.7v-0.7h0.7
	h0.7l0,0l0,0L119.5,77.2L119.5,77.2L119.5,77.2z M113,63.6v-0.7v-0.6v-0.7l-0.6-0.7l0,0v-0.7l-0.7-0.7h-0.7v-0.6h-0.7h-0.6h-0.7l0,0
	l0,0h-0.7h-0.7v0.6h-0.7l0,0l-0.6,0.7l0,0L106,61l0,0v0.7l-0.7,0.7v0.6v0.7v0.7l-0.7,0.7v0.7v0.6v1.3v0.7v0.6l7.1-2.6l0.7-0.6l0,0
	l0.6-0.7v-0.7l0,0V63.6L113,63.6z"/>
<path class="st2" d="M10.4,165.4l-21.2,12.2L10.4,165.4z M-298.2,343.5l-25.7,14.8L-298.2,343.5z"/>
<path class="st2" d="M-62,95.1L-73.1,115L-62,95.1z M-321.2,259.5l-27.7-0.1L-321.2,259.5z"/>
<path class="st2" d="M13.9,356.2l-25.3-14.5L13.9,356.2z M-10.4,178.4l21.5-12.2L-10.4,178.4z"/>
<path class="st2" d="M-249.4,432.8l15.3-27.7L-249.4,432.8z M-71.9,402.5l15.4,26.8L-71.9,402.5z"/>
<path class="st2" d="M-248.7,94.4l11.6,20.3L-248.7,94.4z M-299.3,176.6l-21.8-12.5L-299.3,176.6z"/>
<path class="st2" d="M-154,447.4V425V447.4z M-154,93.2V70.7V93.2z"/>
<path class="st2" d="M10.5,260.1h27.7H10.5z"/>
<path class="st2" d="M468.4,165.4l-21.2,12.2L468.4,165.4z M159.8,343.5l-25.7,14.8L159.8,343.5z"/>
<path class="st2" d="M396,95.1L384.9,115L396,95.1z M136.7,259.5l-27.7-0.1L136.7,259.5z"/>
<path class="st2" d="M471.9,356.2l-25.3-14.5L471.9,356.2z M447.6,178.4l21.5-12.2L447.6,178.4z"/>
<path class="st2" d="M208.6,432.8l15.3-27.7L208.6,432.8z M386,402.5l15.5,26.8L386,402.5z"/>
<path class="st2" d="M209.3,94.4l11.6,20.3L209.3,94.4z M158.7,176.6L136.9,164L158.7,176.6z"/>
<path class="st2" d="M304,447.4V425V447.4z M304,93.2V70.7V93.2z"/>
<path class="st2" d="M468.5,260.1h27.7H468.5z"/>
<path class="st3" d="M-155.3,425c91.4,0,165.9-74.5,165.9-165.9c0-91.4-74.5-165.9-165.9-165.9c-91.4,0-165.9,74.6-165.9,165.9
	C-321.3,350.4-246.7,425-155.3,425L-155.3,425z"/>
<line class="st4" x1="-60.2" y1="123.2" x2="-155.3" y2="259.1"/>
<path class="st3" d="M-155.3,392.1c73.3,0,133-59.8,133-133c0-73.3-59.8-133-133-133s-133,59.8-133,133
	C-288.4,332.4-228.6,392.1-155.3,392.1L-155.3,392.1z"/>
<path class="st3" d="M302.7,425c91.4,0,165.9-74.5,165.9-165.9c0-91.4-74.5-165.9-165.9-165.9c-91.4,0-165.9,74.6-165.9,165.9
	C136.7,350.4,211.3,425,302.7,425L302.7,425z"/>
<line class="st4" x1="397.8" y1="123.2" x2="302.7" y2="259.1"/>
<path class="st3" d="M302.7,392.1c73.2,0,133-59.8,133-133c0-73.3-59.8-133-133-133c-73.3,0-133.1,59.8-133.1,133
	C169.6,332.4,229.4,392.1,302.7,392.1L302.7,392.1z"/>
</svg>
