<?xml version="1.0" encoding="utf-8"?>
<!-- Generator: Adobe Illustrator 22.1.0, SVG Export Plug-In . SVG Version: 6.00 Build 0)  -->
<svg version="1.1" id="Capa_1" xmlns="http://www.w3.org/2000/svg" xmlns:xlink="http://www.w3.org/1999/xlink" x="0px" y="0px"
	 viewBox="0 0 845.2 601.7" style="enable-background:new 0 0 845.2 601.7;" xml:space="preserve">
<style type="text/css">
	.st0{fill:#EFEEEA;}
</style>
<polygon class="st0" points="159.3,471.1 158.6,471.1 158.6,471.8 158,471.8 157.4,472.5 157.4,472.5 156.7,472.5 156.7,473.1 
	156.1,473.7 156.1,474.4 155.4,475 155.4,475.7 155.4,475.7 155.4,476.3 154.8,477 154.8,477.6 154.8,477.6 154.8,478.3 
	154.1,478.9 154.1,479.6 154.1,480.2 153.5,480.8 153.5,481.5 152.8,482.1 152.8,482.8 152.8,483.4 152.2,484.1 152.2,485.4 
	151.6,486 151.6,486.7 150.9,487.3 150.9,488 150.2,489.2 150.2,489.9 149.6,490.5 149.6,491.2 148.9,491.8 148.9,492.5 
	148.9,493.1 148.3,493.8 148.3,493.8 148.3,494.4 147.7,495.1 147.7,495.7 147.7,495.7 147,496.3 147,496.3 147,496.3 146.4,496.3 
	146.4,496.3 146.4,495.7 145.7,495.1 145.7,494.4 145.1,493.8 145.1,493.1 145.1,492.5 144.4,491.8 144.4,491.2 143.8,490.5 
	143.8,490.5 143.1,489.9 143.1,489.2 143.1,488.6 142.5,488 142.5,487.3 141.9,486.7 141.9,486 141.9,485.4 141.2,484.7 
	141.2,484.1 140.6,483.4 140.6,483.4 140.6,482.8 139.9,482.1 139.9,481.5 139.3,480.8 139.3,480.2 139.3,479.6 138.6,478.9 
	138.6,478.3 138.6,477.6 138,477 138,476.3 138,475.7 137.3,475 137.3,475 137.3,474.4 136.7,473.7 136.7,473.1 136,472.5 
	136,472.5 136,472.5 135.4,471.8 134.7,471.8 134.1,471.1 134.1,471.1 134.7,470.5 134.7,469.9 135.4,469.9 135.4,469.9 
	135.4,469.9 136,469.9 136.7,469.9 137.3,469.9 137.3,469.9 138,469.9 138.6,469.9 139.3,469.9 139.9,469.9 140.6,469.9 
	141.2,469.9 141.9,469.9 142.5,469.9 143.1,469.9 143.1,469.9 143.8,469.9 143.8,469.9 143.8,469.9 144.4,469.9 144.4,469.9 
	145.1,470.5 144.4,471.1 144.4,471.1 143.8,471.8 143.8,471.8 143.1,472.5 142.5,472.5 141.9,473.1 141.9,473.1 141.9,473.7 
	141.9,473.7 141.9,474.4 141.9,475 141.9,475 141.9,475.7 142.5,476.3 142.5,476.3 142.5,477 143.1,477.6 143.1,478.3 143.1,478.9 
	143.8,479.6 143.8,480.2 143.8,480.8 144.4,481.5 144.4,482.1 145.1,483.4 145.1,483.4 145.7,484.7 145.7,485.4 146.4,486 
	146.4,486.7 147,487.3 147,488 147.7,488.6 147.7,488.6 147.7,488.6 147.7,488.6 147.7,488.6 147.7,488.6 147.7,488 148.3,487.3 
	148.3,487.3 148.9,486 148.9,485.4 149.6,484.1 149.6,483.4 150.2,482.8 150.2,482.1 150.9,481.5 150.9,480.8 150.9,480.2 
	151.6,479.6 151.6,478.9 151.6,478.3 152.2,477.6 152.2,477 152.2,476.3 152.2,475.7 152.8,475 152.8,475 152.8,474.4 152.8,474.4 
	152.8,473.7 152.8,473.1 152.2,472.5 151.6,471.8 151.6,471.8 150.9,471.8 150.2,471.1 150.2,470.5 150.2,470.5 150.2,469.9 
	150.9,469.9 150.9,469.9 151.6,469.9 152.2,469.9 152.2,469.9 152.8,469.9 153.5,469.9 154.1,469.9 154.8,469.9 155.4,469.9 
	156.1,470.5 156.7,470.5 157.4,470.5 157.4,470.5 158,470.5 158,470.5 158.6,469.9 158.6,470.5 "/>
<path class="st0" d="M184.5,482.1v0.6l-0.7,0.7v0.7v0.7v0.7v0.6v0.7l-0.7,0.7v0.7v0.7l-0.6,0.6v0.7h-0.7v0.7l-0.7,0.7v0.7h-0.7v0.6
	l-0.7,0.7l0,0l-0.6,0.7h-0.7v0.7h-0.7l-0.7,0.7l0,0l-0.7,0.6h-0.6H175l0,0h-0.7l-0.7,0.7h-0.7h-0.6l0,0h-0.7h-0.7h-0.7v-0.7h-0.6
	h-0.7h-0.7l-0.7-0.6l0,0h-0.7l-0.6-0.7l0,0l-0.7-0.7l0,0l-0.7-0.7l-0.7-0.7l0,0v-0.6h-0.7v-1.1l-0.6-0.7v-0.7l-0.7-0.7v-0.6l0,0
	v-0.7l-0.7-0.7v-0.7v-1.3v-0.7v-0.7V483l0,0v-0.7v-0.6V481v-0.7v-0.1l0.7-0.6v-0.7v-0.7v-0.7l0.7-0.7v-0.6l0.6-0.7v-0.7h0.7v-0.7
	l0.7-0.7v-0.6l0,0h0.7v-0.7l0.7-0.7h0.6v-0.7h0.7l0.7-0.7l0,0h0.7l0.7-0.6h0.6l0,0h0.7l0.7-0.7h0.7h0.6l0,0l0,0h0.7h0.7h0.7h0.7
	l0.6,0.7h0.7l0,0h0.7l0.7,0.6l0,0l0.7,0.7h0.6v0.7h0.7l0.7,0.7l0,0v0.7h0.7v0.6l0.7,0.7v0.7l0.6,0.7l0,0v0.7l0.7,0.6v0.7v0.7v0.7
	v0.7v0.6v1.3L184.5,482.1L184.5,482.1L184.5,482.1z M180,484.1v-0.7v-0.7l-0.6-0.6v-0.7v-0.7v-0.5v-0.6v-0.7l-0.7-0.7v-0.7v-0.7
	l-0.7-0.6v-0.7l0,0l-0.7-0.7v-0.7h-0.7l-0.6-0.7v-0.6h-0.7h-0.7v-0.7h-0.7h-0.7h-0.6l0,0h-0.7l0,0h-0.7l-0.7,0.7h-0.6l0,0l-0.7,0.6
	v0.7h-0.7v0.7l-0.7,0.7l0,0l-0.7,0.7v0.6v0.7l-0.6,0.7v0.7v0.7v0.6v0.7v1.3v0.6v0.7v0.7v0.7v0.7l0.6,0.6v0.7v0.7v0.7l0.7,0.7v0.6
	l0,0l0.7,0.7l0,0v0.7l0.7,0.7h0.7v0.7l0.6,0.6h0.7l0,0l0.7,0.7h0.7h0.6l0,0h0.7h0.7h0.7l0.7-0.7l0,0l0.6-0.6h0.7v-1.2h0.7v-0.7
	l0.7-0.7l0,0v-0.6l0.7-0.6v-0.7v-0.7v-0.7l0.6-0.7v-0.6V484.1L180,484.1L180,484.1z"/>
<polygon class="st0" points="200,495.1 200,495.7 200,495.7 199.3,495.7 199.3,495.7 198.7,495.7 198,495.7 198,495.7 197.4,495.7 
	196.8,495.7 196.1,495.7 196.1,495.7 195.5,495.7 194.8,495.7 194.2,495.7 193.5,495.7 192.9,495.7 192.9,495.7 192.2,495.7 
	191.6,495.7 191,496.3 190.3,496.3 189.6,496.3 189,496.3 189,495.7 189,495.7 189,495.1 189,494.4 189,494.4 189.6,493.8 
	190.3,493.8 191,493.1 191,493.1 191,492.5 191.6,491.8 191.6,491.2 191.6,490.5 191.6,490.5 191.6,459.5 191.6,458.9 191.6,458.2 
	191.6,457.6 191.6,456.9 191,456.3 191,455.6 191,455.6 191,455 190.3,455 190.3,454.4 189.6,454.4 189,453.7 189,453.7 
	188.4,453.1 188.4,453.1 188.4,452.4 188.4,452.4 188.4,451.8 189,451.1 189,451.1 189.6,451.1 190.3,450.5 191,450.5 191,450.5 
	191.6,449.8 192.2,449.8 192.2,449.2 192.9,449.2 193.5,448.6 194.2,447.9 194.2,447.9 194.8,447.9 194.8,447.9 195.5,447.9 
	195.5,447.9 195.5,448.6 195.5,449.2 195.5,449.2 195.5,449.8 195.5,450.5 195.5,451.1 195.5,452.4 195.5,453.1 195.5,453.7 
	195.5,454.4 195.5,455 195.5,455.6 195.5,456.3 195.5,456.9 195.5,457.6 195.5,458.2 195.5,458.9 195.5,459.5 195.5,489.2 
	195.5,490.5 196.1,491.2 196.1,491.8 196.1,491.8 196.8,492.5 196.8,492.5 197.4,493.1 197.4,493.1 198,493.1 198.7,493.8 
	199.3,493.8 199.3,493.8 200,494.4 200,494.4 "/>
<polygon class="st0" points="226.5,493.1 226.5,493.1 226.5,493.8 225.8,493.8 225.8,494.4 225.2,494.4 222.6,496.3 222.6,496.3 
	222.6,496.3 222,496.3 222,495.7 221.3,495.1 220.7,494.4 220.7,493.8 220,493.8 219.4,493.1 219.4,493.1 219.4,493.1 218.7,493.1 
	218.7,493.8 218.1,493.8 217.4,494.4 216.8,494.4 216.2,495.1 215.5,495.1 215.5,495.1 214.8,495.7 214.2,495.7 213.5,495.7 
	213.5,495.7 212.9,495.7 212.9,495.7 212.3,495.7 211.6,495.7 211,495.7 210.3,495.7 209.7,495.7 209,495.7 209,495.1 208.4,495.1 
	207.7,494.4 207.7,494.4 207.7,493.8 207.1,493.8 207.1,493.8 207.1,493.1 206.5,492.5 206.5,492.5 206.5,491.8 206.5,491.2 
	205.8,490.5 205.8,489.9 205.8,489.2 205.8,488 205.8,487.3 205.8,486.7 205.8,479.6 205.8,478.9 205.8,478.3 205.8,477.6 
	205.8,477 205.2,476.3 205.2,475.7 205.2,475.7 204.5,475 204.5,474.4 203.9,474.4 203.2,473.7 203.2,473.7 202.6,473.1 
	202.6,473.1 202.6,472.5 202.6,471.8 203.2,471.8 203.9,471.1 204.5,471.1 205.2,471.1 205.2,470.5 205.8,470.5 206.5,469.9 
	206.5,469.9 207.1,469.9 207.7,469.2 208.4,469.2 208.4,469.2 209,469.2 209.7,469.2 209.7,469.2 209.7,469.9 209.7,470.5 
	209.7,474.4 209.7,474.4 209.7,475 209.7,475.7 209.7,476.3 209.7,477 209.7,477.6 209.7,478.3 209.7,478.9 209.7,479.6 
	209.7,480.2 209.7,480.8 209.7,484.7 209.7,486 209.7,486.7 209.7,487.3 209.7,488 210.3,488.6 210.3,489.2 210.3,489.9 211,489.9 
	211,490.5 211,490.5 211.6,491.2 212.3,491.2 212.3,491.8 212.9,491.8 213.5,491.8 214.2,491.8 214.8,491.8 214.8,491.8 
	215.5,491.8 216.2,491.8 216.2,491.8 216.8,491.2 217.4,491.2 217.4,491.2 218.1,490.5 218.1,490.5 218.7,489.9 218.7,489.2 
	218.7,488.6 219.4,488.6 219.4,488 219.4,487.3 219.4,486.7 219.4,486 219.4,479.6 219.4,478.9 219.4,478.3 219.4,477 219.4,476.3 
	219.4,476.3 218.7,475.7 218.7,475.7 218.7,475 218.1,475 218.1,474.4 217.4,474.4 216.8,474.4 216.8,473.7 216.2,473.7 
	216.2,473.1 216.2,473.1 216.2,472.5 216.8,471.8 216.8,471.8 217.4,471.1 218.1,471.1 218.7,470.5 219.4,470.5 220,469.9 
	220.7,469.9 221.3,469.9 221.3,469.9 222,469.2 222,469.2 222.6,469.2 222.6,469.2 222.6,469.2 223.2,469.9 223.2,470.5 
	223.2,471.1 223.2,471.1 223.2,471.1 223.2,471.8 223.2,473.1 223.2,474.4 223.2,475 223.2,475.7 223.2,476.3 223.2,477 
	223.2,477.6 223.2,478.3 223.2,478.9 223.2,479.6 223.2,480.2 223.2,480.8 223.2,489.2 223.2,489.9 223.2,490.5 223.9,491.2 
	223.9,491.2 224.5,491.8 224.5,491.8 225.2,491.8 225.8,491.8 226.5,492.5 226.5,492.5 "/>
<polygon class="st0" points="271.7,495.1 271.7,495.7 271.7,495.7 271.1,495.7 270.4,495.7 269.8,495.7 269.1,495.7 269.1,495.7 
	268.5,495.7 267.8,495.7 267.2,495.7 266.5,495.7 265.9,495.7 265.9,495.7 265.2,495.7 264.6,495.7 263.9,495.7 263.9,495.7 
	263.3,495.7 262.7,495.7 262,495.7 262,495.7 261.4,495.7 260.7,495.7 260.7,495.7 260.7,495.1 260.7,494.4 260.7,494.4 
	260.7,493.8 261.4,493.8 262,493.8 262,493.8 262.7,493.1 262.7,493.1 263.3,492.5 263.3,491.8 263.3,491.2 263.3,490.5 
	263.3,489.9 263.3,480.8 263.3,480.2 263.3,479.6 263.3,478.9 263.3,478.3 263.3,477.6 262.7,477 262.7,476.3 262.7,475.7 262,475 
	262,475 262,474.4 261.4,474.4 260.7,473.7 260.7,473.7 260.1,473.7 260.1,473.7 259.4,473.7 258.8,473.7 258.1,473.7 257.5,473.7 
	257.5,473.7 256.8,473.7 256.2,473.7 255.6,473.7 255.6,474.4 254.9,474.4 254.2,474.4 253.6,475 253,475.7 253,475.7 252.3,476.3 
	252.3,476.3 252.3,477 252.3,489.9 252.3,491.2 252.3,491.8 252.3,492.5 253,492.5 253,493.1 253,493.1 253.6,493.1 254.2,493.8 
	254.9,493.8 255.6,493.8 255.6,494.4 256.2,494.4 256.2,494.4 256.2,495.1 256.2,495.7 256.2,495.7 255.6,495.7 255.6,495.7 
	254.9,495.7 254.2,495.7 254.2,495.7 253.6,495.7 253,495.7 253,495.7 252.3,495.7 251.7,495.7 251,495.7 250.4,495.7 250.4,495.7 
	249.7,495.7 249.1,495.7 248.4,495.7 247.8,496.3 247.2,496.3 247.2,496.3 246.5,496.3 245.9,495.7 245.9,495.7 245.9,495.7 
	245.9,495.1 245.9,494.4 245.9,494.4 246.5,493.8 247.2,493.8 247.2,493.8 247.8,493.8 247.8,493.1 248.4,492.5 248.4,491.8 
	248.4,491.2 248.4,490.5 248.4,489.9 248.4,480.8 248.4,480.2 248.4,479.6 248.4,478.9 248.4,478.3 248.4,477.6 247.8,477 
	247.8,476.3 247.8,475.7 247.2,475 247.2,475 247.2,474.4 246.5,474.4 246.5,473.7 245.9,473.7 245.2,473.7 244.6,473.1 
	244.6,473.1 243.9,473.1 243.3,473.7 242.6,473.7 242.6,473.7 242,473.7 241.3,473.7 240.7,474.4 240.7,474.4 240,474.4 240,475 
	239.4,475 238.7,475.7 238.7,476.3 238.1,476.3 238.1,477 238.1,477.6 238.1,477.6 238.1,489.9 238.1,490.5 238.1,491.2 
	238.1,491.8 238.7,492.5 238.7,493.1 238.7,493.1 239.4,493.1 240,493.8 240.7,493.8 241.3,493.8 241.3,493.8 242,493.8 
	242.6,494.4 242.6,494.4 242.6,495.1 242,495.7 241.3,495.7 240.7,495.7 240,495.7 239.4,495.7 238.7,495.7 238.1,495.7 
	237.5,495.7 237.5,495.7 236.8,495.7 236.2,495.7 235.5,495.7 234.9,495.7 234.9,495.7 234.2,495.7 233.6,495.7 233.6,495.7 
	232.9,496.3 232.9,496.3 232.3,496.3 231.7,496.3 231.7,496.3 231,496.3 231,495.7 231,495.1 231,495.1 231,494.4 231.7,494.4 
	232.3,493.8 232.9,493.8 232.9,493.8 233.6,493.1 233.6,493.1 233.6,492.5 233.6,491.8 234.2,491.2 234.2,489.9 234.2,479.6 
	234.2,478.9 233.6,477.6 233.6,477 233.6,476.3 233.6,476.3 232.9,475.7 232.9,475 232.3,475 232.3,475 231.7,475 231,474.4 
	231,474.4 231,474.4 230.4,473.7 230.4,473.7 230.4,473.1 231,473.1 231,472.5 231.7,472.5 232.3,471.8 232.9,471.1 232.9,471.1 
	233.6,470.5 234.2,469.9 234.9,469.9 235.5,469.2 236.2,469.2 236.2,469.2 236.2,469.2 236.8,468.6 236.8,469.2 236.8,469.2 
	237.5,469.9 237.5,471.1 237.5,471.8 238.1,472.5 238.1,473.1 238.1,473.1 238.1,473.1 238.7,472.5 239.4,472.5 239.4,471.8 
	240,471.8 240.7,471.1 240.7,470.5 241.3,470.5 242,470.5 242,469.9 242.6,469.9 242.6,469.9 243.3,469.2 243.9,469.2 244.6,469.2 
	244.6,469.2 245.2,469.2 245.9,469.2 246.5,469.2 246.5,468.6 247.2,469.2 247.8,469.2 248.4,469.2 248.4,469.2 249.1,469.2 
	249.7,469.9 249.7,469.9 250.4,470.5 250.4,470.5 251,471.1 251,471.8 251.7,472.5 251.7,472.5 251.7,472.5 253,471.8 253,471.8 
	253.6,471.1 254.2,471.1 254.9,470.5 254.9,470.5 255.6,470.5 256.2,469.9 256.2,469.9 256.8,469.9 257.5,469.2 258.1,469.2 
	258.1,469.2 258.8,469.2 259.4,469.2 260.1,469.2 260.1,468.6 260.7,468.6 260.7,469.2 261.4,469.2 262,469.2 262.7,469.2 
	262.7,469.2 263.3,469.2 263.9,469.9 263.9,469.9 264.6,469.9 264.6,470.5 265.2,470.5 265.2,471.1 265.9,471.8 265.9,471.8 
	266.5,472.5 266.5,473.1 266.5,473.7 266.5,473.7 267.2,474.4 267.2,475 267.2,475.7 267.2,476.3 267.2,477 267.2,478.3 
	267.2,478.9 267.2,478.9 267.2,489.9 267.2,490.5 267.8,491.2 267.8,491.8 267.8,492.5 267.8,492.5 268.5,493.1 268.5,493.1 
	269.1,493.1 269.8,493.8 270.4,493.8 271.1,493.8 271.7,494.4 271.7,494.4 "/>
<path class="st0" d="M293,489.9v0.7l0,0v0.7l-0.7,0.7l0,0l-0.7,0.6l-0.7,0.7l-0.6,0.7l0,0h-0.7l-0.7,0.7h-0.7v0.7h-0.7h-0.6
	l-0.7,0.6l0,0h-0.3h-0.7h-0.7v0.7h-0.6h-0.7l0,0h-0.7l-0.7-0.7l0,0h-0.7h-0.6h-0.7v-0.6h-0.7l-0.7-0.7l0,0l-0.6-0.7h-0.7v-0.7
	l-0.7-0.7l0,0l0,0l-0.7-0.6v-0.8l-0.7-0.7l0,0l-0.6-0.7v-0.6v-0.6v-0.7l-0.7-0.7v-0.7v-0.7v-0.6v-0.7v-0.7v-0.7v-0.7v-0.6v-1.3v-0.3
	v-0.6v-0.7l0.7-0.7v-0.7v-0.7v-0.6h0.6v-0.7v-0.7l0.7-0.7v-0.7l0.7-0.6l0,0l0.7-0.7l0,0l0.7-0.7v-0.7h0.6l0.7-0.7l0,0l0.7-0.6h0.7
	v-0.2h0.6h0.7h0.7l0,0l0.7-0.7h0.7h0.6l0,0l0.7,0.7h0.7h0.7l0,0l0.7,0.7h0.6l0.7,0.6l0,0l0.7,0.7h0.7v0.7l0.7,0.7v0.7l0.6,0.6l0,0
	l0.7,0.7v0.7l0,0v0.7l0.7,0.7l0,0h0.7v0.6v0.7l0,0v0.7h-0.7v0.7l-0.7,0.7h-0.7h-0.6l-11.7,4.5v1.3v0.6l0.7,0.7v0.7v0.7l0.7,0.7v0.6
	l0,0l0.7,0.7v0.7h0.6v0.7h0.7v0.7h0.7h0.7v0.6h0.7h0.6h0.7l0,0h0.7h0.7v-0.6h0.7h0.6h0.7v-1.5h0.7h0.7l0.7-0.7l0,0l0.6-0.7l0.7-0.7
	h0.7l0,0h0.7l0,0v0.8H293L293,489.9z M287.2,476.3v-0.7v-0.7l-0.7-0.7l0,0l-0.7-0.7v-0.6l0,0l-0.7-0.7h-0.7l-0.6-0.7l0,0h-0.7l0,0
	h-0.7h-0.7v0.7H281l0,0h-0.6v0.7h-0.7v0.6l-0.7,0.7l0,0v0.7v0.7l-0.7,0.7v0.6v0.7v0.7v0.7v1.3v0.7v0.7l6.5-2.6h0.7l0.7-0.7v-0.7h0.7
	V477v-0.7H287.2z"/>
<path class="st0" d="M627,491.8v0.6l0,0l0,0v0.7h-0.6l-0.7,0.7v0.7h-1.3v0.7h-0.6l-0.7,0.6l-0.7,0.7h-0.7H621l0,0v0.7l0,0l-0.6-0.7
	l0,0l-0.7-0.7v-1.3l-0.7-0.7v-0.7v-0.7l0,0l0,0l-0.7,0.7l0,0h-0.7l-0.6,0.7l-1.3,0.7l0,0l-0.7,0.7h-0.7h-0.6v0.6H613h-0.7v0.7h-0.7
	H611l0,0l0,0h-0.1l-0.7-0.7h-0.7l0,0h-0.6l-0.6-0.6l0,0l-0.7-0.7h-0.7v-0.7l-0.7-0.7h-0.7v-0.7l-0.6-0.6l0,0v-0.6l-0.7-0.7v-0.7
	v-0.6l-0.7-0.6v-0.7v-0.7v-0.7l-0.7-0.7v-0.6v-0.7v-0.7v-0.7v-0.7v-0.6v-0.7v-0.7v-0.2v-0.6v-0.7l0.7-0.7v-0.7v-0.7v-0.6h0.7v-0.7
	l0.7-0.7v-0.7l0.6-0.7v-0.6h0.7v-0.7l0.7-0.7l0.7-0.7l0,0l0.7-0.7l0.6-0.6l0,0h0.7l0.7-0.7h0.7l0,0l0.7-0.7h0.6l0,0h0.7h0.7l0,0h0.7
	h0.6h0.7v0.7h0.7h0.7h0.7h0.6l0,0h0.7h0.7V468l0,0v-11.6v-0.7V455l-0.7-0.7v-0.6l0,0h-0.7V453h-0.6l-0.7-0.7l0,0h-0.7l-0.7-0.7V451
	v-0.7h0.7l0.7-0.7l0,0h0.7v-0.7h0.6h0.7v0.3h0.7l0.7-0.6h0.7l0.6-0.7l0,0l0.7-0.7h0.7l0,0l0,0l0.7,0.7v0.7v0.6l0,0v0.7v0.7v0.7v1.3
	v0.7v0.7v0.7v0.6v0.7v0.7v0.7v0.7v1.3l0,0v31v0.7v0.7h0.7l0,0l0.6,0.7l0.7-0.7h0.7l0,0h0.7v0.7H627V491.8L627,491.8z M619.3,488.6
	v-11.7v-0.6l-0.7-0.7v-0.7l0,0l-0.7-0.7l-0.6-0.7l0,0l-0.7-0.6h-0.7v-0.7h-0.7h-0.7h-0.6v-0.7h-0.7h-0.7l0,0h-0.7h-0.6l-0.7,0.7l0,0
	h-0.7l0,0l-0.7,0.7l0,0l-0.7,0.6l0,0l-0.6,0.7v0.7v0.7h-0.7v0.7v0.6v0.7v0.7v1.3l-0.7,0.6v0.7v0.7l0.7,0.7v0.6v0.7v0.7v0.7v0.7
	l0.7,0.6v0.7v0.7l0.6,0.7l0,0l0.7,0.7v0.6l0.7,0.7h0.7v0.7h0.7v0.7h0.6l0.7,0.7h0.7l0,0h0.7l0,0h0.6h0.7l0,0l0.7-0.7h0.7l0.7-0.7
	l0,0h0.6l0.7-0.7v-1.2h0.7V488.6L619.3,488.6z"/>
<polygon class="st0" points="645.7,471.8 645.7,472.5 645.7,473.1 645.7,473.7 645.7,474.4 645.1,475 645.1,475 645.1,475.7 
	644.5,475.7 644.5,475.7 643.8,475.7 643.8,475.7 643.2,475 642.5,475 641.9,475 641.2,475 640.6,474.4 640.6,474.4 639.9,474.4 
	639.9,474.4 639.3,475 638.7,475 638.7,475 638,475.7 638,475.7 638,476.3 637.4,477 637.4,477.6 637.4,478.3 637.4,478.9 
	637.4,479.6 637.4,489.9 637.4,490.5 637.4,491.2 638,491.8 638,491.8 638,492.5 638.7,492.5 638.7,492.5 639.3,492.5 639.9,493.1 
	640.6,493.1 640.6,493.1 641.2,493.8 641.9,493.8 641.9,494.4 641.9,494.4 641.9,495.1 641.9,495.7 641.2,495.7 640.6,495.7 
	639.9,495.7 639.3,495.7 638.7,495.7 638.7,495.7 638,495.1 637.4,495.1 636.7,495.1 636.1,495.1 635.4,495.1 635.4,495.1 
	634.8,495.1 634.1,495.1 633.5,495.1 633.5,495.7 632.8,495.7 632.2,495.7 632.2,495.7 632.2,495.7 631.5,495.7 630.9,495.7 
	630.9,495.7 630.9,495.1 630.2,494.4 630.9,493.8 630.9,493.8 631.5,493.1 632.2,493.1 632.2,492.5 632.8,492.5 632.8,491.8 
	632.8,491.2 633.5,490.5 633.5,489.9 633.5,489.9 633.5,478.9 633.5,478.3 633.5,477 632.8,477 632.8,476.3 632.8,476.3 
	632.8,475.7 632.2,475.7 632.2,475 631.5,474.4 630.9,474.4 630.9,474.4 630.2,473.7 630.2,473.7 630.2,473.1 630.2,472.5 
	630.2,472.5 630.9,471.8 631.5,471.8 632.2,471.1 632.2,471.1 632.8,470.5 633.5,470.5 633.5,469.9 634.1,469.9 634.1,469.9 
	634.8,469.2 635.4,468.6 635.4,468.6 635.4,468.6 636.1,468.6 636.1,468.6 636.7,469.2 636.7,469.9 636.7,470.5 636.7,471.8 
	636.7,472.5 637.4,473.1 637.4,473.1 637.4,473.1 637.4,473.1 637.4,473.1 638,472.5 638.7,472.5 638.7,471.8 639.9,471.1 
	639.9,470.5 640.6,470.5 641.2,469.9 641.2,469.9 641.9,469.2 642.5,469.2 643.2,469.2 643.2,469.2 643.8,469.2 644.5,469.2 
	644.5,469.2 645.1,469.2 645.7,469.2 645.7,469.9 645.7,470.5 645.7,471.1 "/>
<path class="st0" d="M658.7,456.3v0.7l-0.7,0.7v0.6v0.7l-0.6,0.7l0,0l-0.7,0.7H656v0.7h-0.7l0,0l-0.7-0.7H654v-0.7h-0.7V459l0,0
	l-0.4-0.8v-0.6v-0.7v-0.7v-0.7h0.7v-0.7l0.7-0.6v-0.7h0.6l0.7-0.7l0,0h0.7h0.7l0,0l0.7,0.7h0.6v0.7v0.6h0.7v0.7v0.8H658.7z
	 M661.2,494.4v0.7l-0.6,0.6l0,0l0,0h-0.7h-0.7h-0.7l0,0h-0.7h-0.6h-0.7h-0.7l0,0h-0.7h-0.7h-0.6h-0.7l0,0h-0.2h-0.7l0,0h-0.6h-0.7
	l0,0v-0.6l-0.7-0.7h0.7v-0.7h0.7l0.6-0.7l0,0l0.7-0.7l0,0v-0.6l0.7-0.7v-0.7v-0.7v-0.4v-8.4v-1.3v-0.7v-0.7l-0.7-0.7v-0.7l0,0v-0.6
	h-0.7v-0.7l-0.6-0.7h-0.7V474h-0.7l-0.7-0.7l0,0l0.7-0.6V472h0.7l0,0l0.7-0.7h0.6l0.7-0.7l0,0h0.7l0.7-0.7l0,0l0.6-0.6l0,0l0.7-0.7
	l0.7-0.7l0,0h0.7l0,0l0.7,0.7v0.7v0.6l0,0v0.7v0.7v0.7v0.7v0.6v0.7v0.7v0.7v0.7v0.6v0.7v0.7v0.7v1.3v0.7v0.7v0.7v0.6v0.7v0.7v0.7
	v0.7v0.6v0.7v0.7v0.7v0.7v0.6v0.7v0.7v0.7h0.6v0.7l0.7,0.6l0,0l0.7,0.7h0.7h0.7L661.2,494.4l0.5,0v0H661.2L661.2,494.4z"/>
<polygon class="st0" points="688.4,470.5 688.4,471.1 688.4,471.1 687.8,471.8 687.1,471.8 686.4,471.8 686.4,472.5 685.8,473.1 
	685.8,473.7 685.2,474.4 685.2,474.4 685.2,475 685.2,475.7 684.5,475.7 684.5,476.3 684.5,477 684.5,477.6 683.9,478.3 
	683.9,478.9 683.9,479.6 683.2,480.2 683.2,480.2 682.6,481.5 682.6,482.1 682.6,482.8 681.9,483.4 681.9,484.1 681.3,484.7 
	681.3,485.4 680.6,486 680.6,487.3 680,488 680,488.6 679.4,489.2 679.4,489.9 679.4,490.5 678.7,491.2 678.7,491.8 678.1,492.5 
	678.1,493.1 678.1,493.8 677.4,494.4 677.4,494.4 677.4,495.1 676.8,495.7 676.8,495.7 676.8,495.7 676.8,495.7 676.1,495.7 
	676.1,495.7 676.1,495.1 675.5,494.4 675.5,493.8 674.8,493.1 674.8,493.1 674.2,492.5 674.2,491.8 673.5,491.2 673.5,490.5 
	673.5,489.9 672.9,489.2 672.9,488.6 672.2,488 672.2,487.3 671.6,486.7 671.6,486.7 671.6,486 670.9,485.4 670.9,484.7 
	670.3,484.1 670.3,483.4 670.3,482.8 669.7,482.1 669.7,481.5 669,480.8 669,480.2 669,479.6 668.4,478.9 668.4,478.9 668.4,478.3 
	667.7,477.6 667.7,477 667.7,476.3 667.1,475.7 667.1,475 667.1,474.4 666.4,473.7 666.4,473.1 665.8,472.5 665.8,472.5 
	665.1,472.5 665.1,472.5 664.5,471.8 664.5,471.1 663.9,471.1 663.9,470.5 663.9,469.9 664.5,469.9 664.5,469.9 665.1,469.9 
	665.1,469.9 665.8,469.9 665.8,469.9 666.4,469.9 667.1,469.9 667.7,469.9 668.4,469.9 669,469.9 669.7,469.9 670.3,469.9 
	670.9,469.9 671.6,469.9 672.2,469.9 672.2,469.2 672.9,469.2 673.5,469.2 673.5,469.2 673.5,469.2 674.2,469.2 674.2,469.9 
	674.2,469.9 674.2,470.5 674.2,471.1 673.5,471.1 673.5,471.8 672.9,471.8 672.2,472.5 671.6,472.5 671.6,473.1 671.6,473.1 
	671.6,473.1 671.6,473.7 671.6,474.4 671.6,475 671.6,475 671.6,475.7 672.2,476.3 672.2,477 672.2,477.6 672.9,477.6 672.9,478.3 
	672.9,478.9 673.5,479.6 673.5,480.2 674.2,481.5 674.2,482.1 674.8,482.8 674.8,482.8 674.8,484.1 675.5,484.7 676.1,486 
	676.1,486.7 676.8,487.3 676.8,488 676.8,488 676.8,488 677.4,488.6 677.4,488.6 677.4,488.6 677.4,488 677.4,488 677.4,487.3 
	678.1,486.7 678.1,486 678.7,484.7 678.7,484.1 679.4,483.4 679.4,482.8 680,481.5 680,480.8 680.6,480.2 680.6,479.6 680.6,478.9 
	681.3,478.3 681.3,477.6 681.3,477 681.9,476.3 681.9,475.7 681.9,475.7 681.9,475 681.9,474.4 682.6,473.7 682.6,473.7 
	682.6,473.1 681.9,472.5 681.9,472.5 681.3,471.8 681.3,471.8 680.6,471.1 680,470.5 680,470.5 680,470.5 680,469.9 680,469.2 
	680.6,469.2 681.3,469.2 681.3,469.2 681.9,469.9 682.6,469.9 683.2,469.9 683.9,469.9 684.5,469.9 685.2,469.9 685.8,469.9 
	686.4,469.9 686.4,469.9 687.1,469.9 687.8,469.9 687.8,469.9 688.4,469.9 688.4,469.9 "/>
<path class="st0" d="M711,489.9L711,489.9v0.7l-0.7,0.7l0,0l-0.6,0.7l-0.7,0.6l0,0l-0.7,0.7h-0.7v0.7H707l-0.7,0.7h-0.7v0.7h-0.7
	h-0.7h-0.3v0.6h-0.7h-0.7h-0.7h-0.7l0,0l0,0h-0.6h-0.7h-0.7h-0.7v-0.6h-0.7h-0.6v-0.7h-0.7l-0.7-0.7l0,0l-0.7-0.7h-0.1v-0.7l0,0
	l-0.7-0.6v-0.8h-0.7v-0.7l-0.7-0.7v-0.6v-0.6l-0.7-0.7v-0.7v-0.7v-0.7v-0.6v-0.7v-0.7l-0.6-0.7v-0.7v-0.6l0.6-0.7v-0.7v-0.2v-0.6
	v-0.7v-0.7v-0.7l0.7-0.7v-0.6v-0.7l0.7-0.7v-0.7v-0.7h0.7v-0.6l0.7-0.7l0,0l0.6-0.7v-0.7h0.7l0.7-0.7l0,0l0.7-0.6h0.6v-0.2h0.7h0.7
	l0.7-0.7l0,0h0.7h0.6h0.7l0,0h0.7h0.7h0.7l0,0l0.6,0.7h0.7h0.7v0.7l0.7,0.6h0.7v0.7l0.6,0.7l0,0l0.7,0.7v0.7l0.7,0.6v0.7v0.7h0.7
	v0.7h0.6l0,0v0.7h0.7v0.6v0.7h-0.7v0.7h-0.6l-0.7,0.7h-0.7v0.7l-11.6,4.5v0.7v0.7v0.6l0.7,0.7v0.7v0.7l0.6,0.7v0.6l0.7,0.7l0,0
	l0.7,0.7l0,0l0.7,0.7l0,0l0.7,0.7l0,0h0.6h0.7h0.7l0,0h0.7h0.7l0,0h0.6h0.7v-1.6h0.7h0.7l0.7-0.7l0,0h0.6l0.7-0.7l0.7-0.7h0.7v-0.6
	h0.6l0,0l0.7,0.6v0.8H711L711,489.9z M705.2,476.3v-0.7l-0.7-0.7v-0.7v-0.7l-0.6-0.6l0,0l-0.7-0.7l0,0l-0.7-0.7h-0.7h-0.7l0,0l0,0
	h-0.6h-0.7l0,0h-0.7l-0.7,0.7l0,0h-0.7v0.7l0,0l-0.6,0.6v0.7l-0.7,0.7v0.7l0,0v0.7v1.3v0.7l-0.7,0.7v0.7v0.6v1.3l7.1-3.2h0.7
	l0.6-0.7l0,0V477L705.2,476.3L705.2,476.3L705.2,476.3z"/>
<path class="st0" d="M331.8,559L331.8,559L331.8,559v0.7l0,0l0,0l-0.7,0.6h-0.6l-0.7,0.7l0,0l-0.7,0.7h-0.7l-0.7,0.7l0,0h-0.6v0.7
	h-0.7l0,0v-0.7l0,0l-0.7-0.7V561v-0.7l-0.7-0.6V559l0,0l0,0v0.7h-0.7h-0.6v0.6h-1.3v0.7h-0.7l0,0l-0.6,0.7h-0.7l0,0l-0.7,0.7l0,0
	H319l0,0l0,0h-0.1h-0.6l0,0l-0.7-0.7h-0.7l0,0h-0.7V561h-0.7v-0.7h-0.6v-0.6h-0.7V559h-0.7v-0.7v-0.7h-0.7v-0.7v-0.6l-0.7-0.7l0,0
	v-0.7v-0.7v-0.7v-0.3l-0.6-0.7v-0.7v-0.7v-0.7l0,0v-0.6v-0.7v-0.7h0.6v-0.7v-0.6v-0.7v-0.7h0.7V545v-0.7l0.7-0.6l0,0V543l0.7-0.7
	l0,0l0.7-0.7v-0.7h0.6l0.7-0.6l0,0l0.7-0.7l0,0h0.7v-0.7h0.7h0.6l0,0h0.7v-0.7h0.7h0.7l0,0h0.7v0.7h0.6h0.7l0,0h0.7h0.7h0.6l0,0h0.7
	l0,0v-0.7l0,0v-9v-1.3l0,0v-0.7v-0.7H325l0,0v-0.7h-0.6h-0.7v-0.7H323v-0.6h-0.7l0.7-0.7v-0.7h0.7l0,0l0,0h0.7l0.6-0.7l0,0h0.7v-0.6
	h0.7l0.7-0.7l0,0l0.7-0.7h0.6l0,0l0,0h0.7l0,0v0.7v0.7l0,0v0.6v0.7v0.7v0.7v0.6v0.7v0.7v0.7v0.7v0.6v0.7v0.7l0,0v0.7v25.2v0.6
	l0.7,0.7v0.7l0,0h0.7l0,0h0.7h0.6l0,0h0.7v1.2H331.8L331.8,559z M325.3,555.8v-9.7v-0.7l0,0l-0.7-0.7v-0.5H324v-0.7h-0.7v-0.7h-0.7
	l0,0l-0.7-0.7h-0.6l0,0h-0.7l0,0h-0.7l0,0h-0.7h-0.3l0,0h-0.6l0,0l-0.7,0.7l0,0h-0.7v0.7l0,0l-0.7,0.7l0,0v0.6v0.7l-0.7,0.7l0,0v0.7
	v0.7v0.6v0.7v0.7v0.7v0.6v0.7l0,0v0.7v0.7l0.7,0.7v0.6l0,0v0.7l0.7,0.7v0.7h0.7v0.7l0,0l0.7,0.6l0.6,0.7l0,0h0.7v0.7h0.7l0,0h0.7
	h0.7l0,0l0,0h0.6h0.7l0,0l0.7-0.7h0.7l0,0l0.6-0.7l0,0l0.7-0.6l0,0v-1.3H325.3z"/>
<polygon class="st0" points="347.9,541.6 347.9,542.2 347.9,542.9 347.3,543.5 347.3,544.2 347.3,544.2 347.3,544.8 346.6,544.8 
	346.6,544.8 346,544.8 346,544.8 346,544.8 345.4,544.8 344.7,544.8 344.1,544.2 344.1,544.2 343.4,544.2 342.8,544.2 342.8,544.2 
	342.8,544.2 342.1,544.2 341.5,544.8 341.5,544.8 341.5,544.8 340.8,545.4 340.8,545.4 340.8,546.1 340.8,546.7 340.8,547.4 
	340.2,548 340.2,548.7 340.2,556.4 340.8,557.1 340.8,557.7 340.8,558.4 340.8,559 341.5,559 341.5,559 341.5,559 342.1,559 
	342.8,559.7 343.4,559.7 343.4,559.7 344.1,560.3 344.1,560.3 344.7,560.9 344.7,560.9 344.1,561.6 344.1,561.6 344.1,561.6 
	343.4,561.6 342.8,561.6 342.1,561.6 342.1,561.6 341.5,561.6 340.8,561.6 340.2,561.6 340.2,561.6 339.5,561.6 338.9,561.6 
	338.9,561.6 338.2,561.6 337.6,561.6 337.6,561.6 336.9,561.6 336.9,561.6 336.3,561.6 336.3,561.6 336.3,561.6 335.7,561.6 
	335,561.6 335,561.6 335,561.6 335,560.9 335,560.3 335,560.3 335.7,559.7 336.3,559.7 336.3,559 336.9,559 336.9,558.4 
	336.9,558.4 336.9,557.7 336.9,557.1 336.9,557.1 336.9,548 336.9,546.7 336.9,546.1 336.9,546.1 336.9,545.4 336.9,545.4 
	336.9,545.4 336.3,544.8 336.3,544.8 335.7,544.2 335,544.2 335,543.5 335,543.5 334.4,543.5 334.4,542.9 334.4,542.2 335,542.2 
	335,542.2 335.7,541.6 336.3,541.6 336.3,540.9 336.9,540.9 336.9,540.9 337.6,540.3 337.6,540.3 338.2,540.3 338.2,539.6 
	338.9,539 338.9,539 338.9,539 339.5,539 339.5,539.6 340.2,539.6 340.2,540.3 340.2,540.9 340.2,541.6 340.2,542.2 340.2,542.9 
	340.2,542.9 340.8,542.9 340.8,542.9 340.8,542.9 340.8,542.2 341.5,542.2 342.1,541.6 342.8,540.9 342.8,540.9 343.4,540.3 
	343.4,540.3 344.1,540.3 344.7,539.6 344.7,539.6 345.4,539.6 345.4,539.6 346,539.6 346,539.6 346.6,539.6 347.3,539.6 
	347.3,539.6 347.3,540.3 347.9,540.9 347.9,541.6 "/>
<path class="st0" d="M358.3,529.3L358.3,529.3v0.7l-0.7,0.7v0.7l0,0l-0.7,0.7l0,0l-0.7,0.6l0,0h-0.5l0,0H355l-0.7-0.6l0,0l0,0
	l-0.6-0.9v-0.7l0,0v-0.7l0,0v-0.7v-0.6v-0.7h0.7v-0.7l0.7-0.7l0,0h0.6v-0.7h0.7l0,0l0.7,0.7l0,0h0.7v0.7h0.7v0.7v0.7v0.8H358.3z
	 M360.2,560.9v0.7l0,0l0,0h-0.7l0,0h-0.6h-0.6l0,0h-0.7H357l0,0h-0.7h-0.6l0,0H355h-0.6l0,0h-0.7h-0.6l0,0l0,0h-0.7h-0.6l0,0l0,0
	v-0.7v-0.7l0,0l0.6-0.6l0,0h0.7v-0.7h0.7v-0.7v-0.7v-0.7v-0.6l0,0v-7.1v-0.7v-0.7v-0.6v-0.7v-0.7l0,0l-0.7-0.7l0,0v-0.7h-0.7
	l-0.6-0.1l0,0h-0.6v-0.7l0,0v-0.7l0,0l0.7-0.7l0,0h0.6l0.7-0.7l0,0h0.7v-0.6h0.7l0.7-0.7l0,0l0,0l0.6-0.7h0.7v-0.7l0,0h0.7v0.7v0.7
	v0.7l0,0l0,0v0.6v0.7v0.7v0.7v0.7v0.6v0.7l0,0v0.7v0.7v0.7v0.6v0.7v0.7v0.7v0.6v0.7l0,0v0.7v0.7v0.7v0.6v0.7v0.7v0.7l0,0v0.7v0.6
	l0.7,0.7l0,0v0.7l0,0l0.7,0.7l0,0l0.6,0.7h0.7l0,0h0.7v0.6v-0.2H360.2L360.2,560.9z"/>
<polygon class="st0" points="383.5,540.9 382.8,540.9 382.8,541.6 382.2,541.6 382.2,542.2 381.5,542.2 381.5,542.2 380.9,542.9 
	380.9,543.5 380.2,543.5 380.2,544.2 380.2,544.8 380.2,544.8 380.2,545.4 379.6,545.4 379.6,546.1 379.6,546.7 379.6,547.4 
	378.9,547.4 378.9,548 378.9,548.7 378.9,549.3 378.3,550 378.3,550 378.3,550.6 377.6,551.3 377.6,551.9 377,552.6 377,553.2 
	377,553.8 376.4,554.5 376.4,555.1 375.7,555.8 375.7,556.4 375.7,557.1 375.1,557.7 375.1,558.4 375.1,558.4 374.4,559 
	374.4,559.7 374.4,560.3 373.8,560.3 373.8,560.9 373.8,560.9 373.8,561.6 373.1,561.6 373.1,562.3 373.1,562.3 373.1,561.6 
	373.1,561.6 372.5,561.6 372.5,560.9 371.8,560.3 371.8,559.7 371.8,559.7 371.2,559 371.2,558.4 371.2,557.7 370.6,557.7 
	370.6,557.1 369.9,556.4 369.9,555.8 369.9,555.1 369.3,555.1 369.3,554.5 369.3,553.8 368.6,553.2 368.6,553.2 368.6,552.6 
	367.9,551.9 367.9,551.3 367.9,551.3 367.3,550.6 367.3,550 367.3,549.3 366.7,548.7 366.7,548.7 366.7,548 366.7,547.4 366,546.7 
	366,546.7 366,546.1 365.4,545.4 365.4,544.8 365.4,544.2 365.4,544.2 364.7,543.5 364.7,542.9 364.7,542.9 364.1,542.2 
	364.1,542.2 364.1,542.2 363.4,541.6 362.8,541.6 362.8,540.9 362.8,540.9 362.8,540.3 362.8,540.3 363.4,540.3 363.4,540.3 
	364.1,540.3 364.1,540.3 364.7,540.3 364.7,540.3 365.4,540.3 366,540.3 366,540.3 366.7,540.3 367.3,540.3 367.9,540.3 
	368.6,540.3 368.6,540.3 369.3,540.3 369.9,539.6 369.9,539.6 370.6,539.6 370.6,539.6 370.6,539.6 371.2,539.6 371.2,540.3 
	371.2,540.3 371.2,540.9 371.2,541.6 370.6,541.6 370.6,541.6 369.9,542.2 369.3,542.2 369.3,542.2 368.6,542.9 368.6,542.9 
	368.6,542.9 368.6,543.5 369.3,544.2 369.3,544.2 369.3,544.8 369.3,545.4 369.3,545.4 369.9,546.1 369.9,546.7 369.9,546.7 
	369.9,547.4 370.6,548 370.6,548.7 370.6,549.3 371.2,550 371.2,550.6 371.8,551.3 371.8,551.3 371.8,551.9 372.5,553.2 
	372.5,553.8 373.1,554.5 373.1,554.5 373.1,555.1 373.8,555.1 373.8,555.8 373.8,555.8 373.8,555.8 373.8,555.8 373.8,555.1 
	373.8,555.1 374.4,554.5 374.4,554.5 374.4,553.8 375.1,552.6 375.1,551.9 375.7,551.3 375.7,550.6 375.7,550 376.4,549.3 
	376.4,548.7 376.4,548.7 377,548 377,547.4 377,546.7 377,546.1 377.6,546.1 377.6,545.4 377.6,544.8 377.6,544.2 377.6,544.2 
	378.3,543.5 378.3,543.5 378.3,542.9 377.6,542.2 377.6,542.2 377,541.6 377,541.6 376.4,541.6 376.4,540.9 376.4,540.9 
	376.4,540.9 376.4,540.3 376.4,539.6 377,539.6 377,539.6 377,539.6 377.6,540.3 378.3,540.3 378.3,540.3 378.9,540.3 379.6,540.3 
	380.2,540.3 380.9,540.3 381.5,540.3 381.5,540.3 382.2,540.3 382.2,540.3 382.2,540.3 382.8,540.3 382.8,540.3 "/>
<path class="st0" d="M401.6,557.1L401.6,557.1v0.7l0,0v0.7h-0.7l-0.7,0.7l0,0l-0.7,0.7l0,0l-0.7,0.6h-0.6l0,0l-0.7,0.7l0,0h-0.7
	l-0.7,0.7l0,0h-0.7h-0.6l0,0h-0.7h-0.7l0,0h-0.7H392l0,0h-0.1l0,0h-0.7l-0.7-0.7l0,0h-0.6v-0.7h-0.6v-0.6h-0.7v-0.7l0,0l-0.7-0.7
	l0,0l-0.7-0.7v-0.7l0,0l-0.7-0.6v-0.7l0,0v-0.7l-0.6-0.7v-0.7v-0.5v-0.7v-0.7v-0.7l0,0v-0.7v-0.6v-0.7v-0.7v-0.7v-0.6h0.6v-0.7v-0.7
	V545l0.7-0.7l0,0v-0.1v-0.7h0.7v-0.7l0.7-0.7l0,0v-0.7h0.7v-0.6h0.6l0.7-0.7l0,0h0.7v-0.7h0.6l0,0h0.6l0.7-0.7l0,0h0.7h0.7l0,0h0.7
	l0,0h0.6l0.7,0.7l0,0h0.7l0.7,0.7l0,0h0.7v0.7h0.6v0.6l0.7,0.7l0,0l0.7,0.7v0.7v0.7l0,0h0.2v0.6v0.7l0,0h0.7v0.7l0,0v0.7l0,0v0.7
	h-0.7l-0.7,0.6l0,0h-0.7l-9.7,3.9v0.7v0.7l0.7,0.6v0.7v0.7l0,0l0.7,0.7v0.7l0,0l0.7,0.6l0,0l0.6,0.7l0,0l0.7,0.7l0,0h0.7l0,0h0.7
	v0.7h0.7h0.6v-0.7h0.7l0,0h0.7l0,0h0.7l0.7-0.7l0,0h0.6l0.7-0.7l0,0l0.7-0.6h0.2v-0.7h0.7l0,0v0.7V557.1L401.6,557.1L401.6,557.1z
	 M397,545.4v-0.7v-0.5h-0.7v-0.7v-0.7h-0.7v-0.6H395l0,0l-0.7-0.7h-0.7l0,0l0,0h-0.7l0,0h-0.7v0.7h-0.3l0,0l-0.7,0.7l0,0l-0.7,0.7
	l0,0v0.7l0,0l-0.7,0.6v0.7v0.7v0.7v0.7v0.6v0.7v0.7v0.7l5.8-2.6l0,0l0.7-0.7l0,0l0.7-0.7V545.4L397,545.4L397,545.4z"/>
<polygon class="st0" points="430.6,557.7 430.6,558.4 430.6,558.4 430,559 430,559 429.3,559.7 429.3,559.7 428.7,560.3 
	428.7,560.3 428,560.9 427.4,560.9 427.4,560.9 426.7,561.6 426.1,561.6 426.1,561.6 425.5,561.6 425.5,561.6 424.8,562.3 
	424.2,562.3 424.2,562.3 423.5,562.3 423.5,562.3 422.9,562.3 422.2,562.3 422.2,561.6 421.6,561.6 420.9,561.6 420.9,561.6 
	420.3,560.9 420.3,560.9 419.7,560.9 419,560.3 419,560.3 418.3,560.3 418.3,559.7 417.7,559.7 417.7,559 417.7,559 417.7,558.4 
	417.1,558.4 417.1,557.7 416.4,557.1 416.4,557.1 416.4,556.4 416.4,555.8 415.8,555.1 415.8,554.5 415.8,554.5 415.8,553.8 
	415.8,553.2 415.8,552.6 415.8,551.9 415.8,551.3 415.8,551.3 415.8,550.6 415.8,550 415.8,549.3 415.8,548.7 415.8,548 
	415.8,547.4 416.4,547.4 416.4,546.7 416.4,546.1 416.4,545.4 417.1,545.4 417.1,544.8 417.1,544.2 417.7,544.2 417.7,543.5 
	418.3,542.9 418.3,542.9 418.3,542.2 419,542.2 419,541.6 419.7,541.6 420.3,540.9 420.3,540.9 420.9,540.9 420.9,540.3 
	421.6,540.3 421.6,540.3 422.2,539.6 422.9,539.6 422.9,539.6 423.5,539.6 424.2,539.6 424.2,539.6 424.8,539.6 424.8,539.6 
	425.5,539.6 426.1,539.6 426.1,539.6 426.7,539.6 427.4,539.6 427.4,539.6 428,539.6 428,540.3 428.7,540.3 428.7,540.3 
	429.3,540.9 430,540.9 430,541.6 430.6,541.6 430.6,542.2 430.6,542.2 430.6,542.2 430.6,542.9 430,543.5 430,544.2 429.3,544.8 
	429.3,544.8 428.7,545.4 428.7,545.4 428.7,545.4 428,545.4 428,545.4 427.4,544.8 427.4,544.2 426.7,544.2 426.7,543.5 
	426.1,543.5 425.5,542.9 425.5,542.9 424.8,542.2 424.8,542.2 424.2,542.2 424.2,542.2 423.5,542.2 423.5,542.2 422.9,542.2 
	422.2,542.2 422.2,542.2 421.6,542.9 421.6,542.9 420.9,543.5 420.9,543.5 420.9,544.2 420.3,544.2 420.3,544.8 420.3,545.4 
	419.7,545.4 419.7,546.1 419.7,546.7 419.7,547.4 419.7,548 419.7,548.7 419.7,549.3 419.7,549.3 419.7,550 419.7,550.6 
	419.7,551.3 419.7,551.9 419.7,552.6 419.7,553.2 419.7,553.8 420.3,554.5 420.3,554.5 420.3,555.1 420.3,555.8 420.9,555.8 
	420.9,556.4 420.9,556.4 421.6,557.1 421.6,557.7 422.2,557.7 422.2,558.4 422.9,558.4 423.5,558.4 423.5,559 424.2,559 424.2,559 
	424.8,559 425.5,559 425.5,559 426.1,559 426.7,559 426.7,559 427.4,559 428,558.4 428,558.4 428.7,558.4 428.7,557.7 429.3,557.7 
	430,557.1 430,557.1 430,557.1 430,557.1 430.6,557.1 430.6,557.7 "/>
<polygon class="st0" points="455.8,560.9 455.8,561.6 455.2,561.6 455.2,561.6 454.5,561.6 453.9,561.6 453.2,561.6 452.6,561.6 
	451.9,561.6 451.9,561.6 451.3,561.6 450.7,561.6 450,561.6 450,561.6 449.4,561.6 449.4,561.6 448.7,561.6 448.7,561.6 
	448.1,561.6 448.1,561.6 448.1,561.6 447.4,561.6 446.8,561.6 446.8,561.6 446.8,561.6 446.8,560.9 446.8,560.9 446.8,560.3 
	446.8,560.3 447.4,559.7 447.4,559.7 448.1,559.7 448.7,559 448.7,559 448.7,559 448.7,558.4 448.7,557.7 448.7,557.1 448.7,557.1 
	448.7,549.3 448.7,548.7 448.7,548 448.7,547.4 448.7,546.7 448.7,546.1 448.1,546.1 448.1,545.4 448.1,544.8 448.1,544.8 
	447.4,544.2 447.4,544.2 447.4,543.5 446.8,543.5 446.8,543.5 446.1,542.9 446.1,542.9 445.5,542.9 444.9,542.9 444.9,542.9 
	444.9,542.9 444.2,542.9 443.5,542.9 443.5,542.9 442.9,542.9 442.2,542.9 442.2,543.5 441.6,543.5 441.6,543.5 441,544.2 
	441,544.2 440.3,544.8 439.7,544.8 439.7,545.4 439.7,546.1 439.7,546.1 439.7,557.1 439.7,557.1 439.7,557.7 439.7,558.4 
	440.3,558.4 440.3,559 440.3,559 441,559.7 441.6,559.7 441.6,559.7 442.2,559.7 442.9,560.3 442.9,560.3 442.9,560.9 442.9,560.9 
	442.9,561.6 442.9,561.6 442.9,561.6 442.2,561.6 442.2,561.6 441.6,561.6 441.6,561.6 441,561.6 440.3,561.6 440.3,561.6 
	439.7,561.6 439,561.6 439,561.6 438.4,561.6 437.7,561.6 437.7,561.6 437.1,561.6 436.4,561.6 436.4,561.6 435.8,561.6 
	435.2,561.6 434.5,561.6 434.5,561.6 434.5,561.6 433.9,561.6 433.9,560.9 433.9,560.9 433.9,560.9 434.5,560.3 434.5,560.3 
	435.2,559.7 435.8,559.7 435.8,559.7 435.8,559 436.4,559 436.4,558.4 436.4,557.7 436.4,557.1 436.4,531.2 436.4,530.6 
	436.4,529.9 436.4,529.3 436.4,529.3 435.8,528.7 435.8,528 435.8,528 435.8,527.4 435.2,527.4 435.2,526.7 434.5,526.7 
	433.9,526.1 433.9,526.1 433.2,525.4 433.2,525.4 433.9,524.8 433.9,524.8 434.5,524.1 434.5,524.1 435.2,524.1 435.2,523.5 
	435.8,523.5 435.8,523.5 436.4,522.9 437.1,522.9 437.1,522.2 437.7,522.2 438.4,521.5 438.4,521.5 439,521.5 439,521.5 439,521.5 
	439.7,521.5 439.7,522.2 439.7,522.9 439.7,522.9 439.7,523.5 439.7,524.1 439.7,524.8 439.7,525.4 439.7,526.1 439.7,526.7 
	439.7,527.4 439.7,528 439.7,528.7 439.7,529.3 439.7,529.9 439.7,530.6 439.7,530.6 439.7,531.2 439.7,540.9 439.7,541.6 
	439.7,542.2 439.7,542.2 439.7,542.2 439.7,542.2 440.3,542.2 440.3,542.2 441,541.6 441,541.6 441.6,540.9 442.2,540.9 
	442.2,540.3 442.9,540.3 443.5,539.6 443.5,539.6 444.2,539.6 444.2,539.6 444.9,539 445.5,539 445.5,539 446.1,539 446.1,539 
	446.8,539 447.4,539 447.4,539 448.1,539 448.1,539.6 448.7,539.6 449.4,539.6 449.4,539.6 450,540.3 450,540.3 450,540.9 
	450.7,540.9 450.7,541.6 450.7,541.6 451.3,542.2 451.3,542.9 451.3,542.9 451.3,543.5 451.9,544.2 451.9,544.8 451.9,544.8 
	451.9,545.4 451.9,546.1 451.9,546.7 451.9,547.4 451.9,557.1 451.9,557.7 451.9,557.7 452.6,558.4 452.6,559 452.6,559 
	453.2,559.7 453.2,559.7 453.9,559.7 453.9,559.7 454.5,560.3 454.5,560.3 455.2,560.3 455.2,560.3 455.8,560.9 "/>
<path class="st0" d="M474.6,559L474.6,559v0.7h-0.7l-0.7,0.6l0,0l0,0l-0.7,0.7h-0.6l-0.7,0.7l0,0h-0.7l0,0l0,0h-0.7h-0.6V561h-0.7
	l0,0v-0.7l-0.7-0.6l0,0l0,0h-0.7v0.6h-0.7l-0.6,0.7l0,0h-0.7v0.7h-0.2h-0.7l0,0h-0.7l-0.6,0.7l0,0h-0.7h-0.7v-0.7h-0.7l0,0h-0.7
	l-0.6-0.7l0,0v-0.7h-0.7v-0.6l0,0l-0.7-0.7v-0.7v-0.7v-0.7v-0.6l0,0l0,0v-0.7l0,0v-0.7l0,0v-0.7h0.7v-0.7l0,0l0.7-0.6l0,0v-0.7h0.6
	v-0.7h0.7l0,0l0.7-0.7h0.7l0,0l0.7-0.7h0.6h0.7l0.7-0.6l0,0h0.7h0.7l0.6-0.7l0,0h0.7l0.7-0.7l0,0v-0.7l0,0v-1.9v-0.7v-0.7l0,0v0.1
	l-0.7-0.7v-0.7l0,0l-0.7-0.7l0,0l0,0l-0.6-0.7h-0.7l0,0h-0.7l0,0l-0.7,0.7l0,0l-0.7,0.7l0,0v0.7l0,0l-0.6,0.7v0.6l-0.7,0.7l0,0
	l-0.7,0.7l0,0h-0.7l0,0h-0.7l0,0h-0.6v-0.7l0,0l-0.7-0.7v-0.6l0,0l0.7-0.7l0,0v-0.7l0.6-0.7l0,0l0.7-0.7h0.7v-0.6h0.7l0.7-0.7l0,0
	h0.6l0.7-0.7l0,0h0.7l0,0h0.7l0.7-0.7l0,0h0.6l0,0h0.7h0.7v0.7h0.7h0.7l0,0l0.6,0.7l0,0v0.7h0.7v0.6l0,0v0.7l0.7,0.7v0.7l0,0v0.7
	v0.6v11.7v0.6l0,0v0.7h0.7l0,0h0.6l0,0h0.7l0,0h0.7l0,0h0.7v0.7v0.5H474.6L474.6,559z M468.1,552.6v-0.7v-0.7h-0.7h-0.7l0,0h-0.6
	l-0.7,0.7l0,0h-0.5l-0.7,0.7l0,0h-0.7l-0.6,0.6l0,0v0.6h-0.7v0.7l0,0v0.7h-0.7v0.7l0,0v0.7l0.7,0.6l0,0v0.7v0.7h0.7l0,0l0.6,0.7l0,0
	h0.7h0.7l0,0h0.7l0,0h0.7l0.6-0.7l0,0h0.7v-0.7h0.7v-0.7l0,0v-4.6H468.1z"/>
<polygon class="st0" points="499.1,560.9 499.1,561.6 499.1,561.6 498.5,561.6 498.5,561.6 497.8,561.6 497.2,561.6 496.5,561.6 
	495.9,561.6 495.9,561.6 495.2,561.6 494.6,561.6 494.6,561.6 493.9,561.6 493.3,561.6 493.3,561.6 492.6,561.6 492.6,561.6 
	492,561.6 492,561.6 491.3,561.6 490.7,561.6 490.7,561.6 490.1,561.6 490.1,561.6 490.1,560.9 490.1,560.9 490.1,560.3 
	490.7,560.3 490.7,560.3 491.3,559.7 491.3,559.7 492,559.7 492,559 492,558.4 492.6,557.7 492.6,557.1 492.6,557.1 492.6,549.3 
	492.6,548.7 492.6,548 492,547.4 492,546.7 492,546.7 492,546.1 492,545.4 491.3,545.4 491.3,544.8 491.3,544.2 490.7,544.2 
	490.7,544.2 490.7,543.5 490.1,543.5 490.1,543.5 489.4,542.9 488.8,542.9 488.8,542.9 488.1,542.9 487.5,542.9 487.5,542.9 
	486.8,542.9 486.8,543.5 486.2,543.5 485.5,543.5 485.5,543.5 484.9,544.2 484.9,544.2 484.3,544.8 483.6,544.8 483.6,545.4 
	483.6,546.1 483.6,546.1 482.9,546.7 482.9,557.1 482.9,557.1 483.6,557.7 483.6,558.4 483.6,558.4 484.3,559 484.3,559 
	484.9,559.7 484.9,559.7 485.5,559.7 485.5,559.7 486.2,559.7 486.8,560.3 486.8,560.3 486.8,560.9 486.8,560.9 486.8,561.6 
	486.2,561.6 485.5,561.6 485.5,561.6 484.9,561.6 484.9,561.6 484.3,561.6 483.6,561.6 483.6,561.6 482.9,561.6 482.3,561.6 
	482.3,561.6 481.7,561.6 481,561.6 481,561.6 480.4,561.6 479.7,561.6 479.1,561.6 479.1,562.3 478.4,562.3 477.8,562.3 
	477.8,562.3 477.8,561.6 477.8,561.6 477.8,560.9 477.8,560.9 477.8,560.3 478.4,560.3 479.1,560.3 479.1,559.7 479.1,559.7 
	479.7,559 479.7,559 479.7,558.4 479.7,557.7 479.7,557.1 479.7,556.4 479.7,548 479.7,546.7 479.7,546.1 479.7,546.1 479.7,545.4 
	479.7,544.8 479.7,544.8 479.1,544.8 479.1,544.8 478.4,544.2 478.4,544.2 477.8,544.2 477.8,544.2 477.1,543.5 477.1,542.9 
	477.1,542.9 477.8,542.2 477.8,542.2 478.4,542.2 478.4,541.6 479.1,541.6 479.7,540.9 479.7,540.9 480.4,540.3 480.4,540.3 
	481,539.6 481.7,539.6 481.7,539 482.3,539 482.3,539 482.3,539 482.3,539.6 482.9,540.3 482.9,540.9 482.9,540.9 482.9,541.6 
	482.9,542.2 483.6,542.9 483.6,542.9 483.6,542.9 483.6,542.2 483.6,542.2 484.3,542.2 484.9,541.6 485.5,540.9 485.5,540.9 
	486.2,540.9 486.2,540.3 486.8,540.3 487.5,540.3 487.5,539.6 488.1,539.6 488.1,539.6 488.8,539.6 489.4,539.6 489.4,539.6 
	490.1,539.6 490.1,539 490.7,539.6 490.7,539.6 491.3,539.6 492,539.6 492,539.6 492.6,539.6 492.6,540.3 493.3,540.3 493.3,540.3 
	493.9,540.9 493.9,540.9 493.9,541.6 494.6,541.6 494.6,542.2 494.6,542.2 495.2,542.9 495.2,543.5 495.2,543.5 495.2,544.2 
	495.2,544.8 495.2,545.4 495.9,546.1 495.9,546.7 495.9,547.4 495.9,547.4 495.9,556.4 495.9,557.1 495.9,557.7 495.9,558.4 
	495.9,559 496.5,559 496.5,559.7 497.2,559.7 497.2,559.7 497.8,559.7 498.5,560.3 499.1,560.3 499.1,560.3 499.1,560.9 "/>
<polygon class="st0" points="523.7,560.9 523,561.6 523,561.6 522.4,561.6 522.4,561.6 521.7,561.6 521.1,561.6 521.1,561.6 
	520.4,561.6 519.8,561.6 519.1,561.6 519.1,561.6 518.5,561.6 517.8,561.6 517.8,561.6 517.2,561.6 516.5,561.6 516.5,561.6 
	515.9,561.6 515.9,561.6 515.3,561.6 515.3,561.6 514.6,561.6 514.6,561.6 514,561.6 514,560.9 514,560.9 514.6,560.3 514.6,560.3 
	515.3,560.3 515.3,559.7 515.9,559.7 515.9,559.7 515.9,559 516.5,558.4 516.5,557.7 516.5,557.1 516.5,557.1 516.5,549.3 
	516.5,548.7 516.5,548 516.5,547.4 516.5,546.7 516.5,546.7 515.9,546.1 515.9,545.4 515.9,545.4 515.9,544.8 515.3,544.2 
	515.3,544.2 514.6,544.2 514.6,543.5 514,543.5 514,543.5 513.3,542.9 513.3,542.9 512.7,542.9 512.7,542.9 512,542.9 511.4,542.9 
	511.4,542.9 510.7,543.5 510.1,543.5 510.1,543.5 509.5,543.5 508.8,544.2 508.8,544.2 508.1,544.8 508.1,544.8 507.5,545.4 
	507.5,546.1 507.5,546.1 507.5,546.7 507.5,557.1 507.5,557.1 507.5,557.7 507.5,558.4 507.5,558.4 508.1,559 508.1,559 
	508.8,559.7 509.5,559.7 509.5,559.7 510.1,559.7 510.7,559.7 510.7,560.3 510.7,560.3 510.7,560.9 510.7,560.9 510.7,561.6 
	510.1,561.6 510.1,561.6 509.5,561.6 509.5,561.6 508.8,561.6 508.1,561.6 508.1,561.6 507.5,561.6 506.8,561.6 506.8,561.6 
	506.2,561.6 505.6,561.6 505.6,561.6 504.9,561.6 504.3,561.6 504.3,561.6 503.6,561.6 503,562.3 502.3,562.3 502.3,562.3 
	502.3,562.3 501.7,561.6 501.7,561.6 501.7,560.9 501.7,560.9 502.3,560.3 502.3,560.3 503,560.3 503,559.7 503.6,559.7 503.6,559 
	503.6,559 503.6,558.4 504.3,557.7 504.3,557.1 504.3,556.4 504.3,548 504.3,546.7 504.3,546.1 503.6,546.1 503.6,545.4 
	503.6,544.8 503.6,544.8 503.6,544.8 503,544.8 503,544.2 502.3,544.2 501.7,544.2 501.7,544.2 501.7,543.5 501,542.9 501.7,542.9 
	501.7,542.2 502.3,542.2 502.3,542.2 503,541.6 503,541.6 503.6,540.9 504.3,540.9 504.3,540.3 504.9,540.3 505.6,539.6 
	505.6,539.6 506.2,539 506.2,539 506.2,539 506.2,539 506.8,539.6 506.8,540.3 506.8,540.9 506.8,540.9 506.8,541.6 507.5,542.2 
	507.5,542.9 507.5,542.9 507.5,542.9 507.5,542.2 508.1,542.2 508.1,542.2 508.8,541.6 509.5,540.9 509.5,540.9 510.1,540.9 
	510.7,540.3 510.7,540.3 511.4,540.3 512,539.6 512,539.6 512.7,539.6 512.7,539.6 513.3,539.6 514,539.6 514,539.6 514,539 
	514.6,539.6 515.3,539.6 515.3,539.6 515.9,539.6 516.5,539.6 516.5,539.6 517.2,540.3 517.2,540.3 517.8,540.3 517.8,540.9 
	517.8,540.9 518.5,541.6 518.5,541.6 518.5,542.2 519.1,542.2 519.1,542.9 519.1,543.5 519.1,543.5 519.8,544.2 519.8,544.8 
	519.8,545.4 519.8,546.1 519.8,546.7 519.8,547.4 519.8,547.4 519.8,556.4 519.8,557.1 519.8,557.7 519.8,558.4 520.4,559 
	520.4,559 520.4,559.7 521.1,559.7 521.7,559.7 521.7,559.7 522.4,560.3 523,560.3 523,560.3 523.7,560.9 "/>
<path class="st0" d="M541.1,557.1L541.1,557.1v0.7h-0.6v0.7h-0.7v0.7h-0.7l-0.7,0.7l0,0l-0.7,0.6l0,0h-0.6v0.7h-0.7h-0.5v0.7h-0.7
	h-0.7l0,0h-0.6l0,0h-0.7h-0.7l0,0h-0.7h-0.7l0,0h-0.6h-0.7v-0.7h-0.7l0,0l-0.7-0.7h-0.6v-0.6h-0.7v-0.7l0,0v-0.7h-0.2v-0.7l-0.7-0.7
	l0,0v-0.6l-0.7-0.7l0,0v-0.7v-0.7v-0.7v-0.5l-0.6-0.7v-0.7v-0.7l0,0v-0.7v-0.6v-0.7l0.6-0.7v-0.7v-0.6l0,0v-0.7v-0.7l0.7-0.7v-0.7
	l0,0l0.7-0.6V543l0,0l0.7-0.7v-0.1l0,0l0.7-0.7l0,0l0.6-0.6l0,0l0.7-0.7h0.7l0,0l0.7-0.7l0,0h0.6h0.7v-0.7h0.7l0,0h0.7h0.7l0,0h0.6
	h0.7v0.7h0.7l0,0l0.7,0.7h0.7l0,0l0.6,0.7l0,0l0.7,0.6v0.7h0.7v0.7v0.7l0.7,0.7l0,0l0,0v0.6l0.7,0.7l0,0l0,0l0.6,0.7l0,0v0.7h-0.6
	v0.7l0,0l-0.7,0.6h-0.7h-0.7l-9.7,3.9l0.7,0.7v0.7v0.6v0.7v0.7h0.7v0.7v0.7h0.7v0.6h0.6v0.7l0,0l0.7,0.7h0.7l0,0h0.7l0,0l0.7,0.7
	l0,0h0.6l0.7-0.7l0,0h0.7l0,0h0.7l0,0l0.7-0.7h0.6l0,0l0.7-0.7h0.7V557h0.7l0.7-0.7l0,0l0,0l0.6,0.7v0.1H541.1L541.1,557.1z
	 M535.9,545.4v-0.7v-0.5l0,0l-0.7-0.7v-0.7l0,0l-0.7-0.7l0,0h-0.6l-0.7-0.7l0,0h-0.7l0,0l0,0h-0.7h-0.7v0.7h-0.6l0,0v0.7h-0.7v0.7
	l0,0l-0.7,0.7l0,0v0.6v0.7l-0.7,0.7v0.7v0.7v0.6v0.7v0.7v0.7l5.8-2.6h0.7V547h0.7v-0.7v-0.9H535.9L535.9,545.4z"/>
<polygon class="st0" points="554,560.9 554,560.9 554,561.6 553.4,561.6 553.4,561.6 552.7,561.6 552.1,561.6 552.1,561.6 
	551.4,561.6 551.4,561.6 550.8,561.6 550.1,561.6 550.1,561.6 549.5,561.6 548.9,561.6 548.9,561.6 548.2,561.6 547.6,561.6 
	547.6,561.6 546.9,561.6 546.3,561.6 545.6,561.6 545,561.6 545,561.6 545,561.6 544.3,561.6 544.3,560.9 545,560.3 545,560.3 
	545.6,559.7 545.6,559.7 546.3,559.7 546.3,559 546.3,559 546.9,558.4 546.9,557.7 546.9,557.1 546.9,557.1 546.9,531.2 
	546.9,530.6 546.9,529.9 546.9,529.3 546.9,529.3 546.3,528.7 546.3,528 546.3,528 546.3,528 545.6,527.4 545.6,527.4 545,526.7 
	545,526.7 545,526.7 544.3,526.1 544.3,526.1 544.3,525.4 544.3,525.4 544.3,524.8 545,524.8 545,524.1 545.6,524.1 545.6,524.1 
	546.3,523.5 546.3,523.5 546.9,523.5 547.6,522.9 547.6,522.9 548.2,522.2 548.2,522.2 548.9,521.5 549.5,521.5 549.5,521.5 
	549.5,521.5 550.1,521.5 550.1,521.5 550.1,522.2 550.1,522.9 550.1,522.9 550.1,523.5 550.1,523.5 550.1,524.8 550.1,525.4 
	550.1,525.4 550.1,526.1 550.1,526.7 550.1,527.4 550.1,528 550.1,528.7 550.1,529.3 550.1,529.9 550.1,530.6 550.1,530.6 
	550.1,531.2 550.1,556.4 550.1,557.1 550.1,557.7 550.8,557.7 550.8,558.4 550.8,559 551.4,559 551.4,559 552.1,559.7 552.1,559.7 
	552.7,559.7 553.4,559.7 553.4,559.7 554,560.3 554,560.3 "/>
<polygon class="st0" points="390.9,43.9 390.9,44.6 390.9,44.6 390.9,45.2 390.3,45.9 389.6,45.9 389,46.5 389,46.5 388.3,47.2 
	387.7,47.2 387.7,47.2 387,47.2 386.4,47.8 385.7,47.8 385.1,47.8 385.1,47.8 384.4,47.8 383.8,47.8 383.1,47.8 383.1,47.2 
	382.5,47.2 381.8,47.2 381.8,46.5 381.2,46.5 381.2,45.9 380.6,45.9 380.6,45.2 380.6,44.6 379.9,44.6 379.9,43.9 379.9,43.3 
	379.9,42.6 379.3,42 379.3,41.4 379.3,40.7 379.3,40.1 379.3,27.8 379.3,26.5 379.3,25.9 379.3,25.2 379.3,25.2 379.3,24.5 
	378.6,24.5 378.6,24.5 378,23.9 377.3,23.9 376.7,23.3 376.7,22.6 376.7,22 377.3,21.3 377.3,21.3 378,20.7 378.6,20.7 378.6,20 
	379.3,20 379.3,19.4 379.9,18.7 379.9,18.7 380.6,18.1 380.6,17.4 381.2,16.8 381.2,16.2 381.8,15.5 381.8,14.9 382.5,14.9 
	382.5,14.9 383.1,14.9 383.1,14.9 383.8,15.5 383.8,20 383.8,20.7 383.8,20.7 384.4,20.7 384.4,20.7 390.3,20.7 390.3,21.3 
	390.3,21.3 390.3,22.6 390.3,22.6 390.3,23.3 389.6,23.9 389.6,23.9 389,24.5 388.3,24.5 384.4,24.5 383.8,24.5 383.8,24.5 
	383.8,24.5 383.1,25.2 383.1,25.9 383.1,26.5 383.1,37.5 383.1,38.8 383.1,39.4 383.1,40.1 383.8,40.7 383.8,41.4 383.8,42 
	383.8,42.6 383.8,42.6 384.4,43.3 384.4,43.3 385.1,43.9 385.1,43.9 385.7,43.9 386.4,43.9 387,43.9 387,43.9 387.7,43.9 
	388.3,43.9 389,43.9 389.6,43.9 389.6,43.9 390.3,43.3 390.9,43.3 390.9,43.3 390.9,43.9 "/>
<path class="st0" d="M416.1,33.6v0.6v0.7v0.7v0.6v0.7v0.7l-0.6,0.7V39v0.6l-0.7,0.7V41l0,0l-0.7,0.7v0.7l-0.7,0.6v0.7h-0.7v0.7
	l-0.6,0.7h-0.7v0.1h-0.5l-0.7,0.6l0,0l-0.7,0.7h-0.6l0,0l-0.6,0.7h-0.7h-0.7l0,0h-0.7h-0.6h-0.7l0,0h-0.7h-0.7h-0.7h-0.6h-0.3l0,0
	l-0.7-0.7h-0.7h-0.6v-0.7h-0.7h-0.7v-0.6l-0.7-0.7l0,0l-0.7-0.7l0,0l-0.6-0.7v-0.7h-0.7v-0.6v-0.7l-0.7-0.7v-0.7V39l-0.7-0.6v-0.7
	V37v-0.7v-0.1v-0.6v-0.7l0,0v-0.7v-1.3v-0.6v-0.7v-0.7v-0.7l0.7-0.6l0,0v-0.7l0.7-0.7v-0.7v-0.7l0.7-0.6v-0.7h0.6v-0.3l0.7-0.7l0,0
	l0.7-0.7l0,0l0.7-0.6l0,0l0.7-0.7h0.6v-0.7h0.7l0.7-0.7h0.7l0,0l0.6-0.7h0.7h0.7l0,0h0.7h0.7l0,0h0.6h0.7h0.7h0.7h0.7v0.7h0.6h0.7
	l0.7,0.7l0,0h0.7l0.7,0.7l0,0l0.6,0.7l0,0l0.7,0.6l0,0l0.7,0.7v0.7l0.7,0.7l0,0v0.7l0.7,0.6v0.7v0.7l0.6,0.7V30v0.6v0.7V32v0.7v0.6
	v0.3H416.1z M411.6,35.5v-0.7v-0.6v-0.7v-1.3v-0.7v-0.7v-0.7l-0.7-0.4V29l0,0l-0.7-0.7v-0.7v-0.7h-0.7v-0.6l-0.6-0.7v-0.4h-0.7
	l-0.7-0.7l0,0l-0.7-0.7h-0.7l0,0h-0.6h-0.7l0,0h-0.7h-0.7l0,0h-0.7l-0.6,0.7l0,0l-0.2,0.7h-0.7v0.7l-0.7,0.7l0,0l-0.6,0.6v0.7v0.7
	l-0.7,0.7V30v0.6v0.7V32v0.7v0.6v0.9v0.7v0.7v0.6v0.7v0.7l0.7,0.7V39v0.6v0.7h0.6V41l0.7,0.7l0,0v0.7l0.7,0.6l0,0l0.7,0.7h0.6v0.7
	h0.7h0.7l0.7,0.7l0,0h0.7h0.6h0.7l0.7-0.7l0,0h0.7l0.7-0.7l0,0L410,43v-0.6h0.7v-0.7l0.7-0.7v-0.7l0,0l0.7-0.7V39v-0.7v-0.7v-1.4
	v-0.7H411.6L411.6,35.5z"/>
<polygon class="st0" points="447.1,46.5 447.1,47.2 446.4,47.2 445.8,47.2 445.8,47.2 445.2,47.2 444.5,47.2 443.9,47.2 443.2,47.2 
	442.6,47.2 441.9,47.2 441.3,47.2 441.3,47.2 440.6,47.2 440,47.2 439.4,47.2 439.4,47.2 438.7,47.2 438,47.2 438,47.2 437.4,47.2 
	436.8,47.2 436.1,47.2 436.1,47.2 436.1,46.5 436.1,46.5 436.1,46.5 436.1,45.9 436.1,45.2 436.8,45.2 437.4,45.2 438,44.6 
	438,44.6 438.7,43.9 438.7,43.3 438.7,42.6 438.7,42 438.7,41.4 438.7,32.3 438.7,31.7 438.7,31 438.7,30.4 438.7,29.7 438.7,29.1 
	438,28.4 438,27.8 438,27.1 437.4,27.1 437.4,26.5 437.4,26.5 436.8,25.9 436.1,25.9 436.1,25.2 435.5,25.2 435.5,25.2 434.8,25.2 
	434.2,24.5 433.5,24.5 433.5,24.5 432.9,25.2 432.2,25.2 431.6,25.2 431,25.2 431,25.9 430.3,25.9 429.7,25.9 429.7,26.5 429,26.5 
	428.4,27.1 428.4,27.8 427.7,28.4 427.7,28.4 427.7,29.1 427.7,41.4 427.7,42 427.7,42.6 428.4,43.3 428.4,43.3 428.4,43.9 
	429,44.6 429.7,44.6 429.7,44.6 430.3,45.2 431,45.2 431.6,45.2 431.6,45.2 432.2,45.9 432.2,45.9 432.2,46.5 431.6,47.2 
	431.6,47.2 431,47.2 430.3,47.2 429.7,47.2 429.7,47.2 429,47.2 428.4,47.2 427.7,47.2 427.1,47.2 427.1,47.2 426.4,47.2 
	425.8,47.2 425.1,47.2 424.5,47.2 424.5,47.2 423.8,47.2 423.2,47.8 422.5,47.8 421.9,47.8 421.9,47.8 421.3,47.8 421.3,47.2 
	421.3,46.5 421.3,46.5 421.3,46.5 421.3,45.9 421.9,45.2 422.5,45.2 422.5,45.2 423.2,44.6 423.2,44.6 423.2,43.9 423.8,43.3 
	423.8,42.6 423.8,42 423.8,40.7 423.8,30.4 423.8,29.7 423.8,29.1 423.8,28.4 423.2,27.8 423.2,27.1 423.2,27.1 423.2,27.1 
	422.5,26.5 422.5,26.5 421.9,26.5 421.3,25.9 421.3,25.9 420.6,25.2 420.6,25.2 420.6,24.5 420.6,23.9 421.3,23.9 421.9,23.3 
	422.5,23.3 422.5,23.3 423.2,22.6 423.8,22 424.5,22 424.5,21.3 425.1,20.7 425.8,20.7 426.4,20 426.4,20 426.4,20 426.4,20 
	427.1,20.7 427.1,21.3 427.1,22 427.1,22 427.7,23.3 427.7,23.9 427.7,24.5 427.7,24.5 427.7,24.5 428.4,23.9 428.4,23.9 429,23.3 
	429.7,23.3 430.3,22.6 430.3,22.6 431,22 431.6,22 432.2,21.3 432.2,21.3 432.9,21.3 433.5,20.7 434.2,20.7 434.2,20.7 434.8,20.7 
	435.5,20.7 436.1,20.7 436.1,20.7 436.8,20.7 436.8,20.7 437.4,20.7 438,20.7 438.7,20.7 438.7,20.7 439.4,21.3 439.4,21.3 440,22 
	440,22 440.6,22.6 440.6,22.6 441.3,23.3 441.3,23.9 441.9,23.9 441.9,24.5 441.9,25.2 441.9,25.9 442.6,26.5 442.6,27.1 
	442.6,27.8 442.6,28.4 442.6,29.1 442.6,29.7 442.6,30.4 442.6,41.4 442.6,42 442.6,42.6 443.2,43.3 443.2,43.9 443.2,43.9 
	443.9,44.6 443.9,44.6 444.5,45.2 445.2,45.2 445.8,45.2 446.4,45.9 447.1,45.9 447.1,46.5 "/>
<path class="st0" d="M468.4,41.4v0.7h-0.6v0.6l0,0l-0.7,0.7l-0.7,0.7l-0.7,0.7H465v0.4h-0.6v0.6h-0.5h-0.7l-0.7,0.7l0,0h-0.6
	l-0.6,0.7h-0.7l0,0h-0.7h-0.7h-0.6h-0.7l0,0l0,0h-0.7h-0.7h-0.7h-0.6v-0.7h-0.3h-0.7v-0.7h-0.7l-0.6-0.6l0,0l-0.6-0.7v-0.7h-0.7
	v-0.7h-0.7v-0.7v-0.6l-0.7-0.7v-0.7h-0.7v-0.7V39v-0.6v-0.7l-0.6-0.7v-0.7V35v-0.7l0,0V33v-0.7v-0.6V31l0.6-0.7v-0.7V29v-0.7v-0.7
	l0.7-0.7v-0.7v-0.6h0.7v-0.7l0.7-0.7v-0.7l0.7-0.7l0,0l0.6-0.6l0,0l0.7-0.7v-0.7h0.7l0.7-0.7l0,0h0.7l0.6-0.7h0.7l0,0l0.7-0.6h0.7
	h0.7l0,0h0.6h0.7h0.7l0,0l0.7,0.6h0.6h0.7v0.7h0.7l0.7,0.7l0,0l0.7,0.7l0.6,0.7v0.6h0.7v0.7l0.7,0.7v0.7v0.7l0,0l0.7,0.6v0.7l0,0
	h0.7v0.7l0,0v0.7V29l0,0l-0.7,0.6h-0.7l-0.7,0.7l0,0l-12.3,4.5l0.7,0.6v1.3v0.7v0.7l0.7,0.6v0.7l0,0l0.7,0.7v0.7l0.6,0.7l0,0
	l0.7,0.6l0,0l0.7,0.7h0.7l0,0h0.7l0.6,0.7l0,0h0.7h0.7l0,0l0.7-0.7h0.6l0,0h0.7l0.7-0.7h0.7l0,0l0.7-0.6h0.6l0.7-0.7h0.7v-0.7h0.7
	h0.7l0,0l0,0L468.4,41.4L468.4,41.4L468.4,41.4z M461.9,27.8v-0.7v-0.6v-0.7l-0.6-0.7l0,0v-0.7l-0.7-0.7h-0.7v-0.6h-0.7h-0.6h-0.7
	l0,0l0,0h-0.7h-0.7v0.6h-0.7l0,0l-0.6,0.7l0,0l-0.3,0.8l0,0v0.7l-0.7,0.7v0.6v0.7v0.7l-0.7,0.7V30v0.6v1.3v0.7v0.6l7.1-2.6l0.7-0.6
	l0,0l0.6-0.7v-0.7l0,0V27.8L461.9,27.8z"/>
<g>
	<path class="st0" d="M653.5,543.8c-1.1,0-2,0.9-2,2c0,28.3-23,51.3-51.3,51.3c-0.6,0-1.1,0.2-1.4,0.6h-333
		c-0.4-0.4-0.9-0.6-1.4-0.6c-28.3,0-51.3-23-51.3-51.3c0-1.1-0.9-2-2-2s-2,0.9-2,2c0,30.1,24.2,54.7,54.1,55.3
		c0.4,0.4,0.9,0.6,1.5,0.6h335.9c0.6,0,1.1-0.3,1.5-0.6c29.7-0.9,53.5-25.4,53.5-55.3C655.5,544.7,654.6,543.8,653.5,543.8z"/>
	<path class="st0" d="M845.1,222.3h-25.6c-0.2-28.5-7.5-55.4-20.3-78.9l19.8-11.2c0.6-0.4,1-1,1-1.7c0-0.3-0.1-0.7-0.3-1
		c-0.2-0.3-0.4-0.5-0.7-0.7c0,0,0-0.1-0.1-0.1c-0.6-1-1.8-1.3-2.7-0.7l-19.5,11.2c-14.6-25-35.4-45.9-60.3-60.6l10.2-18.2
		c0.2-0.3,0.3-0.6,0.3-1c0-0.7-0.4-1.4-1-1.7c-1-0.5-2.2-0.2-2.7,0.8L733,76.5c-23.2-12.9-49.8-20.5-78.1-21.1V34.9c0-1.1-0.9-2-2-2
		s-2,0.9-2,2v20.5c-29.1,0.1-56.5,7.7-80.3,20.9l-10.7-18.7c-0.5-1-1.8-1.3-2.7-0.7c-0.6,0.4-1,1-1,1.7c0,0.3,0.1,0.7,0.3,1
		l10.7,18.7c-24.8,14.5-45.6,35.2-60.2,59.9l-20.2-11.7c-1-0.6-2.2-0.2-2.7,0.7c-0.2,0.3-0.3,0.7-0.3,1c0,0.7,0.4,1.4,1,1.7
		l20.2,11.7c-13.3,23.8-21,51.1-21.3,80.1l-25.8-0.1c0,0,0,0,0,0c-1.1,0-2,0.9-2,2c0,0,0,0,0,0c0,1.1,0.9,2,2,2l25.8,0.1
		c0.4,28.9,8.1,56.7,22.3,81.2l-24,13.8c-0.6,0.4-1,1-1,1.7c0,0.3,0.1,0.7,0.3,1c0.4,0.6,1,1,1.7,1c0.3,0,0.7-0.1,1-0.3l24.1-13.9
		c6.9,11.3,15.2,21.9,24.8,31.5c11.2,11.2,23.8,20.7,37.2,28.2l-14.3,26c-0.2,0.3-0.2,0.6-0.3,1c0,0.7,0.4,1.4,1,1.8
		c0.3,0.2,0.6,0.3,1,0.3c0.7,0,1.4-0.4,1.8-1l14.4-26c23.6,12.5,50,19.1,77.3,19.2v20.4c0,1.1,0.9,2,2,2s2-0.9,2-2v-20.4
		c28.8-0.6,55.8-8.4,79.3-21.7l14.5,25.1c0.4,0.6,1,1,1.7,1c0.3,0,0.7-0.1,1-0.3c0.6-0.4,1-1,1-1.7c0-0.3-0.1-0.7-0.3-1l-14.5-25.1
		c24.1-14.4,44.2-34.7,58.5-58.8l23.6,13.5c0.3,0.2,0.7,0.3,1,0.3c0.7,0,1.4-0.4,1.7-1c0.2-0.3,0.3-0.7,0.3-1c0-0.7-0.4-1.4-1-1.7
		l-23.6-13.5c13.1-23.4,20.8-50.3,21.3-78.8h25.6c1.1,0,2-0.9,2-2S846.2,222.3,845.1,222.3z M734.1,364.9c-0.1,0-0.1,0-0.2,0.1
		c0,0-0.1,0.1-0.1,0.1c-24.2,14.1-52.2,22.1-82.2,22.1c-43.7,0-84.9-17.1-115.9-48.2c-31-31-48-72.1-48-115.7
		c0-90.4,73.5-163.9,163.9-163.9c33.1,0,64,9.9,89.8,26.9l-16.6,23.7c-21.1-13.7-46.3-21.6-73.2-21.6c-74.5,0-135.1,60.6-135.1,135
		c0,74.4,60.6,135,135.1,135c74.4,0,135-60.6,135-135c0-43.9-21.1-82.9-53.6-107.6L749.6,92c18.4,13.8,33.9,31.4,45.2,51.6
		c0,0,0,0,0,0c0,0,0,0,0,0c13.2,23.6,20.7,50.8,20.7,79.7c0,0.1,0,0.3,0,0.4c-0.1,0.2-0.1,0.4-0.1,0.6c0,0.2,0,0.4,0.1,0.5
		C814.9,284.5,782.3,336.7,734.1,364.9z M655.7,226.2l75-107.2c31.5,23.9,51.9,61.8,51.9,104.3c0,72.2-58.8,131-131,131
		c-72.3,0-131.1-58.8-131.1-131s58.8-131,131.1-131c26.1,0,50.5,7.7,70.9,20.9l-75,107.2L655.7,226.2z"/>
	<path class="st0" d="M276.2,369.4l14.4,25.1c0.4,0.6,1,1,1.7,1c0.3,0,0.7-0.1,1-0.3c0.6-0.4,1-1,1-1.7c0-0.3-0.1-0.7-0.3-1
		l-14.4-25.1c24-14.4,44.2-34.7,58.5-58.8l23.6,13.5c0.3,0.2,0.7,0.3,1,0.3c0.7,0,1.4-0.4,1.7-1c0.2-0.3,0.3-0.7,0.3-1
		c0-0.7-0.4-1.4-1-1.7l-23.6-13.5c13.1-23.4,20.8-50.3,21.3-78.8h25.6c1.1,0,2-0.9,2-2s-0.9-2-2-2h-25.6
		c-0.2-28.5-7.5-55.4-20.3-78.9l19.8-11.2c0.6-0.4,1-1,1-1.7c0-0.3-0.1-0.7-0.3-1c-0.2-0.3-0.4-0.5-0.7-0.7c0,0,0-0.1-0.1-0.1
		c-0.5-1-1.8-1.3-2.7-0.7l-19.5,11.2c-14.6-25-35.4-45.9-60.3-60.6l10.2-18.2c0.2-0.3,0.3-0.6,0.3-1c0-0.7-0.4-1.4-1-1.7
		c-1-0.5-2.2-0.2-2.7,0.8L275,76.5c-23.2-12.9-49.8-20.5-78.1-21.1V34.9c0-1.1-0.9-2-2-2s-2,0.9-2,2v20.5
		c-29.1,0.1-56.5,7.7-80.3,20.9l-10.7-18.7c-0.5-1-1.8-1.3-2.7-0.7c-0.6,0.4-1,1-1,1.7c0,0.3,0.1,0.7,0.3,1l10.7,18.7
		C84.3,92.7,63.6,113.4,49,138.1l-20.2-11.6c-1-0.5-2.2-0.2-2.7,0.7c-0.2,0.3-0.3,0.7-0.3,1c0,0.7,0.4,1.4,1,1.7L47,141.6
		c-13.3,23.8-21,51.1-21.2,80.1L0,221.6c0,0,0,0,0,0c-1.1,0-2,0.9-2,2c0,0,0,0,0,0c0,1.1,0.9,2,2,2l25.7,0.1
		c0.4,28.9,8.1,56.7,22.3,81.2l-24,13.8c-0.6,0.4-1,1-1,1.7c0,0.3,0.1,0.7,0.3,1c0.4,0.6,1,1,1.7,1c0.3,0,0.7-0.1,1-0.3l24.1-13.9
		c6.9,11.3,15.2,21.9,24.8,31.5c11.2,11.2,23.8,20.7,37.2,28.2l-14.3,26c-0.2,0.3-0.2,0.6-0.2,1c0,0.7,0.4,1.4,1,1.8
		c0.3,0.2,0.6,0.3,1,0.3c0.7,0,1.4-0.4,1.8-1l14.4-26c23.6,12.5,49.9,19.1,77.3,19.2v20.4c0,1.1,0.9,2,2,2s2-0.9,2-2v-20.4
		C225.7,390.6,252.7,382.8,276.2,369.4z M29.7,223.3c0-90.4,73.5-163.9,163.9-163.9c33.1,0,64,9.9,89.8,26.9l-16.6,23.7
		c-21.1-13.7-46.3-21.6-73.2-21.6c-74.4,0-135,60.6-135,135c0,35.9,14,69.8,39.5,95.3c25.6,25.6,59.5,39.7,95.5,39.7
		c74.4,0,135-60.6,135-135c0-43.9-21.1-82.9-53.6-107.6L291.6,92c18.4,13.8,33.9,31.4,45.2,51.6c0,0,0,0,0,0c0,0,0,0,0,0
		c13.2,23.6,20.7,50.8,20.7,79.7c0,0.1,0,0.3,0,0.4c-0.1,0.2-0.1,0.4-0.1,0.6c0,0.2,0,0.4,0.1,0.5c-0.8,89.7-74,162.4-163.9,162.4
		c-43.7,0-84.9-17.1-115.9-48.2C46.7,308,29.7,266.9,29.7,223.3z M197.7,226.2l75-107.2c31.5,23.9,51.9,61.8,51.9,104.3
		c0,72.2-58.8,131-131,131c-35,0-67.9-13.7-92.7-38.5c-24.7-24.8-38.3-57.6-38.3-92.5c0-72.2,58.8-131,131-131
		c26.1,0,50.5,7.7,70.9,20.9l-75,107.2L197.7,226.2z"/>
</g>
</svg>
