<?xml version="1.0" encoding="utf-8"?>
<!-- Generator: Adobe Illustrator 22.1.0, SVG Export Plug-In . SVG Version: 6.00 Build 0)  -->
<svg version="1.1" id="Layer_1" xmlns="http://www.w3.org/2000/svg" xmlns:xlink="http://www.w3.org/1999/xlink" x="0px" y="0px"
	 viewBox="0 0 612 792" style="enable-background:new 0 0 612 792;" xml:space="preserve">
<style type="text/css">
	.st0{clip-path:url(#SVGID_2_);}
</style>
<g>
	<g>
		<defs>
			<rect id="SVGID_1_" x="290" y="380" width="32" height="33"/>
		</defs>
		<clipPath id="SVGID_2_">
			<use xlink:href="#SVGID_1_"  style="overflow:visible;"/>
		</clipPath>
		<path class="st0" d="M319.9,389c-4.4-7.7-14.2-10.3-21.9-5.9c-7.7,4.4-10.3,14.2-5.9,21.9c4.4,7.7,14.2,10.3,21.9,5.9
			C321.7,406.4,324.3,396.7,319.9,389L319.9,389z M312.4,408.1c-6.1,3.5-13.9,1.4-17.5-4.7c-3.5-6.1-1.4-13.9,4.7-17.5
			c6.1-3.5,14-1.4,17.5,4.7C320.6,396.7,318.5,404.5,312.4,408.1L312.4,408.1z M311.8,396.3l-8.4-4.9c-0.8-0.4-1.4-0.1-1.4,0.8
			l0,9.7c0,0.9,0.6,1.2,1.4,0.8l8.3-4.8C312.5,397.5,312.5,396.8,311.8,396.3L311.8,396.3z M311.8,396.3"/>
	</g>
</g>
</svg>
