<?xml version="1.0" encoding="utf-8"?>
<!-- Generator: Adobe Illustrator 22.1.0, SVG Export Plug-In . SVG Version: 6.00 Build 0)  -->
<svg version="1.1" id="Layer_1" xmlns="http://www.w3.org/2000/svg" xmlns:xlink="http://www.w3.org/1999/xlink" x="0px" y="0px"
	 viewBox="0 0 32 32.2" style="enable-background:new 0 0 32 32.2;" xml:space="preserve">
<style type="text/css">
	.st0{fill:#EFEBEA;}
</style>
<g>
	<g>
		<path class="st0" d="M29.9,8.2C25.5,0.5,15.7-2.1,8,2.3C0.3,6.7-2.3,16.5,2.1,24.2c4.4,7.7,14.2,10.3,21.9,5.9
			C31.7,25.6,34.3,15.9,29.9,8.2L29.9,8.2z M22.4,27.3c-6.1,3.5-13.9,1.4-17.5-4.7C1.4,16.5,3.5,8.7,9.6,5.1
			c6.1-3.5,14-1.4,17.5,4.7S28.5,23.7,22.4,27.3L22.4,27.3z M21.8,15.5l-8.4-4.9c-0.8-0.4-1.4-0.1-1.4,0.8v9.7
			c0,0.9,0.6,1.2,1.4,0.8l8.3-4.8C22.5,16.7,22.5,16,21.8,15.5L21.8,15.5z"/>
	</g>
</g>
</svg>
