<?xml version="1.0" encoding="utf-8"?>
<!-- Generator: Adobe Illustrator 22.1.0, SVG Export Plug-In . SVG Version: 6.00 Build 0)  -->
<svg version="1.1" id="Capa_1" xmlns="http://www.w3.org/2000/svg" xmlns:xlink="http://www.w3.org/1999/xlink" x="0px" y="0px"
	 viewBox="607.2 52 871.8 583.6" style="enable-background:new 607.2 52 871.8 583.6;" xml:space="preserve">
<style type="text/css">
	.st0{fill:#141515;}
	.st1{fill:none;stroke:#141515;stroke-width:4;stroke-linecap:round;stroke-linejoin:round;stroke-miterlimit:10;}
	.st2{fill:none;stroke:#141515;stroke-width:3.9969;stroke-linecap:round;stroke-linejoin:round;stroke-miterlimit:10;}
	.st3{fill:none;stroke:#141515;stroke-width:3.9969;stroke-miterlimit:10;}
	.st4{fill:none;stroke:#141515;stroke-width:10.0063;stroke-miterlimit:10;}
</style>
<polygon class="st0" points="1262.4,524.4 1262.4,525 1262.4,525.7 1262.4,526.3 1262.4,527 1261.7,527.6 1261.7,528.3 
	1261.1,528.9 1261.1,528.9 1260.5,529.6 1260.5,530.2 1259.8,530.2 1259.8,530.9 1259.1,530.9 1258.5,530.9 1258.5,531.5 
	1257.8,531.5 1257.2,531.5 1256.6,532.1 1256.6,532.1 1255.9,532.1 1255.3,532.1 1254.6,532.1 1254,532.1 1254,532.1 1253.3,532.1 
	1252.7,532.1 1252,532.1 1251.4,531.5 1251.4,531.5 1250.8,531.5 1250.1,531.5 1250.1,531.5 1249.5,530.9 1248.8,530.9 
	1248.2,530.9 1247.5,530.2 1247.5,530.2 1247.5,530.2 1247.5,529.6 1247.5,528.9 1247.5,528.3 1247.5,527.6 1247.5,526.3 
	1247.5,525.7 1247.5,525 1247.5,524.4 1248.2,523.8 1248.2,523.8 1248.2,523.8 1248.8,524.4 1248.8,524.4 1249.5,525 1249.5,525.7 
	1250.1,526.3 1250.1,527 1250.8,527 1250.8,527.6 1251.4,527.6 1252,528.3 1252,528.3 1252.7,528.9 1253.3,528.9 1253.3,528.9 
	1254,528.9 1254.6,528.9 1255.3,528.9 1255.9,528.9 1256.6,528.9 1257.2,528.9 1257.2,528.9 1257.8,528.3 1257.8,528.3 
	1258.5,527.6 1258.5,527 1258.5,527 1258.5,526.3 1258.5,525.7 1258.5,525 1258.5,524.4 1258.5,523.8 1257.8,523.8 1257.8,523.1 
	1257.8,523.1 1257.2,523.1 1257.2,522.5 1256.6,522.5 1255.9,521.8 1255.3,521.2 1255.3,521.2 1254.6,520.5 1254,520.5 
	1253.3,519.9 1252.7,519.9 1252,519.2 1251.4,519.2 1251.4,518.6 1250.8,518.6 1250.8,517.9 1250.1,517.9 1250.1,517.3 
	1249.5,517.3 1249.5,516.6 1249.5,516.6 1248.8,516 1248.8,515.4 1248.8,514.7 1248.2,514.1 1248.2,513.4 1248.2,512.8 
	1248.2,512.1 1248.2,511.5 1248.2,510.8 1248.2,510.2 1248.8,509.5 1248.8,508.9 1248.8,508.3 1249.5,507.6 1249.5,507.6 
	1250.1,506.9 1250.1,506.3 1250.8,506.3 1251.4,505.7 1251.4,505.7 1252,505.7 1252.7,505 1252.7,505 1253.3,505 1254,505 
	1254.6,504.4 1255.3,504.4 1255.3,504.4 1255.9,504.4 1256.6,504.4 1257.2,505 1257.8,505 1257.8,505 1258.5,505 1259.1,505 
	1259.1,505 1259.8,505 1260.5,505.7 1261.1,505.7 1261.1,506.3 1261.1,506.3 1261.1,506.3 1261.1,506.9 1261.1,507.6 1261.7,508.3 
	1261.7,508.9 1261.7,509.5 1261.7,510.8 1261.7,511.5 1261.7,511.5 1261.7,512.1 1261.1,512.1 1261.1,512.1 1260.5,512.1 
	1260.5,512.1 1260.5,512.1 1259.8,511.5 1259.8,510.8 1259.1,510.2 1259.1,509.5 1258.5,508.9 1257.8,508.9 1257.8,508.3 
	1257.2,508.3 1256.6,508.3 1256.6,507.6 1255.9,507.6 1255.3,507.6 1255.3,507.6 1254.6,507.6 1254,507.6 1253.3,507.6 
	1252.7,508.3 1252.7,508.3 1252,508.9 1252,508.9 1252,509.5 1251.4,510.2 1251.4,510.8 1251.4,510.8 1251.4,511.5 1252,512.1 
	1252,512.1 1252.7,512.8 1252.7,513.4 1252.7,513.4 1253.3,513.4 1253.3,514.1 1254,514.1 1254.6,514.7 1254.6,514.7 1255.3,515.4 
	1255.9,515.4 1256.6,516 1257.2,516 1257.8,516.6 1258.5,516.6 1258.5,517.3 1259.1,517.3 1259.8,517.9 1259.8,517.9 1260.5,518.6 
	1260.5,518.6 1261.1,519.2 1261.1,519.9 1261.7,519.9 1261.7,520.5 1261.7,521.2 1262.4,521.8 1262.4,522.5 1262.4,523.1 
	1262.4,523.8 1262.4,524.4 "/>
<path class="st0" d="M1275.9,492.7v0.7v0.6v0.7l-0.6,0.7l0,0l-0.7,0.7v0.7h-0.7h-0.7l0,0h-0.6l0,0l-0.7-0.7h-0.7l0,0v-0.7l-0.7-0.7
	V494v-0.6l0,0v-0.7v-0.7l0.7-0.7v-0.7l0,0l0.7-0.6l0.7-0.7l0,0h0.6l0,0h0.7h0.7h0.7v0.7h0.6v0.6v0.7v0.7V492.7L1275.9,492.7z
	 M1279.2,530.9v0.6h-0.6l0,0l-0.7,0.7l-0.7-0.7l0,0h-0.7h-0.7l0,0h-0.6h-0.7h-0.7h-0.7l0,0h-0.6h-0.7h-0.7h-0.7l0,0l-0.7,0.7l0,0
	h-1.3l0,0v-0.7h-0.7v-0.6v-0.7h0.7l0.7-0.7l0,0l0.6-0.7l0,0l0.7-0.7l0,0v-0.6v-1.3l0.7-0.7l0,0v-9V516l-0.7-0.6v-0.7v-0.7v-0.7l0,0
	v-0.7l-0.7-0.6v-0.7h-0.6l-0.7-0.7h-0.7v-0.7h-0.7v-0.7l0,0l0.7-0.6v-0.7h0.7h0.7v-0.7h0.6h0.7l0.7-0.7l0,0l0.7-0.7h0.7v-0.6h0.6
	V505h0.7l0,0h0.7l0,0l0.7,0.7v0.6l0,0v0.7v0.7v0.7v1.3v0.7v0.7v0.7v0.7v0.6v0.7v0.7v0.7v0.7v0.6v0.7v0.7v0.7v0.6v0.7v1.3v0.7v0.6
	v0.7v0.7v0.7v0.7l0,0v1.3v0.7v0.7l0,0v0.7l0.6,0.6l0,0l0.7,0.7h0.7l0,0l0.7,0.7h0.7l0.6,0.7l0,0V530.9L1279.2,530.9z"/>
<polygon class="st0" points="1308.9,530.9 1308.9,531.5 1308.2,531.5 1308.2,532.1 1307.6,532.1 1306.9,532.1 1306.3,531.5 
	1305.7,531.5 1305,531.5 1304.4,531.5 1303.7,531.5 1303.7,531.5 1303.1,531.5 1302.4,531.5 1301.8,531.5 1301.8,531.5 
	1301.1,531.5 1300.5,531.5 1300.5,531.5 1299.9,531.5 1299.2,531.5 1298.5,531.5 1298.5,531.5 1297.9,531.5 1297.9,531.5 
	1297.9,530.9 1297.9,530.9 1297.9,530.2 1298.5,530.2 1298.5,529.6 1299.2,529.6 1299.9,529.6 1299.9,528.9 1300.5,528.3 
	1300.5,528.3 1300.5,527 1300.5,526.3 1300.5,526.3 1300.5,517.3 1300.5,516 1300.5,515.4 1300.5,514.7 1300.5,514.1 1300.5,513.4 
	1300.5,512.8 1299.9,512.1 1299.9,512.1 1299.9,511.5 1299.2,510.8 1299.2,510.8 1298.5,510.2 1298.5,510.2 1297.9,510.2 
	1297.3,509.5 1297.3,509.5 1296.6,509.5 1296,509.5 1296,509.5 1295.3,509.5 1294.7,509.5 1294,509.5 1293.4,509.5 1293.4,509.5 
	1292.7,510.2 1292.1,510.2 1291.4,510.8 1291.4,510.8 1290.8,511.5 1290.2,511.5 1290.2,512.1 1290.2,512.8 1289.5,513.4 
	1289.5,513.4 1289.5,525.7 1289.5,526.3 1289.5,527 1290.2,527.6 1290.2,528.3 1290.8,528.3 1290.8,528.9 1291.4,528.9 
	1291.4,529.6 1292.1,529.6 1292.7,529.6 1293.4,529.6 1294,530.2 1294,530.2 1294,530.2 1294,531.5 1293.4,531.5 1293.4,531.5 
	1292.7,531.5 1292.1,531.5 1291.4,531.5 1291.4,531.5 1290.8,531.5 1290.2,531.5 1289.5,531.5 1289.5,531.5 1288.9,531.5 
	1288.2,531.5 1287.6,531.5 1286.9,531.5 1286.9,531.5 1286.3,532.1 1285.6,532.1 1285,532.1 1284.3,532.1 1283.7,532.1 
	1283.7,532.1 1283.7,532.1 1283,532.1 1283,531.5 1283,530.9 1283,530.9 1283,530.2 1283.7,530.2 1284.3,529.6 1285,529.6 
	1285,529.6 1285,528.9 1285.6,528.3 1285.6,527.6 1285.6,527 1285.6,526.3 1285.6,525 1285.6,515.4 1285.6,514.1 1285.6,513.4 
	1285.6,512.8 1285.6,512.1 1285,511.5 1285,511.5 1285,511.5 1285,511.5 1284.3,510.8 1283.7,510.8 1283,510.2 1283,510.2 
	1282.4,510.2 1282.4,509.5 1282.4,508.9 1283,508.9 1283.7,508.3 1283.7,508.3 1284.3,507.6 1285,507.6 1285,506.9 1285.6,506.9 
	1286.3,506.3 1286.3,505.7 1286.9,505.7 1287.6,505 1288.2,505 1288.2,504.4 1288.2,504.4 1288.9,505 1288.9,505 1288.9,505.7 
	1289.5,506.9 1289.5,506.9 1289.5,507.6 1289.5,508.3 1289.5,508.9 1290.2,508.9 1290.2,508.9 1290.2,508.9 1290.2,508.3 
	1290.8,508.3 1291.4,507.6 1292.1,506.9 1292.7,506.9 1292.7,506.3 1293.4,506.3 1294,505.7 1294.7,505.7 1294.7,505.7 1295.3,505 
	1296,505 1296.6,505 1296.6,505 1297.3,505 1297.9,505 1297.9,505 1298.5,505 1299.2,505 1299.2,505 1299.9,505 1300.5,505 
	1300.5,505.7 1301.1,505.7 1301.8,505.7 1301.8,506.3 1302.4,506.3 1302.4,506.9 1303.1,506.9 1303.1,507.6 1303.1,508.3 
	1303.7,508.9 1303.7,508.9 1303.7,509.5 1303.7,510.2 1304.4,510.8 1304.4,511.5 1304.4,512.1 1304.4,512.8 1304.4,513.4 
	1304.4,514.7 1304.4,514.7 1304.4,525.7 1304.4,526.3 1305,527 1305,527.6 1305,528.3 1305.7,528.9 1305.7,528.9 1306.3,528.9 
	1306.3,529.6 1306.9,529.6 1307.6,529.6 1308.2,530.2 1308.9,530.2 1308.9,530.9 1308.9,530.9 "/>
<path class="st0" d="M1332.8,508.9v1.3v0.7v0.7h-0.7l0,0h-0.6l0,0h-0.7h-0.7h-0.7l0,0l0,0v0.7v0.6l0,0v0.7v1.3l0,0v0.7v0.6v0.7v0.7
	l-0.7,0.7v0.6l0,0v0.7l-0.6,0.7v0.7h-0.7v0.7l-0.7,0.6l0,0l-0.7,0.7l0,0l-0.7,0.7h-0.6v0.7h-0.7l-0.7,0.7h-0.7l-0.7,0.6l0,0h-0.6
	l-1.3,0.7h-0.7l0,0l-0.7,0.7h-0.6v0.7l0,0h-0.7l0,0v0.7h0.7v0.6h0.6h0.7l0.7,0.7h0.7l0,0l3.9,0.7h0.6h0.7l0.7,0.7h0.7h0.7h0.6v0.7
	h0.7l0,0h0.7l0.7,0.6v0.7h0.7v0.7l0.6,0.7v0.6v0.7v0.7l0.7,0.7v0.7l0,0v0.6v0.7h-0.7v0.7v0.7v0.7l-0.6,0.6v0.7l0,0l-0.7,0.7v0.7
	l-0.7,0.7l-0.7,0.6l0,0l-0.7,0.7l-0.6,0.7l0,0h-0.7v0.7h-0.7l-0.7,0.6l0,0l-0.7,0.7h-0.6h-0.7v0.7h-0.7h-0.7h-0.7v0.7h-0.6h-0.7
	h-0.7h-0.7l0,0h-0.7h-0.6l0,0h-0.7h-0.7h-0.7h-0.6l0,0l-0.7-0.7h-0.7h-0.7V547h-0.7l-0.6-0.7l0,0l0,0l-0.7-0.6v-0.7l-0.7-0.7v-0.7
	l0,0l-0.7-0.6v-0.7v-0.7v-0.7v-0.7v-0.6l0.7-0.7l0,0v-0.7V538l0.7-0.7v-0.6h0.7V536l0.6-0.7v-0.7l0.7-0.7h0.7l0.7-0.6v-0.7h0.7
	l-0.7-0.7h-0.7v-0.7l-0.7-0.6l0,0l-0.7-0.7v-0.7v-0.7v-0.7l0,0l0.7-0.6V527l0,0l0.7-0.7h0.7v-0.7h0.7l0.6-0.7l0.7-0.6h0.7h-0.7
	l-0.7-0.7h-0.6h-0.7v-0.7h-0.7v-0.7l-0.7-0.7h-0.7v-0.6l0,0l-0.6-0.7v-0.7l-0.7-0.7v-0.7l0,0v-0.6v-0.7v-0.7l-0.7-0.7v-0.6v-0.7
	l0.7-0.7v-0.7v-0.7v-0.6v-0.7l0.7-0.7v-0.7v-0.7l0.6-0.6v-0.7h0.7v-0.7h0.7v-0.7l0.7-0.7h0.7v-0.6h0.6h0.7l0.7-0.7l0,0h0.7h0.6h0.7
	h0.7l0,0h0.7l0,0h0.7h0.6h0.7v0.7h0.7h0.7l0.7,0.6l0,0h0.6v0.7h0.7h0.7h0.7v0.7h0.7h0.6h0.7l0,0h2.6h0.7l0,0l0,0l0.7,0.7v0.7H1332.8
	L1332.8,508.9z M1325.7,515.4v-0.7v-0.7v-0.7l-0.6-0.7v-0.6v-0.7v-0.7l-0.7-0.7v-0.7l0,0l-0.7-0.6l0,0l-0.7-0.7l0,0h-0.7l-0.6-0.7
	l0,0h-0.7h-0.7l0,0h-0.7h-0.7l0,0l-0.6,0.7l0,0h-0.7v0.7l-0.7,0.6l0,0l-0.7,0.7v0.7v0.7v0.7v0.6l-0.6,0.7v0.7v0.7l0,0v1.3v0.7v0.7
	l0.6,0.7v0.6v0.7l0,0l0.7,0.7v0.7h0.7v0.7h0.7v0.6h0.6h0.7l0,0h0.7h0.7l0,0h0.7h0.6h0.7v-0.6l0.7-0.7h0.7l0,0v-0.7l0.7-0.7v-0.7
	v-0.6l0.6-0.7v-0.7V516V515.4L1325.7,515.4z M1329.6,538.6V538l0,0v-0.7l-0.7-0.6l0,0l-0.6-0.7h-0.7l0,0l-0.7-0.7h-0.7h-0.7
	l-0.6-0.7l-5.2-0.7h-0.7l0,0l-0.6-0.6h-0.7l-0.7,0.6v0.7h-0.7v0.7l-0.6,0.7v0.7v0.6l-0.7,0.7v0.7v0.7v0.7v0.6l0,0v0.7v0.7v0.7v0.7
	h0.7v0.6v0.7h0.6h0.7v0.7h0.7h0.7h0.6v0.7h0.7h0.7l0.7-0.7h0.7h0.6l0,0h0.7h0.7l0.7-0.7l0,0h0.7l0.6-0.7l0,0l0.7-0.6h0.7l0.7-0.7
	v-0.7h0.7l0.6-0.7v-0.7v-0.6h0.7v-0.7V538.6L1329.6,538.6L1329.6,538.6z"/>
<polygon class="st0" points="777.9,507.6 777.2,508.3 777.2,508.3 776.5,508.9 775.9,508.9 775.9,509.5 775.3,509.5 775.3,510.2 
	774.6,510.8 774.6,511.5 774,512.1 774,512.1 774,512.8 774,513.4 773.3,513.4 773.3,514.1 773.3,514.7 773.3,515.4 772.7,516 
	772.7,516.6 772.7,517.3 772,517.9 772,518.6 771.4,519.2 771.4,519.9 771.4,520.5 770.7,521.2 770.7,521.8 770.1,523.1 
	770.1,523.8 769.5,524.4 769.5,525 768.8,525.7 768.8,526.3 768.2,527 768.2,527.6 767.5,528.3 767.5,528.9 767.5,529.6 
	766.9,530.2 766.9,530.9 766.9,531.5 766.2,531.5 766.2,532.1 766.2,532.8 765.6,532.8 765.6,533.5 765.6,533.5 764.9,532.8 
	764.9,532.8 764.9,532.1 764.3,531.5 764.3,531.5 763.6,530.9 763.6,530.2 763.6,529.6 763,528.9 763,528.3 762.3,527.6 762.3,527 
	761.7,526.3 761.7,525.7 761.7,525 761,525 761,524.4 760.4,523.8 760.4,523.1 760.4,522.5 759.8,521.8 759.8,521.2 759.1,520.5 
	759.1,519.9 759.1,519.2 758.5,518.6 758.5,517.9 757.8,517.3 757.8,517.3 757.8,516.6 757.2,516 757.2,515.4 757.2,514.7 
	756.5,514.1 756.5,513.4 756.5,512.8 755.9,512.1 755.9,512.1 755.9,510.8 755.2,510.2 755.2,510.2 754.6,509.5 754.6,509.5 
	754.6,509.5 754,508.9 753.3,508.9 752.7,508.3 752.7,508.3 753.3,507.6 753.3,506.9 754,506.9 754,506.9 754,506.9 754.6,506.9 
	755.2,506.9 755.9,506.9 755.9,506.9 756.5,506.9 757.2,506.9 757.8,506.9 758.5,506.9 759.1,506.9 759.8,506.9 760.4,506.9 
	761,506.9 761.7,506.9 761.7,506.9 762.3,506.3 762.3,506.3 762.3,506.3 763,506.3 763,506.9 763.6,506.9 763,507.6 763,508.3 
	762.3,508.9 762.3,508.9 761.7,508.9 761,509.5 760.4,509.5 760.4,510.2 760.4,510.2 760.4,510.8 760.4,511.5 760.4,512.1 
	760.4,512.1 760.4,512.8 761,512.8 761,513.4 761,514.1 761.7,514.7 761.7,515.4 761.7,516 762.3,516.6 762.3,517.3 762.3,517.9 
	763,518.6 763,519.2 763.6,519.9 763.6,520.5 764.3,521.2 764.3,522.5 764.9,523.1 764.9,523.8 765.6,524.4 765.6,525 766.2,525 
	766.2,525.7 766.2,525.7 766.2,525.7 766.2,525.7 766.2,525 766.2,525 766.9,524.4 766.9,523.8 767.5,523.1 767.5,522.5 
	768.2,521.2 768.2,520.5 768.8,519.9 768.8,519.2 769.5,517.9 769.5,517.3 769.5,516.6 770.1,516 770.1,515.4 770.1,514.7 
	770.7,514.1 770.7,513.4 770.7,513.4 770.7,512.8 771.4,512.1 771.4,511.5 771.4,510.8 771.4,510.8 771.4,510.2 771.4,509.5 
	770.7,509.5 770.1,508.9 770.1,508.9 769.5,508.3 768.8,508.3 768.8,507.6 768.8,507.6 768.8,506.9 769.5,506.3 769.5,506.3 
	770.1,506.9 770.7,506.9 770.7,506.9 771.4,506.9 772,506.9 772.7,506.9 773.3,506.9 774,506.9 774.6,506.9 775.3,506.9 
	775.9,506.9 775.9,506.9 776.5,506.9 776.5,506.9 777.2,506.9 777.2,507.6 777.9,507.6 "/>
<path class="st0" d="M803.1,519.2v0.7l-0.7,0.7v0.7v0.6v0.7v0.7v0.7l-0.7,0.7v0.6v0.7h-0.7v0.7l-0.6,0.7v0.7l-0.7,0.6v0.7h-0.7v0.7
	h-0.7v0.7l-0.7,0.7h-0.6v0.6h-0.7h-0.7v0.7h-0.7h-0.7l-0.6,0.7l0,0h-0.7h-0.7h-0.7h-0.7l0,0h-0.6h-0.7h-0.7l0,0h-0.7h-0.6l-0.7-0.7
	h-0.7l0,0l-0.7-0.7h-0.7v-0.6H785v-0.7h-0.7l-0.7-0.7l0,0v-0.7l-0.7-0.7l0,0l-0.7-0.6V527l-0.6-0.7v-0.7V525v-0.6l-0.7-0.7v-0.7
	v-0.7v-0.7v-0.6v-0.7v-0.7v-0.7v-0.7v-0.6v-0.7v-0.7l0.7-0.7v-0.6v-0.7l0,0l0.6-0.7v-0.7l0.7-0.7v-0.6l0.7-0.7v-0.7h0.7v-0.7l0,0
	l0.7-0.7l0,0l0.6-0.6l0.7-0.7l0,0l0.7-0.7h0.7l0,0l0.7-0.7h0.6h0.7v-0.7h0.7h0.7h0.6h0.7l0,0l0,0h0.7h0.7h0.7h0.6h0.7l0.7,0.7l0,0
	h0.7h0.7v0.7h0.6l0.7,0.7l0,0l0.7,0.7h0.7v0.6l0,0l0.7,0.7v0.7l0.6,0.7l0,0l0.7,0.7v0.6v0.7l0.7,0.7v0.7v0.7v0.6v0.7v0.7v0.7
	l0.7,0.6V519.2L803.1,519.2z M798.5,521.2v-0.7v-0.7l-0.7-1.3v-0.6v-0.7v-0.7V516v-0.6l-0.6-0.7v-0.7l0,0l-0.7-0.7v-0.7l0,0
	l-0.7-0.6v-0.7l-0.7-0.7h-0.7v-0.7H794l-0.7-0.7l0,0h-0.7h-0.7h-0.7l0,0h-0.6l0,0h-0.7h-0.7l-0.7,0.7l0,0l-0.6,0.7l0,0l-0.7,0.7l0,0
	l-0.7,0.7v0.6l-0.7,0.7v0.7v0.7l-0.7,0.7v0.6v0.7v0.7v0.7v0.6v0.7v1.3v0.7v0.6v0.7l0.7,0.7v0.7v0.7v0.6h0.7v0.7v0.7l0.7,0.7l0,0
	l0.7,0.7l0,0l0.6,0.6v0.7h0.7l0.7,0.7l0,0h0.7h0.6l0.7,0.7l0,0h0.7l0.7-0.7h0.7h0.6l0,0l0.7-0.7h0.7v-0.7l0.7-0.6l0,0l0.7-0.7v-0.7
	v-0.7l0.6-0.7v-0.6v-0.7v-0.7l0.7-0.7v-0.7V521.2L798.5,521.2L798.5,521.2z"/>
<polygon class="st0" points="818.6,531.5 818.6,532.1 818.6,532.8 817.9,532.8 817.9,532.8 817.3,532.8 816.6,532.8 816.6,532.8 
	816,532.8 815.3,532.8 814.7,532.8 814.7,532.8 814,532.8 813.4,532.8 812.7,532.8 812.1,532.8 811.4,532.8 811.4,532.8 
	810.8,532.8 810.1,532.8 809.5,532.8 808.9,532.8 808.2,532.8 807.6,532.8 807.6,532.8 807.6,532.1 807.6,531.5 807.6,531.5 
	807.6,530.9 808.2,530.9 808.9,530.2 809.5,530.2 809.5,529.6 809.5,529.6 810.1,528.9 810.1,528.3 810.1,527.6 810.1,527 
	810.1,496.6 810.1,496 810.1,494.7 810.1,494 810.1,493.4 809.5,493.4 809.5,492.7 809.5,492.7 809.5,492.1 808.9,491.4 
	808.9,491.4 808.2,490.8 807.6,490.8 807.6,490.8 806.9,490.2 806.9,489.5 806.9,489.5 806.9,488.9 806.9,488.9 807.6,488.2 
	807.6,488.2 808.2,487.6 808.9,487.6 809.5,487.6 809.5,486.9 810.1,486.9 810.8,486.3 810.8,486.3 811.4,485.6 812.1,485 
	812.7,485 812.7,484.4 813.4,484.4 813.4,484.4 814,484.4 814,485 814,485.6 814,486.3 814,486.3 814,486.9 814,487.6 814,488.2 
	814,489.5 814,489.5 814,490.2 814,490.8 814,491.4 814,492.1 814,493.4 814,494 814,494.7 814,495.3 814,496 814,496 814,526.3 
	814,527 814.7,527.6 814.7,528.3 814.7,528.9 815.3,529.6 815.3,529.6 816,529.6 816,530.2 816.6,530.2 817.3,530.2 817.9,530.2 
	817.9,530.9 818.6,530.9 818.6,531.5 818.6,531.5 "/>
<polygon class="st0" points="845,529.6 845,530.2 845,530.2 844.4,530.9 844.4,530.9 843.8,531.5 841.2,532.8 841.2,532.8 
	841.2,532.8 840.5,532.8 840.5,532.8 839.9,532.1 839.2,531.5 839.2,530.9 838.6,530.2 837.9,530.2 837.9,530.2 837.9,530.2 
	837.3,530.2 837.3,530.2 836.6,530.9 836,530.9 835.3,531.5 834.7,531.5 834.1,532.1 834.1,532.1 833.4,532.1 832.8,532.8 
	832.1,532.8 832.1,532.8 831.5,532.8 831.5,532.8 830.8,532.8 830.2,532.8 829.5,532.8 828.9,532.8 828.3,532.1 827.6,532.1 
	827.6,532.1 826.9,531.5 826.3,531.5 826.3,531.5 826.3,530.9 825.6,530.9 825.6,530.2 825.6,530.2 825,529.6 825,528.9 825,528.3 
	825,528.3 824.4,527.6 824.4,526.3 824.4,525.7 824.4,525 824.4,524.4 824.4,523.8 824.4,516.6 824.4,516 824.4,514.7 824.4,514.1 
	824.4,513.4 823.7,513.4 823.7,512.8 823.7,512.1 823.1,511.5 823.1,511.5 822.4,510.8 821.8,510.8 821.8,510.8 821.1,510.2 
	821.1,509.5 821.1,509.5 821.1,508.9 821.8,508.3 822.4,508.3 823.1,508.3 823.7,507.6 823.7,507.6 824.4,506.9 825,506.9 
	825,506.9 825.6,506.3 826.3,506.3 826.9,505.7 826.9,505.7 827.6,505.7 828.3,505.7 828.3,506.3 828.3,506.9 828.3,507.6 
	828.3,510.8 828.3,510.8 828.3,511.5 828.3,512.1 828.3,512.8 828.3,514.1 828.3,514.7 828.3,515.4 828.3,516 828.3,516.6 
	828.3,517.3 828.3,517.9 828.3,521.8 828.3,522.5 828.3,523.8 828.3,524.4 828.3,525 828.9,525.7 828.9,526.3 828.9,526.3 
	829.5,527 829.5,527.6 829.5,527.6 830.2,528.3 830.8,528.3 830.8,528.3 831.5,528.3 832.1,528.9 832.8,528.9 833.4,528.9 
	833.4,528.9 834.1,528.9 834.7,528.9 834.7,528.3 835.3,528.3 836,528.3 836,527.6 836.6,527.6 836.6,527 837.3,527 837.3,526.3 
	837.3,525.7 837.9,525 837.9,524.4 837.9,523.8 837.9,523.1 837.9,522.5 837.9,516.6 837.9,516 837.9,514.7 837.9,514.1 
	837.9,513.4 837.9,512.8 837.3,512.8 837.3,512.8 837.3,512.1 836.6,512.1 836.6,511.5 836,511.5 835.3,510.8 835.3,510.8 
	834.7,510.2 834.7,510.2 834.7,509.5 834.7,509.5 835.3,508.9 835.3,508.9 836,508.3 836.6,508.3 837.3,507.6 837.9,507.6 
	838.6,506.9 839.2,506.9 839.9,506.3 839.9,506.3 840.5,506.3 840.5,506.3 841.2,506.3 841.2,506.3 841.2,506.3 841.8,506.3 
	841.8,506.9 841.8,507.6 841.8,507.6 841.8,508.3 841.8,508.9 841.8,510.2 841.8,510.8 841.8,511.5 841.8,512.8 841.8,513.4 
	841.8,514.1 841.8,514.7 841.8,515.4 841.8,516 841.8,516.6 841.8,517.3 841.8,517.9 841.8,526.3 841.8,527 841.8,527 842.5,527.6 
	842.5,528.3 843.1,528.3 843.1,528.9 843.8,528.9 844.4,528.9 845,528.9 845,529.6 845,529.6 "/>
<polygon class="st0" points="890.2,531.5 890.2,532.1 890.2,532.8 889.6,532.8 889,532.8 888.3,532.8 887.7,532.8 887.7,532.8 
	887,532.8 886.4,532.8 885.7,532.8 885.1,532.8 884.4,532.8 884.4,532.8 883.8,532.8 883.2,532.8 882.5,532.8 882.5,532.8 
	881.9,532.8 881.2,532.8 880.6,532.8 880.6,532.8 879.9,532.8 879.3,532.8 879.3,532.1 879.3,532.1 879.3,531.5 879.3,530.9 
	879.3,530.9 879.9,530.9 880.6,530.2 880.6,530.2 881.2,530.2 881.2,529.6 881.9,529.6 881.9,528.9 881.9,528.3 881.9,527.6 
	881.9,527 881.9,517.9 881.9,517.3 881.9,516 881.9,515.4 881.9,514.7 881.9,514.1 881.2,513.4 881.2,513.4 881.2,512.8 
	880.6,512.1 880.6,511.5 880.6,511.5 879.9,510.8 879.3,510.8 879.3,510.8 878.6,510.2 878.6,510.2 878,510.2 877.3,510.2 
	876.7,510.2 876,510.2 876,510.2 875.4,510.8 874.7,510.8 874.1,510.8 874.1,510.8 873.5,511.5 872.8,511.5 872.2,512.1 
	871.5,512.1 871.5,512.8 870.9,513.4 870.9,513.4 870.9,513.4 870.9,527 870.9,527.6 870.9,528.9 870.9,528.9 871.5,529.6 
	871.5,529.6 871.5,530.2 872.2,530.2 872.8,530.2 873.5,530.9 874.1,530.9 874.1,530.9 874.7,531.5 874.7,531.5 874.7,531.5 
	874.7,532.1 874.7,532.8 874.1,532.8 874.1,532.8 873.5,532.8 872.8,532.8 872.8,532.8 872.2,532.8 871.5,532.8 871.5,532.8 
	870.9,532.8 870.2,532.8 869.6,532.8 868.9,532.8 868.9,532.8 868.3,532.8 867.7,532.8 867,532.8 866.4,532.8 865.7,532.8 
	865.7,532.8 865.1,532.8 864.4,532.8 864.4,532.8 864.4,532.1 864.4,532.1 864.4,531.5 864.4,530.9 865.1,530.9 865.7,530.9 
	865.7,530.9 866.4,530.2 866.4,530.2 867,529.6 867,528.9 867,528.3 867,527.6 867,527 867,517.9 867,517.3 867,516 867,515.4 
	867,514.7 867,514.1 866.4,513.4 866.4,512.8 866.4,512.8 865.7,512.1 865.7,512.1 865.7,511.5 865.1,510.8 865.1,510.8 
	864.4,510.2 863.8,510.2 863.1,510.2 863.1,510.2 862.5,510.2 861.8,510.2 861.2,510.2 861.2,510.2 860.5,510.8 859.9,510.8 
	859.2,510.8 859.2,511.5 858.6,511.5 858.6,511.5 858,512.1 857.3,512.8 857.3,512.8 856.7,513.4 856.7,514.1 856.7,514.1 
	856.7,514.7 856.7,527 856.7,527.6 856.7,528.3 856.7,528.9 857.3,529.6 857.3,529.6 857.3,530.2 858,530.2 858.6,530.2 
	859.2,530.2 859.9,530.9 859.9,530.9 860.5,530.9 861.2,530.9 861.2,531.5 861.2,532.1 860.5,532.8 859.9,532.8 859.2,532.8 
	858.6,532.8 858,532.8 857.3,532.8 856.7,532.8 856,532.8 856,532.8 855.4,532.8 854.7,532.8 854.1,532.8 853.4,532.8 853.4,532.8 
	852.8,532.8 852.1,532.8 852.1,532.8 851.5,532.8 851.5,532.8 850.8,532.8 850.2,532.8 850.2,532.8 849.6,532.8 849.6,532.8 
	849.6,532.1 849.6,532.1 849.6,531.5 850.2,531.5 850.8,530.9 851.5,530.9 851.5,530.9 852.1,530.2 852.1,529.6 852.1,529.6 
	852.1,528.3 852.8,527.6 852.8,527 852.8,516.6 852.8,515.4 852.1,514.7 852.1,514.1 852.1,513.4 852.1,512.8 851.5,512.8 
	851.5,512.1 850.8,512.1 850.8,512.1 850.2,511.5 849.6,511.5 849.6,511.5 849.6,511.5 848.9,510.8 848.9,510.2 848.9,510.2 
	849.6,510.2 849.6,509.5 850.2,508.9 850.8,508.9 851.5,508.3 851.5,507.6 852.1,507.6 852.8,506.9 853.4,506.3 854.1,506.3 
	854.7,505.7 854.7,505.7 854.7,505.7 855.4,505.7 855.4,505.7 855.4,506.3 856,506.9 856,507.6 856,508.9 856.7,509.5 856.7,509.5 
	856.7,509.5 856.7,509.5 857.3,509.5 858,508.9 858,508.9 858.6,508.3 859.2,508.3 859.2,507.6 859.9,507.6 860.5,506.9 
	860.5,506.9 861.2,506.9 861.2,506.3 861.8,506.3 862.5,506.3 863.1,506.3 863.1,505.7 863.8,505.7 864.4,505.7 865.1,505.7 
	865.1,505.7 865.7,505.7 866.4,505.7 867,505.7 867,506.3 867.7,506.3 868.3,506.9 868.3,506.9 868.9,506.9 868.9,507.6 
	869.6,508.3 869.6,508.3 870.2,509.5 870.2,509.5 870.2,509.5 871.5,508.9 871.5,508.9 872.2,508.3 872.8,508.3 873.5,507.6 
	873.5,507.6 874.1,506.9 874.7,506.9 874.7,506.9 875.4,506.3 876,506.3 876.7,506.3 876.7,506.3 877.3,505.7 878,505.7 
	878.6,505.7 878.6,505.7 879.3,505.7 879.3,505.7 879.9,505.7 880.6,505.7 881.2,506.3 881.2,506.3 881.9,506.3 882.5,506.3 
	882.5,506.9 883.2,506.9 883.2,507.6 883.8,507.6 883.8,508.3 884.4,508.3 884.4,508.9 885.1,509.5 885.1,509.5 885.1,510.2 
	885.1,510.8 885.7,511.5 885.7,512.1 885.7,512.8 885.7,513.4 885.7,514.1 885.7,514.7 885.7,515.4 885.7,516 885.7,527 
	885.7,527.6 886.4,528.3 886.4,528.9 886.4,529.6 886.4,529.6 887,529.6 887,530.2 887.7,530.2 888.3,530.2 889,530.9 889.6,530.9 
	890.2,531.5 890.2,531.5 890.2,531.5 "/>
<path class="st0" d="M911.6,527v0.7l0,0v0.6h-0.7v0.7l-0.7,0.7l-0.7,0.7H909v0.7h-0.6l-0.7,0.6h-0.7l0,0l-0.7,0.7h-0.7h-0.6v0.7
	h-0.7h-0.7h-0.7l0,0h-0.6h-0.7l0,0h-0.7h-0.7l0,0h-0.7h-0.6l-0.7-0.7l0,0H898l-0.7-0.7l0,0l-0.7-0.6l-0.6-0.7l0,0l-0.7-0.7l0,0v-0.7
	h-0.7v-0.7l-0.7-0.6V527l-0.7-0.7v-0.7V525l0,0l-0.6-0.6v-0.7v-1.3v-0.7v-0.6v-0.7v-0.7v-0.7v-0.7v-0.6v-0.7v-0.7V516l0.6-0.6v-0.7
	v-0.7v-0.7l0.7-0.7v-0.6v-0.7h0.7v-0.7l0.7-0.7v-0.7h0.7v-0.6l0.6-0.7l0,0l0.7-0.7h0.7v-0.7h0.7l0.7-0.7l0,0h0.6h0.7l0.7-0.6l0,0
	h0.7h0.7h0.6l0,0h0.7h0.7l0.7,0.6l0,0h0.6l0.7,0.7h0.7v0.7h0.7l0.7,0.7v0.7l0.6,0.6l0,0l0.7,0.7v0.7l0.7,0.7v0.7l0,0v0.6h0.7l0,0
	l0.7,0.7v0.7l0,0v0.7v0.7h-0.7v0.6h-0.7l-0.7,0.7H909l-11.6,4.5v0.6v0.7l0.7,1.3v0.7v0.6h0.7v0.7v0.7l0.7,0.7l0,0l0.6,0.7v0.6h0.7
	l0,0l0.7,0.7h0.7l0,0h0.7h0.6l0.7,0.7v-0.7h0.7h0.7l0,0h0.6h0.7l0.7-0.7l0,0h0.7l0.7-0.6h0.6V527h0.7l0.7-0.7h0.7v-0.7h0.7v0.7V527
	L911.6,527L911.6,527z M905.8,513.4v-0.7v-0.6l-0.6-0.7v-0.7l-0.7-0.7l0,0v-0.7h-0.7l-0.7-0.6h-0.6l0,0h-0.7l0,0h-0.7h-0.7l0,0h-0.7
	v0.6h-0.6v0.7h-0.7v0.7H898v0.7v0.7v0.6l-0.7,0.7v0.7v0.7v0.7v0.6v0.7v1.3v0.6l6.5-2.6l0.7-0.6h0.7v-0.7l0.6-0.7V513.4L905.8,513.4
	L905.8,513.4z"/>
<polygon class="st0" points="971,590.9 971,591.6 971,592.2 971,592.2 971,592.9 970.4,593.5 970.4,594.2 970.4,594.2 969.7,594.8 
	969.7,595.5 969.7,595.5 969.1,596.1 969.1,596.1 968.4,596.1 967.8,596.7 967.8,596.7 967.2,596.7 967.2,596.7 966.5,597.4 
	965.8,597.4 965.8,597.4 965.2,597.4 964.5,597.4 964.5,597.4 963.9,597.4 963.3,597.4 963.3,597.4 962.6,597.4 962,597.4 
	962,596.7 961.3,596.7 960.7,596.7 960.7,596.7 960,596.7 959.4,596.1 959.4,596.1 958.7,596.1 958.7,596.1 958.7,595.5 
	958.7,595.5 958.7,594.8 958.7,594.2 958.7,593.5 958.7,592.9 958.7,592.2 958.7,590.9 958.7,590.9 958.7,590.3 959.4,590.3 
	959.4,590.3 960,590.9 960,590.9 960,591.6 960.7,592.2 960.7,592.2 960.7,592.9 961.3,593.5 961.3,593.5 962,593.5 962,594.2 
	962.6,594.2 963.3,594.2 963.3,594.8 963.9,594.8 963.9,594.8 964.5,594.8 965.2,594.8 965.8,594.8 965.8,594.8 966.5,594.8 
	967.2,594.2 967.2,594.2 967.8,594.2 967.8,593.5 967.8,593.5 967.8,592.9 967.8,592.2 967.8,592.2 967.8,591.6 967.8,590.9 
	967.8,590.3 967.2,590.3 967.2,590.3 967.2,589.6 967.2,589.6 966.5,589 966.5,589 965.8,589 965.2,588.4 964.5,588.4 964.5,587.7 
	963.9,587.7 963.3,587.1 963.3,587.1 962.6,586.4 962,586.4 962,585.8 961.3,585.8 961.3,585.8 960.7,585.1 960.7,585.1 
	960.7,584.5 960.7,584.5 960,584.5 960,583.8 959.4,583.2 959.4,583.2 959.4,582.5 959.4,581.9 959.4,581.2 959.4,580.6 959.4,580 
	959.4,579.3 959.4,579.3 959.4,578.7 960,578 960,577.4 960,577.4 960.7,576.7 960.7,576.1 961.3,576.1 961.3,576.1 962,575.4 
	962,575.4 962.6,574.8 962.6,574.8 963.3,574.8 963.3,574.8 963.9,574.8 964.5,574.8 965.2,574.1 965.2,574.1 965.8,574.1 
	966.5,574.8 966.5,574.8 967.2,574.8 967.8,574.8 967.8,574.8 968.4,574.8 968.4,574.8 969.1,574.8 969.7,575.4 969.7,575.4 
	969.7,575.4 970.4,575.4 970.4,576.1 970.4,576.7 970.4,577.4 970.4,577.4 970.4,578 970.4,578.7 970.4,579.3 971,580 971,580 
	970.4,580.6 970.4,580.6 970.4,580.6 969.7,580.6 969.1,580.6 969.1,580.6 969.1,580 968.4,579.3 968.4,579.3 967.8,578.7 
	967.8,578 967.8,578 967.2,577.4 966.5,577.4 966.5,577.4 965.8,577.4 965.8,576.7 965.2,576.7 965.2,576.7 964.5,576.7 
	963.9,576.7 963.3,577.4 963.3,577.4 962.6,577.4 962.6,578 962.6,578 962,578.7 962,578.7 962,579.3 962,580 962,580.6 
	962.6,581.2 962.6,581.2 962.6,581.9 963.3,581.9 963.3,581.9 963.9,581.9 963.9,582.5 964.5,582.5 964.5,583.2 965.2,583.2 
	965.8,583.8 966.5,583.8 966.5,583.8 967.2,584.5 967.8,584.5 967.8,585.1 968.4,585.1 969.1,585.8 969.1,585.8 969.7,585.8 
	969.7,586.4 969.7,586.4 970.4,587.1 970.4,587.1 970.4,587.7 971,588.4 971,589 971,589.6 971,589.6 971,590.3 971,590.9 "/>
<path class="st0" d="M982.7,564.5v0.6v0.7l0,0l-0.7,0.7v0.7h-0.7v0.7h-0.7l0,0H980l0,0h-0.6h-0.7V567l0,0l-0.7-0.7l0,0v-0.7v-0.7
	l0,0v-0.6v-0.7l0,0l0.7-0.7v-0.7h0.7v-0.7h0.6l0,0h0.7l0,0h0.7h0.7v0.7l0,0l0.7,0.7l0,0v0.7V564.5L982.7,564.5z M985.2,596.1
	l-0.7,0.7l0,0v0.7h-0.7v-0.7h-0.7l0,0h-0.6H982l0,0h-0.7h-0.7l0,0H980h-0.6l0,0h-0.7h-0.7v0.7h-0.7l0,0h-0.7h-0.6l0,0v-0.7v-0.7l0,0
	v-0.6h0.6v-0.7h0.7l0,0l0.7-0.7l0,0v-0.7v-0.7v-0.6l0,0v-7.8v-0.7v-0.6v-0.7v-0.7l0,0v-0.7l0,0l-0.7-0.7l0,0l-0.7-0.6h-0.6l0,0
	l-0.7-0.7v-0.7l0,0V578l0,0l0.7-0.7l0,0h0.6h0.7v-0.6h0.7l0,0l0.7-0.7h0.7v-0.7l0,0l0.6-0.7h0.7l0,0l0,0h0.7l0,0v0.7l0.7,0.7l0,0
	v0.7v0.6v0.7l0,0v0.7v0.7l-0.7,0.7v0.6v0.7v0.7v0.7l0,0v0.7v0.6v0.7v0.7v0.7v0.6v0.7v0.7v0.7l0,0v0.7v0.6v0.7v0.7l0,0v0.7l0.7,0.7
	v0.6v0.7l0,0v0.7h0.7v0.7h0.6h0.7l0,0l0.7,0.7l0,0L985.2,596.1L985.2,596.1L985.2,596.1z"/>
<polygon class="st0" points="1009.8,596.1 1009.8,596.7 1009.8,596.7 1009.1,597.4 1009.1,597.4 1008.5,597.4 1007.8,597.4 
	1007.2,596.7 1006.6,596.7 1006.6,596.7 1005.9,596.7 1005.2,596.7 1004.6,596.7 1004.6,596.7 1004,596.7 1004,596.7 1003.3,596.7 
	1002.7,596.7 1002.7,596.7 1002,596.7 1002,596.7 1001.4,596.7 1000.7,596.7 1000.7,596.7 1000.7,596.7 1000.7,596.1 1000.7,596.1 
	1000.7,596.1 1000.7,595.5 1001.4,595.5 1002,595.5 1002,594.8 1002.7,594.8 1002.7,594.2 1002.7,594.2 1002.7,593.5 1002.7,592.9 
	1002.7,592.2 1002.7,585.1 1002.7,583.8 1002.7,583.8 1002.7,583.2 1002.7,582.5 1002.7,581.9 1002.7,581.2 1002.7,580.6 
	1002,580.6 1002,580 1002,580 1001.4,579.3 1001.4,579.3 1000.7,579.3 1000.7,578.7 1000.1,578.7 1000.1,578.7 999.4,578.7 
	999.4,578.7 998.8,578.7 998.2,578.7 998.2,578.7 997.5,578.7 996.9,578.7 996.9,578.7 996.2,578.7 996.2,579.3 995.6,579.3 
	995.6,579.3 994.9,580 994.3,580.6 994.3,580.6 994.3,581.2 993.6,581.2 993.6,581.9 993.6,592.2 993.6,592.9 993.6,593.5 
	994.3,593.5 994.3,594.2 994.3,594.2 994.9,594.8 994.9,594.8 995.6,594.8 996.2,594.8 996.2,595.5 996.9,595.5 997.5,595.5 
	997.5,596.1 997.5,596.1 997.5,596.7 996.9,596.7 996.9,596.7 996.2,596.7 996.2,596.7 995.6,596.7 994.9,596.7 994.9,596.7 
	994.3,596.7 993.6,596.7 993.6,596.7 993,596.7 992.3,596.7 992.3,596.7 991.7,596.7 991,596.7 991,597.4 990.4,597.4 989.7,597.4 
	989.7,597.4 989.1,597.4 988.5,597.4 988.5,597.4 988.5,597.4 988.5,596.7 988.5,596.7 988.5,596.1 988.5,596.1 989.1,595.5 
	989.1,595.5 989.7,595.5 989.7,594.8 990.4,594.8 990.4,594.2 990.4,593.5 990.4,592.9 990.4,592.2 990.4,591.6 990.4,583.2 
	990.4,582.5 990.4,581.9 990.4,581.2 990.4,580.6 990.4,580.6 990.4,580.6 989.7,580 989.7,580 989.1,580 988.5,579.3 988.5,579.3 
	988.5,579.3 987.8,578.7 987.8,578.7 987.8,578 987.8,578 988.5,577.4 989.1,577.4 989.1,576.7 989.7,576.7 989.7,576.7 
	990.4,576.1 991,576.1 991,575.4 991.7,574.8 992.3,574.8 992.3,574.8 993,574.8 993,574.8 993,574.8 993,574.8 993.6,575.4 
	993.6,576.1 993.6,576.1 993.6,576.7 993.6,577.4 993.6,578 994.3,578 994.3,578 994.3,578 994.3,577.4 994.9,577.4 995.6,576.7 
	996.2,576.7 996.2,576.1 996.9,576.1 996.9,576.1 997.5,575.4 997.5,575.4 998.2,575.4 998.8,574.8 998.8,574.8 999.4,574.8 
	1000.1,574.8 1000.1,574.8 1000.7,574.8 1000.7,574.8 1001.4,574.8 1001.4,574.8 1002,574.8 1002,574.8 1002.7,574.8 1003.3,575.4 
	1003.3,575.4 1004,575.4 1004,576.1 1004,576.1 1004.6,576.1 1004.6,576.7 1005.2,576.7 1005.2,577.4 1005.2,578 1005.2,578 
	1005.9,578.7 1005.9,579.3 1005.9,580 1005.9,580 1005.9,580.6 1005.9,581.2 1005.9,581.9 1005.9,582.5 1005.9,583.2 1006.6,592.2 
	1006.6,592.9 1006.6,593.5 1006.6,593.5 1006.6,594.2 1007.2,594.8 1007.2,594.8 1007.2,594.8 1007.8,594.8 1008.5,595.5 
	1009.1,595.5 1009.1,595.5 1009.8,596.1 1009.8,596.1 1009.8,596.1 "/>
<path class="st0" d="M1029.8,578v0.7v0.7v0.7h-0.7v0.6l0,0h-0.6l-0.7-0.6l0,0h-0.7l0,0v0.6l0,0v0.7l0,0v0.7v0.7v0.7l0,0v0.6
	l-0.7,0.7v0.7l0,0v0.7v0.6l0,0l-0.7,0.7v0.7l0,0l-0.6,0.7l0,0l-0.7,0.7l0,0l-0.7,0.6l0,0l-0.7,0.7h-0.6l0,0l-0.7,0.7h-0.7l0,0h-0.7
	l-0.7,0.7h-0.6v0.7h-0.7h-0.7v0.6h-0.7l0,0v0.7l0,0l0,0l0,0l0.7,0.7l0,0h0.7h0.7l0.6,0.7l0,0l3.2,0.7h0.7h0.7h0.7l0,0h0.6l0.7,0.6
	l0,0h0.7l0,0v0.7h0.7l0.7,0.7l0,0v0.7h0.6v0.7v0.6v0.7l0.7,0.7l0,0v0.7l0,0v0.6l-0.7,0.7v0.7l0,0v0.7v0.7h-0.6v0.6v0.7h-0.7v0.7
	l-0.7,0.7l0,0l-0.7,0.7h-0.7v0.6h-0.6l0,0l-0.7,0.7l0,0h-0.7v0.7h-0.7h-0.6v0.7h-0.7l0,0h-0.7h-0.7v0.7h-0.7h-0.6l0,0h-0.7h-0.7
	h-0.7l0,0h-0.7h-0.6h-0.7v-0.7h-0.7l0,0h-0.7l-0.7-0.7l0,0h-0.6l0,0V609l-0.7-0.7l0,0v-0.6l-0.7-0.7l0,0v-0.7v-0.7v-0.7l0,0v-0.6
	v-0.7v-0.7l0,0v-0.7l0.7-0.7l0,0v-0.6l0.7-0.7l0,0l0.6-0.7v-0.7h0.7v-0.6h0.7l0.7-0.7l0,0l-0.7-0.7l0,0l-0.7-0.7l0,0v-0.7l-0.7-0.6
	l0,0v-0.7v-0.7l0,0v-0.7h0.7v-0.7h0.7v-0.6h0.7v-0.7h0.7l0.6-0.7l0,0l0,0h-0.6l-0.7-0.7l0,0l-0.7-0.7l0,0h-0.7V589h-0.7v-0.7
	l-0.6-0.7l0,0v-0.7v-0.7h-0.7v-0.6v-0.7v-0.7l0,0v-0.7v-0.6v-0.7v-0.7v-0.7l0,0v-0.7l0.7-0.6v-0.7l0,0v-0.7l0.6-0.7v-0.7h0.7l0,0
	v-0.6l0.7-0.7l0,0h0.7l0.7-0.7l0,0h0.6v-0.7h0.7h0.7l0,0h0.7h0.7l0,0h0.6l0,0h0.7l0,0h0.7h0.7v0.7h0.7h0.6v0.7h0.7l0,0h0.7v0.7h0.7
	h0.6l0,0h0.7h0.7l0,0h1.9h0.7l0,0l0,0v0.6V578L1029.8,578L1029.8,578z M1024,583.2v-0.7l-0.7-0.7l0,0v-0.7v-0.7V580v-0.7h-0.6v-0.7
	l0,0l-0.7-0.7l0,0v-0.7h-0.7l0,0h-0.7l-0.7-0.6l0,0h-0.6l0,0h-0.7v0.6h-0.7l0,0h-0.7v0.7h-0.7l0,0v0.7l-0.6,0.7l0,0v0.7v0.6v0.7v0.7
	v0.7l-0.7,0.7l0,0l0.7,0.6v0.7v0.7l0,0v0.7v0.6v0.7h0.6v0.7l0,0l0.7,0.7l0,0h0.7v0.7h0.7h0.7l0,0h0.6l0,0h0.7h0.7v-0.7h0.7v-0.7h0.7
	l0,0v-0.7l0.6-0.7l0,0v-0.6v-0.7v-0.7l0.7-0.7V583.2L1024,583.2z M1027.2,602.6L1027.2,602.6v-0.7h-0.7v-0.6l0,0l-0.7-0.7l0,0h-0.6
	l-0.7-0.7l0,0h-0.7h-0.7l-4.5-1.3l0,0h-0.7h-0.7l0,0h-0.7v0.6l-0.6,0.7l0,0l-0.7,0.7v0.7v0.6l0,0l-0.7,0.7v0.7v0.7v0.7l0,0v0.6l0,0
	v0.7l0.7,0.7l0,0v0.7h0.7v0.7h0.6l0,0l0.7,0.6l0,0h0.7h0.7l0,0h0.7h0.6h0.7l0,0h0.7h0.7v-0.6h0.7l0,0l0.6-0.7h0.7l0,0l0.7-0.7l0,0
	l0.7-0.7h0.6v-0.7h0.7v-0.6v-0.7l0,0l0.7-0.7V602.6L1027.2,602.6L1027.2,602.6z"/>
<polygon class="st0" points="1058.2,593.5 1058.2,593.5 1058.2,594.2 1058.2,594.2 1057.6,594.8 1057.6,594.8 1056.9,595.5 
	1056.3,595.5 1056.3,596.1 1055.6,596.1 1055.6,596.1 1055,596.7 1055,596.7 1054.3,596.7 1053.7,596.7 1053.7,597.4 1053.1,597.4 
	1052.4,597.4 1052.4,597.4 1051.8,597.4 1051.8,597.4 1051.1,597.4 1050.5,597.4 1050.5,597.4 1049.8,597.4 1049.2,597.4 
	1049.2,596.7 1048.5,596.7 1048.5,596.7 1047.9,596.1 1047.3,596.1 1047.3,596.1 1046.6,595.5 1046.6,595.5 1046,594.8 1046,594.8 
	1046,594.8 1045.3,594.2 1045.3,594.2 1045.3,593.5 1044.7,592.9 1044.7,592.9 1044.7,592.2 1044,591.6 1044,590.9 1044,590.9 
	1044,590.3 1043.4,589.6 1043.4,589 1043.4,588.4 1043.4,587.7 1043.4,587.1 1043.4,587.1 1043.4,586.4 1043.4,585.8 1043.4,585.1 
	1043.4,584.5 1043.4,583.8 1044,583.8 1044,583.2 1044,582.5 1044,581.9 1044.7,581.2 1044.7,581.2 1044.7,580.6 1045.3,580 
	1045.3,580 1045.3,579.3 1046,578.7 1046,578.7 1046,578 1046.6,578 1046.6,577.4 1047.3,577.4 1047.3,576.7 1047.9,576.7 
	1048.5,576.1 1048.5,576.1 1049.2,576.1 1049.2,575.4 1049.8,575.4 1049.8,575.4 1050.5,575.4 1051.1,574.8 1051.1,574.8 
	1051.8,574.8 1052.4,574.8 1052.4,574.8 1053.1,574.8 1053.1,574.8 1053.7,574.8 1054.3,574.8 1054.3,574.8 1055,574.8 
	1055.6,575.4 1055.6,575.4 1056.3,575.4 1056.3,575.4 1056.9,575.4 1057.6,576.1 1057.6,576.1 1058.2,576.7 1058.2,576.7 
	1058.2,577.4 1058.2,577.4 1058.2,578 1058.2,578 1058.2,578.7 1057.6,579.3 1057.6,580 1056.9,580.6 1056.9,580.6 1056.3,580.6 
	1056.3,580.6 1056.3,580.6 1055.6,580.6 1055.6,580 1055,579.3 1055,579.3 1054.3,579.3 1054.3,578.7 1053.7,578 1053.1,578 
	1053.1,578 1052.4,577.4 1052.4,577.4 1051.8,577.4 1051.8,577.4 1051.1,577.4 1050.5,577.4 1050.5,577.4 1049.8,578 1049.8,578 
	1049.2,578 1049.2,578.7 1048.5,579.3 1048.5,579.3 1048.5,580 1047.9,580 1047.9,580.6 1047.9,581.2 1047.9,581.2 1047.3,581.9 
	1047.3,582.5 1047.3,583.2 1047.3,583.8 1047.3,584.5 1047.3,585.1 1047.3,585.8 1047.3,586.4 1047.3,587.1 1047.3,587.7 
	1047.3,587.7 1047.9,588.4 1047.9,589 1047.9,589.6 1047.9,590.3 1047.9,590.3 1048.5,590.9 1048.5,591.6 1049.2,591.6 
	1049.2,592.2 1049.2,592.2 1049.8,592.9 1049.8,592.9 1050.5,593.5 1050.5,593.5 1051.1,594.2 1051.8,594.2 1051.8,594.2 
	1052.4,594.2 1053.1,594.2 1053.1,594.2 1053.7,594.2 1053.7,594.2 1054.3,594.2 1055,594.2 1055,594.2 1055.6,594.2 1056.3,593.5 
	1056.3,593.5 1056.9,593.5 1056.9,592.9 1057.6,592.9 1057.6,592.9 1058.2,592.2 1058.2,592.2 1058.2,592.9 1058.2,592.9 
	1058.2,593.5 "/>
<polygon class="st0" points="1083.4,596.1 1083.4,596.7 1083.4,596.7 1082.8,597.4 1082.8,597.4 1082.1,596.7 1081.5,596.7 
	1080.8,596.7 1080.2,596.7 1079.5,596.7 1078.9,596.7 1078.9,596.7 1078.3,596.7 1077.6,596.7 1077.6,596.7 1077,596.7 1077,596.7 
	1076.3,596.7 1076.3,596.7 1075.7,596.7 1075.7,596.7 1075,596.7 1075,596.7 1075,596.7 1074.4,596.7 1074.4,596.1 1074.4,596.1 
	1074.4,596.1 1075,595.5 1075,595.5 1075.7,594.8 1076.3,594.8 1076.3,594.8 1076.3,594.2 1076.3,594.2 1076.3,593.5 1077,592.9 
	1077,592.2 1077,592.2 1077,584.5 1077,583.8 1076.3,583.2 1076.3,582.5 1076.3,582.5 1076.3,581.9 1076.3,581.2 1076.3,580.6 
	1075.7,580.6 1075.7,580 1075.7,579.3 1075,579.3 1075,579.3 1075,578.7 1074.4,578.7 1074.4,578.7 1073.7,578 1073.1,578 
	1073.1,578 1072.4,578 1072.4,578 1071.8,578 1071.8,578 1071.2,578 1070.5,578.7 1070.5,578.7 1069.9,578.7 1069.9,578.7 
	1069.2,579.3 1069.2,579.3 1068.6,580 1067.9,580 1067.9,580.6 1067.9,580.6 1067.3,581.2 1067.3,581.2 1067.3,592.2 1067.3,592.9 
	1067.3,593.5 1067.9,593.5 1067.9,594.2 1067.9,594.2 1068.6,594.8 1068.6,594.8 1069.2,594.8 1069.9,595.5 1069.9,595.5 
	1070.5,595.5 1071.2,595.5 1071.2,596.1 1071.2,596.1 1071.2,596.7 1071.2,596.7 1070.5,596.7 1069.9,596.7 1069.9,596.7 
	1069.9,596.7 1069.2,596.7 1068.6,596.7 1068.6,596.7 1067.9,596.7 1067.3,596.7 1067.3,596.7 1066.6,596.7 1066,596.7 1066,596.7 
	1065.3,596.7 1064.7,596.7 1064.7,597.4 1064,597.4 1063.4,597.4 1063.4,597.4 1062.8,597.4 1062.1,597.4 1062.1,597.4 
	1062.1,596.7 1062.1,596.7 1062.1,596.1 1062.1,596.1 1062.1,595.5 1062.8,595.5 1063.4,595.5 1063.4,595.5 1063.4,594.8 
	1064,594.8 1064,594.2 1064,593.5 1064,592.9 1064,592.2 1064,567 1064,566.4 1064,565.7 1064,565.1 1064,564.5 1064,563.8 
	1064,563.8 1063.4,563.2 1063.4,562.5 1063.4,562.5 1062.8,561.9 1062.1,561.9 1062.1,561.9 1061.5,561.2 1061.5,561.2 
	1061.5,560.6 1061.5,560.6 1061.5,559.9 1062.1,559.9 1062.8,559.3 1062.8,559.3 1063.4,559.3 1063.4,558.7 1064,558.7 1064.7,558 
	1064.7,558 1065.3,558 1066,557.3 1066,556.7 1066.6,556.7 1066.6,556.7 1066.6,556.7 1067.3,556.7 1067.3,557.3 1067.3,557.3 
	1067.3,558 1067.3,558.7 1067.3,558.7 1067.3,559.3 1067.3,559.9 1067.3,561.2 1067.3,561.9 1067.3,561.9 1067.3,562.5 
	1067.3,563.2 1067.3,563.8 1067.3,564.5 1067.3,565.1 1067.3,565.7 1067.3,566.4 1067.3,566.4 1067.3,576.1 1067.3,576.7 
	1067.3,577.4 1067.9,577.4 1067.9,577.4 1067.9,577.4 1067.9,577.4 1067.9,577.4 1068.6,576.7 1069.2,576.7 1069.9,576.1 
	1069.9,576.1 1070.5,575.4 1070.5,575.4 1071.2,575.4 1071.8,574.8 1071.8,574.8 1072.4,574.8 1073.1,574.8 1073.1,574.8 
	1073.7,574.8 1073.7,574.1 1074.4,574.1 1074.4,574.1 1075,574.8 1075.7,574.8 1075.7,574.8 1076.3,574.8 1076.3,574.8 1077,574.8 
	1077,575.4 1077.6,575.4 1077.6,576.1 1078.3,576.1 1078.3,576.1 1078.3,576.7 1078.9,577.4 1078.9,577.4 1078.9,578 1079.5,578.7 
	1079.5,578.7 1079.5,579.3 1079.5,580 1079.5,580.6 1079.5,581.2 1079.5,581.9 1079.5,582.5 1080.2,582.5 1080.2,592.2 
	1080.2,592.9 1080.2,593.5 1080.2,593.5 1080.2,594.2 1080.8,594.2 1080.8,594.8 1081.5,594.8 1081.5,595.5 1082.1,595.5 
	1082.8,595.5 1082.8,595.5 1082.8,595.5 1083.4,595.5 1083.4,596.1 1083.4,596.1 "/>
<path class="st0" d="M1102.2,594.2L1102.2,594.2v0.7l0,0l-0.7,0.7l-0.7,0.6l0,0h-0.7v0.7h-0.6h-0.7v0.7h-0.7l0,0h-0.7v-0.7h-0.7
	v-0.7l0,0l-0.6-0.6v-0.7h-0.7l0,0v0.7h-0.7h-0.7l-0.6,0.6l0,0l0,0l-0.7,0.7h-0.7l0,0l-0.7,0.7h-0.7l0,0h-0.6l0,0h-0.7h-0.7l0,0
	l-0.7-0.7h-0.7l0,0l-0.6-0.7l0,0v-0.6h-0.7v-0.7v-0.7l-0.7-0.7v-0.7l0,0v-0.6l0,0v-0.7v-0.7l0,0v-0.7h0.7v-0.7l0,0V589h0.7v-0.7l0,0
	h0.6v-0.7h0.7v-0.7h0.7h0.7v-0.7h0.7h0.6v-0.6h0.7h0.7l0.7-0.7h0.7h0.6l0,0l0.7-0.7l0,0h0.7v-0.7v-0.6l0,0v-1.3v-0.7v-0.7V580v-0.7
	v-0.7l0,0l-0.7-0.7l0,0l-0.7-0.7l0,0h-0.6l0,0l-0.7-0.6l0,0l-0.7,0.6l0,0h-0.7v0.7l-0.7,0.7v0.7l0,0v0.7h-0.6v0.6l-0.7,0.7l0,0h-0.7
	l0,0h-0.7l0,0h-0.7l0,0h-0.6v-0.7V580v-0.7l0,0v-0.7l0,0l0.6-0.7l0,0l0.7-0.7l0,0l0.7-0.6h0.7v-0.7h0.7l0.6-0.7l0,0h0.7l0.7-0.7l0,0
	h0.7l0,0h0.7h0.6l0,0h0.7l0,0h0.7h0.7l0,0h0.6v0.7h0.7l0,0l0.7,0.7l0,0v0.7l0.7,0.6l0,0v0.7v0.7v0.7v0.7l0,0v11.6v0.7v0.6h0.7v0.7
	h0.6l0,0l0,0h0.7l0,0l0.7-0.7l0,0l0.7,0.7l0,0V594.2L1102.2,594.2L1102.2,594.2z M1095.7,587.7v-0.7l0,0v-0.7l-0.7,0.7l0,0h-0.7
	h-0.6h-0.7l-0.7,0.7l0,0h-0.7l-0.7,0.7l0,0l-0.6,0.7l0,0l0,0l-0.7,0.6l0,0v0.7v0.7l0,0l0,0v0.7v0.7v0.6l0,0l0.7,0.7l0,0l0.6,0.7l0,0
	h0.7h0.7l0,0h0.7l0,0h0.7h0.6l0,0l0,0l0.7-0.7h0.7v-0.7l0,0v-0.6V587.7z"/>
<polygon class="st0" points="1127.4,596.1 1127.4,596.7 1126.7,596.7 1126.1,597.4 1126.1,597.4 1125.4,597.4 1124.8,597.4 
	1124.8,596.7 1124.1,596.7 1123.5,596.7 1122.8,596.7 1122.8,596.7 1122.2,596.7 1121.5,596.7 1121.5,596.7 1120.9,596.7 
	1120.9,596.7 1120.3,596.7 1119.6,596.7 1119.6,596.7 1119.6,596.7 1118.9,596.7 1118.3,596.7 1118.3,596.7 1118.3,596.7 
	1117.7,596.1 1117.7,596.1 1118.3,596.1 1118.3,595.5 1118.9,595.5 1118.9,595.5 1119.6,594.8 1119.6,594.8 1120.3,594.2 
	1120.3,594.2 1120.3,593.5 1120.3,592.9 1120.3,592.2 1120.3,585.1 1120.3,583.8 1120.3,583.8 1120.3,583.2 1120.3,582.5 
	1120.3,581.9 1119.6,581.2 1119.6,580.6 1119.6,580.6 1119.6,580 1118.9,580 1118.9,579.3 1118.3,579.3 1118.3,579.3 1118.3,578.7 
	1117.7,578.7 1117,578.7 1117,578.7 1116.4,578.7 1116.4,578.7 1115.7,578.7 1115.1,578.7 1115.1,578.7 1114.4,578.7 1113.8,578.7 
	1113.8,578.7 1113.1,579.3 1113.1,579.3 1112.5,579.3 1111.9,580 1111.9,580.6 1111.2,580.6 1111.2,581.2 1111.2,581.2 
	1111.2,581.9 1111.2,592.2 1111.2,592.9 1111.2,593.5 1111.2,593.5 1111.9,594.2 1111.9,594.2 1111.9,594.8 1112.5,594.8 
	1113.1,594.8 1113.1,594.8 1113.8,595.5 1114.4,595.5 1114.4,595.5 1114.4,596.1 1114.4,596.1 1114.4,596.7 1114.4,596.7 
	1113.8,596.7 1113.8,596.7 1113.1,596.7 1113.1,596.7 1112.5,596.7 1111.9,596.7 1111.9,596.7 1111.2,596.7 1110.6,596.7 
	1110.6,596.7 1109.9,596.7 1109.3,596.7 1109.3,596.7 1108.6,596.7 1108,597.4 1108,597.4 1107.3,597.4 1106.7,597.4 1106,597.4 
	1106,597.4 1106,597.4 1105.4,597.4 1105.4,596.7 1105.4,596.7 1105.4,596.1 1106,596.1 1106,595.5 1106.7,595.5 1106.7,595.5 
	1107.3,594.8 1107.3,594.8 1107.3,594.2 1108,593.5 1108,592.9 1108,592.2 1108,591.6 1108,583.2 1108,582.5 1108,581.9 1108,581.2 
	1107.3,580.6 1107.3,580.6 1107.3,580.6 1107.3,580 1106.7,580 1106.7,580 1106,579.3 1105.4,579.3 1105.4,579.3 1105.4,578.7 
	1104.7,578.7 1105.4,578 1105.4,578 1106,577.4 1106,577.4 1106.7,576.7 1106.7,576.7 1107.3,576.7 1108,576.1 1108,576.1 
	1108.6,575.4 1109.3,574.8 1109.3,574.8 1109.9,574.8 1109.9,574.8 1109.9,574.8 1110.6,574.8 1110.6,574.8 1110.6,575.4 
	1110.6,576.1 1110.6,576.1 1110.6,576.7 1111.2,577.4 1111.2,578 1111.2,578 1111.2,578 1111.2,578 1111.9,577.4 1111.9,577.4 
	1112.5,576.7 1113.1,576.7 1113.1,576.1 1113.8,576.1 1114.4,576.1 1114.4,575.4 1115.1,575.4 1115.7,575.4 1115.7,574.8 
	1116.4,574.8 1117,574.8 1117,574.8 1117.7,574.8 1117.7,574.8 1118.3,574.8 1118.3,574.8 1118.9,574.8 1118.9,574.8 1119.6,574.8 
	1120.3,574.8 1120.3,575.4 1120.9,575.4 1120.9,575.4 1121.5,576.1 1121.5,576.1 1121.5,576.1 1122.2,576.7 1122.2,576.7 
	1122.2,577.4 1122.8,578 1122.8,578 1122.8,578.7 1122.8,579.3 1123.5,580 1123.5,580 1123.5,580.6 1123.5,581.2 1123.5,581.9 
	1123.5,582.5 1123.5,583.2 1123.5,592.2 1123.5,592.9 1123.5,593.5 1123.5,593.5 1124.1,594.2 1124.1,594.8 1124.8,594.8 
	1124.8,594.8 1125.4,594.8 1125.4,595.5 1126.1,595.5 1126.7,595.5 1126.7,596.1 1127.4,596.1 1127.4,596.1 "/>
<polygon class="st0" points="1151.3,596.1 1151.3,596.7 1150.6,596.7 1150.6,597.4 1150.6,597.4 1150,597.4 1149.3,597.4 
	1148.7,596.7 1148,596.7 1147.4,596.7 1147.4,596.7 1146.7,596.7 1146.1,596.7 1146.1,596.7 1145.5,596.7 1144.8,596.7 
	1144.8,596.7 1144.1,596.7 1144.1,596.7 1143.5,596.7 1143.5,596.7 1142.9,596.7 1142.2,596.7 1142.2,596.7 1142.2,596.7 
	1142.2,596.1 1142.2,596.1 1142.2,596.1 1142.2,595.5 1142.9,595.5 1143.5,595.5 1143.5,594.8 1144.1,594.8 1144.1,594.2 
	1144.1,594.2 1144.1,593.5 1144.1,592.9 1144.1,592.2 1144.1,585.1 1144.1,583.8 1144.1,583.8 1144.1,583.2 1144.1,582.5 
	1144.1,581.9 1144.1,581.2 1144.1,580.6 1143.5,580.6 1143.5,580 1143.5,580 1142.9,579.3 1142.9,579.3 1142.2,579.3 1142.2,578.7 
	1141.6,578.7 1141.6,578.7 1140.9,578.7 1140.9,578.7 1140.3,578.7 1139.6,578.7 1139.6,578.7 1139,578.7 1138.3,578.7 
	1138.3,578.7 1137.7,578.7 1137.1,579.3 1137.1,579.3 1137.1,579.3 1136.4,580 1135.8,580.6 1135.8,580.6 1135.1,581.2 
	1135.1,581.2 1135.1,581.9 1135.1,592.2 1135.1,592.9 1135.1,593.5 1135.8,593.5 1135.8,594.2 1135.8,594.2 1136.4,594.8 
	1136.4,594.8 1137.1,594.8 1137.7,594.8 1137.7,595.5 1138.3,595.5 1139,595.5 1139,596.1 1139,596.1 1139,596.7 1138.3,596.7 
	1138.3,596.7 1137.7,596.7 1137.7,596.7 1137.1,596.7 1136.4,596.7 1136.4,596.7 1135.8,596.7 1135.1,596.7 1135.1,596.7 
	1134.5,596.7 1133.8,596.7 1133.8,596.7 1133.2,596.7 1132.5,596.7 1132.5,597.4 1131.9,597.4 1131.2,597.4 1131.2,597.4 
	1130.6,597.4 1129.9,597.4 1129.9,597.4 1129.9,597.4 1129.9,596.7 1129.9,596.7 1129.9,596.1 1129.9,596.1 1130.6,595.5 
	1130.6,595.5 1131.2,595.5 1131.2,594.8 1131.2,594.8 1131.9,594.2 1131.9,593.5 1131.9,592.9 1131.9,592.2 1131.9,591.6 
	1131.9,583.2 1131.9,582.5 1131.9,581.9 1131.9,581.2 1131.9,580.6 1131.2,580.6 1131.2,580.6 1131.2,580 1131.2,580 1130.6,580 
	1129.9,579.3 1129.3,579.3 1129.3,579.3 1129.3,578.7 1129.3,578.7 1129.3,578 1129.3,578 1129.9,577.4 1130.6,577.4 1130.6,576.7 
	1131.2,576.7 1131.2,576.7 1131.9,576.1 1132.5,576.1 1132.5,575.4 1133.2,574.8 1133.8,574.8 1133.8,574.8 1133.8,574.8 
	1133.8,574.8 1134.5,574.8 1134.5,574.8 1134.5,575.4 1135.1,576.1 1135.1,576.1 1135.1,576.7 1135.1,577.4 1135.1,578 1135.1,578 
	1135.1,578 1135.8,578 1135.8,577.4 1136.4,577.4 1137.1,576.7 1137.7,576.7 1137.7,576.1 1137.7,576.1 1138.3,576.1 1139,575.4 
	1139,575.4 1139.6,575.4 1140.3,574.8 1140.3,574.8 1140.9,574.8 1141.6,574.8 1141.6,574.8 1142.2,574.8 1142.2,574.8 
	1142.9,574.8 1142.9,574.8 1143.5,574.8 1143.5,574.8 1144.1,574.8 1144.8,575.4 1144.8,575.4 1145.5,575.4 1145.5,576.1 
	1145.5,576.1 1146.1,576.1 1146.1,576.7 1146.1,576.7 1146.7,577.4 1146.7,578 1146.7,578 1147.4,578.7 1147.4,579.3 1147.4,580 
	1147.4,580 1147.4,580.6 1147.4,581.2 1147.4,581.9 1147.4,582.5 1147.4,583.2 1147.4,592.2 1147.4,592.9 1148,593.5 1148,593.5 
	1148,594.2 1148,594.8 1148.7,594.8 1148.7,594.8 1149.3,594.8 1150,595.5 1150.6,595.5 1150.6,595.5 1151.3,596.1 1151.3,596.1 
	1151.3,596.1 "/>
<path class="st0" d="M1168.7,592.2L1168.7,592.2v0.6l0,0l-0.7,0.7l0,0l-0.6,0.7v0.7h-0.7v0.7h-0.7h-0.7v0.6h-0.6h-0.7v0.7h-0.7l0,0
	h-0.7h-0.7l0,0l-0.6,0.7h-0.7l0,0h-0.7h-0.7v-0.7h-0.7h-0.6l0,0h-0.7v-0.7h-0.7l-0.7-0.6l0,0l-0.7-0.7l0,0l-0.6-0.7l0,0l0,0v-0.7
	l-0.7-0.7l0,0l-0.7-0.6v-0.7l0,0v-0.7l-0.7-0.7v-0.7V589v-0.7l0,0v-0.7v-0.7v-0.7v-0.6v-0.7v-0.7v-0.7l0,0v-0.6v-0.7l0.7-0.7v-0.7
	v-0.7l0,0l0.7-0.6v-0.7l0,0l0.7-0.7V578h0.6v-0.7l0,0l0.7-0.6l0,0l0.7-0.7l0,0l0.7-0.7h0.7l0,0l0.6-0.7l0,0h0.7h0.7l0,0h0.7l0.7-0.7
	l0,0h0.6v0.7h0.7h0.7l0,0h0.7v0.7h0.7l0.6,0.7l0,0l0.7,0.7l0,0l0.7,0.6v0.7l0,0l0.7,0.7v0.7v0.7l0,0l0.6,0.6l0,0l0,0h0.7v0.7v0.7
	l0,0v0.7h-0.7l0,0l-0.6,0.7h-0.7v0.6l-9.7,3.9v0.7l0,0v0.7l0.7,0.6v0.7v0.7h0.7v0.7v0.7h0.6v0.6l0,0l0.7,0.7l0,0h0.7l0,0l0.7,0.7
	h0.7l0,0h0.6l0,0h0.7h0.7l0,0l0.7-0.7l0,0h0.7h0.6v-0.7h0.7h0.7v-0.6h0.7v-0.7h0.6h0.7l0,0l0,0V592.2L1168.7,592.2L1168.7,592.2z
	 M1164.2,580.6L1164.2,580.6l-0.7-0.6v-0.7v-0.7h-0.7V578l0,0l-0.7-0.7l0,0h-0.6h-0.7v-0.6l0,0h-0.7l-0.7,0.6l0,0h-0.7l0,0l-0.6,0.7
	l0,0l0,0l-0.7,0.7l0,0v0.7l-0.7,0.7l0,0v0.6v0.7v0.7v0.7v0.7v0.6v0.7v0.7l5.2-2.6h0.7h0.7v-0.7l0,0l0.7-0.7V580.6L1164.2,580.6z"/>
<polygon class="st0" points="1181.6,596.1 1181.6,596.7 1181.6,596.7 1181,596.7 1181,596.7 1180.3,596.7 1180.3,596.7 
	1179.7,596.7 1179.7,596.7 1179,596.7 1178.4,596.7 1178.4,596.7 1177.7,596.7 1177.1,596.7 1177.1,596.7 1176.5,596.7 
	1175.8,596.7 1175.8,596.7 1175.2,596.7 1174.5,596.7 1173.9,597.4 1173.9,597.4 1173.2,597.4 1172.6,597.4 1172.6,597.4 
	1172.6,596.7 1172.6,596.1 1172.6,596.1 1172.6,595.5 1173.2,595.5 1173.9,594.8 1173.9,594.8 1174.5,594.8 1174.5,594.2 
	1174.5,593.5 1174.5,592.9 1174.5,592.2 1174.5,592.2 1174.5,567 1174.5,566.4 1174.5,565.7 1174.5,565.1 1174.5,564.5 
	1174.5,563.8 1174.5,563.8 1174.5,563.8 1173.9,563.2 1173.9,562.5 1173.2,562.5 1173.2,561.9 1172.6,561.9 1172.6,561.9 
	1171.9,561.9 1171.9,561.2 1171.9,561.2 1171.9,560.6 1171.9,559.9 1172.6,559.9 1172.6,559.9 1173.2,559.3 1173.9,559.3 
	1173.9,559.3 1174.5,558.7 1174.5,558.7 1175.2,558.7 1175.8,558 1175.8,558 1176.5,557.3 1177.1,557.3 1177.1,556.7 1177.1,556.7 
	1177.1,556.7 1177.7,556.7 1177.7,557.3 1178.4,557.3 1178.4,558 1178.4,558 1178.4,558.7 1178.4,559.3 1178.4,559.9 1178.4,560.6 
	1178.4,561.2 1178.4,561.9 1178.4,562.5 1178.4,562.5 1177.7,563.2 1177.7,563.8 1177.7,564.5 1177.7,565.1 1177.7,565.7 
	1177.7,566.4 1177.7,566.4 1178.4,591.6 1178.4,592.2 1178.4,592.9 1178.4,593.5 1178.4,593.5 1179,594.2 1179,594.2 1179,594.8 
	1179.7,594.8 1180.3,594.8 1181,594.8 1181,594.8 1181.6,595.5 1181.6,595.5 1181.6,596.1 1181.6,596.1 "/>
<path class="st1" d="M847.6,581.6c0,29.4,23.9,53.3,53.3,53.3"/>
<line class="st1" x1="901.2" y1="635.5" x2="1235.9" y2="635.5"/>
<path class="st1" d="M1235.6,634.9c29.4,0,53.3-23.9,53.3-53.3"/>
<path class="st2" d="M966.5,165.4l-21.2,12.2L966.5,165.4z M657.9,343.5l-25.7,14.8L657.9,343.5z"/>
<path class="st2" d="M894.1,95.1L883,115L894.1,95.1z M634.8,259.5l-27.7-0.1L634.8,259.5z"/>
<path class="st2" d="M970,356.2l-25.3-14.5L970,356.2z M945.7,178.4l21.5-12.2L945.7,178.4z"/>
<path class="st2" d="M706.7,432.8l15.3-27.7L706.7,432.8z M884.2,402.5l15.5,26.8L884.2,402.5z"/>
<path class="st2" d="M707.4,94.4l11.6,20.3L707.4,94.4z M656.8,176.6L635,164L656.8,176.6z"/>
<path class="st2" d="M802.1,447.4V425V447.4z M802.1,93.2V70.7V93.2z"/>
<path class="st2" d="M966.6,260.1h27.7H966.6z"/>
<path class="st2" d="M1451.1,165.4l-21.2,12.2L1451.1,165.4z M1142.5,343.5l-25.7,14.8L1142.5,343.5z"/>
<path class="st2" d="M1378.7,95.1l-11.1,19.9L1378.7,95.1z M1119.5,259.5l-27.7-0.1L1119.5,259.5z"/>
<path class="st2" d="M1454.6,356.2l-25.3-14.5L1454.6,356.2z M1430.3,178.4l21.5-12.2L1430.3,178.4z"/>
<path class="st2" d="M1191.3,432.8l15.3-27.7L1191.3,432.8z M1368.8,402.5l15.5,26.8L1368.8,402.5z"/>
<path class="st2" d="M1192,94.4l11.6,20.3L1192,94.4z M1141.4,176.6l-21.8-12.5L1141.4,176.6z"/>
<path class="st2" d="M1286.8,447.4V425V447.4z M1286.8,93.2V70.7V93.2z"/>
<path class="st2" d="M1451.2,260.1h27.7H1451.2z"/>
<polygon class="st0" points="979.4,79.1 979.4,79.1 979.4,79.7 978.8,79.7 978.8,80.4 978.1,81 977.5,81 976.8,81.7 976.8,81.7 
	976.2,82.3 975.5,82.3 975.5,83 974.9,83 974.2,83 973.6,83.6 973.6,83.6 973,83.6 972.3,83.6 971.7,83.6 971.7,83.6 971,83.6 
	970.4,83.6 970.4,83.6 969.7,83.6 969.1,83.6 968.4,83.6 967.8,83.6 967.8,83 967.2,83 966.5,83 966.5,82.3 965.8,82.3 965.2,81.7 
	965.2,81.7 964.5,81 963.9,80.4 963.9,80.4 963.9,80.4 963.3,79.7 963.3,79.1 962.6,78.4 962.6,78.4 962.6,77.8 962,77.2 962,76.5 
	962,75.9 962,75.2 961.3,74.6 961.3,73.9 961.3,73.3 961.3,72.6 961.3,72 961.3,71.3 961.3,70.7 961.3,70 961.3,69.4 961.3,68.7 
	961.3,68.1 962,67.5 962,66.8 962,66.2 962,65.5 962.6,64.9 962.6,64.2 962.6,63.6 963.3,62.9 963.3,62.3 963.9,62.3 963.9,61.7 
	964.5,61 964.5,61 965.2,60.3 965.2,59.7 965.8,59.7 965.8,59.1 966.5,59.1 967.2,58.4 967.2,58.4 967.8,57.8 968.4,57.8 
	969.1,57.8 969.1,57.1 969.7,57.1 970.4,57.1 971,57.1 971,57.1 971.7,56.5 972.3,56.5 972.3,56.5 973,56.5 973.6,56.5 974.2,57.1 
	974.9,57.1 974.9,57.1 975.5,57.1 976.2,57.1 976.8,57.8 976.8,57.8 977.5,57.8 978.1,58.4 978.8,58.4 978.8,59.1 979.4,59.7 
	979.4,59.7 979.4,59.7 979.4,60.3 979.4,61 978.8,61.7 978.1,62.3 978.1,62.9 977.5,63.6 977.5,63.6 976.8,64.2 976.8,64.2 
	976.8,63.6 976.2,63.6 975.5,62.9 974.9,62.3 974.9,62.3 974.2,61.7 974.2,61.7 973.6,61 973,60.3 972.3,60.3 972.3,60.3 
	971.7,59.7 971.7,59.7 971,59.7 970.4,59.7 970.4,59.7 969.7,60.3 969.1,60.3 968.4,60.3 968.4,61 967.8,61.7 967.8,61.7 
	967.2,62.3 967.2,62.3 967.2,62.9 966.5,63.6 966.5,64.2 966.5,64.9 965.8,65.5 965.8,66.2 965.8,66.8 965.8,67.5 965.8,68.1 
	965.8,68.7 965.8,69.4 965.8,70.7 965.8,71.3 965.8,72 965.8,72.6 966.5,73.3 966.5,73.9 966.5,74.6 966.5,75.2 967.2,75.9 
	967.2,75.9 967.8,76.5 967.8,77.2 967.8,77.2 968.4,77.8 969.1,78.4 969.1,78.4 969.7,79.1 970.4,79.7 970.4,79.7 971,79.7 
	971.7,80.4 971.7,80.4 972.3,80.4 973,80.4 973.6,80.4 974.2,80.4 974.2,80.4 974.9,79.7 975.5,79.7 976.2,79.7 976.2,79.7 
	976.8,79.1 977.5,79.1 977.5,78.4 978.1,78.4 978.1,78.4 978.8,77.8 978.8,77.8 979.4,78.4 979.4,79.1 979.4,79.1 "/>
<path class="st0" d="M1005.2,69.4V70v1.3V72l-0.7,0.7v0.7v0.7v0.7l0,0l-0.6,0.6v0.7v0.7l-0.7,0.7v0.7l-0.7,0.6l0,0l-0.7,0.7v0.7
	h-0.7v0.7l-0.6,0.6h-0.7v0.7h-0.7l-0.7,0.7l0,0l-0.6,0.7h-0.7h-0.7l0,0l-0.7,0.7h-0.7h-0.6l0,0h-0.7h-0.7H993h-0.7l0,0h-0.6H991
	l-0.7-0.7h-0.7l0,0l-0.7-0.7h-0.6l0,0l-0.7-0.7h-0.7V81l-0.7-0.6l0,0h-0.7v-0.7l-0.6-0.7v-0.7l-0.7-0.6l0,0v-0.7l-0.7-0.7v-0.7v-0.7
	v-0.6v-0.7l-0.7-0.7v-0.7V72v-1.3l0,0V70v-0.7v-0.7v-0.6l0.7-0.7v-0.7v-0.7v-0.7l0.7-0.6v-0.7v-0.7h0.7v-0.7l0.6-0.6v-0.7l0.7-0.7
	l0,0l0,0l0.7-0.7l0.7-0.7l0,0l0.7-0.6h0.6v-0.7h0.7l0.7-0.7l0,0h0.7l0.7-0.7h0.6l0,0h0.7h0.7h0.7h0.7l0,0h0.6h0.7l0,0h0.7h0.7h0.7
	h0.6v0.7h0.7l0.7,0.7l0,0h0.7l0.6,0.7l0,0l0.7,0.6v0.7h0.7V61h0.7v0.7v0.7l0.7,0.6v0.7l0.6,0.7v0.7v0.6v0.7v0.7l0.7,0.7v0.7v0.6
	V69.4L1005.2,69.4L1005.2,69.4z M1000.7,72v-1.3V70v-0.7v-0.7l-0.7-0.6v-0.7v-0.7v-0.7v-0.7l-0.7-0.6v-0.7v-0.7h-0.7v-0.7l-0.6-0.6
	l0,0l-0.7-0.7V61h-0.7l-0.7-0.7l0,0h-0.7l-0.6-0.7h-0.7l0,0l0,0h-0.7H993l-0.7,0.7h-0.6l0,0L991,61h-0.7v0.7l-0.7,0.7l0,0l-0.7,0.6
	v0.7l-0.6,0.7v0.7v0.6v0.7l-0.7,0.7v0.7v0.7v0.6v0.7V70v0.7v0.7l0.7,0.6v1.3v0.7v0.7l0,0l0.6,0.6v0.7v0.7l0.7,0.7v0.7l0,0h0.7v0.6
	l0.7,0.7h0.7v0.7h0.6l0.7,0.7l0,0h0.7h0.7h0.7l0,0h0.6h0.7h0.7v-0.7h0.7l0.7-0.7l0,0l0.6-0.7v-0.6h0.7v-0.7l0.7-0.7v-0.7v-0.7v-0.6
	l0.7-0.7v-0.7v-0.7V72L1000.7,72L1000.7,72z"/>
<polygon class="st0" points="1035.6,82.3 1035.6,83 1035.6,83.6 1035,83.6 1035,83.6 1034.3,83.6 1033.7,83.6 1033,83.6 
	1032.4,83.6 1031.8,83.6 1031.1,83.6 1030.4,83.6 1029.8,83.6 1029.1,83.6 1029.1,83.6 1028.5,83.6 1027.9,83.6 1027.9,83.6 
	1027.2,83.6 1026.6,83.6 1026.6,83.6 1025.9,83.6 1025.3,83.6 1024.6,83 1024.6,83 1024.6,82.3 1024.6,82.3 1024.6,82.3 
	1025.3,81.7 1025.9,81.7 1026.6,81 1026.6,81 1027.2,80.4 1027.2,80.4 1027.2,79.7 1027.9,79.1 1027.9,78.4 1027.9,77.8 
	1027.9,68.7 1027.9,68.1 1027.9,67.5 1027.2,66.2 1027.2,65.5 1027.2,64.9 1027.2,64.9 1027.2,64.2 1026.6,63.6 1026.6,62.9 
	1025.9,62.9 1025.9,62.3 1025.3,62.3 1025.3,61.7 1024.6,61.7 1024.6,61.7 1024,61 1023.3,61 1023.3,61 1022.7,61 1022.1,61 
	1021.4,61 1020.8,61 1020.8,61.7 1020.1,61.7 1019.5,61.7 1018.8,62.3 1018.8,62.3 1018.2,62.3 1018.2,62.9 1017.5,63.6 
	1016.9,63.6 1016.9,64.2 1016.9,64.9 1016.9,65.5 1016.9,77.8 1016.9,78.4 1016.9,79.1 1016.9,79.1 1016.9,79.7 1017.5,80.4 
	1017.5,80.4 1018.2,81 1018.8,81 1019.5,81 1019.5,81 1020.1,81 1020.8,81.7 1020.8,82.3 1020.8,82.3 1020.8,83 1020.8,83 
	1020.1,83 1019.5,83 1019.5,83 1018.8,83 1018.2,83 1017.5,83 1016.9,83 1016.9,83 1016.2,83 1015.6,83 1014.9,83.6 1014.9,83.6 
	1014.3,83.6 1013.6,83.6 1013,83.6 1012.4,83.6 1011.7,83.6 1011.7,83.6 1011.1,83.6 1010.4,83.6 1010.4,83.6 1009.8,83.6 
	1009.8,83 1009.8,83 1009.8,82.3 1010.4,82.3 1010.4,81.7 1011.1,81.7 1011.7,81 1011.7,81 1012.4,80.4 1012.4,79.7 1012.4,79.7 
	1012.4,78.4 1012.4,77.8 1012.4,77.2 1012.4,66.8 1012.4,65.5 1012.4,64.9 1012.4,64.2 1012.4,63.6 1012.4,63.6 1012.4,63.6 
	1011.7,62.9 1011.7,62.9 1011.1,62.9 1010.4,62.3 1009.8,62.3 1009.8,62.3 1009.1,61.7 1009.1,61 1009.1,60.3 1009.8,60.3 
	1010.4,59.7 1011.1,59.7 1011.1,59.7 1011.7,59.1 1012.4,59.1 1012.4,58.4 1013,57.8 1013.6,57.8 1014.3,57.1 1014.3,56.5 
	1014.9,56.5 1014.9,56.5 1014.9,56.5 1015.6,56.5 1015.6,57.1 1016.2,57.8 1016.2,58.4 1016.2,58.4 1016.2,59.7 1016.2,60.3 
	1016.9,60.3 1016.9,60.3 1016.9,60.3 1016.9,60.3 1017.5,60.3 1017.5,59.7 1018.2,59.1 1019.5,58.4 1019.5,58.4 1020.1,58.4 
	1020.1,57.8 1020.8,57.8 1021.4,57.1 1022.1,57.1 1022.1,57.1 1022.7,57.1 1023.3,56.5 1024,56.5 1024,56.5 1024.6,56.5 
	1024.6,56.5 1025.3,56.5 1025.9,56.5 1026.6,56.5 1026.6,57.1 1027.2,57.1 1027.9,57.1 1027.9,57.1 1028.5,57.8 1028.5,57.8 
	1029.1,58.4 1029.1,58.4 1029.8,59.1 1029.8,59.1 1030.4,59.7 1030.4,60.3 1030.4,61 1031.1,61.7 1031.1,61.7 1031.1,62.3 
	1031.1,62.9 1031.1,63.6 1031.1,64.9 1031.8,65.5 1031.8,66.2 1031.8,66.8 1031.8,77.2 1031.8,78.4 1031.8,79.1 1031.8,79.7 
	1031.8,79.7 1032.4,80.4 1032.4,80.4 1033,81 1033.7,81 1034.3,81 1035,81.7 1035,81.7 1035.6,82.3 1035.6,82.3 1035.6,82.3 "/>
<polygon class="st0" points="1051.8,80.4 1051.8,80.4 1051.8,81 1051.8,81.7 1051.1,81.7 1051.1,82.3 1050.5,82.3 1049.8,83 
	1049.2,83 1048.5,83 1048.5,83.6 1047.9,83.6 1047.3,83.6 1046.6,83.6 1046.6,83.6 1046,83.6 1045.3,83.6 1044.7,83.6 1044,83.6 
	1044,83.6 1043.4,83.6 1042.7,83 1042.7,83 1042.1,82.3 1042.1,82.3 1041.4,81.7 1041.4,81.7 1041.4,81 1040.8,80.4 1040.8,79.7 
	1040.8,79.1 1040.8,78.4 1040.8,77.8 1040.1,77.2 1040.1,76.5 1040.1,75.9 1040.1,63.6 1040.1,62.9 1040.1,62.3 1040.1,61.7 
	1040.1,61 1040.1,61 1040.1,61 1039.5,60.3 1038.8,60.3 1038.2,59.7 1038.2,59.7 1037.6,59.1 1038.2,58.4 1038.2,57.8 1038.8,57.8 
	1038.8,57.1 1039.5,57.1 1039.5,56.5 1040.1,55.8 1040.1,55.8 1040.8,55.2 1041.4,54.5 1041.4,53.9 1042.1,53.2 1042.1,53.2 
	1042.7,52.6 1042.7,52 1042.7,51.3 1043.4,50.7 1043.4,50.7 1044,50.7 1044.7,51.3 1044.7,52 1044.7,55.8 1044.7,56.5 1044.7,56.5 
	1045.3,57.1 1045.3,57.1 1051.1,57.1 1051.8,57.1 1051.8,57.8 1051.1,58.4 1051.1,58.4 1051.1,59.1 1050.5,59.7 1050.5,60.3 
	1049.8,60.3 1049.8,60.3 1046,60.3 1045.3,60.3 1044.7,61 1044.7,61 1044.7,61.7 1044,62.3 1044,62.3 1044,73.9 1044,74.6 
	1044.7,75.9 1044.7,76.5 1044.7,77.2 1044.7,77.8 1044.7,78.4 1044.7,78.4 1044.7,79.1 1045.3,79.1 1045.3,79.7 1046,79.7 
	1046,79.7 1046.6,80.4 1047.3,80.4 1047.9,80.4 1048.5,80.4 1048.5,80.4 1049.2,80.4 1049.8,80.4 1050.5,79.7 1050.5,79.7 
	1051.1,79.7 1051.8,79.7 1051.8,79.7 1051.8,79.7 1051.8,80.4 "/>
<path class="st0" d="M1077,69.4V70v1.3V72v0.7v0.7v0.7v0.7h-0.7v0.6v0.7l-0.7,0.7v0.7l-0.6,0.7v0.6h-0.7v0.7l-0.7,0.7l0,0l-0.7,0.7
	V81h-0.7l-0.6,0.7l0,0l-0.7,0.7h-0.7V83h-0.7h-0.7h-0.6v0.7h-0.7h-0.7h-0.7h-0.6l0,0h-0.7h-0.7h-0.7h-0.7l0,0l-0.6-0.7h-0.7h-0.7
	v-0.7h-0.7h-0.7v-0.7h-0.6l-0.7-0.7v-0.6h-0.7l0,0l-0.7-0.7v-0.7v-0.7l-0.7-0.6l0,0l-0.6-0.7v-0.7v-0.7v-0.7l-0.7-0.6v-0.7v-0.7
	v-0.7V72v-1.3l0,0V70v-0.7v-0.7v-0.6v-0.7v-0.7l0.7-0.7v-0.7v-0.6l0.6-0.7v-0.7l0,0l0.7-0.7v-0.6l0.7-0.7V61h0.7l0,0l0.7-0.7v-0.7
	h0.6l0.7-0.6l0,0l0.7-0.7h0.7v-0.7h0.7h0.6l0.7-0.7l0,0h0.7h0.7h0.7l0,0h0.6l0,0h0.7h0.7h0.7h0.6h0.7l0,0h0.7l0.7,0.7h0.7v0.7h0.6
	h0.7v0.7h0.7v0.6l0.7,0.7l0,0l0.7,0.7l0,0l0.6,0.7v0.7l0.7,0.6v0.7v0.7v0.7l0.7,0.6v0.7v0.7v0.7v0.7v0.6V69.4L1077,69.4L1077,69.4z
	 M1073.1,72v-1.3l-0.7-0.7v-0.7v-0.7v-0.6v-0.7v-0.7l-0.6-0.7v-0.7v-0.6v-0.7l-0.7-0.7l0,0v-0.7l-0.7-0.6h-0.7v-0.7l-0.7-0.7l0,0
	l-0.6-0.7h-0.7l0,0l-0.7-0.7h-0.7h-0.6l0,0h-0.7l0,0l-0.7,0.7h-0.7h-0.7V61h-0.6l-0.7,0.7v0.7h-0.7v0.6l-0.7,0.7v0.7v0.7l-0.7,0.6
	v0.7v0.7v0.7v0.7v0.6v0.7V70v0.7v0.7V72v1.3l0.7,0.7v0.7l0,0v0.6l0.7,0.7v0.7v0.7l0.7,0.7l0,0l0,0l0.7,0.6l0.6,0.7l0,0l0.7,0.7l0,0
	l0.7,0.7h0.7h0.7l0,0h0.6h0.7h0.7h0.7l0,0l0.6-0.7h0.7v-0.7h0.7l0.7-0.7v-0.6l0,0l0.7-0.7v-0.7l0.6-0.7v-0.7v-0.6v-0.7v-0.7v-0.7
	L1073.1,72L1073.1,72L1073.1,72z"/>
<polygon class="st0" points="1104.7,80.4 1104.7,80.4 1104.7,81 1104.1,81 1104.1,81.7 1103.4,82.3 1100.9,83.6 1100.9,83.6 
	1100.9,83.6 1100.2,83.6 1100.2,83 1099.6,82.3 1099.6,82.3 1098.9,81.7 1098.3,81 1097.6,80.4 1097.6,80.4 1097.6,80.4 1097,81 
	1097,81 1096.4,81.7 1095.7,81.7 1095.1,82.3 1094.4,82.3 1093.8,82.3 1093.8,83 1093.1,83 1092.5,83 1091.8,83.6 1091.8,83.6 
	1091.2,83.6 1091.2,83.6 1090.5,83.6 1089.9,83.6 1089.2,83.6 1088.6,83 1087.9,83 1087.3,83 1087.3,83 1086.7,82.3 1086,82.3 
	1086,81.7 1086,81.7 1085.4,81.7 1085.4,81 1085.4,81 1084.7,80.4 1084.7,79.7 1084.7,79.1 1084.7,78.4 1084.1,77.8 1084.1,77.2 
	1084.1,76.5 1084.1,75.9 1084.1,74.6 1084.1,73.9 1084.1,67.5 1084.1,66.2 1084.1,65.5 1084.1,64.9 1084.1,64.2 1084.1,63.6 
	1083.4,63.6 1083.4,62.9 1082.8,62.3 1082.8,62.3 1082.1,61.7 1081.5,61.7 1081.5,61 1080.8,61 1080.8,60.3 1080.8,59.7 
	1081.5,59.7 1081.5,59.1 1082.1,59.1 1082.8,58.4 1083.4,58.4 1083.4,58.4 1084.1,57.8 1084.7,57.8 1085.4,57.1 1085.4,57.1 
	1086,57.1 1086.7,56.5 1087.3,56.5 1087.3,56.5 1087.9,56.5 1087.9,57.1 1087.9,57.8 1087.9,57.8 1087.9,61.7 1087.9,61.7 
	1087.9,62.3 1087.9,62.9 1087.9,63.6 1087.9,64.2 1087.9,64.9 1087.9,65.5 1087.9,66.2 1087.9,66.8 1087.9,68.1 1087.9,68.1 
	1087.9,72.6 1087.9,73.3 1087.9,73.9 1087.9,74.6 1087.9,75.2 1088.6,75.9 1088.6,76.5 1088.6,77.2 1089.2,77.8 1089.2,77.8 
	1089.2,78.4 1089.9,78.4 1090.5,79.1 1090.5,79.1 1091.2,79.1 1091.8,79.1 1092.5,79.1 1093.1,79.1 1093.1,79.1 1093.8,79.1 
	1094.4,79.1 1094.4,79.1 1095.1,79.1 1095.7,78.4 1095.7,78.4 1096.4,78.4 1096.4,77.8 1097,77.2 1097,77.2 1097,76.5 1097.6,75.9 
	1097.6,75.2 1097.6,74.6 1097.6,73.9 1097.6,73.3 1097.6,67.5 1097.6,66.2 1097.6,65.5 1097.6,64.9 1097.6,64.2 1097.6,63.6 
	1097,62.9 1097,62.9 1097,62.9 1096.4,62.3 1096.4,62.3 1095.7,61.7 1095.1,61.7 1095.1,61.7 1094.4,61 1094.4,60.3 1094.4,60.3 
	1094.4,59.7 1095.1,59.7 1095.1,59.1 1095.7,59.1 1096.4,58.4 1097.6,58.4 1098.3,57.8 1098.3,57.8 1098.9,57.1 1099.6,57.1 
	1099.6,57.1 1100.2,57.1 1100.2,57.1 1100.9,57.1 1100.9,57.1 1100.9,57.1 1101.5,57.1 1101.5,57.8 1101.5,58.4 1101.5,58.4 
	1101.5,59.1 1101.5,59.7 1101.5,60.3 1101.5,61.7 1101.5,62.3 1101.5,62.9 1101.5,63.6 1101.5,64.2 1101.5,64.9 1101.5,66.2 
	1101.5,66.8 1101.5,67.5 1101.5,68.1 1101.5,68.1 1101.5,77.2 1101.5,77.2 1101.5,77.8 1102.2,78.4 1102.2,78.4 1102.8,79.1 
	1102.8,79.1 1103.4,79.1 1104.1,79.7 1104.7,79.7 1104.7,79.7 1104.7,80.4 "/>
<polygon class="st0" points="1124.8,59.1 1124.8,60.3 1124.8,61 1124.8,61.7 1124.1,62.3 1124.1,62.9 1124.1,62.9 1123.5,63.6 
	1123.5,63.6 1122.8,63.6 1122.8,63.6 1122.2,63.6 1121.5,62.9 1120.9,62.9 1120.3,62.9 1120.3,62.9 1119.6,62.3 1118.9,62.3 
	1118.9,62.3 1118.3,62.3 1118.3,62.9 1117.7,62.9 1117,62.9 1117,63.6 1117,63.6 1116.4,64.2 1116.4,64.9 1116.4,65.5 1116.4,66.2 
	1116.4,66.8 1116.4,67.5 1116.4,77.8 1116.4,78.4 1116.4,79.1 1116.4,79.7 1117,79.7 1117,79.7 1117,80.4 1117.7,80.4 1118.3,80.4 
	1118.3,81 1119.6,81 1119.6,81 1120.3,81.7 1120.9,81.7 1120.9,82.3 1120.9,82.3 1120.9,83 1120.9,83.6 1120.3,83.6 1119.6,83.6 
	1118.9,83.6 1118.3,83.6 1117.7,83 1117,83 1116.4,83 1115.7,83 1115.7,83 1115.1,83 1114.4,83 1113.8,83 1113.1,83 1113.1,83 
	1112.5,83 1111.9,83 1111.9,83 1111.2,83.6 1111.2,83.6 1110.6,83.6 1109.9,83.6 1109.9,83.6 1109.3,83.6 1109.3,83 1109.3,82.3 
	1109.3,81.7 1109.9,81.7 1109.9,81 1110.6,81 1111.2,80.4 1111.2,80.4 1111.9,79.7 1111.9,79.1 1111.9,78.4 1111.9,77.8 
	1111.9,77.8 1111.9,66.8 1111.9,66.2 1111.9,64.9 1111.9,64.2 1111.9,64.2 1111.9,63.6 1111.2,63.6 1111.2,63.6 1110.6,62.9 
	1110.6,62.3 1109.9,62.3 1109.3,61.7 1109.3,61.7 1108.6,61.7 1108.6,61 1108.6,60.3 1109.3,59.7 1109.9,59.7 1110.6,59.7 
	1110.6,59.1 1111.2,59.1 1111.9,58.4 1111.9,58.4 1112.5,57.8 1113.1,57.1 1113.1,57.1 1113.8,57.1 1113.8,56.5 1114.4,56.5 
	1114.4,56.5 1115.1,56.5 1115.1,56.5 1115.1,57.1 1115.7,57.8 1115.7,58.4 1115.7,59.1 1115.7,60.3 1115.7,60.3 1116.4,61 
	1116.4,61 1116.4,61 1116.4,61 1117,60.3 1117,59.7 1117.7,59.7 1118.3,59.1 1118.9,58.4 1119.6,57.8 1119.6,57.8 1120.3,57.1 
	1120.9,57.1 1121.5,57.1 1121.5,57.1 1122.2,56.5 1122.8,56.5 1122.8,56.5 1123.5,56.5 1124.1,57.1 1124.1,57.1 1124.8,57.8 
	1124.8,58.4 1124.8,59.1 1124.8,59.1 "/>
<path class="st3" d="M800.8,425c91.4,0,165.9-74.5,165.9-165.9c0-91.4-74.5-165.9-165.9-165.9c-91.4,0-165.9,74.6-165.9,165.9
	C634.8,350.4,709.4,425,800.8,425L800.8,425z"/>
<line class="st4" x1="895.9" y1="123.2" x2="800.8" y2="259.1"/>
<path class="st3" d="M800.8,392.1c73.2,0,133-59.8,133-133c0-73.3-59.8-133-133-133c-73.3,0-133.1,59.8-133.1,133
	C667.7,332.4,727.5,392.1,800.8,392.1L800.8,392.1z"/>
<path class="st3" d="M1285.3,425c91.4,0,165.9-74.5,165.9-165.9c0-91.4-74.5-165.9-165.9-165.9c-91.4,0-165.9,74.6-165.9,165.9
	C1119.5,350.4,1194,425,1285.3,425L1285.3,425z"/>
<line class="st4" x1="1380.5" y1="123.2" x2="1285.3" y2="259.1"/>
<path class="st3" d="M1285.3,392.1c73.3,0,133.1-59.8,133.1-133c0-73.3-59.8-133-133.1-133c-73.3,0-133,59.8-133,133
	C1152.3,332.4,1212.1,392.1,1285.3,392.1L1285.3,392.1z"/>
</svg>
