<?xml version="1.0" encoding="utf-8"?>
<!-- Generator: Adobe Illustrator 22.1.0, SVG Export Plug-In . SVG Version: 6.00 Build 0)  -->
<svg version="1.1" id="Capa_1" xmlns="http://www.w3.org/2000/svg" xmlns:xlink="http://www.w3.org/1999/xlink" x="0px" y="0px"
	 viewBox="607.2 52 871.8 583.6" style="enable-background:new 607.2 52 871.8 583.6;" xml:space="preserve">
<style type="text/css">
	.st0{fill-rule:evenodd;clip-rule:evenodd;fill:#5D5252;}
	.st1{fill:#5D5252;}
</style>
<g>
	<polygon class="st0" points="1263.2,522.7 1263.2,523.2 1263.2,523.9 1263.2,524.4 1263.2,525.1 1262.4,525.9 1262.4,526.4 
		1261.7,527.1 1261.7,527.1 1261.2,527.6 1261.2,528.4 1260.4,528.4 1260.4,528.9 1259.9,528.9 1259.2,528.9 1259.2,529.6 
		1258.4,529.6 1257.9,529.6 1257.2,530.4 1257.2,530.4 1256.7,530.4 1255.9,530.4 1255.2,530.4 1254.7,530.4 1254.7,530.4 
		1254,530.4 1253.5,530.4 1252.7,530.4 1252.2,529.6 1252.2,529.6 1251.5,529.6 1250.7,529.6 1250.7,529.6 1250.2,528.9 
		1249.5,528.9 1249,528.9 1248.2,528.4 1248.2,528.4 1248.2,528.4 1248.2,527.6 1248.2,527.1 1248.2,526.4 1248.2,525.9 
		1248.2,524.4 1248.2,523.9 1248.2,523.2 1248.2,522.7 1249,521.9 1249,521.9 1249,521.9 1249.5,522.7 1249.5,522.7 1250.2,523.2 
		1250.2,523.9 1250.7,524.4 1250.7,525.1 1251.5,525.1 1251.5,525.9 1252.2,525.9 1252.7,526.4 1252.7,526.4 1253.5,527.1 
		1254,527.1 1254,527.1 1254.7,527.1 1255.2,527.1 1255.9,527.1 1256.7,527.1 1257.2,527.1 1257.9,527.1 1257.9,527.1 1258.4,526.4 
		1258.4,526.4 1259.2,525.9 1259.2,525.1 1259.2,525.1 1259.2,524.4 1259.2,523.9 1259.2,523.2 1259.2,522.7 1259.2,521.9 
		1258.4,521.9 1258.4,521.1 1258.4,521.1 1257.9,521.1 1257.9,520.6 1257.2,520.6 1256.7,519.9 1255.9,519.4 1255.9,519.4 
		1255.2,518.7 1254.7,518.7 1254,517.9 1253.5,517.9 1252.7,517.4 1252.2,517.4 1252.2,516.7 1251.5,516.7 1251.5,516.2 
		1250.7,516.2 1250.7,515.4 1250.2,515.4 1250.2,514.9 1250.2,514.9 1249.5,514.2 1249.5,513.4 1249.5,512.9 1249,512.2 1249,511.7 
		1249,510.9 1249,510.4 1249,509.7 1249,508.9 1249,508.4 1249.5,507.7 1249.5,507.2 1249.5,506.5 1250.2,505.7 1250.2,505.7 
		1250.7,505.2 1250.7,504.4 1251.5,504.4 1252.2,503.9 1252.2,503.9 1252.7,503.9 1253.5,503.2 1253.5,503.2 1254,503.2 
		1254.7,503.2 1255.2,502.5 1255.9,502.5 1255.9,502.5 1256.7,502.5 1257.2,502.5 1257.9,503.2 1258.4,503.2 1258.4,503.2 
		1259.2,503.2 1259.9,503.2 1259.9,503.2 1260.4,503.2 1261.2,503.9 1261.7,503.9 1261.7,504.4 1261.7,504.4 1261.7,504.4 
		1261.7,505.2 1261.7,505.7 1262.4,506.5 1262.4,507.2 1262.4,507.7 1262.4,508.9 1262.4,509.7 1262.4,509.7 1262.4,510.4 
		1261.7,510.4 1261.7,510.4 1261.2,510.4 1261.2,510.4 1261.2,510.4 1260.4,509.7 1260.4,508.9 1259.9,508.4 1259.9,507.7 
		1259.2,507.2 1258.4,507.2 1258.4,506.5 1257.9,506.5 1257.2,506.5 1257.2,505.7 1256.7,505.7 1255.9,505.7 1255.9,505.7 
		1255.2,505.7 1254.7,505.7 1254,505.7 1253.5,506.5 1253.5,506.5 1252.7,507.2 1252.7,507.2 1252.7,507.7 1252.2,508.4 
		1252.2,508.9 1252.2,508.9 1252.2,509.7 1252.7,510.4 1252.7,510.4 1253.5,510.9 1253.5,511.7 1253.5,511.7 1254,511.7 1254,512.2 
		1254.7,512.2 1255.2,512.9 1255.2,512.9 1255.9,513.4 1256.7,513.4 1257.2,514.2 1257.9,514.2 1258.4,514.9 1259.2,514.9 
		1259.2,515.4 1259.9,515.4 1260.4,516.2 1260.4,516.2 1261.2,516.7 1261.2,516.7 1261.7,517.4 1261.7,517.9 1262.4,517.9 
		1262.4,518.7 1262.4,519.4 1263.2,519.9 1263.2,520.6 1263.2,521.1 1263.2,521.9 1263.2,522.7 	"/>
	<path class="st0" d="M1276.6,491v0.7v0.5v0.7l-0.8,0.5l0,0l-0.5,0.7v0.7h-0.8h-0.7l0,0h-0.5l0,0l-0.7-0.7h-0.5l0,0v-0.7l-0.7-0.5
		v-0.7v-0.5l0,0V491v-0.7l0.7-0.5V489l0,0l0.5-0.5l0.7-0.8l0,0h0.5l0,0h0.7h0.8h0.5v0.8h0.8v0.5v0.8v0.5V491L1276.6,491z
		 M1279.9,528.9v0.7h-0.7l0,0l-0.5,0.8l-0.7-0.8l0,0h-0.7h-0.5l0,0h-0.8h-0.5h-0.8h-0.7l0,0h-0.5h-0.7h-0.5h-0.7l0,0l-0.7,0.8l0,0
		h-1.2l0,0v-0.8h-0.5v-0.7v-0.5h0.5l0.7-0.7l0,0l0.5-0.5l0,0l0.7-0.7l0,0v-0.5v-1.5l0.7-0.5l0,0v-9v-0.7l-0.7-0.8v-0.5v-0.7v-0.5
		l0,0v-0.7l-0.7-0.5v-0.7h-0.5l-0.7-0.7h-0.5v-0.5h-0.7v-0.7l0,0l0.7-0.5v-0.7h0.5h0.7v-0.8h0.5h0.7l0.7-0.5l0,0l0.5-0.8h0.7v-0.5
		h0.5v-0.7h0.7l0,0h0.8l0,0l0.5,0.7v0.5l0,0v0.8v0.5v0.8v1.2v0.7v0.5v0.7v0.7v0.5v0.7v0.5v0.7v0.5v0.8v0.7v0.5v0.7v0.5v0.7v1.2v0.7
		v0.5v0.7v0.5v0.7v0.8l0,0v1.2v0.5v0.7l0,0v0.7l0.8,0.5l0,0l0.5,0.7h0.7l0,0l0.7,0.5h0.5l0.7,0.7l0,0V528.9L1279.9,528.9z"/>
	<polygon class="st0" points="1309.5,528.9 1309.5,529.6 1308.8,529.6 1308.8,530.4 1308,530.4 1307.5,530.4 1306.8,529.6 
		1306.3,529.6 1305.5,529.6 1304.8,529.6 1304.3,529.6 1304.3,529.6 1303.5,529.6 1303,529.6 1302.3,529.6 1302.3,529.6 
		1301.8,529.6 1301.1,529.6 1301.1,529.6 1300.3,529.6 1299.8,529.6 1299,529.6 1299,529.6 1298.5,529.6 1298.5,529.6 1298.5,528.9 
		1298.5,528.9 1298.5,528.4 1299,528.4 1299,527.6 1299.8,527.6 1300.3,527.6 1300.3,527.1 1301.1,526.4 1301.1,526.4 1301.1,525.1 
		1301.1,524.4 1301.1,524.4 1301.1,515.4 1301.1,514.2 1301.1,513.4 1301.1,512.9 1301.1,512.2 1301.1,511.7 1301.1,510.9 
		1300.3,510.4 1300.3,510.4 1300.3,509.7 1299.8,508.9 1299.8,508.9 1299,508.4 1299,508.4 1298.5,508.4 1297.8,507.7 1297.8,507.7 
		1297.1,507.7 1296.6,507.7 1296.6,507.7 1295.8,507.7 1295.3,507.7 1294.6,507.7 1294.1,507.7 1294.1,507.7 1293.3,508.4 
		1292.6,508.4 1292.1,508.9 1292.1,508.9 1291.3,509.7 1290.8,509.7 1290.8,510.4 1290.8,510.9 1290.1,511.7 1290.1,511.7 
		1290.1,523.9 1290.1,524.4 1290.1,525.1 1290.8,525.9 1290.8,526.4 1291.3,526.4 1291.3,527.1 1292.1,527.1 1292.1,527.6 
		1292.6,527.6 1293.3,527.6 1294.1,527.6 1294.6,528.4 1294.6,528.4 1294.6,528.4 1294.6,529.6 1294.1,529.6 1294.1,529.6 
		1293.3,529.6 1292.6,529.6 1292.1,529.6 1292.1,529.6 1291.3,529.6 1290.8,529.6 1290.1,529.6 1290.1,529.6 1289.3,529.6 
		1288.8,529.6 1288.1,529.6 1287.6,529.6 1287.6,529.6 1286.8,530.4 1286.1,530.4 1285.6,530.4 1284.8,530.4 1284.4,530.4 
		1284.4,530.4 1284.4,530.4 1283.6,530.4 1283.6,529.6 1283.6,528.9 1283.6,528.9 1283.6,528.4 1284.4,528.4 1284.8,527.6 
		1285.6,527.6 1285.6,527.6 1285.6,527.1 1286.1,526.4 1286.1,525.9 1286.1,525.1 1286.1,524.4 1286.1,523.2 1286.1,513.4 
		1286.1,512.2 1286.1,511.7 1286.1,510.9 1286.1,510.4 1285.6,509.7 1285.6,509.7 1285.6,509.7 1285.6,509.7 1284.8,508.9 
		1284.4,508.9 1283.6,508.4 1283.6,508.4 1283.1,508.4 1283.1,507.7 1283.1,507.2 1283.6,507.2 1284.4,506.5 1284.4,506.5 
		1284.8,505.7 1285.6,505.7 1285.6,505.2 1286.1,505.2 1286.8,504.4 1286.8,503.9 1287.6,503.9 1288.1,503.2 1288.8,503.2 
		1288.8,502.5 1288.8,502.5 1289.3,503.2 1289.3,503.2 1289.3,503.9 1290.1,505.2 1290.1,505.2 1290.1,505.7 1290.1,506.5 
		1290.1,507.2 1290.8,507.2 1290.8,507.2 1290.8,507.2 1290.8,506.5 1291.3,506.5 1292.1,505.7 1292.6,505.2 1293.3,505.2 
		1293.3,504.4 1294.1,504.4 1294.6,503.9 1295.3,503.9 1295.3,503.9 1295.8,503.2 1296.6,503.2 1297.1,503.2 1297.1,503.2 
		1297.8,503.2 1298.5,503.2 1298.5,503.2 1299,503.2 1299.8,503.2 1299.8,503.2 1300.3,503.2 1301.1,503.2 1301.1,503.9 
		1301.8,503.9 1302.3,503.9 1302.3,504.4 1303,504.4 1303,505.2 1303.5,505.2 1303.5,505.7 1303.5,506.5 1304.3,507.2 1304.3,507.2 
		1304.3,507.7 1304.3,508.4 1304.8,508.9 1304.8,509.7 1304.8,510.4 1304.8,510.9 1304.8,511.7 1304.8,512.9 1304.8,512.9 
		1304.8,523.9 1304.8,524.4 1305.5,525.1 1305.5,525.9 1305.5,526.4 1306.3,527.1 1306.3,527.1 1306.8,527.1 1306.8,527.6 
		1307.5,527.6 1308,527.6 1308.8,528.4 1309.5,528.4 1309.5,528.9 1309.5,528.9 	"/>
	<path class="st0" d="M1333.2,507.2v1.2v0.5v0.7h-0.5l0,0h-0.7l0,0h-0.7h-0.5h-0.7l0,0l0,0v0.7v0.5l0,0v0.7v1.2l0,0v0.5v0.8v0.7v0.5
		l-0.5,0.7v0.5l0,0v0.7l-0.7,0.5v0.7h-0.5v0.7l-0.7,0.5l0,0l-0.8,0.7l0,0l-0.5,0.5h-0.8v0.7h-0.5l-0.8,0.8h-0.7l-0.5,0.5l0,0h-0.7
		l-1.2,0.7h-0.7l0,0l-0.5,0.5h-0.7v0.7l0,0h-0.5l0,0v0.7h0.5v0.5h0.7h0.5l0.7,0.7h0.7l0,0l3.7,0.5h0.8h0.5l0.8,0.7h0.7h0.5h0.7v0.5
		h0.5l0,0h0.7l0.5,0.7v0.8h0.7v0.5l0.7,0.8v0.5v0.7v0.7l0.5,0.5v0.7l0,0v0.5v0.7h-0.5v0.5v0.7v0.8l-0.7,0.5v0.8l0,0l-0.7,0.5v0.8
		l-0.5,0.7l-0.7,0.5l0,0l-0.5,0.7l-0.7,0.5l0,0h-0.5v0.7h-0.7l-0.8,0.5l0,0l-0.5,0.7h-0.8h-0.5v0.7h-0.8h-0.7h-0.5v0.5h-0.7h-0.5
		h-0.7h-0.7l0,0h-0.5h-0.7l0,0h-0.5h-0.8h-0.5h-0.8l0,0l-0.7-0.5h-0.5h-0.7v-0.7h-0.5l-0.7-0.7l0,0l0,0l-0.5-0.5v-0.7l-0.7-0.5v-0.7
		l0,0l-0.7-0.5v-0.7v-0.8v-0.5v-0.8v-0.5l0.7-0.8l0,0v-0.7v-0.5l0.7-0.7v-0.5h0.5v-0.7l0.7-0.5v-0.7l0.5-0.7h0.7l0.5-0.5v-0.8h0.7
		l-0.7-0.5h-0.5v-0.8l-0.7-0.7l0,0l-0.5-0.5v-0.7v-0.5v-0.7l0,0l0.5-0.5v-0.7l0,0l0.7-0.7h0.5v-0.5h0.7l0.8-0.7l0.5-0.5h0.8h-0.8
		l-0.5-0.8h-0.8h-0.7v-0.7h-0.5v-0.5l-0.7-0.7h-0.5v-0.5l0,0l-0.7-0.7v-0.7l-0.5-0.5v-0.7l0,0v-0.5v-0.7v-0.5l-0.7-0.7v-0.8v-0.5
		l0.7-0.7v-0.5v-0.7v-0.5v-0.7l0.5-0.7v-0.5v-0.7l0.7-0.5v-0.7h0.5v-0.8h0.7v-0.5l0.5-0.8h0.7v-0.5h0.8h0.5l0.8-0.7l0,0h0.5h0.7h0.5
		h0.7l0,0h0.7l0,0h0.5h0.7h0.5v0.7h0.7h0.8l0.5,0.5l0,0h0.8v0.8h0.5h0.8h0.7v0.5h0.5h0.7h0.5l0,0h2.7h0.5l0,0l0,0l0.8,0.8v0.7
		H1333.2L1333.2,507.2z M1326.2,513.4v-0.5v-0.7v-0.5l-0.8-0.7v-0.5v-0.7v-0.7l-0.5-0.5v-0.7l0,0l-0.8-0.5l0,0l-0.7-0.7l0,0h-0.5
		l-0.7-0.8l0,0h-0.5h-0.7l0,0h-0.7h-0.5l0,0l-0.7,0.8l0,0h-0.5v0.7l-0.8,0.5l0,0l-0.5,0.7v0.5v0.7v0.7v0.5l-0.8,0.7v0.5v0.7l0,0v1.3
		v0.7v0.5l0.8,0.7v0.5v0.7l0,0l0.5,0.5v0.7h0.8v0.7h0.5v0.5h0.7h0.5l0,0h0.7h0.7l0,0h0.5h0.7h0.5v-0.5l0.7-0.7h0.8l0,0v-0.7l0.5-0.5
		v-0.7v-0.5l0.8-0.7v-0.5v-0.7V513.4L1326.2,513.4z M1329.9,536.6v-0.5l0,0v-0.7l-0.5-0.5l0,0l-0.7-0.7h-0.5l0,0l-0.7-0.5h-0.8h-0.5
		l-0.8-0.7l-5.2-0.7h-0.5l0,0l-0.7-0.5h-0.5l-0.8,0.5v0.7h-0.5v0.7l-0.8,0.5v0.7v0.5l-0.7,0.7v0.5v0.7v0.8v0.5l0,0v0.8v0.5v0.8v0.7
		h0.7v0.5v0.7h0.8h0.5v0.5h0.8h0.5h0.7v0.7h0.5h0.7l0.7-0.7h0.5h0.7l0,0h0.5h0.7l0.8-0.5l0,0h0.5l0.8-0.7l0,0l0.5-0.5h0.8l0.7-0.7
		v-0.8h0.5l0.7-0.5v-0.8v-0.5h0.5v-0.8V536.6L1329.9,536.6L1329.9,536.6z"/>
	<polygon class="st0" points="780,505.7 779.5,506.5 779.5,506.5 778.8,507.2 778.3,507.2 778.3,507.7 777.5,507.7 777.5,508.4 
		776.8,508.9 776.8,509.7 776.3,510.4 776.3,510.4 776.3,510.9 776.3,511.7 775.5,511.7 775.5,512.2 775.5,512.9 775.5,513.4 
		775,514.2 775,514.9 775,515.4 774.3,516.2 774.3,516.7 773.8,517.4 773.8,517.9 773.8,518.7 773.1,519.4 773.1,519.9 772.3,521.1 
		772.3,521.9 771.8,522.7 771.8,523.2 771.1,523.9 771.1,524.4 770.5,525.1 770.5,525.9 769.8,526.4 769.8,527.1 769.8,527.6 
		769.1,528.4 769.1,528.9 769.1,529.6 768.6,529.6 768.6,530.4 768.6,530.9 767.8,530.9 767.8,531.6 767.8,531.6 767.3,530.9 
		767.3,530.9 767.3,530.4 766.6,529.6 766.6,529.6 765.8,528.9 765.8,528.4 765.8,527.6 765.3,527.1 765.3,526.4 764.6,525.9 
		764.6,525.1 764.1,524.4 764.1,523.9 764.1,523.2 763.3,523.2 763.3,522.7 762.8,521.9 762.8,521.1 762.8,520.6 762.1,519.9 
		762.1,519.4 761.3,518.7 761.3,517.9 761.3,517.4 760.8,516.7 760.8,516.2 760.1,515.4 760.1,515.4 760.1,514.9 759.6,514.2 
		759.6,513.4 759.6,512.9 758.9,512.2 758.9,511.7 758.9,510.9 758.3,510.4 758.3,510.4 758.3,508.9 757.6,508.4 757.6,508.4 
		756.9,507.7 756.9,507.7 756.9,507.7 756.4,507.2 755.6,507.2 755.1,506.5 755.1,506.5 755.6,505.7 755.6,505.2 756.4,505.2 
		756.4,505.2 756.4,505.2 756.9,505.2 757.6,505.2 758.3,505.2 758.3,505.2 758.9,505.2 759.6,505.2 760.1,505.2 760.8,505.2 
		761.3,505.2 762.1,505.2 762.8,505.2 763.3,505.2 764.1,505.2 764.1,505.2 764.6,504.4 764.6,504.4 764.6,504.4 765.3,504.4 
		765.3,505.2 765.8,505.2 765.3,505.7 765.3,506.5 764.6,507.2 764.6,507.2 764.1,507.2 763.3,507.7 762.8,507.7 762.8,508.4 
		762.8,508.4 762.8,508.9 762.8,509.7 762.8,510.4 762.8,510.4 762.8,510.9 763.3,510.9 763.3,511.7 763.3,512.2 764.1,512.9 
		764.1,513.4 764.1,514.2 764.6,514.9 764.6,515.4 764.6,516.2 765.3,516.7 765.3,517.4 765.8,517.9 765.8,518.7 766.6,519.4 
		766.6,520.6 767.3,521.1 767.3,521.9 767.8,522.7 767.8,523.2 768.6,523.2 768.6,523.9 768.6,523.9 768.6,523.9 768.6,523.9 
		768.6,523.2 768.6,523.2 769.1,522.7 769.1,521.9 769.8,521.1 769.8,520.6 770.5,519.4 770.5,518.7 771.1,517.9 771.1,517.4 
		771.8,516.2 771.8,515.4 771.8,514.9 772.3,514.2 772.3,513.4 772.3,512.9 773.1,512.2 773.1,511.7 773.1,511.7 773.1,510.9 
		773.8,510.4 773.8,509.7 773.8,508.9 773.8,508.9 773.8,508.4 773.8,507.7 773.1,507.7 772.3,507.2 772.3,507.2 771.8,506.5 
		771.1,506.5 771.1,505.7 771.1,505.7 771.1,505.2 771.8,504.4 771.8,504.4 772.3,505.2 773.1,505.2 773.1,505.2 773.8,505.2 
		774.3,505.2 775,505.2 775.5,505.2 776.3,505.2 776.8,505.2 777.5,505.2 778.3,505.2 778.3,505.2 778.8,505.2 778.8,505.2 
		779.5,505.2 779.5,505.7 780,505.7 	"/>
	<path class="st0" d="M805.2,517.4v0.5l-0.5,0.7v0.7v0.5v0.7v0.5v0.7l-0.8,0.8v0.5v0.7h-0.7v0.5l-0.5,0.7v0.7l-0.7,0.5v0.7h-0.5v0.5
		h-0.7v0.7l-0.7,0.5h-0.5v0.7h-0.7h-0.5v0.8h-0.8H797l-0.8,0.5l0,0h-0.7H795h-0.7h-0.5l0,0H793h-0.5h-0.7l0,0H791h-0.5l-0.7-0.5
		h-0.5l0,0l-0.8-0.8h-0.7v-0.7h-0.5v-0.5h-0.7l-0.5-0.7l0,0v-0.5l-0.7-0.7l0,0l-0.7-0.5v-0.7l-0.5-0.7v-0.5v-0.7v-0.5l-0.7-0.8v-0.7
		v-0.5v-0.7v-0.5v-0.7v-0.7v-0.5v-0.7v-0.5v-0.7v-0.5l0.7-0.7v-0.8v-0.5l0,0l0.5-0.7v-0.5l0.7-0.7v-0.5l0.7-0.7v-0.7h0.5v-0.5l0,0
		l0.7-0.7l0,0l0.5-0.5l0.7-0.7l0,0l0.8-0.8h0.5l0,0l0.7-0.5h0.5h0.7v-0.8h0.7h0.5h0.7h0.5l0,0l0,0h0.7h0.5h0.7h0.8h0.5l0.8,0.8l0,0
		h0.5h0.7v0.5h0.5l0.7,0.8l0,0l0.7,0.7h0.5v0.5l0,0l0.7,0.7v0.5l0.5,0.7l0,0l0.7,0.7v0.5v0.7l0.8,0.5v0.7v0.5v0.8v0.7v0.5v0.7
		l0.5,0.5V517.4L805.2,517.4z M800.7,519.4v-0.7v-0.7l-0.7-1.2v-0.5v-0.7v-0.5v-0.7v-0.8l-0.5-0.5v-0.7l0,0l-0.7-0.5v-0.7l0,0
		l-0.5-0.5v-0.7l-0.8-0.7H797v-0.5h-0.8l-0.7-0.7l0,0H795h-0.7h-0.5l0,0H793l0,0h-0.5h-0.7l-0.7,0.7l0,0l-0.5,0.5l0,0l-0.7,0.7l0,0
		l-0.5,0.7v0.5l-0.8,0.7v0.5v0.7l-0.7,0.5v0.8v0.7v0.5v0.7v0.5v0.7v1.2v0.7v0.5v0.7l0.7,0.5v0.7v0.8v0.5h0.8v0.7v0.5l0.5,0.7l0,0
		l0.7,0.7l0,0l0.5,0.5v0.7h0.7l0.7,0.5l0,0h0.5h0.7l0.5,0.7l0,0h0.7l0.5-0.7h0.7h0.8l0,0l0.5-0.5h0.8v-0.7l0.5-0.5l0,0l0.7-0.7v-0.7
		v-0.5l0.5-0.7v-0.5v-0.8v-0.7l0.7-0.5v-0.7V519.4L800.7,519.4L800.7,519.4z"/>
	<polygon class="st0" points="820.6,529.6 820.6,530.4 820.6,530.9 820.1,530.9 820.1,530.9 819.4,530.9 818.7,530.9 818.7,530.9 
		818.1,530.9 817.4,530.9 816.9,530.9 816.9,530.9 816.2,530.9 815.4,530.9 814.9,530.9 814.2,530.9 813.7,530.9 813.7,530.9 
		812.9,530.9 812.4,530.9 811.7,530.9 810.9,530.9 810.4,530.9 809.7,530.9 809.7,530.9 809.7,530.4 809.7,529.6 809.7,529.6 
		809.7,528.9 810.4,528.9 810.9,528.4 811.7,528.4 811.7,527.6 811.7,527.6 812.4,527.1 812.4,526.4 812.4,525.9 812.4,525.1 
		812.4,495 812.4,494.2 812.4,493 812.4,492.2 812.4,491.7 811.7,491.7 811.7,491 811.7,491 811.7,490.3 810.9,489.8 810.9,489.8 
		810.4,489 809.7,489 809.7,489 809.2,488.5 809.2,487.8 809.2,487.8 809.2,487 809.2,487 809.7,486.5 809.7,486.5 810.4,485.8 
		810.9,485.8 811.7,485.8 811.7,485.3 812.4,485.3 812.9,484.5 812.9,484.5 813.7,484 814.2,483.3 814.9,483.3 814.9,482.5 
		815.4,482.5 815.4,482.5 816.2,482.5 816.2,483.3 816.2,484 816.2,484.5 816.2,484.5 816.2,485.3 816.2,485.8 816.2,486.5 
		816.2,487.8 816.2,487.8 816.2,488.5 816.2,489 816.2,489.8 816.2,490.3 816.2,491.7 816.2,492.2 816.2,493 816.2,493.5 
		816.2,494.2 816.2,494.2 816.2,524.4 816.2,525.1 816.9,525.9 816.9,526.4 816.9,527.1 817.4,527.6 817.4,527.6 818.1,527.6 
		818.1,528.4 818.7,528.4 819.4,528.4 820.1,528.4 820.1,528.9 820.6,528.9 820.6,529.6 820.6,529.6 	"/>
	<polygon class="st0" points="847,527.6 847,528.4 847,528.4 846.6,528.9 846.6,528.9 845.8,529.6 843.3,530.9 843.3,530.9 
		843.3,530.9 842.6,530.9 842.6,530.9 842.1,530.4 841.3,529.6 841.3,528.9 840.6,528.4 840.1,528.4 840.1,528.4 840.1,528.4 
		839.3,528.4 839.3,528.4 838.8,528.9 838.1,528.9 837.3,529.6 836.8,529.6 836.1,530.4 836.1,530.4 835.6,530.4 834.8,530.9 
		834.1,530.9 834.1,530.9 833.6,530.9 833.6,530.9 832.9,530.9 832.4,530.9 831.6,530.9 831.1,530.9 830.3,530.4 829.6,530.4 
		829.6,530.4 829.1,529.6 828.4,529.6 828.4,529.6 828.4,528.9 827.9,528.9 827.9,528.4 827.9,528.4 827.1,527.6 827.1,527.1 
		827.1,526.4 827.1,526.4 826.4,525.9 826.4,524.4 826.4,523.9 826.4,523.2 826.4,522.7 826.4,521.9 826.4,514.9 826.4,514.2 
		826.4,512.9 826.4,512.2 826.4,511.7 825.9,511.7 825.9,510.9 825.9,510.4 825.1,509.7 825.1,509.7 824.6,508.9 823.9,508.9 
		823.9,508.9 823.4,508.4 823.4,507.7 823.4,507.7 823.4,507.2 823.9,506.5 824.6,506.5 825.1,506.5 825.9,505.7 825.9,505.7 
		826.4,505.2 827.1,505.2 827.1,505.2 827.9,504.4 828.4,504.4 829.1,503.9 829.1,503.9 829.6,503.9 830.3,503.9 830.3,504.4 
		830.3,505.2 830.3,505.7 830.3,508.9 830.3,508.9 830.3,509.7 830.3,510.4 830.3,510.9 830.3,512.2 830.3,512.9 830.3,513.4 
		830.3,514.2 830.3,514.9 830.3,515.4 830.3,516.2 830.3,519.9 830.3,520.6 830.3,521.9 830.3,522.7 830.3,523.2 831.1,523.9 
		831.1,524.4 831.1,524.4 831.6,525.1 831.6,525.9 831.6,525.9 832.4,526.4 832.9,526.4 832.9,526.4 833.6,526.4 834.1,527.1 
		834.8,527.1 835.6,527.1 835.6,527.1 836.1,527.1 836.8,527.1 836.8,526.4 837.3,526.4 838.1,526.4 838.1,525.9 838.8,525.9 
		838.8,525.1 839.3,525.1 839.3,524.4 839.3,523.9 840.1,523.2 840.1,522.7 840.1,521.9 840.1,521.1 840.1,520.6 840.1,514.9 
		840.1,514.2 840.1,512.9 840.1,512.2 840.1,511.7 840.1,510.9 839.3,510.9 839.3,510.9 839.3,510.4 838.8,510.4 838.8,509.7 
		838.1,509.7 837.3,508.9 837.3,508.9 836.8,508.4 836.8,508.4 836.8,507.7 836.8,507.7 837.3,507.2 837.3,507.2 838.1,506.5 
		838.8,506.5 839.3,505.7 840.1,505.7 840.6,505.2 841.3,505.2 842.1,504.4 842.1,504.4 842.6,504.4 842.6,504.4 843.3,504.4 
		843.3,504.4 843.3,504.4 843.8,504.4 843.8,505.2 843.8,505.7 843.8,505.7 843.8,506.5 843.8,507.2 843.8,508.4 843.8,508.9 
		843.8,509.7 843.8,510.9 843.8,511.7 843.8,512.2 843.8,512.9 843.8,513.4 843.8,514.2 843.8,514.9 843.8,515.4 843.8,516.2 
		843.8,524.4 843.8,525.1 843.8,525.1 844.6,525.9 844.6,526.4 845.1,526.4 845.1,527.1 845.8,527.1 846.6,527.1 847,527.1 
		847,527.6 847,527.6 	"/>
	<polygon class="st0" points="892.2,529.6 892.2,530.4 892.2,530.9 891.4,530.9 890.9,530.9 890.1,530.9 889.7,530.9 889.7,530.9 
		888.9,530.9 888.4,530.9 887.7,530.9 886.9,530.9 886.4,530.9 886.4,530.9 885.7,530.9 885.2,530.9 884.4,530.9 884.4,530.9 
		883.7,530.9 883.2,530.9 882.4,530.9 882.4,530.9 881.9,530.9 881.2,530.9 881.2,530.4 881.2,530.4 881.2,529.6 881.2,528.9 
		881.2,528.9 881.9,528.9 882.4,528.4 882.4,528.4 883.2,528.4 883.2,527.6 883.7,527.6 883.7,527.1 883.7,526.4 883.7,525.9 
		883.7,525.1 883.7,516.2 883.7,515.4 883.7,514.2 883.7,513.4 883.7,512.9 883.7,512.2 883.2,511.7 883.2,511.7 883.2,510.9 
		882.4,510.4 882.4,509.7 882.4,509.7 881.9,508.9 881.2,508.9 881.2,508.9 880.7,508.4 880.7,508.4 879.9,508.4 879.2,508.4 
		878.7,508.4 878,508.4 878,508.4 877.4,508.9 876.7,508.9 876,508.9 876,508.9 875.5,509.7 874.7,509.7 874.2,510.4 873.5,510.4 
		873.5,510.9 873,511.7 873,511.7 873,511.7 873,525.1 873,525.9 873,527.1 873,527.1 873.5,527.6 873.5,527.6 873.5,528.4 
		874.2,528.4 874.7,528.4 875.5,528.9 876,528.9 876,528.9 876.7,529.6 876.7,529.6 876.7,529.6 876.7,530.4 876.7,530.9 876,530.9 
		876,530.9 875.5,530.9 874.7,530.9 874.7,530.9 874.2,530.9 873.5,530.9 873.5,530.9 873,530.9 872.2,530.9 871.5,530.9 871,530.9 
		871,530.9 870.2,530.9 869.7,530.9 869,530.9 868.2,530.9 867.7,530.9 867.7,530.9 867,530.9 866.5,530.9 866.5,530.9 866.5,530.4 
		866.5,530.4 866.5,529.6 866.5,528.9 867,528.9 867.7,528.9 867.7,528.9 868.2,528.4 868.2,528.4 869,527.6 869,527.1 869,526.4 
		869,525.9 869,525.1 869,516.2 869,515.4 869,514.2 869,513.4 869,512.9 869,512.2 868.2,511.7 868.2,510.9 868.2,510.9 
		867.7,510.4 867.7,510.4 867.7,509.7 867,508.9 867,508.9 866.5,508.4 865.8,508.4 865,508.4 865,508.4 864.5,508.4 863.7,508.4 
		863.2,508.4 863.2,508.4 862.5,508.9 862,508.9 861.3,508.9 861.3,509.7 860.5,509.7 860.5,509.7 860,510.4 859.3,510.9 
		859.3,510.9 858.8,511.7 858.8,512.2 858.8,512.2 858.8,512.9 858.8,525.1 858.8,525.9 858.8,526.4 858.8,527.1 859.3,527.6 
		859.3,527.6 859.3,528.4 860,528.4 860.5,528.4 861.3,528.4 862,528.9 862,528.9 862.5,528.9 863.2,528.9 863.2,529.6 863.2,530.4 
		862.5,530.9 862,530.9 861.3,530.9 860.5,530.9 860,530.9 859.3,530.9 858.8,530.9 858,530.9 858,530.9 857.5,530.9 856.8,530.9 
		856,530.9 855.5,530.9 855.5,530.9 854.8,530.9 854.3,530.9 854.3,530.9 853.5,530.9 853.5,530.9 852.8,530.9 852.3,530.9 
		852.3,530.9 851.5,530.9 851.5,530.9 851.5,530.4 851.5,530.4 851.5,529.6 852.3,529.6 852.8,528.9 853.5,528.9 853.5,528.9 
		854.3,528.4 854.3,527.6 854.3,527.6 854.3,526.4 854.8,525.9 854.8,525.1 854.8,514.9 854.8,513.4 854.3,512.9 854.3,512.2 
		854.3,511.7 854.3,510.9 853.5,510.9 853.5,510.4 852.8,510.4 852.8,510.4 852.3,509.7 851.5,509.7 851.5,509.7 851.5,509.7 
		851,508.9 851,508.4 851,508.4 851.5,508.4 851.5,507.7 852.3,507.2 852.8,507.2 853.5,506.5 853.5,505.7 854.3,505.7 854.8,505.2 
		855.5,504.4 856,504.4 856.8,503.9 856.8,503.9 856.8,503.9 857.5,503.9 857.5,503.9 857.5,504.4 858,505.2 858,505.7 858,507.2 
		858.8,507.7 858.8,507.7 858.8,507.7 858.8,507.7 859.3,507.7 860,507.2 860,507.2 860.5,506.5 861.3,506.5 861.3,505.7 862,505.7 
		862.5,505.2 862.5,505.2 863.2,505.2 863.2,504.4 863.7,504.4 864.5,504.4 865,504.4 865,503.9 865.8,503.9 866.5,503.9 867,503.9 
		867,503.9 867.7,503.9 868.2,503.9 869,503.9 869,504.4 869.7,504.4 870.2,505.2 870.2,505.2 871,505.2 871,505.7 871.5,506.5 
		871.5,506.5 872.2,507.7 872.2,507.7 872.2,507.7 873.5,507.2 873.5,507.2 874.2,506.5 874.7,506.5 875.5,505.7 875.5,505.7 
		876,505.2 876.7,505.2 876.7,505.2 877.4,504.4 878,504.4 878.7,504.4 878.7,504.4 879.2,503.9 879.9,503.9 880.7,503.9 
		880.7,503.9 881.2,503.9 881.2,503.9 881.9,503.9 882.4,503.9 883.2,504.4 883.2,504.4 883.7,504.4 884.4,504.4 884.4,505.2 
		885.2,505.2 885.2,505.7 885.7,505.7 885.7,506.5 886.4,506.5 886.4,507.2 886.9,507.7 886.9,507.7 886.9,508.4 886.9,508.9 
		887.7,509.7 887.7,510.4 887.7,510.9 887.7,511.7 887.7,512.2 887.7,512.9 887.7,513.4 887.7,514.2 887.7,525.1 887.7,525.9 
		888.4,526.4 888.4,527.1 888.4,527.6 888.4,527.6 888.9,527.6 888.9,528.4 889.7,528.4 890.1,528.4 890.9,528.9 891.4,528.9 
		892.2,529.6 892.2,529.6 892.2,529.6 	"/>
	<path class="st0" d="M913.3,525.1v0.7l0,0v0.5h-0.5v0.7l-0.7,0.5l-0.5,0.7h-0.7v0.5h-0.7l-0.5,0.7h-0.7l0,0l-0.5,0.8h-0.7h-0.5v0.5
		h-0.7h-0.8h-0.5l0,0h-0.7h-0.5l0,0h-0.7h-0.7l0,0h-0.5h-0.7l-0.5-0.5l0,0h-0.7l-0.8-0.8l0,0l-0.5-0.7l-0.8-0.5l0,0l-0.5-0.7l0,0
		v-0.5h-0.8v-0.7l-0.5-0.5v-0.7l-0.7-0.7v-0.5v-0.7l0,0l-0.7-0.5v-0.8v-1.2v-0.7v-0.5v-0.7v-0.7v-0.5v-0.7v-0.5v-0.7v-0.5v-0.7
		l0.7-0.8v-0.5v-0.7v-0.5l0.7-0.7v-0.5v-0.7h0.5v-0.7l0.8-0.5v-0.7h0.5v-0.5l0.8-0.7l0,0l0.5-0.8h0.8v-0.5h0.7l0.5-0.8l0,0h0.7h0.5
		l0.7-0.5l0,0h0.7h0.5h0.7l0,0h0.5h0.8l0.7,0.5l0,0h0.5l0.7,0.8h0.5v0.5h0.7l0.5,0.8v0.7l0.7,0.5l0,0l0.7,0.7v0.5l0.5,0.7v0.7l0,0
		v0.5h0.7l0,0l0.5,0.7v0.5l0,0v0.7v0.5h-0.5v0.8h-0.7l-0.5,0.7h-0.7l-11.7,4.5v0.5v0.7l0.8,1.2v0.8v0.5h0.7v0.7v0.5l0.5,0.7l0,0
		l0.7,0.7v0.5h0.5l0,0l0.7,0.7h0.7l0,0h0.5h0.7l0.5,0.5v-0.5h0.8h0.7l0,0h0.5h0.7l0.5-0.7l0,0h0.7l0.5-0.5h0.7v-0.7h0.7l0.5-0.7h0.7
		v-0.5h0.5v0.5V525.1L913.3,525.1L913.3,525.1z M907.6,511.7v-0.7v-0.5l-0.5-0.7v-0.7l-0.7-0.5l0,0v-0.7h-0.8l-0.5-0.5h-0.7l0,0
		h-0.5l0,0h-0.7h-0.7l0,0h-0.5v0.5h-0.7v0.7h-0.5v0.5h-0.7v0.7v0.7v0.5l-0.8,0.7v0.5v0.7v0.5v0.8v0.7v1.2v0.5l6.5-2.5l0.8-0.8h0.7
		v-0.5l0.5-0.7V511.7L907.6,511.7L907.6,511.7z"/>
	<polygon class="st0" points="972.6,588.9 972.6,589.4 972.6,590.2 972.6,590.2 972.6,590.7 972.1,591.4 972.1,592.2 972.1,592.2 
		971.4,592.7 971.4,593.4 971.4,593.4 970.6,593.9 970.6,593.9 970.1,593.9 969.4,594.7 969.4,594.7 968.9,594.7 968.9,594.7 
		968.2,595.4 967.4,595.4 967.4,595.4 966.9,595.4 966.2,595.4 966.2,595.4 965.7,595.4 964.9,595.4 964.9,595.4 964.2,595.4 
		963.7,595.4 963.7,594.7 962.9,594.7 962.4,594.7 962.4,594.7 961.7,594.7 961.2,593.9 961.2,593.9 960.4,593.9 960.4,593.9 
		960.4,593.4 960.4,593.4 960.4,592.7 960.4,592.2 960.4,591.4 960.4,590.7 960.4,590.2 960.4,588.9 960.4,588.9 960.4,588.2 
		961.2,588.2 961.2,588.2 961.7,588.9 961.7,588.9 961.7,589.4 962.4,590.2 962.4,590.2 962.4,590.7 962.9,591.4 962.9,591.4 
		963.7,591.4 963.7,592.2 964.2,592.2 964.9,592.2 964.9,592.7 965.7,592.7 965.7,592.7 966.2,592.7 966.9,592.7 967.4,592.7 
		967.4,592.7 968.2,592.7 968.9,592.2 968.9,592.2 969.4,592.2 969.4,591.4 969.4,591.4 969.4,590.7 969.4,590.2 969.4,590.2 
		969.4,589.4 969.4,588.9 969.4,588.2 968.9,588.2 968.9,588.2 968.9,587.7 968.9,587.7 968.2,586.9 968.2,586.9 967.4,586.9 
		966.9,586.2 966.2,586.2 966.2,585.7 965.7,585.7 964.9,584.9 964.9,584.9 964.2,584.4 963.7,584.4 963.7,583.7 962.9,583.7 
		962.9,583.7 962.4,583.2 962.4,583.2 962.4,582.5 962.4,582.5 961.7,582.5 961.7,581.7 961.2,581.2 961.2,581.2 961.2,580.4 
		961.2,580 961.2,579.2 961.2,578.5 961.2,578 961.2,577.2 961.2,577.2 961.2,576.7 961.7,576 961.7,575.2 961.7,575.2 962.4,574.7 
		962.4,574 962.9,574 962.9,574 963.7,573.5 963.7,573.5 964.2,572.7 964.2,572.7 964.9,572.7 964.9,572.7 965.7,572.7 966.2,572.7 
		966.9,572.2 966.9,572.2 967.4,572.2 968.2,572.7 968.2,572.7 968.9,572.7 969.4,572.7 969.4,572.7 970.1,572.7 970.1,572.7 
		970.6,572.7 971.4,573.5 971.4,573.5 971.4,573.5 972.1,573.5 972.1,574 972.1,574.7 972.1,575.2 972.1,575.2 972.1,576 
		972.1,576.7 972.1,577.2 972.6,578 972.6,578 972.1,578.5 972.1,578.5 972.1,578.5 971.4,578.5 970.6,578.5 970.6,578.5 970.6,578 
		970.1,577.2 970.1,577.2 969.4,576.7 969.4,576 969.4,576 968.9,575.2 968.2,575.2 968.2,575.2 967.4,575.2 967.4,574.7 
		966.9,574.7 966.9,574.7 966.2,574.7 965.7,574.7 964.9,575.2 964.9,575.2 964.2,575.2 964.2,576 964.2,576 963.7,576.7 
		963.7,576.7 963.7,577.2 963.7,578 963.7,578.5 964.2,579.2 964.2,579.2 964.2,580 964.9,580 964.9,580 965.7,580 965.7,580.4 
		966.2,580.4 966.2,581.2 966.9,581.2 967.4,581.7 968.2,581.7 968.2,581.7 968.9,582.5 969.4,582.5 969.4,583.2 970.1,583.2 
		970.6,583.7 970.6,583.7 971.4,583.7 971.4,584.4 971.4,584.4 972.1,584.9 972.1,584.9 972.1,585.7 972.6,586.2 972.6,586.9 
		972.6,587.7 972.6,587.7 972.6,588.2 972.6,588.9 	"/>
	<path class="st0" d="M984.3,562.5v0.5v0.7l0,0l-0.7,0.8v0.5h-0.8v0.7h-0.5l0,0h-0.8l0,0h-0.5h-0.8V565l0,0l-0.7-0.5l0,0v-0.8V563
		l0,0v-0.5v-0.7l0,0l0.7-0.5v-0.7h0.8v-0.7h0.5l0,0h0.8l0,0h0.5h0.8v0.7l0,0l0.7,0.7l0,0v0.5V562.5L984.3,562.5z M986.8,593.9
		l-0.7,0.7l0,0v0.7h-0.5v-0.7h-0.7l0,0h-0.5h-0.7l0,0h-0.8h-0.5l0,0h-0.8h-0.5l0,0h-0.8h-0.7v0.7h-0.5l0,0h-0.7h-0.5l0,0v-0.7v-0.7
		l0,0v-0.5h0.5v-0.7h0.7l0,0l0.5-0.5l0,0v-0.7v-0.8v-0.5l0,0v-7.7v-0.8v-0.5v-0.8V580l0,0v-0.8l0,0l-0.5-0.7l0,0l-0.7-0.5h-0.5l0,0
		l-0.7-0.7v-0.5l0,0V576l0,0l0.7-0.7l0,0h0.5h0.7v-0.5h0.5l0,0l0.7-0.7h0.8v-0.5l0,0l0.5-0.8h0.8l0,0l0,0h0.5l0,0v0.8l0.8,0.5l0,0
		v0.7v0.5v0.7l0,0v0.7v0.5l-0.8,0.7v0.5v0.7v0.8v0.5l0,0v0.8v0.5v0.8v0.7v0.5v0.7v0.5v0.7v0.5l0,0v0.7v0.7v0.5v0.8l0,0v0.5l0.8,0.8
		v0.5v0.8l0,0v0.7h0.7v0.5h0.5h0.7l0,0l0.5,0.7l0,0L986.8,593.9L986.8,593.9L986.8,593.9z"/>
	<polygon class="st0" points="1011.3,593.9 1011.3,594.7 1011.3,594.7 1010.8,595.4 1010.8,595.4 1010,595.4 1009.3,595.4 
		1008.8,594.7 1008,594.7 1008,594.7 1007.5,594.7 1006.8,594.7 1006,594.7 1006,594.7 1005.5,594.7 1005.5,594.7 1004.8,594.7 
		1004.3,594.7 1004.3,594.7 1003.5,594.7 1003.5,594.7 1002.8,594.7 1002.3,594.7 1002.3,594.7 1002.3,594.7 1002.3,593.9 
		1002.3,593.9 1002.3,593.9 1002.3,593.4 1002.8,593.4 1003.5,593.4 1003.5,592.7 1004.3,592.7 1004.3,592.2 1004.3,592.2 
		1004.3,591.4 1004.3,590.7 1004.3,590.2 1004.3,583.2 1004.3,581.7 1004.3,581.7 1004.3,581.2 1004.3,580.4 1004.3,580 
		1004.3,579.2 1004.3,578.5 1003.5,578.5 1003.5,578 1003.5,578 1002.8,577.2 1002.8,577.2 1002.3,577.2 1002.3,576.7 1001.5,576.7 
		1001.5,576.7 1001,576.7 1001,576.7 1000.3,576.7 999.8,576.7 999.8,576.7 999.1,576.7 998.3,576.7 998.3,576.7 997.8,576.7 
		997.8,577.2 997,577.2 997,577.2 996.5,578 995.8,578.5 995.8,578.5 995.8,579.2 995.3,579.2 995.3,580 995.3,590.2 995.3,590.7 
		995.3,591.4 995.8,591.4 995.8,592.2 995.8,592.2 996.5,592.7 996.5,592.7 997,592.7 997.8,592.7 997.8,593.4 998.3,593.4 
		999.1,593.4 999.1,593.9 999.1,593.9 999.1,594.7 998.3,594.7 998.3,594.7 997.8,594.7 997.8,594.7 997,594.7 996.5,594.7 
		996.5,594.7 995.8,594.7 995.3,594.7 995.3,594.7 994.6,594.7 993.8,594.7 993.8,594.7 993.3,594.7 992.6,594.7 992.6,595.4 
		992.1,595.4 991.3,595.4 991.3,595.4 990.6,595.4 990.1,595.4 990.1,595.4 990.1,595.4 990.1,594.7 990.1,594.7 990.1,593.9 
		990.1,593.9 990.6,593.4 990.6,593.4 991.3,593.4 991.3,592.7 992.1,592.7 992.1,592.2 992.1,591.4 992.1,590.7 992.1,590.2 
		992.1,589.4 992.1,581.2 992.1,580.4 992.1,580 992.1,579.2 992.1,578.5 992.1,578.5 992.1,578.5 991.3,578 991.3,578 990.6,578 
		990.1,577.2 990.1,577.2 990.1,577.2 989.3,576.7 989.3,576.7 989.3,576 989.3,576 990.1,575.2 990.6,575.2 990.6,574.7 
		991.3,574.7 991.3,574.7 992.1,574 992.6,574 992.6,573.5 993.3,572.7 993.8,572.7 993.8,572.7 994.6,572.7 994.6,572.7 
		994.6,572.7 994.6,572.7 995.3,573.5 995.3,574 995.3,574 995.3,574.7 995.3,575.2 995.3,576 995.8,576 995.8,576 995.8,576 
		995.8,575.2 996.5,575.2 997,574.7 997.8,574.7 997.8,574 998.3,574 998.3,574 999.1,573.5 999.1,573.5 999.8,573.5 1000.3,572.7 
		1000.3,572.7 1001,572.7 1001.5,572.7 1001.5,572.7 1002.3,572.7 1002.3,572.7 1002.8,572.7 1002.8,572.7 1003.5,572.7 
		1003.5,572.7 1004.3,572.7 1004.8,573.5 1004.8,573.5 1005.5,573.5 1005.5,574 1005.5,574 1006,574 1006,574.7 1006.8,574.7 
		1006.8,575.2 1006.8,576 1006.8,576 1007.5,576.7 1007.5,577.2 1007.5,578 1007.5,578 1007.5,578.5 1007.5,579.2 1007.5,580 
		1007.5,580.4 1007.5,581.2 1008,590.2 1008,590.7 1008,591.4 1008,591.4 1008,592.2 1008.8,592.7 1008.8,592.7 1008.8,592.7 
		1009.3,592.7 1010,593.4 1010.8,593.4 1010.8,593.4 1011.3,593.9 1011.3,593.9 1011.3,593.9 	"/>
	<path class="st0" d="M1031.2,576v0.7v0.5v0.7h-0.5v0.5l0,0h-0.7l-0.7-0.5l0,0h-0.5l0,0v0.5l0,0v0.7l0,0v0.8v0.5v0.8l0,0v0.5
		l-0.7,0.8v0.7l0,0v0.5v0.7l0,0l-0.5,0.5v0.7l0,0l-0.7,0.5l0,0l-0.5,0.7l0,0l-0.7,0.7l0,0l-0.8,0.5h-0.5l0,0l-0.8,0.8h-0.5l0,0h-0.8
		l-0.7,0.5h-0.5v0.8h-0.7h-0.5v0.5h-0.7l0,0v0.8l0,0l0,0l0,0l0.7,0.7l0,0h0.5h0.7l0.5,0.5l0,0l3.2,0.7h0.8h0.7h0.5l0,0h0.7l0.5,0.5
		l0,0h0.7l0,0v0.7h0.5l0.7,0.7l0,0v0.5h0.7v0.7v0.5v0.8l0.5,0.7l0,0v0.5l0,0v0.7l-0.5,0.5v0.7l0,0v0.5v0.7h-0.7v0.7v0.5h-0.7v0.7
		l-0.5,0.5l0,0l-0.7,0.7h-0.5v0.5h-0.7l0,0l-0.5,0.8l0,0h-0.7v0.7h-0.8h-0.5v0.5h-0.8l0,0h-0.5h-0.8v0.7h-0.7h-0.5l0,0h-0.7h-0.5
		h-0.7l0,0h-0.7h-0.5h-0.7v-0.7h-0.5l0,0h-0.8l-0.5-0.5l0,0h-0.8l0,0v-0.7l-0.7-0.8l0,0v-0.5l-0.5-0.7l0,0v-0.5v-0.7v-0.5l0,0v-0.7
		v-0.7v-0.5l0,0v-0.7l0.5-0.5l0,0v-0.7l0.7-0.5l0,0l0.8-0.7v-0.8h0.5v-0.5h0.8l0.5-0.7l0,0l-0.5-0.5l0,0l-0.8-0.7l0,0v-0.7l-0.5-0.5
		l0,0v-0.7v-0.5l0,0v-0.7h0.5v-0.8h0.8v-0.5h0.5v-0.8h0.7l0.5-0.5l0,0l0,0h-0.5l-0.7-0.8l0,0l-0.5-0.5l0,0h-0.8v-0.7h-0.5v-0.7
		l-0.8-0.5l0,0v-0.7v-0.5h-0.7v-0.7v-0.5v-0.7l0,0v-0.8v-0.5v-0.8V580v-0.8l0,0v-0.7l0.7-0.5v-0.7l0,0v-0.5l0.8-0.7v-0.7h0.5l0,0
		v-0.5l0.8-0.7l0,0h0.5l0.7-0.5l0,0h0.5v-0.8h0.7h0.7l0,0h0.5h0.7l0,0h0.5l0,0h0.7l0,0h0.8h0.5v0.8h0.8h0.5v0.5h0.8l0,0h0.7v0.7h0.5
		h0.7l0,0h0.5h0.7l0,0h2h0.5l0,0l0,0v0.5V576L1031.2,576L1031.2,576z M1025.5,581.2v-0.8l-0.8-0.5l0,0v-0.8v-0.7V578v-0.7h-0.5v-0.5
		l0,0l-0.8-0.7l0,0v-0.7h-0.5l0,0h-0.8l-0.7-0.5l0,0h-0.5l0,0h-0.7v0.5h-0.5l0,0h-0.7v0.7h-0.7l0,0v0.7l-0.5,0.5l0,0v0.7v0.5v0.7
		v0.8v0.5l-0.7,0.8l0,0l0.7,0.5v0.8v0.7l0,0v0.5v0.7v0.5h0.5v0.7l0,0l0.7,0.5l0,0h0.7v0.7h0.5h0.7l0,0h0.5l0,0h0.7h0.8v-0.7h0.5
		v-0.5h0.8l0,0v-0.7l0.5-0.5l0,0v-0.7v-0.5v-0.7l0.8-0.8V581.2L1025.5,581.2z M1028.7,600.4L1028.7,600.4v-0.5h-0.7v-0.7l0,0
		l-0.5-0.5l0,0h-0.7l-0.5-0.7l0,0h-0.7h-0.8l-4.5-1.3l0,0h-0.5h-0.7l0,0h-0.7v0.5l-0.5,0.8l0,0l-0.7,0.7v0.5v0.7l0,0l-0.5,0.5v0.7
		v0.5v0.7l0,0v0.7l0,0v0.5l0.5,0.7l0,0v0.5h0.7v0.7h0.5l0,0l0.7,0.5l0,0h0.7h0.5l0,0h0.7h0.5h0.7l0,0h0.8h0.5v-0.5h0.8l0,0l0.5-0.7
		h0.8l0,0l0.7-0.5l0,0l0.5-0.7h0.7v-0.5h0.5v-0.7v-0.7l0,0l0.7-0.5V600.4L1028.7,600.4L1028.7,600.4z"/>
	<polygon class="st0" points="1059.6,591.4 1059.6,591.4 1059.6,592.2 1059.6,592.2 1058.9,592.7 1058.9,592.7 1058.4,593.4 
		1057.6,593.4 1057.6,593.9 1057.1,593.9 1057.1,593.9 1056.3,594.7 1056.3,594.7 1055.6,594.7 1055.1,594.7 1055.1,595.4 
		1054.4,595.4 1053.9,595.4 1053.9,595.4 1053.1,595.4 1053.1,595.4 1052.4,595.4 1051.9,595.4 1051.9,595.4 1051.1,595.4 
		1050.6,595.4 1050.6,594.7 1049.9,594.7 1049.9,594.7 1049.4,593.9 1048.6,593.9 1048.6,593.9 1047.9,593.4 1047.9,593.4 
		1047.4,592.7 1047.4,592.7 1047.4,592.7 1046.6,592.2 1046.6,592.2 1046.6,591.4 1046.1,590.7 1046.1,590.7 1046.1,590.2 
		1045.4,589.4 1045.4,588.9 1045.4,588.9 1045.4,588.2 1044.7,587.7 1044.7,586.9 1044.7,586.2 1044.7,585.7 1044.7,584.9 
		1044.7,584.9 1044.7,584.4 1044.7,583.7 1044.7,583.2 1044.7,582.5 1044.7,581.7 1045.4,581.7 1045.4,581.2 1045.4,580.4 
		1045.4,580 1046.1,579.2 1046.1,579.2 1046.1,578.5 1046.6,578 1046.6,578 1046.6,577.2 1047.4,576.7 1047.4,576.7 1047.4,576 
		1047.9,576 1047.9,575.2 1048.6,575.2 1048.6,574.7 1049.4,574.7 1049.9,574 1049.9,574 1050.6,574 1050.6,573.5 1051.1,573.5 
		1051.1,573.5 1051.9,573.5 1052.4,572.7 1052.4,572.7 1053.1,572.7 1053.9,572.7 1053.9,572.7 1054.4,572.7 1054.4,572.7 
		1055.1,572.7 1055.6,572.7 1055.6,572.7 1056.3,572.7 1057.1,573.5 1057.1,573.5 1057.6,573.5 1057.6,573.5 1058.4,573.5 
		1058.9,574 1058.9,574 1059.6,574.7 1059.6,574.7 1059.6,575.2 1059.6,575.2 1059.6,576 1059.6,576 1059.6,576.7 1058.9,577.2 
		1058.9,578 1058.4,578.5 1058.4,578.5 1057.6,578.5 1057.6,578.5 1057.6,578.5 1057.1,578.5 1057.1,578 1056.3,577.2 1056.3,577.2 
		1055.6,577.2 1055.6,576.7 1055.1,576 1054.4,576 1054.4,576 1053.9,575.2 1053.9,575.2 1053.1,575.2 1053.1,575.2 1052.4,575.2 
		1051.9,575.2 1051.9,575.2 1051.1,576 1051.1,576 1050.6,576 1050.6,576.7 1049.9,577.2 1049.9,577.2 1049.9,578 1049.4,578 
		1049.4,578.5 1049.4,579.2 1049.4,579.2 1048.6,580 1048.6,580.4 1048.6,581.2 1048.6,581.7 1048.6,582.5 1048.6,583.2 
		1048.6,583.7 1048.6,584.4 1048.6,584.9 1048.6,585.7 1048.6,585.7 1049.4,586.2 1049.4,586.9 1049.4,587.7 1049.4,588.2 
		1049.4,588.2 1049.9,588.9 1049.9,589.4 1050.6,589.4 1050.6,590.2 1050.6,590.2 1051.1,590.7 1051.1,590.7 1051.9,591.4 
		1051.9,591.4 1052.4,592.2 1053.1,592.2 1053.1,592.2 1053.9,592.2 1054.4,592.2 1054.4,592.2 1055.1,592.2 1055.1,592.2 
		1055.6,592.2 1056.3,592.2 1056.3,592.2 1057.1,592.2 1057.6,591.4 1057.6,591.4 1058.4,591.4 1058.4,590.7 1058.9,590.7 
		1058.9,590.7 1059.6,590.2 1059.6,590.2 1059.6,590.7 1059.6,590.7 1059.6,591.4 	"/>
	<polygon class="st0" points="1084.8,593.9 1084.8,594.7 1084.8,594.7 1084,595.4 1084,595.4 1083.3,594.7 1082.8,594.7 1082,594.7 
		1081.5,594.7 1080.8,594.7 1080.3,594.7 1080.3,594.7 1079.5,594.7 1078.8,594.7 1078.8,594.7 1078.3,594.7 1078.3,594.7 
		1077.5,594.7 1077.5,594.7 1077,594.7 1077,594.7 1076.3,594.7 1076.3,594.7 1076.3,594.7 1075.8,594.7 1075.8,593.9 1075.8,593.9 
		1075.8,593.9 1076.3,593.4 1076.3,593.4 1077,592.7 1077.5,592.7 1077.5,592.7 1077.5,592.2 1077.5,592.2 1077.5,591.4 
		1078.3,590.7 1078.3,590.2 1078.3,590.2 1078.3,582.5 1078.3,581.7 1077.5,581.2 1077.5,580.4 1077.5,580.4 1077.5,580 
		1077.5,579.2 1077.5,578.5 1077,578.5 1077,578 1077,577.2 1076.3,577.2 1076.3,577.2 1076.3,576.7 1075.8,576.7 1075.8,576.7 
		1075.1,576 1074.3,576 1074.3,576 1073.8,576 1073.8,576 1073,576 1073,576 1072.5,576 1071.8,576.7 1071.8,576.7 1071.1,576.7 
		1071.1,576.7 1070.6,577.2 1070.6,577.2 1069.8,578 1069.3,578 1069.3,578.5 1069.3,578.5 1068.6,579.2 1068.6,579.2 1068.6,590.2 
		1068.6,590.7 1068.6,591.4 1069.3,591.4 1069.3,592.2 1069.3,592.2 1069.8,592.7 1069.8,592.7 1070.6,592.7 1071.1,593.4 
		1071.1,593.4 1071.8,593.4 1072.5,593.4 1072.5,593.9 1072.5,593.9 1072.5,594.7 1072.5,594.7 1071.8,594.7 1071.1,594.7 
		1071.1,594.7 1071.1,594.7 1070.6,594.7 1069.8,594.7 1069.8,594.7 1069.3,594.7 1068.6,594.7 1068.6,594.7 1067.8,594.7 
		1067.3,594.7 1067.3,594.7 1066.6,594.7 1066.1,594.7 1066.1,595.4 1065.3,595.4 1064.8,595.4 1064.8,595.4 1064.1,595.4 
		1063.3,595.4 1063.3,595.4 1063.3,594.7 1063.3,594.7 1063.3,593.9 1063.3,593.9 1063.3,593.4 1064.1,593.4 1064.8,593.4 
		1064.8,593.4 1064.8,592.7 1065.3,592.7 1065.3,592.2 1065.3,591.4 1065.3,590.7 1065.3,590.2 1065.3,565 1065.3,564.5 
		1065.3,563.7 1065.3,563 1065.3,562.5 1065.3,561.8 1065.3,561.8 1064.8,561.3 1064.8,560.5 1064.8,560.5 1064.1,559.8 
		1063.3,559.8 1063.3,559.8 1062.8,559.3 1062.8,559.3 1062.8,558.5 1062.8,558.5 1062.8,558 1063.3,558 1064.1,557.3 1064.1,557.3 
		1064.8,557.3 1064.8,556.8 1065.3,556.8 1066.1,556 1066.1,556 1066.6,556 1067.3,555.3 1067.3,554.8 1067.8,554.8 1067.8,554.8 
		1067.8,554.8 1068.6,554.8 1068.6,555.3 1068.6,555.3 1068.6,556 1068.6,556.8 1068.6,556.8 1068.6,557.3 1068.6,558 1068.6,559.3 
		1068.6,559.8 1068.6,559.8 1068.6,560.5 1068.6,561.3 1068.6,561.8 1068.6,562.5 1068.6,563 1068.6,563.7 1068.6,564.5 
		1068.6,564.5 1068.6,574 1068.6,574.7 1068.6,575.2 1069.3,575.2 1069.3,575.2 1069.3,575.2 1069.3,575.2 1069.3,575.2 
		1069.8,574.7 1070.6,574.7 1071.1,574 1071.1,574 1071.8,573.5 1071.8,573.5 1072.5,573.5 1073,572.7 1073,572.7 1073.8,572.7 
		1074.3,572.7 1074.3,572.7 1075.1,572.7 1075.1,572.2 1075.8,572.2 1075.8,572.2 1076.3,572.7 1077,572.7 1077,572.7 1077.5,572.7 
		1077.5,572.7 1078.3,572.7 1078.3,573.5 1078.8,573.5 1078.8,574 1079.5,574 1079.5,574 1079.5,574.7 1080.3,575.2 1080.3,575.2 
		1080.3,576 1080.8,576.7 1080.8,576.7 1080.8,577.2 1080.8,578 1080.8,578.5 1080.8,579.2 1080.8,580 1080.8,580.4 1081.5,580.4 
		1081.5,590.2 1081.5,590.7 1081.5,591.4 1081.5,591.4 1081.5,592.2 1082,592.2 1082,592.7 1082.8,592.7 1082.8,593.4 1083.3,593.4 
		1084,593.4 1084,593.4 1084,593.4 1084.8,593.4 1084.8,593.9 1084.8,593.9 	"/>
	<path class="st0" d="M1103.4,592.2L1103.4,592.2v0.5l0,0l-0.7,0.7l-0.7,0.5l0,0h-0.5v0.7h-0.7h-0.5v0.7h-0.8l0,0h-0.5v-0.7h-0.8
		v-0.7l0,0l-0.7-0.5v-0.7h-0.5l0,0v0.7h-0.7h-0.5l-0.7,0.5l0,0l0,0l-0.7,0.7h-0.5l0,0l-0.7,0.7h-0.5l0,0h-0.7l0,0h-0.5h-0.8l0,0
		l-0.7-0.7h-0.5l0,0l-0.7-0.7l0,0v-0.5h-0.5v-0.7v-0.5l-0.7-0.7v-0.8l0,0v-0.5l0,0v-0.8v-0.5l0,0v-0.8h0.7v-0.5l0,0v-0.7h0.5v-0.7
		l0,0h0.7v-0.5h0.5v-0.7h0.7h0.8v-0.5h0.5h0.7v-0.7h0.5h0.7l0.5-0.5h0.7h0.7l0,0l0.5-0.7l0,0h0.7v-0.8v-0.5l0,0V580v-0.8v-0.7V578
		v-0.7v-0.5l0,0l-0.7-0.7l0,0l-0.5-0.7l0,0h-0.7l0,0l-0.7-0.5l0,0l-0.5,0.5l0,0h-0.7v0.7l-0.5,0.7v0.5l0,0v0.7h-0.7v0.5l-0.5,0.7
		l0,0h-0.8l0,0h-0.7l0,0h-0.5l0,0h-0.7v-0.7V578v-0.7l0,0v-0.5l0,0l0.7-0.7l0,0l0.5-0.7l0,0l0.7-0.5h0.8V574h0.5l0.7-0.5l0,0h0.5
		l0.7-0.8l0,0h0.5l0,0h0.7h0.7l0,0h0.5l0,0h0.7h0.5l0,0h0.7v0.8h0.8l0,0l0.5,0.5l0,0v0.7l0.8,0.5l0,0v0.7v0.7v0.5v0.7l0,0v11.5v0.8
		v0.5h0.5v0.8h0.7l0,0l0,0h0.5l0,0l0.7-0.8l0,0l0.7,0.8l0,0V592.2L1103.4,592.2L1103.4,592.2z M1097,585.7v-0.7l0,0v-0.5l-0.7,0.5
		l0,0h-0.5h-0.7h-0.7l-0.5,0.7l0,0h-0.7l-0.5,0.5l0,0l-0.7,0.7l0,0l0,0l-0.5,0.7l0,0v0.5v0.8l0,0l0,0v0.5v0.8v0.5l0,0l0.5,0.8l0,0
		l0.7,0.7l0,0h0.5h0.7l0,0h0.5l0,0h0.7h0.7l0,0l0,0l0.5-0.7h0.7v-0.8l0,0v-0.5V585.7z"/>
	<polygon class="st0" points="1128.4,593.9 1128.4,594.7 1127.9,594.7 1127.1,595.4 1127.1,595.4 1126.6,595.4 1125.9,595.4 
		1125.9,594.7 1125.4,594.7 1124.6,594.7 1123.9,594.7 1123.9,594.7 1123.4,594.7 1122.6,594.7 1122.6,594.7 1122.1,594.7 
		1122.1,594.7 1121.4,594.7 1120.6,594.7 1120.6,594.7 1120.6,594.7 1120.1,594.7 1119.4,594.7 1119.4,594.7 1119.4,594.7 
		1118.9,593.9 1118.9,593.9 1119.4,593.9 1119.4,593.4 1120.1,593.4 1120.1,593.4 1120.6,592.7 1120.6,592.7 1121.4,592.2 
		1121.4,592.2 1121.4,591.4 1121.4,590.7 1121.4,590.2 1121.4,583.2 1121.4,581.7 1121.4,581.7 1121.4,581.2 1121.4,580.4 
		1121.4,580 1120.6,579.2 1120.6,578.5 1120.6,578.5 1120.6,578 1120.1,578 1120.1,577.2 1119.4,577.2 1119.4,577.2 1119.4,576.7 
		1118.9,576.7 1118.2,576.7 1118.2,576.7 1117.4,576.7 1117.4,576.7 1116.9,576.7 1116.1,576.7 1116.1,576.7 1115.7,576.7 
		1114.9,576.7 1114.9,576.7 1114.4,577.2 1114.4,577.2 1113.7,577.2 1112.9,578 1112.9,578.5 1112.4,578.5 1112.4,579.2 
		1112.4,579.2 1112.4,580 1112.4,590.2 1112.4,590.7 1112.4,591.4 1112.4,591.4 1112.9,592.2 1112.9,592.2 1112.9,592.7 
		1113.7,592.7 1114.4,592.7 1114.4,592.7 1114.9,593.4 1115.7,593.4 1115.7,593.4 1115.7,593.9 1115.7,593.9 1115.7,594.7 
		1115.7,594.7 1114.9,594.7 1114.9,594.7 1114.4,594.7 1114.4,594.7 1113.7,594.7 1112.9,594.7 1112.9,594.7 1112.4,594.7 
		1111.7,594.7 1111.7,594.7 1111.2,594.7 1110.4,594.7 1110.4,594.7 1109.9,594.7 1109.2,595.4 1109.2,595.4 1108.4,595.4 
		1107.9,595.4 1107.2,595.4 1107.2,595.4 1107.2,595.4 1106.7,595.4 1106.7,594.7 1106.7,594.7 1106.7,593.9 1107.2,593.9 
		1107.2,593.4 1107.9,593.4 1107.9,593.4 1108.4,592.7 1108.4,592.7 1108.4,592.2 1109.2,591.4 1109.2,590.7 1109.2,590.2 
		1109.2,589.4 1109.2,581.2 1109.2,580.4 1109.2,580 1109.2,579.2 1108.4,578.5 1108.4,578.5 1108.4,578.5 1108.4,578 1107.9,578 
		1107.9,578 1107.2,577.2 1106.7,577.2 1106.7,577.2 1106.7,576.7 1105.9,576.7 1106.7,576 1106.7,576 1107.2,575.2 1107.2,575.2 
		1107.9,574.7 1107.9,574.7 1108.4,574.7 1109.2,574 1109.2,574 1109.9,573.5 1110.4,572.7 1110.4,572.7 1111.2,572.7 1111.2,572.7 
		1111.2,572.7 1111.7,572.7 1111.7,572.7 1111.7,573.5 1111.7,574 1111.7,574 1111.7,574.7 1112.4,575.2 1112.4,576 1112.4,576 
		1112.4,576 1112.4,576 1112.9,575.2 1112.9,575.2 1113.7,574.7 1114.4,574.7 1114.4,574 1114.9,574 1115.7,574 1115.7,573.5 
		1116.1,573.5 1116.9,573.5 1116.9,572.7 1117.4,572.7 1118.2,572.7 1118.2,572.7 1118.9,572.7 1118.9,572.7 1119.4,572.7 
		1119.4,572.7 1120.1,572.7 1120.1,572.7 1120.6,572.7 1121.4,572.7 1121.4,573.5 1122.1,573.5 1122.1,573.5 1122.6,574 1122.6,574 
		1122.6,574 1123.4,574.7 1123.4,574.7 1123.4,575.2 1123.9,576 1123.9,576 1123.9,576.7 1123.9,577.2 1124.6,578 1124.6,578 
		1124.6,578.5 1124.6,579.2 1124.6,580 1124.6,580.4 1124.6,581.2 1124.6,590.2 1124.6,590.7 1124.6,591.4 1124.6,591.4 
		1125.4,592.2 1125.4,592.7 1125.9,592.7 1125.9,592.7 1126.6,592.7 1126.6,593.4 1127.1,593.4 1127.9,593.4 1127.9,593.9 
		1128.4,593.9 1128.4,593.9 	"/>
	<polygon class="st0" points="1152.3,593.9 1152.3,594.7 1151.6,594.7 1151.6,595.4 1151.6,595.4 1151,595.4 1150.3,595.4 
		1149.8,594.7 1149,594.7 1148.6,594.7 1148.6,594.7 1147.8,594.7 1147.1,594.7 1147.1,594.7 1146.6,594.7 1145.8,594.7 
		1145.8,594.7 1145.3,594.7 1145.3,594.7 1144.6,594.7 1144.6,594.7 1143.8,594.7 1143.3,594.7 1143.3,594.7 1143.3,594.7 
		1143.3,593.9 1143.3,593.9 1143.3,593.9 1143.3,593.4 1143.8,593.4 1144.6,593.4 1144.6,592.7 1145.3,592.7 1145.3,592.2 
		1145.3,592.2 1145.3,591.4 1145.3,590.7 1145.3,590.2 1145.3,583.2 1145.3,581.7 1145.3,581.7 1145.3,581.2 1145.3,580.4 
		1145.3,580 1145.3,579.2 1145.3,578.5 1144.6,578.5 1144.6,578 1144.6,578 1143.8,577.2 1143.8,577.2 1143.3,577.2 1143.3,576.7 
		1142.6,576.7 1142.6,576.7 1142.1,576.7 1142.1,576.7 1141.3,576.7 1140.8,576.7 1140.8,576.7 1140.1,576.7 1139.3,576.7 
		1139.3,576.7 1138.8,576.7 1138.1,577.2 1138.1,577.2 1138.1,577.2 1137.6,578 1136.8,578.5 1136.8,578.5 1136.1,579.2 
		1136.1,579.2 1136.1,580 1136.1,590.2 1136.1,590.7 1136.1,591.4 1136.8,591.4 1136.8,592.2 1136.8,592.2 1137.6,592.7 
		1137.6,592.7 1138.1,592.7 1138.8,592.7 1138.8,593.4 1139.3,593.4 1140.1,593.4 1140.1,593.9 1140.1,593.9 1140.1,594.7 
		1139.3,594.7 1139.3,594.7 1138.8,594.7 1138.8,594.7 1138.1,594.7 1137.6,594.7 1137.6,594.7 1136.8,594.7 1136.1,594.7 
		1136.1,594.7 1135.6,594.7 1134.9,594.7 1134.9,594.7 1134.4,594.7 1133.6,594.7 1133.6,595.4 1132.8,595.4 1132.3,595.4 
		1132.3,595.4 1131.6,595.4 1131.1,595.4 1131.1,595.4 1131.1,595.4 1131.1,594.7 1131.1,594.7 1131.1,593.9 1131.1,593.9 
		1131.6,593.4 1131.6,593.4 1132.3,593.4 1132.3,592.7 1132.3,592.7 1132.8,592.2 1132.8,591.4 1132.8,590.7 1132.8,590.2 
		1132.8,589.4 1132.8,581.2 1132.8,580.4 1132.8,580 1132.8,579.2 1132.8,578.5 1132.3,578.5 1132.3,578.5 1132.3,578 1132.3,578 
		1131.6,578 1131.1,577.2 1130.4,577.2 1130.4,577.2 1130.4,576.7 1130.4,576.7 1130.4,576 1130.4,576 1131.1,575.2 1131.6,575.2 
		1131.6,574.7 1132.3,574.7 1132.3,574.7 1132.8,574 1133.6,574 1133.6,573.5 1134.4,572.7 1134.9,572.7 1134.9,572.7 1134.9,572.7 
		1134.9,572.7 1135.6,572.7 1135.6,572.7 1135.6,573.5 1136.1,574 1136.1,574 1136.1,574.7 1136.1,575.2 1136.1,576 1136.1,576 
		1136.1,576 1136.8,576 1136.8,575.2 1137.6,575.2 1138.1,574.7 1138.8,574.7 1138.8,574 1138.8,574 1139.3,574 1140.1,573.5 
		1140.1,573.5 1140.8,573.5 1141.3,572.7 1141.3,572.7 1142.1,572.7 1142.6,572.7 1142.6,572.7 1143.3,572.7 1143.3,572.7 
		1143.8,572.7 1143.8,572.7 1144.6,572.7 1144.6,572.7 1145.3,572.7 1145.8,573.5 1145.8,573.5 1146.6,573.5 1146.6,574 1146.6,574 
		1147.1,574 1147.1,574.7 1147.1,574.7 1147.8,575.2 1147.8,576 1147.8,576 1148.6,576.7 1148.6,577.2 1148.6,578 1148.6,578 
		1148.6,578.5 1148.6,579.2 1148.6,580 1148.6,580.4 1148.6,581.2 1148.6,590.2 1148.6,590.7 1149,591.4 1149,591.4 1149,592.2 
		1149,592.7 1149.8,592.7 1149.8,592.7 1150.3,592.7 1151,593.4 1151.6,593.4 1151.6,593.4 1152.3,593.9 1152.3,593.9 1152.3,593.9 
			"/>
	<path class="st0" d="M1169.7,590.2L1169.7,590.2v0.5l0,0l-0.7,0.8l0,0l-0.5,0.7v0.5h-0.7v0.7h-0.8h-0.5v0.5h-0.8h-0.5v0.7h-0.7l0,0
		h-0.5h-0.7l0,0l-0.7,0.7h-0.5l0,0h-0.7h-0.5v-0.7h-0.7h-0.5l0,0h-0.7v-0.7h-0.8l-0.5-0.5l0,0l-0.8-0.7l0,0l-0.5-0.5l0,0l0,0v-0.7
		l-0.7-0.8l0,0l-0.7-0.5v-0.8l0,0v-0.5l-0.5-0.8v-0.5v-0.7v-0.7l0,0v-0.5v-0.7v-0.5v-0.7v-0.5v-0.7v-0.8l0,0v-0.5v-0.8l0.5-0.5v-0.8
		v-0.7l0,0l0.7-0.5v-0.7l0,0l0.7-0.5V576h0.5v-0.7l0,0l0.8-0.5l0,0l0.5-0.7l0,0l0.8-0.5h0.7l0,0l0.5-0.8l0,0h0.7h0.5l0,0h0.7
		l0.5-0.5l0,0h0.7v0.5h0.7h0.5l0,0h0.7v0.8h0.5l0.8,0.5l0,0l0.5,0.7l0,0l0.8,0.5v0.7l0,0l0.7,0.7v0.5v0.7l0,0l0.5,0.5l0,0l0,0h0.7
		v0.7v0.8l0,0v0.5h-0.7l0,0l-0.5,0.8h-0.7v0.5l-9.7,4v0.5l0,0v0.7l0.8,0.7v0.5v0.8h0.7v0.5v0.8h0.5v0.5l0,0l0.7,0.8l0,0h0.5l0,0
		l0.7,0.7h0.5l0,0h0.7l0,0h0.7h0.5l0,0l0.7-0.7l0,0h0.5h0.8v-0.8h0.5h0.8v-0.5h0.7v-0.8h0.5h0.7l0,0l0,0V590.2L1169.7,590.2
		L1169.7,590.2z M1165.2,578.5L1165.2,578.5l-0.7-0.5v-0.7v-0.5h-0.5V576l0,0l-0.7-0.7l0,0h-0.7h-0.5v-0.5l0,0h-0.7l-0.5,0.5l0,0
		h-0.7l0,0l-0.5,0.7l0,0l0,0l-0.7,0.7l0,0v0.5l-0.8,0.7l0,0v0.5v0.7v0.8v0.5v0.8v0.5v0.8v0.7l5.2-2.8h0.7h0.5V580l0,0l0.7-0.8V578.5
		L1165.2,578.5z"/>
	<polygon class="st0" points="1182.4,593.9 1182.4,594.7 1182.4,594.7 1181.9,594.7 1181.9,594.7 1181.2,594.7 1181.2,594.7 
		1180.7,594.7 1180.7,594.7 1179.9,594.7 1179.4,594.7 1179.4,594.7 1178.7,594.7 1178,594.7 1178,594.7 1177.5,594.7 1176.7,594.7 
		1176.7,594.7 1176.2,594.7 1175.5,594.7 1175,595.4 1175,595.4 1174.2,595.4 1173.5,595.4 1173.5,595.4 1173.5,594.7 1173.5,593.9 
		1173.5,593.9 1173.5,593.4 1174.2,593.4 1175,592.7 1175,592.7 1175.5,592.7 1175.5,592.2 1175.5,591.4 1175.5,590.7 1175.5,590.2 
		1175.5,590.2 1175.5,565 1175.5,564.5 1175.5,563.7 1175.5,563 1175.5,562.5 1175.5,561.8 1175.5,561.8 1175.5,561.8 1175,561.3 
		1175,560.5 1174.2,560.5 1174.2,559.8 1173.5,559.8 1173.5,559.8 1173,559.8 1173,559.3 1173,559.3 1173,558.5 1173,558 
		1173.5,558 1173.5,558 1174.2,557.3 1175,557.3 1175,557.3 1175.5,556.8 1175.5,556.8 1176.2,556.8 1176.7,556 1176.7,556 
		1177.5,555.3 1178,555.3 1178,554.8 1178,554.8 1178,554.8 1178.7,554.8 1178.7,555.3 1179.4,555.3 1179.4,556 1179.4,556 
		1179.4,556.8 1179.4,557.3 1179.4,558 1179.4,558.5 1179.4,559.3 1179.4,559.8 1179.4,560.5 1179.4,560.5 1178.7,561.3 
		1178.7,561.8 1178.7,562.5 1178.7,563 1178.7,563.7 1178.7,564.5 1178.7,564.5 1179.4,589.4 1179.4,590.2 1179.4,590.7 
		1179.4,591.4 1179.4,591.4 1179.9,592.2 1179.9,592.2 1179.9,592.7 1180.7,592.7 1181.2,592.7 1181.9,592.7 1181.9,592.7 
		1182.4,593.4 1182.4,593.4 1182.4,593.9 1182.4,593.9 	"/>
	<path class="st1" d="M847.9,579.5c0-0.9,0.8-1.7,1.7-1.7c0.9,0,1.7,0.8,1.7,1.7c0,14.2,5.8,27.1,15.1,36.3c9.4,9.3,22.3,15,36.6,15
		h333.4c14.2,0,27.1-5.7,36.4-15c9.3-9.3,15-22.1,15-36.4c0-0.9,0.8-1.7,1.7-1.7c0.9,0,1.7,0.8,1.7,1.7c0,15.2-6.1,28.8-16,38.8
		c-9.9,9.9-23.6,16-38.8,16H902.9c-15.2,0-28.9-6.1-38.9-16.1C854,608.3,847.9,594.6,847.9,579.5L847.9,579.5z"/>
	<polygon class="st0" points="981.1,78.6 981.1,78.6 981.1,79.4 980.4,79.4 980.4,80.1 979.6,80.6 979.1,80.6 978.4,81.4 
		978.4,81.4 977.9,81.9 977.1,81.9 977.1,82.6 976.6,82.6 975.9,82.6 975.1,83.1 975.1,83.1 974.6,83.1 973.9,83.1 973.4,83.1 
		973.4,83.1 972.6,83.1 971.9,83.1 971.9,83.1 971.4,83.1 970.6,83.1 970.1,83.1 969.4,83.1 969.4,82.6 968.9,82.6 968.2,82.6 
		968.2,81.9 967.4,81.9 966.9,81.4 966.9,81.4 966.2,80.6 965.7,80.1 965.7,80.1 965.7,80.1 964.9,79.4 964.9,78.6 964.2,78.1 
		964.2,78.1 964.2,77.4 963.7,76.9 963.7,76.1 963.7,75.4 963.7,74.9 962.9,74.1 962.9,73.6 962.9,72.9 962.9,72.1 962.9,71.7 
		962.9,70.9 962.9,70.4 962.9,69.6 962.9,69.1 962.9,68.4 962.9,67.7 963.7,67.2 963.7,66.4 963.7,65.9 963.7,65.2 964.2,64.7 
		964.2,63.9 964.2,63.2 964.9,62.7 964.9,61.9 965.7,61.9 965.7,61.4 966.2,60.7 966.2,60.7 966.9,59.9 966.9,59.4 967.4,59.4 
		967.4,58.7 968.2,58.7 968.9,58.2 968.9,58.2 969.4,57.5 970.1,57.5 970.6,57.5 970.6,56.7 971.4,56.7 971.9,56.7 972.6,56.7 
		972.6,56.7 973.4,56.2 973.9,56.2 973.9,56.2 974.6,56.2 975.1,56.2 975.9,56.7 976.6,56.7 976.6,56.7 977.1,56.7 977.9,56.7 
		978.4,57.5 978.4,57.5 979.1,57.5 979.6,58.2 980.4,58.2 980.4,58.7 981.1,59.4 981.1,59.4 981.1,59.4 981.1,59.9 981.1,60.7 
		980.4,61.4 979.6,61.9 979.6,62.7 979.1,63.2 979.1,63.2 978.4,63.9 978.4,63.9 978.4,63.2 977.9,63.2 977.1,62.7 976.6,61.9 
		976.6,61.9 975.9,61.4 975.9,61.4 975.1,60.7 974.6,59.9 973.9,59.9 973.9,59.9 973.4,59.4 973.4,59.4 972.6,59.4 971.9,59.4 
		971.9,59.4 971.4,59.9 970.6,59.9 970.1,59.9 970.1,60.7 969.4,61.4 969.4,61.4 968.9,61.9 968.9,61.9 968.9,62.7 968.2,63.2 
		968.2,63.9 968.2,64.7 967.4,65.2 967.4,65.9 967.4,66.4 967.4,67.2 967.4,67.7 967.4,68.4 967.4,69.1 967.4,70.4 967.4,70.9 
		967.4,71.7 967.4,72.1 968.2,72.9 968.2,73.6 968.2,74.1 968.2,74.9 968.9,75.4 968.9,75.4 969.4,76.1 969.4,76.9 969.4,76.9 
		970.1,77.4 970.6,78.1 970.6,78.1 971.4,78.6 971.9,79.4 971.9,79.4 972.6,79.4 973.4,80.1 973.4,80.1 973.9,80.1 974.6,80.1 
		975.1,80.1 975.9,80.1 975.9,80.1 976.6,79.4 977.1,79.4 977.9,79.4 977.9,79.4 978.4,78.6 979.1,78.6 979.1,78.1 979.6,78.1 
		979.6,78.1 980.4,77.4 980.4,77.4 981.1,78.1 981.1,78.6 981.1,78.6 	"/>
	<path class="st0" d="M1006.8,69.1v0.5v1.2v0.8l-0.7,0.5v0.8v0.7v0.5l0,0l-0.5,0.7v0.5v0.7l-0.7,0.7v0.5l-0.5,0.7l0,0l-0.7,0.5v0.7
		h-0.7v0.8l-0.5,0.5h-0.7v0.7h-0.5l-0.7,0.5l0,0l-0.5,0.7h-0.7h-0.8l0,0l-0.5,0.5H997h-0.5l0,0h-0.7h-0.5h-0.7h-0.7l0,0h-0.5h-0.7
		l-0.5-0.5h-0.7l0,0l-0.8-0.7h-0.5l0,0l-0.8-0.5h-0.5v-0.7l-0.7-0.5l0,0h-0.7v-0.8l-0.5-0.7v-0.5l-0.7-0.7l0,0v-0.5l-0.5-0.7v-0.7
		v-0.5v-0.7v-0.5l-0.7-0.7v-0.8v-0.5v-1.3l0,0v-0.7v-0.5v-0.7v-0.7l0.7-0.5v-0.7v-0.5v-0.7l0.5-0.5v-0.7v-0.8h0.7v-0.5l0.5-0.8v-0.5
		l0.7-0.7l0,0l0,0l0.7-0.7l0.5-0.5l0,0l0.8-0.7h0.5v-0.5h0.8l0.7-0.7l0,0h0.5l0.7-0.7h0.5l0,0h0.7h0.7h0.5h0.7l0,0h0.5h0.7l0,0h0.5
		h0.8h0.7h0.5v0.7h0.7l0.5,0.7l0,0h0.7l0.5,0.5l0,0l0.7,0.7v0.5h0.7v0.7h0.5v0.7v0.5l0.7,0.8v0.5l0.5,0.8v0.7v0.5v0.7v0.5l0.7,0.7
		v0.5v0.7V69.1L1006.8,69.1L1006.8,69.1z M1002.3,71.7v-1.3v-0.7v-0.5v-0.7l-0.7-0.7v-0.5v-0.7v-0.5v-0.7l-0.5-0.5v-0.7v-0.8h-0.7
		v-0.5l-0.5-0.8l0,0l-0.7-0.5v-0.7h-0.8l-0.5-0.7l0,0H997l-0.5-0.5h-0.7l0,0l0,0h-0.5h-0.7l-0.7,0.5h-0.5l0,0l-0.7,0.7h-0.5v0.7
		l-0.7,0.5l0,0l-0.8,0.8v0.5l-0.5,0.8v0.7v0.5v0.7l-0.8,0.5v0.7v0.5v0.7v0.7v0.5v0.7v0.5l0.8,0.8v1.2v0.7v0.5l0,0l0.5,0.7v0.5v0.7
		l0.8,0.7v0.5l0,0h0.7v0.7l0.5,0.5h0.7v0.7h0.5l0.7,0.8l0,0h0.7h0.5h0.7l0,0h0.5h0.7h0.5v-0.8h0.8l0.7-0.7l0,0l0.5-0.5v-0.7h0.7
		v-0.5l0.5-0.7v-0.7v-0.5v-0.7l0.7-0.5v-0.7v-0.8V71.7L1002.3,71.7L1002.3,71.7z"/>
	<polygon class="st0" points="1036.9,81.9 1036.9,82.6 1036.9,83.1 1036.4,83.1 1036.4,83.1 1035.7,83.1 1035.2,83.1 1034.4,83.1 
		1033.9,83.1 1033.2,83.1 1032.4,83.1 1031.9,83.1 1031.2,83.1 1030.7,83.1 1030.7,83.1 1029.9,83.1 1029.2,83.1 1029.2,83.1 
		1028.7,83.1 1028,83.1 1028,83.1 1027.5,83.1 1026.7,83.1 1026.2,82.6 1026.2,82.6 1026.2,81.9 1026.2,81.9 1026.2,81.9 
		1026.7,81.4 1027.5,81.4 1028,80.6 1028,80.6 1028.7,80.1 1028.7,80.1 1028.7,79.4 1029.2,78.6 1029.2,78.1 1029.2,77.4 
		1029.2,68.4 1029.2,67.7 1029.2,67.2 1028.7,65.9 1028.7,65.2 1028.7,64.7 1028.7,64.7 1028.7,63.9 1028,63.2 1028,62.7 
		1027.5,62.7 1027.5,61.9 1026.7,61.9 1026.7,61.4 1026.2,61.4 1026.2,61.4 1025.5,60.7 1024.7,60.7 1024.7,60.7 1024.2,60.7 
		1023.5,60.7 1023,60.7 1022.2,60.7 1022.2,61.4 1021.5,61.4 1021,61.4 1020.2,61.9 1020.2,61.9 1019.7,61.9 1019.7,62.7 1019,63.2 
		1018.2,63.2 1018.2,63.9 1018.2,64.7 1018.2,65.2 1018.2,77.4 1018.2,78.1 1018.2,78.6 1018.2,78.6 1018.2,79.4 1019,80.1 
		1019,80.1 1019.7,80.6 1020.2,80.6 1021,80.6 1021,80.6 1021.5,80.6 1022.2,81.4 1022.2,81.9 1022.2,81.9 1022.2,82.6 1022.2,82.6 
		1021.5,82.6 1021,82.6 1021,82.6 1020.2,82.6 1019.7,82.6 1019,82.6 1018.2,82.6 1018.2,82.6 1017.7,82.6 1017,82.6 1016.5,83.1 
		1016.5,83.1 1015.7,83.1 1015.3,83.1 1014.5,83.1 1013.7,83.1 1013.2,83.1 1013.2,83.1 1012.5,83.1 1012,83.1 1012,83.1 
		1011.3,83.1 1011.3,82.6 1011.3,82.6 1011.3,81.9 1012,81.9 1012,81.4 1012.5,81.4 1013.2,80.6 1013.2,80.6 1013.7,80.1 
		1013.7,79.4 1013.7,79.4 1013.7,78.1 1013.7,77.4 1013.7,76.9 1013.7,66.4 1013.7,65.2 1013.7,64.7 1013.7,63.9 1013.7,63.2 
		1013.7,63.2 1013.7,63.2 1013.2,62.7 1013.2,62.7 1012.5,62.7 1012,61.9 1011.3,61.9 1011.3,61.9 1010.8,61.4 1010.8,60.7 
		1010.8,59.9 1011.3,59.9 1012,59.4 1012.5,59.4 1012.5,59.4 1013.2,58.7 1013.7,58.7 1013.7,58.2 1014.5,57.5 1015.3,57.5 
		1015.7,56.7 1015.7,56.2 1016.5,56.2 1016.5,56.2 1016.5,56.2 1017,56.2 1017,56.7 1017.7,57.5 1017.7,58.2 1017.7,58.2 
		1017.7,59.4 1017.7,59.9 1018.2,59.9 1018.2,59.9 1018.2,59.9 1018.2,59.9 1019,59.9 1019,59.4 1019.7,58.7 1021,58.2 1021,58.2 
		1021.5,58.2 1021.5,57.5 1022.2,57.5 1023,56.7 1023.5,56.7 1023.5,56.7 1024.2,56.7 1024.7,56.2 1025.5,56.2 1025.5,56.2 
		1026.2,56.2 1026.2,56.2 1026.7,56.2 1027.5,56.2 1028,56.2 1028,56.7 1028.7,56.7 1029.2,56.7 1029.2,56.7 1029.9,57.5 
		1029.9,57.5 1030.7,58.2 1030.7,58.2 1031.2,58.7 1031.2,58.7 1031.9,59.4 1031.9,59.9 1031.9,60.7 1032.4,61.4 1032.4,61.4 
		1032.4,61.9 1032.4,62.7 1032.4,63.2 1032.4,64.7 1033.2,65.2 1033.2,65.9 1033.2,66.4 1033.2,76.9 1033.2,78.1 1033.2,78.6 
		1033.2,79.4 1033.2,79.4 1033.9,80.1 1033.9,80.1 1034.4,80.6 1035.2,80.6 1035.7,80.6 1036.4,81.4 1036.4,81.4 1036.9,81.9 
		1036.9,81.9 1036.9,81.9 	"/>
	<polygon class="st0" points="1053.1,80.1 1053.1,80.1 1053.1,80.6 1053.1,81.4 1052.4,81.4 1052.4,81.9 1051.9,81.9 1051.1,82.6 
		1050.6,82.6 1049.9,82.6 1049.9,83.1 1049.4,83.1 1048.6,83.1 1047.9,83.1 1047.9,83.1 1047.4,83.1 1046.6,83.1 1046.1,83.1 
		1045.4,83.1 1045.4,83.1 1044.7,83.1 1044.1,82.6 1044.1,82.6 1043.4,81.9 1043.4,81.9 1042.9,81.4 1042.9,81.4 1042.9,80.6 
		1042.2,80.1 1042.2,79.4 1042.2,78.6 1042.2,78.1 1042.2,77.4 1041.7,76.9 1041.7,76.1 1041.7,75.4 1041.7,63.2 1041.7,62.7 
		1041.7,61.9 1041.7,61.4 1041.7,60.7 1041.7,60.7 1041.7,60.7 1040.9,59.9 1040.2,59.9 1039.7,59.4 1039.7,59.4 1038.9,58.7 
		1039.7,58.2 1039.7,57.5 1040.2,57.5 1040.2,56.7 1040.9,56.7 1040.9,56.2 1041.7,55.4 1041.7,55.4 1042.2,55 1042.9,54.2 
		1042.9,53.7 1043.4,53 1043.4,53 1044.1,52.2 1044.1,51.7 1044.1,51 1044.7,50.5 1044.7,50.5 1045.4,50.5 1046.1,51 1046.1,51.7 
		1046.1,55.4 1046.1,56.2 1046.1,56.2 1046.6,56.7 1046.6,56.7 1052.4,56.7 1053.1,56.7 1053.1,57.5 1052.4,58.2 1052.4,58.2 
		1052.4,58.7 1051.9,59.4 1051.9,59.9 1051.1,59.9 1051.1,59.9 1047.4,59.9 1046.6,59.9 1046.1,60.7 1046.1,60.7 1046.1,61.4 
		1045.4,61.9 1045.4,61.9 1045.4,73.6 1045.4,74.1 1046.1,75.4 1046.1,76.1 1046.1,76.9 1046.1,77.4 1046.1,78.1 1046.1,78.1 
		1046.1,78.6 1046.6,78.6 1046.6,79.4 1047.4,79.4 1047.4,79.4 1047.9,80.1 1048.6,80.1 1049.4,80.1 1049.9,80.1 1049.9,80.1 
		1050.6,80.1 1051.1,80.1 1051.9,79.4 1051.9,79.4 1052.4,79.4 1053.1,79.4 1053.1,79.4 1053.1,79.4 1053.1,80.1 	"/>
	<path class="st0" d="M1078.3,69.1v0.5v1.2v0.8v0.5v0.8v0.7v0.5h-0.7v0.7v0.5l-0.5,0.7v0.7l-0.7,0.5v0.7h-0.5v0.5l-0.7,0.7l0,0
		l-0.8,0.8v0.5h-0.5l-0.8,0.7l0,0l-0.5,0.5h-0.7v0.7h-0.7h-0.5h-0.7v0.5h-0.5h-0.7h-0.7h-0.5l0,0h-0.8h-0.5h-0.8h-0.5l0,0l-0.8-0.5
		h-0.7h-0.5v-0.7h-0.7h-0.5v-0.5h-0.7l-0.5-0.7v-0.5h-0.7l0,0l-0.7-0.8v-0.7v-0.5l-0.5-0.7l0,0l-0.8-0.5v-0.7v-0.7v-0.5l-0.5-0.7
		v-0.5v-0.7v-0.8v-0.5v-1.3l0,0v-0.7v-0.5v-0.7v-0.7v-0.5v-0.7l0.5-0.5v-0.7v-0.5l0.8-0.7v-0.8l0,0l0.5-0.5v-0.8l0.7-0.5v-0.7h0.7
		l0,0l0.5-0.7v-0.5h0.7l0.5-0.7l0,0l0.7-0.5h0.5v-0.7h0.7h0.8l0.5-0.7l0,0h0.8h0.5h0.8l0,0h0.5l0,0h0.7h0.7h0.5h0.7h0.5l0,0h0.7
		l0.7,0.7h0.5v0.7h0.8h0.5v0.5h0.8v0.7l0.7,0.5l0,0l0.5,0.7l0,0l0.7,0.7v0.5l0.5,0.8v0.5v0.8v0.7l0.7,0.5v0.7v0.5v0.7v0.5v0.7V69.1
		L1078.3,69.1L1078.3,69.1z M1074.3,71.7v-1.3l-0.5-0.7v-0.5v-0.7v-0.7v-0.5v-0.7l-0.8-0.5v-0.7v-0.5v-0.7l-0.5-0.8l0,0v-0.5
		l-0.7-0.8h-0.7v-0.5l-0.5-0.7l0,0l-0.7-0.7h-0.5l0,0l-0.7-0.5h-0.7h-0.5l0,0h-0.8l0,0l-0.5,0.5h-0.8h-0.5v0.7h-0.8l-0.7,0.7v0.5
		h-0.5v0.8l-0.7,0.5v0.8v0.7l-0.5,0.5v0.7v0.5v0.7v0.5v0.7v0.7v0.5v0.7v0.5v0.8v1.2l0.5,0.7v0.5l0,0v0.7l0.7,0.5v0.7v0.7l0.5,0.5
		l0,0l0,0l0.7,0.7l0.8,0.5l0,0l0.5,0.7l0,0l0.8,0.8h0.5h0.8l0,0h0.5h0.7h0.7h0.5l0,0l0.7-0.8h0.5v-0.7h0.7l0.7-0.5v-0.7l0,0l0.5-0.5
		v-0.7l0.8-0.7v-0.5v-0.7v-0.5v-0.7v-0.8L1074.3,71.7L1074.3,71.7L1074.3,71.7z"/>
	<polygon class="st0" points="1105.9,80.1 1105.9,80.1 1105.9,80.6 1105.2,80.6 1105.2,81.4 1104.7,81.9 1102,83.1 1102,83.1 
		1102,83.1 1101.5,83.1 1101.5,82.6 1100.7,81.9 1100.7,81.9 1100.2,81.4 1099.5,80.6 1099,80.1 1099,80.1 1099,80.1 1098.2,80.6 
		1098.2,80.6 1097.5,81.4 1097,81.4 1096.2,81.9 1095.7,81.9 1095,81.9 1095,82.6 1094.2,82.6 1093.7,82.6 1093,83.1 1093,83.1 
		1092.5,83.1 1092.5,83.1 1091.7,83.1 1091.2,83.1 1090.5,83.1 1089.7,82.6 1089.2,82.6 1088.5,82.6 1088.5,82.6 1088,81.9 
		1087.3,81.9 1087.3,81.4 1087.3,81.4 1086.5,81.4 1086.5,80.6 1086.5,80.6 1086,80.1 1086,79.4 1086,78.6 1086,78.1 1085.3,77.4 
		1085.3,76.9 1085.3,76.1 1085.3,75.4 1085.3,74.1 1085.3,73.6 1085.3,67.2 1085.3,65.9 1085.3,65.2 1085.3,64.7 1085.3,63.9 
		1085.3,63.2 1084.8,63.2 1084.8,62.7 1084,61.9 1084,61.9 1083.3,61.4 1082.8,61.4 1082.8,60.7 1082,60.7 1082,59.9 1082,59.4 
		1082.8,59.4 1082.8,58.7 1083.3,58.7 1084,58.2 1084.8,58.2 1084.8,58.2 1085.3,57.5 1086,57.5 1086.5,56.7 1086.5,56.7 
		1087.3,56.7 1088,56.2 1088.5,56.2 1088.5,56.2 1089.2,56.2 1089.2,56.7 1089.2,57.5 1089.2,57.5 1089.2,61.4 1089.2,61.4 
		1089.2,61.9 1089.2,62.7 1089.2,63.2 1089.2,63.9 1089.2,64.7 1089.2,65.2 1089.2,65.9 1089.2,66.4 1089.2,67.7 1089.2,67.7 
		1089.2,72.1 1089.2,72.9 1089.2,73.6 1089.2,74.1 1089.2,74.9 1089.7,75.4 1089.7,76.1 1089.7,76.9 1090.5,77.4 1090.5,77.4 
		1090.5,78.1 1091.2,78.1 1091.7,78.6 1091.7,78.6 1092.5,78.6 1093,78.6 1093.7,78.6 1094.2,78.6 1094.2,78.6 1095,78.6 
		1095.7,78.6 1095.7,78.6 1096.2,78.6 1097,78.1 1097,78.1 1097.5,78.1 1097.5,77.4 1098.2,76.9 1098.2,76.9 1098.2,76.1 1099,75.4 
		1099,74.9 1099,74.1 1099,73.6 1099,72.9 1099,67.2 1099,65.9 1099,65.2 1099,64.7 1099,63.9 1099,63.2 1098.2,62.7 1098.2,62.7 
		1098.2,62.7 1097.5,61.9 1097.5,61.9 1097,61.4 1096.2,61.4 1096.2,61.4 1095.7,60.7 1095.7,59.9 1095.7,59.9 1095.7,59.4 
		1096.2,59.4 1096.2,58.7 1097,58.7 1097.5,58.2 1099,58.2 1099.5,57.5 1099.5,57.5 1100.2,56.7 1100.7,56.7 1100.7,56.7 
		1101.5,56.7 1101.5,56.7 1102,56.7 1102,56.7 1102,56.7 1102.7,56.7 1102.7,57.5 1102.7,58.2 1102.7,58.2 1102.7,58.7 1102.7,59.4 
		1102.7,59.9 1102.7,61.4 1102.7,61.9 1102.7,62.7 1102.7,63.2 1102.7,63.9 1102.7,64.7 1102.7,65.9 1102.7,66.4 1102.7,67.2 
		1102.7,67.7 1102.7,67.7 1102.7,76.9 1102.7,76.9 1102.7,77.4 1103.4,78.1 1103.4,78.1 1103.9,78.6 1103.9,78.6 1104.7,78.6 
		1105.2,79.4 1105.9,79.4 1105.9,79.4 1105.9,80.1 	"/>
	<polygon class="st0" points="1125.9,58.7 1125.9,59.9 1125.9,60.7 1125.9,61.4 1125.4,61.9 1125.4,62.7 1125.4,62.7 1124.6,63.2 
		1124.6,63.2 1123.9,63.2 1123.9,63.2 1123.4,63.2 1122.6,62.7 1122.1,62.7 1121.4,62.7 1121.4,62.7 1120.6,61.9 1120.1,61.9 
		1120.1,61.9 1119.4,61.9 1119.4,62.7 1118.9,62.7 1118.2,62.7 1118.2,63.2 1118.2,63.2 1117.4,63.9 1117.4,64.7 1117.4,65.2 
		1117.4,65.9 1117.4,66.4 1117.4,67.2 1117.4,77.4 1117.4,78.1 1117.4,78.6 1117.4,79.4 1118.2,79.4 1118.2,79.4 1118.2,80.1 
		1118.9,80.1 1119.4,80.1 1119.4,80.6 1120.6,80.6 1120.6,80.6 1121.4,81.4 1122.1,81.4 1122.1,81.9 1122.1,81.9 1122.1,82.6 
		1122.1,83.1 1121.4,83.1 1120.6,83.1 1120.1,83.1 1119.4,83.1 1118.9,82.6 1118.2,82.6 1117.4,82.6 1116.9,82.6 1116.9,82.6 
		1116.1,82.6 1115.7,82.6 1114.9,82.6 1114.4,82.6 1114.4,82.6 1113.7,82.6 1112.9,82.6 1112.9,82.6 1112.4,83.1 1112.4,83.1 
		1111.7,83.1 1111.2,83.1 1111.2,83.1 1110.4,83.1 1110.4,82.6 1110.4,81.9 1110.4,81.4 1111.2,81.4 1111.2,80.6 1111.7,80.6 
		1112.4,80.1 1112.4,80.1 1112.9,79.4 1112.9,78.6 1112.9,78.1 1112.9,77.4 1112.9,77.4 1112.9,66.4 1112.9,65.9 1112.9,64.7 
		1112.9,63.9 1112.9,63.9 1112.9,63.2 1112.4,63.2 1112.4,63.2 1111.7,62.7 1111.7,61.9 1111.2,61.9 1110.4,61.4 1110.4,61.4 
		1109.9,61.4 1109.9,60.7 1109.9,59.9 1110.4,59.4 1111.2,59.4 1111.7,59.4 1111.7,58.7 1112.4,58.7 1112.9,58.2 1112.9,58.2 
		1113.7,57.5 1114.4,56.7 1114.4,56.7 1114.9,56.7 1114.9,56.2 1115.7,56.2 1115.7,56.2 1116.1,56.2 1116.1,56.2 1116.1,56.7 
		1116.9,57.5 1116.9,58.2 1116.9,58.7 1116.9,59.9 1116.9,59.9 1117.4,60.7 1117.4,60.7 1117.4,60.7 1117.4,60.7 1118.2,59.9 
		1118.2,59.4 1118.9,59.4 1119.4,58.7 1120.1,58.2 1120.6,57.5 1120.6,57.5 1121.4,56.7 1122.1,56.7 1122.6,56.7 1122.6,56.7 
		1123.4,56.2 1123.9,56.2 1123.9,56.2 1124.6,56.2 1125.4,56.7 1125.4,56.7 1125.9,57.5 1125.9,58.2 1125.9,58.7 1125.9,58.7 	"/>
	<path class="st1" d="M1285.8,388.9c36.1,0,68.9-14.7,92.6-38.4c23.8-23.7,38.5-56.4,38.5-92.4s-14.8-68.7-38.5-92.4
		c-4.5-4.5-9.4-8.8-14.6-12.6L1288.6,260c-1.1,1.5-3.2,1.9-4.7,0.8c-1.5-1.1-1.9-3.2-0.8-4.7l75.3-106.9c-20.8-13.9-45.8-22-72.5-22
		c-36,0-68.7,14.7-92.5,38.4c-23.7,23.7-38.4,56.4-38.4,92.5c0,36,14.7,68.8,38.4,92.5C1217.1,374.2,1249.8,388.9,1285.8,388.9
		L1285.8,388.9z M947.6,174.7l19.7-11.4l0.4,0.7l0.3-0.2l1.7,2.9l-20.1,11.5c13,23.6,20.4,50.6,20.5,79.3h25.7v3.4h-25.7
		c-0.5,28.6-8.3,55.5-21.5,78.9l23.9,13.6l-1.7,2.9l-23.9-13.6c-7.2,12.2-15.9,23.3-25.8,33.3c-9.8,9.8-20.7,18.3-32.6,25.5
		l14.7,25.3l-2.9,1.7l-14.7-25.3c-23.5,13.4-50.6,21.3-79.3,21.9v20.8h-3.4v-20.7c-28,0-54.4-7-77.6-19.2L710.7,432l-2.9-1.6
		l14.4-26c-13.8-7.6-26.3-17.2-37.4-28.2c-9.5-9.5-17.8-20.1-24.8-31.6l-24.2,13.8l-1.7-2.9l24.1-13.8c-13.9-24-22.1-51.8-22.5-81.4
		h-25.7v-3.4h25.7c0.2-29.1,7.9-56.5,21.4-80.3l-20.3-11.7l1.7-2.9l20.3,11.7c7.2-12.2,16-23.5,26-33.5
		c10.2-10.2,21.8-19.1,34.3-26.4l-10.7-18.8l2.9-1.7l10.7,18.8c23.9-13.3,51.4-20.8,80.6-20.9V70.4h3.4v20.8
		c28.2,0.5,54.8,8.2,78.1,21.1l10.2-18.6l3,1.6L887.1,114c12.4,7.3,23.8,16.1,33.9,26.2C931.3,150.5,940.3,162.1,947.6,174.7
		L947.6,174.7z M1430.6,174.8l19.6-11.4l0.4,0.7l0.4-0.2l1.7,2.9l-20,11.4c12.9,23.6,20.3,50.7,20.4,79.4h26v3.4h-26
		c-0.5,28.6-8.2,55.4-21.4,78.8l23.8,13.7l-1.7,2.9l-23.8-13.7c-7.2,12.2-15.9,23.4-25.9,33.4c-9.8,9.8-20.7,18.3-32.6,25.5
		l14.6,25.3l-2.9,1.7l-14.6-25.3c-23.5,13.4-50.6,21.3-79.4,21.8v20.8h-3.4v-20.7c-27.9,0-54.3-7-77.5-19.3l-14.5,26.1l-2.9-1.6
		l14.5-26.1c-13.7-7.6-26.3-17.1-37.3-28.1c-9.5-9.5-17.8-20.1-24.8-31.7l-24.4,14l-1.7-2.9l24.3-13.9c-13.9-24-22-51.8-22.4-81.3
		h-26v-3.4h26c0.2-29.1,8-56.5,21.4-80.3l-20.5-11.7l1.7-2.9l20.5,11.7c7.2-12.2,15.9-23.4,25.9-33.4c10.2-10.2,21.8-19.1,34.4-26.5
		l-10.9-18.8l2.9-1.7l10.9,18.8c23.9-13.3,51.3-20.8,80.4-20.9V70.4h3.4v20.8c28.3,0.5,54.9,8.1,78.1,21.1l10.4-18.5l2.9,1.7
		l-10.4,18.6c12.4,7.3,23.8,16.1,33.9,26.1C1414.3,150.4,1423.3,162.1,1430.6,174.8L1430.6,174.8z M803,421.8
		c45,0,86-18.4,115.7-48.1c29.7-29.7,48.1-70.6,48.1-115.7c0-45-18.4-85.8-48.1-115.5c-5.9-5.9-12.2-11.3-19-16.3
		c-0.1,0.3-0.2,0.6-0.4,0.9l-16.3,23.2c5.3,3.9,10.3,8.2,14.9,12.9c24.3,24.3,39.4,57.9,39.4,94.8c0,37-15.1,70.5-39.4,94.8
		c-24.3,24.3-57.9,39.4-94.8,39.4c-37,0-70.5-15.1-94.9-39.4c-24.3-24.3-39.4-57.9-39.4-94.8c0-37,15.1-70.5,39.4-94.8
		c24.3-24.3,57.9-39.4,94.9-39.4c27.5,0,53.1,8.3,74.4,22.6l16.3-23.2c0.2-0.3,0.4-0.5,0.6-0.7c-26.1-17.7-57.6-28-91.4-28
		c-45.1,0-86.1,18.4-115.7,48c-29.7,29.6-48.1,70.5-48.1,115.5c0,45.1,18.4,86.1,48,115.7C716.9,403.4,757.8,421.8,803,421.8
		L803,421.8z M881,153.1L805.7,260c-1.1,1.5-3.2,1.9-4.7,0.8c-1.5-1.1-1.9-3.2-0.8-4.7l75.3-106.9c-20.8-13.9-45.7-22-72.5-22
		c-36,0-68.8,14.7-92.5,38.4c-23.7,23.7-38.4,56.4-38.4,92.5c0,36,14.7,68.8,38.4,92.5c23.7,23.7,56.4,38.4,92.5,38.4
		c36,0,68.7-14.7,92.5-38.4c23.7-23.7,38.4-56.4,38.4-92.5c0-36-14.7-68.7-38.4-92.5C890.9,161,886.1,156.9,881,153.1L881,153.1z
		 M1285.8,421.8c45.1,0,86.1-18.4,115.7-48c29.7-29.7,48-70.6,48-115.7c0-45-18.4-85.9-48.1-115.5c-5.9-5.9-12.2-11.3-19-16.3
		c-0.1,0.3-0.2,0.6-0.4,0.8l-16.4,23.2c5.3,3.9,10.4,8.3,15,12.9c24.4,24.3,39.5,57.9,39.5,94.8c0,37-15.1,70.5-39.5,94.8
		c-24.4,24.4-58,39.4-95,39.4c-37,0-70.5-15.1-94.8-39.4c-24.3-24.3-39.4-57.9-39.4-94.8c0-37,15.1-70.5,39.4-94.8
		c24.3-24.3,57.9-39.4,94.8-39.4c27.5,0,53.1,8.3,74.5,22.6l16.4-23.2c0.2-0.3,0.4-0.5,0.6-0.7c-26.1-17.7-57.6-28-91.4-28
		c-45,0-85.9,18.4-115.5,48c-29.6,29.6-48,70.5-48,115.5c0,45.1,18.4,86.1,48,115.7C1199.9,403.4,1240.8,421.8,1285.8,421.8
		L1285.8,421.8z"/>
</g>
</svg>
