<?xml version="1.0" encoding="utf-8"?>
<!-- Generator: Adobe Illustrator 22.1.0, SVG Export Plug-In . SVG Version: 6.00 Build 0)  -->
<svg version="1.1" id="Capa_1" xmlns="http://www.w3.org/2000/svg" xmlns:xlink="http://www.w3.org/1999/xlink" x="0px" y="0px"
	 viewBox="-348.9 41.8 849 598.1" style="enable-background:new -348.9 41.8 849 598.1;" xml:space="preserve">
<style type="text/css">
	.st0{fill:#141515;}
	.st1{fill:none;stroke:#141515;stroke-width:4;stroke-linecap:round;stroke-linejoin:round;stroke-miterlimit:10;}
	.st2{fill:none;stroke:#141515;stroke-width:3.9969;stroke-linecap:round;stroke-linejoin:round;stroke-miterlimit:10;}
	.st3{fill:none;stroke:#141515;stroke-width:3.9969;stroke-miterlimit:10;}
	.st4{fill:none;stroke:#141515;stroke-width:10.0063;stroke-miterlimit:10;}
</style>
<polygon class="st0" points="-189.6,511.9 -190.3,511.9 -190.3,512.6 -190.9,512.6 -191.5,513.3 -191.5,513.3 -192.2,513.3 
	-192.2,513.9 -192.8,514.5 -192.8,515.2 -193.5,515.8 -193.5,516.5 -193.5,516.5 -193.5,517.1 -194.1,517.8 -194.1,518.4 
	-194.1,518.4 -194.1,519.1 -194.8,519.7 -194.8,520.4 -194.8,521 -195.4,521.6 -195.4,522.3 -196.1,522.9 -196.1,523.6 
	-196.1,524.2 -196.7,524.9 -196.7,526.2 -197.3,526.8 -197.3,527.5 -198,528.1 -198,528.8 -198.7,530 -198.7,530.7 -199.3,531.3 
	-199.3,532 -200,532.6 -200,533.3 -200,533.9 -200.6,534.6 -200.6,534.6 -200.6,535.2 -201.2,535.9 -201.2,536.5 -201.2,536.5 
	-201.9,537.1 -201.9,537.1 -201.9,537.1 -202.5,537.1 -202.5,537.1 -202.5,536.5 -203.2,535.9 -203.2,535.2 -203.8,534.6 
	-203.8,533.9 -203.8,533.3 -204.5,532.6 -204.5,532 -205.1,531.3 -205.1,531.3 -205.8,530.7 -205.8,530 -205.8,529.4 -206.4,528.8 
	-206.4,528.1 -207,527.5 -207,526.8 -207,526.2 -207.7,525.5 -207.7,524.9 -208.3,524.2 -208.3,524.2 -208.3,523.6 -209,522.9 
	-209,522.3 -209.6,521.6 -209.6,521 -209.6,520.4 -210.3,519.7 -210.3,519.1 -210.3,518.4 -210.9,517.8 -210.9,517.1 -210.9,516.5 
	-211.6,515.8 -211.6,515.8 -211.6,515.2 -212.2,514.5 -212.2,513.9 -212.9,513.3 -212.9,513.3 -212.9,513.3 -213.5,512.6 
	-214.2,512.6 -214.8,511.9 -214.8,511.9 -214.2,511.3 -214.2,510.7 -213.5,510.7 -213.5,510.7 -213.5,510.7 -212.9,510.7 
	-212.2,510.7 -211.6,510.7 -211.6,510.7 -210.9,510.7 -210.3,510.7 -209.6,510.7 -209,510.7 -208.3,510.7 -207.7,510.7 -207,510.7 
	-206.4,510.7 -205.8,510.7 -205.8,510.7 -205.1,510.7 -205.1,510.7 -205.1,510.7 -204.5,510.7 -204.5,510.7 -203.8,511.3 
	-204.5,511.9 -204.5,511.9 -205.1,512.6 -205.1,512.6 -205.8,513.3 -206.4,513.3 -207,513.9 -207,513.9 -207,514.5 -207,514.5 
	-207,515.2 -207,515.8 -207,515.8 -207,516.5 -206.4,517.1 -206.4,517.1 -206.4,517.8 -205.8,518.4 -205.8,519.1 -205.8,519.7 
	-205.1,520.4 -205.1,521 -205.1,521.6 -204.5,522.3 -204.5,522.9 -203.8,524.2 -203.8,524.2 -203.2,525.5 -203.2,526.2 
	-202.5,526.8 -202.5,527.5 -201.9,528.1 -201.9,528.8 -201.2,529.4 -201.2,529.4 -201.2,529.4 -201.2,529.4 -201.2,529.4 
	-201.2,529.4 -201.2,528.8 -200.6,528.1 -200.6,528.1 -200,526.8 -200,526.2 -199.3,524.9 -199.3,524.2 -198.7,523.6 -198.7,522.9 
	-198,522.3 -198,521.6 -198,521 -197.3,520.4 -197.3,519.7 -197.3,519.1 -196.7,518.4 -196.7,517.8 -196.7,517.1 -196.7,516.5 
	-196.1,515.8 -196.1,515.8 -196.1,515.2 -196.1,515.2 -196.1,514.5 -196.1,513.9 -196.7,513.3 -197.3,512.6 -197.3,512.6 
	-198,512.6 -198.7,511.9 -198.7,511.3 -198.7,511.3 -198.7,510.7 -198,510.7 -198,510.7 -197.3,510.7 -196.7,510.7 -196.7,510.7 
	-196.1,510.7 -195.4,510.7 -194.8,510.7 -194.1,510.7 -193.5,510.7 -192.8,511.3 -192.2,511.3 -191.5,511.3 -191.5,511.3 
	-190.9,511.3 -190.9,511.3 -190.3,510.7 -190.3,511.3 -189.6,511.9 "/>
<path class="st0" d="M-164.4,522.9v0.6l-0.7,0.7v0.7v0.7v0.7v0.6v0.7l-0.7,0.7v0.7v0.7l-0.6,0.6v0.7h-0.7v0.7l-0.7,0.7v0.7h-0.7v0.6
	l-0.7,0.7l0,0l-0.6,0.7h-0.7v0.7h-0.7l-0.7,0.7l0,0l-0.7,0.6h-0.6h-0.7l0,0h-0.7l-0.7,0.7h-0.7h-0.6l0,0h-0.7h-0.7h-0.7v-0.7h-0.6
	h-0.7h-0.7l-0.7-0.6l0,0h-0.7l-0.6-0.7l0,0l-0.7-0.7l0,0l-0.7-0.7l-0.7-0.7l0,0v-0.6h-0.7V532l-0.6-0.7v-0.7l-0.7-0.7v-0.6l0,0v-0.7
	l-0.7-0.7v-0.7v-1.3v-0.7v-0.7v-0.7l0,0v-0.7v-0.6v-0.7v-0.7V521l0.7-0.6v-0.7v-0.7v-0.7l0.7-0.7v-0.6l0.6-0.7v-0.7h0.7v-0.7
	l0.7-0.7v-0.6l0,0h0.7v-0.7l0.7-0.7h0.6v-0.7h0.7l0.7-0.7l0,0h0.7l0.7-0.6h0.6l0,0h0.7l0.7-0.7h0.7h0.6l0,0l0,0h0.7h0.7h0.7h0.7
	l0.6,0.7h0.7l0,0h0.7l0.7,0.6l0,0l0.7,0.7h0.6v0.7h0.7l0.7,0.7l0,0v0.7h0.7v0.6l0.7,0.7v0.7l0.6,0.7l0,0v0.7l0.7,0.6v0.7v0.7v0.7
	v0.7v0.6v1.3L-164.4,522.9L-164.4,522.9L-164.4,522.9z M-168.9,524.9v-0.7v-0.7l-0.6-0.6v-0.7v-0.7V521v-0.6v-0.7l-0.7-0.7v-0.7
	v-0.7l-0.7-0.6v-0.7l0,0l-0.7-0.7v-0.7h-0.7l-0.6-0.7v-0.6h-0.7h-0.7v-0.7h-0.7h-0.7h-0.6l0,0h-0.7l0,0h-0.7l-0.7,0.7h-0.6l0,0
	l-0.7,0.6v0.7h-0.7v0.7l-0.7,0.7l0,0l-0.7,0.7v0.6v0.7l-0.6,0.7v0.7v0.7v0.6v0.7v1.3v0.6v0.7v0.7v0.7v0.7l0.6,0.6v0.7v0.7v0.7
	l0.7,0.7v0.6l0,0l0.7,0.7l0,0v0.7l0.7,0.7h0.7v0.7l0.6,0.6h0.7l0,0l0.7,0.7h0.7h0.6l0,0h0.7h0.7h0.7l0.7-0.7l0,0l0.6-0.6h0.7V532
	h0.7v-0.7l0.7-0.7l0,0V530l0.7-0.6v-0.7v-0.7v-0.7l0.6-0.7v-0.6V524.9L-168.9,524.9L-168.9,524.9z"/>
<polygon class="st0" points="-148.9,535.9 -148.9,536.5 -148.9,536.5 -149.6,536.5 -149.6,536.5 -150.2,536.5 -150.9,536.5 
	-150.9,536.5 -151.5,536.5 -152.1,536.5 -152.8,536.5 -152.8,536.5 -153.4,536.5 -154.1,536.5 -154.7,536.5 -155.4,536.5 
	-156,536.5 -156,536.5 -156.7,536.5 -157.3,536.5 -157.9,537.1 -158.6,537.1 -159.3,537.1 -159.9,537.1 -159.9,536.5 -159.9,536.5 
	-159.9,535.9 -159.9,535.2 -159.9,535.2 -159.3,534.6 -158.6,534.6 -157.9,533.9 -157.9,533.9 -157.9,533.3 -157.3,532.6 
	-157.3,532 -157.3,531.3 -157.3,531.3 -157.3,500.3 -157.3,499.7 -157.3,499 -157.3,498.4 -157.3,497.7 -157.9,497.1 -157.9,496.4 
	-157.9,496.4 -157.9,495.8 -158.6,495.8 -158.6,495.2 -159.3,495.2 -159.9,494.5 -159.9,494.5 -160.5,493.9 -160.5,493.9 
	-160.5,493.2 -160.5,493.2 -160.5,492.6 -159.9,491.9 -159.9,491.9 -159.3,491.9 -158.6,491.3 -157.9,491.3 -157.9,491.3 
	-157.3,490.6 -156.7,490.6 -156.7,490 -156,490 -155.4,489.4 -154.7,488.7 -154.7,488.7 -154.1,488.7 -154.1,488.7 -153.4,488.7 
	-153.4,488.7 -153.4,489.4 -153.4,490 -153.4,490 -153.4,490.6 -153.4,491.3 -153.4,491.9 -153.4,493.2 -153.4,493.9 -153.4,494.5 
	-153.4,495.2 -153.4,495.8 -153.4,496.4 -153.4,497.1 -153.4,497.7 -153.4,498.4 -153.4,499 -153.4,499.7 -153.4,500.3 -153.4,530 
	-153.4,531.3 -152.8,532 -152.8,532.6 -152.8,532.6 -152.1,533.3 -152.1,533.3 -151.5,533.9 -151.5,533.9 -150.9,533.9 
	-150.2,534.6 -149.6,534.6 -149.6,534.6 -148.9,535.2 -148.9,535.2 -148.9,535.9 "/>
<polygon class="st0" points="-122.4,533.9 -122.4,533.9 -122.4,534.6 -123.1,534.6 -123.1,535.2 -123.7,535.2 -126.3,537.1 
	-126.3,537.1 -126.3,537.1 -126.9,537.1 -126.9,536.5 -127.6,535.9 -128.2,535.2 -128.2,534.6 -128.9,534.6 -129.5,533.9 
	-129.5,533.9 -129.5,533.9 -130.2,533.9 -130.2,534.6 -130.8,534.6 -131.5,535.2 -132.1,535.2 -132.7,535.9 -133.4,535.9 
	-133.4,535.9 -134.1,536.5 -134.7,536.5 -135.4,536.5 -135.4,536.5 -136,536.5 -136,536.5 -136.6,536.5 -137.3,536.5 -137.9,536.5 
	-138.6,536.5 -139.2,536.5 -139.9,536.5 -139.9,535.9 -140.5,535.9 -141.2,535.2 -141.2,535.2 -141.2,534.6 -141.8,534.6 
	-141.8,534.6 -141.8,533.9 -142.4,533.3 -142.4,533.3 -142.4,532.6 -142.4,532 -143.1,531.3 -143.1,530.7 -143.1,530 -143.1,528.8 
	-143.1,528.1 -143.1,527.5 -143.1,520.4 -143.1,519.7 -143.1,519.1 -143.1,518.4 -143.1,517.8 -143.7,517.1 -143.7,516.5 
	-143.7,516.5 -144.4,515.8 -144.4,515.2 -145,515.2 -145.7,514.5 -145.7,514.5 -146.3,513.9 -146.3,513.9 -146.3,513.3 
	-146.3,512.6 -145.7,512.6 -145,511.9 -144.4,511.9 -143.7,511.9 -143.7,511.3 -143.1,511.3 -142.4,510.7 -142.4,510.7 
	-141.8,510.7 -141.2,510 -140.5,510 -140.5,510 -139.9,510 -139.2,510 -139.2,510 -139.2,510.7 -139.2,511.3 -139.2,515.2 
	-139.2,515.2 -139.2,515.8 -139.2,516.5 -139.2,517.1 -139.2,517.8 -139.2,518.4 -139.2,519.1 -139.2,519.7 -139.2,520.4 
	-139.2,521 -139.2,521.6 -139.2,525.5 -139.2,526.8 -139.2,527.5 -139.2,528.1 -139.2,528.8 -138.6,529.4 -138.6,530 -138.6,530.7 
	-137.9,530.7 -137.9,531.3 -137.9,531.3 -137.3,532 -136.6,532 -136.6,532.6 -136,532.6 -135.4,532.6 -134.7,532.6 -134.1,532.6 
	-134.1,532.6 -133.4,532.6 -132.7,532.6 -132.7,532.6 -132.1,532 -131.5,532 -131.5,532 -130.8,531.3 -130.8,531.3 -130.2,530.7 
	-130.2,530 -130.2,529.4 -129.5,529.4 -129.5,528.8 -129.5,528.1 -129.5,527.5 -129.5,526.8 -129.5,520.4 -129.5,519.7 
	-129.5,519.1 -129.5,517.8 -129.5,517.1 -129.5,517.1 -130.2,516.5 -130.2,516.5 -130.2,515.8 -130.8,515.8 -130.8,515.2 
	-131.5,515.2 -132.1,515.2 -132.1,514.5 -132.7,514.5 -132.7,513.9 -132.7,513.9 -132.7,513.3 -132.1,512.6 -132.1,512.6 
	-131.5,511.9 -130.8,511.9 -130.2,511.3 -129.5,511.3 -128.9,510.7 -128.2,510.7 -127.6,510.7 -127.6,510.7 -126.9,510 -126.9,510 
	-126.3,510 -126.3,510 -126.3,510 -125.7,510.7 -125.7,511.3 -125.7,511.9 -125.7,511.9 -125.7,511.9 -125.7,512.6 -125.7,513.9 
	-125.7,515.2 -125.7,515.8 -125.7,516.5 -125.7,517.1 -125.7,517.8 -125.7,518.4 -125.7,519.1 -125.7,519.7 -125.7,520.4 
	-125.7,521 -125.7,521.6 -125.7,530 -125.7,530.7 -125.7,531.3 -125,532 -125,532 -124.4,532.6 -124.4,532.6 -123.7,532.6 
	-123.1,532.6 -122.4,533.3 -122.4,533.3 -122.4,533.9 "/>
<polygon class="st0" points="-77.2,535.9 -77.2,536.5 -77.2,536.5 -77.8,536.5 -78.5,536.5 -79.1,536.5 -79.8,536.5 -79.8,536.5 
	-80.4,536.5 -81.1,536.5 -81.7,536.5 -82.4,536.5 -83,536.5 -83,536.5 -83.7,536.5 -84.3,536.5 -85,536.5 -85,536.5 -85.6,536.5 
	-86.2,536.5 -86.9,536.5 -86.9,536.5 -87.5,536.5 -88.2,536.5 -88.2,536.5 -88.2,535.9 -88.2,535.2 -88.2,535.2 -88.2,534.6 
	-87.5,534.6 -86.9,534.6 -86.9,534.6 -86.2,533.9 -86.2,533.9 -85.6,533.3 -85.6,532.6 -85.6,532 -85.6,531.3 -85.6,530.7 
	-85.6,521.6 -85.6,521 -85.6,520.4 -85.6,519.7 -85.6,519.1 -85.6,518.4 -86.2,517.8 -86.2,517.1 -86.2,516.5 -86.9,515.8 
	-86.9,515.8 -86.9,515.2 -87.5,515.2 -88.2,514.5 -88.2,514.5 -88.8,514.5 -88.8,514.5 -89.5,514.5 -90.1,514.5 -90.8,514.5 
	-91.4,514.5 -91.4,514.5 -92.1,514.5 -92.7,514.5 -93.3,514.5 -93.3,515.2 -94,515.2 -94.7,515.2 -95.3,515.8 -95.9,516.5 
	-95.9,516.5 -96.6,517.1 -96.6,517.1 -96.6,517.8 -96.6,530.7 -96.6,532 -96.6,532.6 -96.6,533.3 -95.9,533.3 -95.9,533.9 
	-95.9,533.9 -95.3,533.9 -94.7,534.6 -94,534.6 -93.3,534.6 -93.3,535.2 -92.7,535.2 -92.7,535.2 -92.7,535.9 -92.7,536.5 
	-92.7,536.5 -93.3,536.5 -93.3,536.5 -94,536.5 -94.7,536.5 -94.7,536.5 -95.3,536.5 -95.9,536.5 -95.9,536.5 -96.6,536.5 
	-97.2,536.5 -97.9,536.5 -98.5,536.5 -98.5,536.5 -99.2,536.5 -99.8,536.5 -100.5,536.5 -101.1,537.1 -101.7,537.1 -101.7,537.1 
	-102.4,537.1 -103,536.5 -103,536.5 -103,536.5 -103,535.9 -103,535.2 -103,535.2 -102.4,534.6 -101.7,534.6 -101.7,534.6 
	-101.1,534.6 -101.1,533.9 -100.5,533.3 -100.5,532.6 -100.5,532 -100.5,531.3 -100.5,530.7 -100.5,521.6 -100.5,521 -100.5,520.4 
	-100.5,519.7 -100.5,519.1 -100.5,518.4 -101.1,517.8 -101.1,517.1 -101.1,516.5 -101.7,515.8 -101.7,515.8 -101.7,515.2 
	-102.4,515.2 -102.4,514.5 -103,514.5 -103.7,514.5 -104.3,513.9 -104.3,513.9 -105,513.9 -105.6,514.5 -106.3,514.5 -106.3,514.5 
	-106.9,514.5 -107.6,514.5 -108.2,515.2 -108.2,515.2 -108.9,515.2 -108.9,515.8 -109.5,515.8 -110.2,516.5 -110.2,517.1 
	-110.8,517.1 -110.8,517.8 -110.8,518.4 -110.8,518.4 -110.8,530.7 -110.8,531.3 -110.8,532 -110.8,532.6 -110.2,533.3 
	-110.2,533.9 -110.2,533.9 -109.5,533.9 -108.9,534.6 -108.2,534.6 -107.6,534.6 -107.6,534.6 -106.9,534.6 -106.3,535.2 
	-106.3,535.2 -106.3,535.9 -106.9,536.5 -107.6,536.5 -108.2,536.5 -108.9,536.5 -109.5,536.5 -110.2,536.5 -110.8,536.5 
	-111.4,536.5 -111.4,536.5 -112.1,536.5 -112.7,536.5 -113.4,536.5 -114,536.5 -114,536.5 -114.7,536.5 -115.3,536.5 -115.3,536.5 
	-116,537.1 -116,537.1 -116.6,537.1 -117.2,537.1 -117.2,537.1 -117.9,537.1 -117.9,536.5 -117.9,535.9 -117.9,535.9 -117.9,535.2 
	-117.2,535.2 -116.6,534.6 -116,534.6 -116,534.6 -115.3,533.9 -115.3,533.9 -115.3,533.3 -115.3,532.6 -114.7,532 -114.7,530.7 
	-114.7,520.4 -114.7,519.7 -115.3,518.4 -115.3,517.8 -115.3,517.1 -115.3,517.1 -116,516.5 -116,515.8 -116.6,515.8 -116.6,515.8 
	-117.2,515.8 -117.9,515.2 -117.9,515.2 -117.9,515.2 -118.5,514.5 -118.5,514.5 -118.5,513.9 -117.9,513.9 -117.9,513.3 
	-117.2,513.3 -116.6,512.6 -116,511.9 -116,511.9 -115.3,511.3 -114.7,510.7 -114,510.7 -113.4,510 -112.7,510 -112.7,510 
	-112.7,510 -112.1,509.4 -112.1,510 -112.1,510 -111.4,510.7 -111.4,511.9 -111.4,512.6 -110.8,513.3 -110.8,513.9 -110.8,513.9 
	-110.8,513.9 -110.2,513.3 -109.5,513.3 -109.5,512.6 -108.9,512.6 -108.2,511.9 -108.2,511.3 -107.6,511.3 -106.9,511.3 
	-106.9,510.7 -106.3,510.7 -106.3,510.7 -105.6,510 -105,510 -104.3,510 -104.3,510 -103.7,510 -103,510 -102.4,510 -102.4,509.4 
	-101.7,510 -101.1,510 -100.5,510 -100.5,510 -99.8,510 -99.2,510.7 -99.2,510.7 -98.5,511.3 -98.5,511.3 -97.9,511.9 -97.9,512.6 
	-97.2,513.3 -97.2,513.3 -97.2,513.3 -95.9,512.6 -95.9,512.6 -95.3,511.9 -94.7,511.9 -94,511.3 -94,511.3 -93.3,511.3 
	-92.7,510.7 -92.7,510.7 -92.1,510.7 -91.4,510 -90.8,510 -90.8,510 -90.1,510 -89.5,510 -88.8,510 -88.8,509.4 -88.2,509.4 
	-88.2,510 -87.5,510 -86.9,510 -86.2,510 -86.2,510 -85.6,510 -85,510.7 -85,510.7 -84.3,510.7 -84.3,511.3 -83.7,511.3 
	-83.7,511.9 -83,512.6 -83,512.6 -82.4,513.3 -82.4,513.9 -82.4,514.5 -82.4,514.5 -81.7,515.2 -81.7,515.8 -81.7,516.5 
	-81.7,517.1 -81.7,517.8 -81.7,519.1 -81.7,519.7 -81.7,519.7 -81.7,530.7 -81.7,531.3 -81.1,532 -81.1,532.6 -81.1,533.3 
	-81.1,533.3 -80.4,533.9 -80.4,533.9 -79.8,533.9 -79.1,534.6 -78.5,534.6 -77.8,534.6 -77.2,535.2 -77.2,535.2 -77.2,535.9 "/>
<path class="st0" d="M-55.9,530.7v0.7l0,0v0.7l-0.7,0.7l0,0l-0.7,0.6l-0.7,0.7l-0.6,0.7l0,0h-0.7l-0.7,0.7h-0.7v0.7h-0.7h-0.6
	l-0.7,0.6l0,0H-63h-0.7h-0.7v0.7h-0.6h-0.7l0,0h-0.7l-0.7-0.7l0,0h-0.7h-0.6h-0.7v-0.6h-0.7l-0.7-0.7l0,0l-0.6-0.7h-0.7v-0.7
	l-0.7-0.7l0,0l0,0l-0.7-0.6V532l-0.7-0.7l0,0l-0.6-0.7V530v-0.6v-0.7l-0.7-0.7v-0.7v-0.7v-0.6v-0.7v-0.7v-0.7v-0.7v-0.6v-1.3V521
	v-0.6v-0.7l0.7-0.7v-0.7v-0.7v-0.6h0.6v-0.7v-0.7l0.7-0.7v-0.7l0.7-0.6l0,0l0.7-0.7l0,0l0.7-0.7v-0.7h0.6l0.7-0.7l0,0l0.7-0.6h0.7
	V510h0.6h0.7h0.7l0,0l0.7-0.7h0.7h0.6l0,0l0.7,0.7h0.7h0.7l0,0l0.7,0.7h0.6l0.7,0.6l0,0l0.7,0.7h0.7v0.7l0.7,0.7v0.7l0.6,0.6l0,0
	l0.7,0.7v0.7l0,0v0.7l0.7,0.7l0,0h0.7v0.6v0.7l0,0v0.7h-0.7v0.7l-0.7,0.7h-0.7h-0.6l-11.7,4.5v1.3v0.6l0.7,0.7v0.7v0.7l0.7,0.7v0.6
	l0,0l0.7,0.7v0.7h0.6v0.7h0.7v0.7h0.7h0.7v0.6h0.7h0.6h0.7l0,0h0.7h0.7v-0.6h0.7h0.6h0.7V532h0.7h0.7l0.7-0.7l0,0l0.6-0.7l0.7-0.7
	h0.7l0,0h0.7l0,0V530.7L-55.9,530.7L-55.9,530.7z M-61.7,517.1v-0.7v-0.7l-0.7-0.7l0,0l-0.7-0.7v-0.6l0,0l-0.7-0.7h-0.7l-0.6-0.7
	l0,0h-0.7l0,0h-0.7h-0.7v0.7h-0.7l0,0h-0.6v0.7h-0.7v0.6l-0.7,0.7l0,0v0.7v0.7l-0.7,0.7v0.6v0.7v0.7v0.7v1.3v0.7v0.7l6.5-2.6h0.7
	l0.7-0.7v-0.7h0.7v-0.7V517.1L-61.7,517.1z"/>
<path class="st0" d="M278.1,532.6v0.6l0,0l0,0v0.7h-0.6l-0.7,0.7v0.7h-1.3v0.7h-0.6l-0.7,0.6l-0.7,0.7h-0.7h-0.7l0,0v0.7l0,0
	l-0.6-0.7l0,0l-0.7-0.7v-1.3l-0.7-0.7v-0.7v-0.7l0,0l0,0l-0.7,0.7l0,0h-0.7l-0.6,0.7l-1.3,0.7l0,0l-0.7,0.7h-0.7h-0.6v0.6h-0.7h-0.7
	v0.7h-0.7h-0.6l0,0l0,0H262l-0.7-0.7h-0.7l0,0H260l-0.6-0.6l0,0l-0.7-0.7h-0.7v-0.7l-0.7-0.7h-0.7v-0.7l-0.6-0.6l0,0V532l-0.7-0.7
	v-0.7V530l-0.7-0.6v-0.7v-0.7v-0.7l-0.7-0.7v-0.6v-0.7v-0.7v-0.7v-0.7v-0.6v-0.7v-0.7V521v-0.6v-0.7l0.7-0.7v-0.7v-0.7v-0.6h0.7
	v-0.7l0.7-0.7v-0.7l0.6-0.7v-0.6h0.7v-0.7l0.7-0.7l0.7-0.7l0,0l0.7-0.7l0.6-0.6l0,0h0.7l0.7-0.7h0.7l0,0l0.7-0.7h0.6l0,0h0.7h0.7
	l0,0h0.7h0.6h0.7v0.7h0.7h0.7h0.7h0.6l0,0h0.7h0.7v-0.7l0,0v-11.6v-0.7v-0.7l-0.7-0.7v-0.6l0,0h-0.7v-0.7h-0.6l-0.7-0.7l0,0h-0.7
	l-0.7-0.7v-0.6v-0.7h0.7l0.7-0.7l0,0h0.7v-0.7h0.6h0.7V490h0.7l0.7-0.6h0.7l0.6-0.7l0,0l0.7-0.7h0.7l0,0l0,0l0.7,0.7v0.7v0.6l0,0
	v0.7v0.7v0.7v1.3v0.7v0.7v0.7v0.6v0.7v0.7v0.7v0.7v1.3l0,0v31v0.7v0.7h0.7l0,0l0.6,0.7l0.7-0.7h0.7l0,0h0.7v0.7H278.1L278.1,532.6
	L278.1,532.6z M270.4,529.4v-11.7v-0.6l-0.7-0.7v-0.7l0,0l-0.7-0.7l-0.6-0.7l0,0l-0.7-0.6h-0.7v-0.7h-0.7h-0.7h-0.6v-0.7h-0.7h-0.7
	l0,0h-0.7h-0.6l-0.7,0.7l0,0h-0.7l0,0l-0.7,0.7l0,0l-0.7,0.6l0,0l-0.6,0.7v0.7v0.7h-0.7v0.7v0.6v0.7v0.7v1.3l-0.7,0.6v0.7v0.7
	l0.7,0.7v0.6v0.7v0.7v0.7v0.7l0.7,0.6v0.7v0.7l0.6,0.7l0,0l0.7,0.7v0.6l0.7,0.7h0.7v0.7h0.7v0.7h0.6l0.7,0.7h0.7l0,0h0.7l0,0h0.6
	h0.7l0,0l0.7-0.7h0.7l0.7-0.7l0,0h0.6l0.7-0.7V530h0.7V529.4L270.4,529.4z"/>
<polygon class="st0" points="296.8,512.6 296.8,513.3 296.8,513.9 296.8,514.5 296.8,515.2 296.2,515.8 296.2,515.8 296.2,516.5 
	295.6,516.5 295.6,516.5 294.9,516.5 294.9,516.5 294.3,515.8 293.6,515.8 293,515.8 292.3,515.8 291.7,515.2 291.7,515.2 
	291,515.2 291,515.2 290.4,515.8 289.8,515.8 289.8,515.8 289.1,516.5 289.1,516.5 289.1,517.1 288.5,517.8 288.5,518.4 
	288.5,519.1 288.5,519.7 288.5,520.4 288.5,530.7 288.5,531.3 288.5,532 289.1,532.6 289.1,532.6 289.1,533.3 289.8,533.3 
	289.8,533.3 290.4,533.3 291,533.9 291.7,533.9 291.7,533.9 292.3,534.6 293,534.6 293,535.2 293,535.2 293,535.9 293,536.5 
	292.3,536.5 291.7,536.5 291,536.5 290.4,536.5 289.8,536.5 289.8,536.5 289.1,535.9 288.5,535.9 287.8,535.9 287.2,535.9 
	286.5,535.9 286.5,535.9 285.9,535.9 285.2,535.9 284.6,535.9 284.6,536.5 283.9,536.5 283.3,536.5 283.3,536.5 283.3,536.5 
	282.6,536.5 282,536.5 282,536.5 282,535.9 281.3,535.2 282,534.6 282,534.6 282.6,533.9 283.3,533.9 283.3,533.3 283.9,533.3 
	283.9,532.6 283.9,532 284.6,531.3 284.6,530.7 284.6,530.7 284.6,519.7 284.6,519.1 284.6,517.8 283.9,517.8 283.9,517.1 
	283.9,517.1 283.9,516.5 283.3,516.5 283.3,515.8 282.6,515.2 282,515.2 282,515.2 281.3,514.5 281.3,514.5 281.3,513.9 
	281.3,513.3 281.3,513.3 282,512.6 282.6,512.6 283.3,511.9 283.3,511.9 283.9,511.3 284.6,511.3 284.6,510.7 285.2,510.7 
	285.2,510.7 285.9,510 286.5,509.4 286.5,509.4 286.5,509.4 287.2,509.4 287.2,509.4 287.8,510 287.8,510.7 287.8,511.3 
	287.8,512.6 287.8,513.3 288.5,513.9 288.5,513.9 288.5,513.9 288.5,513.9 288.5,513.9 289.1,513.3 289.8,513.3 289.8,512.6 
	291,511.9 291,511.3 291.7,511.3 292.3,510.7 292.3,510.7 293,510 293.6,510 294.3,510 294.3,510 294.9,510 295.6,510 295.6,510 
	296.2,510 296.8,510 296.8,510.7 296.8,511.3 296.8,511.9 296.8,512.6 "/>
<path class="st0" d="M309.8,497.1v0.7l-0.7,0.7v0.6v0.7l-0.6,0.7l0,0l-0.7,0.7h-0.7v0.7h-0.7l0,0l-0.7-0.7h-0.6v-0.7h-0.7v-0.7l0,0
	L304,499v-0.6v-0.7v-0.7v-0.7h0.7v-0.7l0.7-0.6v-0.7h0.6l0.7-0.7l0,0h0.7h0.7l0,0l0.7,0.7h0.6v0.7v0.6h0.7v0.7V497.1L309.8,497.1z
	 M312.3,535.2v0.7l-0.6,0.6l0,0l0,0h-0.7h-0.7h-0.7l0,0h-0.7h-0.6h-0.7h-0.7l0,0h-0.7h-0.7h-0.6h-0.7l0,0H304h-0.7l0,0h-0.6H302l0,0
	v-0.6l-0.7-0.7h0.7v-0.7h0.7l0.6-0.7l0,0l0.7-0.7l0,0v-0.6l0.7-0.7v-0.7v-0.7V530v-8.4v-1.3v-0.7v-0.7l-0.7-0.7v-0.7l0,0v-0.6h-0.7
	v-0.7l-0.6-0.7H302v-0.7h-0.7l-0.7-0.7l0,0l0.7-0.6v-0.7h0.7l0,0l0.7-0.7h0.6l0.7-0.7l0,0h0.7l0.7-0.7l0,0l0.6-0.6l0,0l0.7-0.7
	l0.7-0.7l0,0h0.7l0,0l0.7,0.7v0.7v0.6l0,0v0.7v0.7v0.7v0.7v0.6v0.7v0.7v0.7v0.7v0.6v0.7v0.7v0.7v1.3v0.7v0.7v0.7v0.6v0.7v0.7v0.7
	v0.7v0.6v0.7v0.7v0.7v0.7v0.6v0.7v0.7v0.7h0.6v0.7l0.7,0.6l0,0l0.7,0.7h0.7h0.7v0.7h0.6V535.2L312.3,535.2L312.3,535.2z"/>
<polygon class="st0" points="339.5,511.3 339.5,511.9 339.5,511.9 338.9,512.6 338.2,512.6 337.5,512.6 337.5,513.3 336.9,513.9 
	336.9,514.5 336.3,515.2 336.3,515.2 336.3,515.8 336.3,516.5 335.6,516.5 335.6,517.1 335.6,517.8 335.6,518.4 335,519.1 
	335,519.7 335,520.4 334.3,521 334.3,521 333.7,522.3 333.7,522.9 333.7,523.6 333,524.2 333,524.9 332.4,525.5 332.4,526.2 
	331.7,526.8 331.7,528.1 331.1,528.8 331.1,529.4 330.5,530 330.5,530.7 330.5,531.3 329.8,532 329.8,532.6 329.2,533.3 
	329.2,533.9 329.2,534.6 328.5,535.2 328.5,535.2 328.5,535.9 327.9,536.5 327.9,536.5 327.9,536.5 327.9,536.5 327.2,536.5 
	327.2,536.5 327.2,535.9 326.6,535.2 326.6,534.6 325.9,533.9 325.9,533.9 325.3,533.3 325.3,532.6 324.6,532 324.6,531.3 
	324.6,530.7 324,530 324,529.4 323.3,528.8 323.3,528.1 322.7,527.5 322.7,527.5 322.7,526.8 322,526.2 322,525.5 321.4,524.9 
	321.4,524.2 321.4,523.6 320.8,522.9 320.8,522.3 320.1,521.6 320.1,521 320.1,520.4 319.5,519.7 319.5,519.7 319.5,519.1 
	318.8,518.4 318.8,517.8 318.8,517.1 318.2,516.5 318.2,515.8 318.2,515.2 317.5,514.5 317.5,513.9 316.9,513.3 316.9,513.3 
	316.2,513.3 316.2,513.3 315.6,512.6 315.6,511.9 315,511.9 315,511.3 315,510.7 315.6,510.7 315.6,510.7 316.2,510.7 316.2,510.7 
	316.9,510.7 316.9,510.7 317.5,510.7 318.2,510.7 318.8,510.7 319.5,510.7 320.1,510.7 320.8,510.7 321.4,510.7 322,510.7 
	322.7,510.7 323.3,510.7 323.3,510 324,510 324.6,510 324.6,510 324.6,510 325.3,510 325.3,510.7 325.3,510.7 325.3,511.3 
	325.3,511.9 324.6,511.9 324.6,512.6 324,512.6 323.3,513.3 322.7,513.3 322.7,513.9 322.7,513.9 322.7,513.9 322.7,514.5 
	322.7,515.2 322.7,515.8 322.7,515.8 322.7,516.5 323.3,517.1 323.3,517.8 323.3,518.4 324,518.4 324,519.1 324,519.7 324.6,520.4 
	324.6,521 325.3,522.3 325.3,522.9 325.9,523.6 325.9,523.6 325.9,524.9 326.6,525.5 327.2,526.8 327.2,527.5 327.9,528.1 
	327.9,528.8 327.9,528.8 327.9,528.8 328.5,529.4 328.5,529.4 328.5,529.4 328.5,528.8 328.5,528.8 328.5,528.1 329.2,527.5 
	329.2,526.8 329.8,525.5 329.8,524.9 330.5,524.2 330.5,523.6 331.1,522.3 331.1,521.6 331.7,521 331.7,520.4 331.7,519.7 
	332.4,519.1 332.4,518.4 332.4,517.8 333,517.1 333,516.5 333,516.5 333,515.8 333,515.2 333.7,514.5 333.7,514.5 333.7,513.9 
	333,513.3 333,513.3 332.4,512.6 332.4,512.6 331.7,511.9 331.1,511.3 331.1,511.3 331.1,511.3 331.1,510.7 331.1,510 331.7,510 
	332.4,510 332.4,510 333,510.7 333.7,510.7 334.3,510.7 335,510.7 335.6,510.7 336.3,510.7 336.9,510.7 337.5,510.7 337.5,510.7 
	338.2,510.7 338.9,510.7 338.9,510.7 339.5,510.7 339.5,510.7 339.5,511.3 "/>
<path class="st0" d="M362.1,530.7L362.1,530.7v0.7l-0.7,0.7l0,0l-0.6,0.7l-0.7,0.6l0,0l-0.7,0.7h-0.7v0.7h-0.6l-0.7,0.7h-0.7v0.7
	h-0.7h-0.7H355v0.6h-0.7h-0.7h-0.7h-0.7l0,0l0,0h-0.6h-0.7h-0.7h-0.7v-0.6h-0.7h-0.6v-0.7h-0.7l-0.7-0.7l0,0l-0.7-0.7H346v-0.7l0,0
	l-0.7-0.6V532h-0.7v-0.7l-0.7-0.7V530v-0.6l-0.7-0.7v-0.7v-0.7v-0.7v-0.6v-0.7v-0.7l-0.6-0.7v-0.7v-0.6l0.6-0.7v-0.7V521v-0.6v-0.7
	v-0.7v-0.7l0.7-0.7v-0.6v-0.7l0.7-0.7v-0.7v-0.7h0.7v-0.6l0.7-0.7l0,0l0.6-0.7v-0.7h0.7l0.7-0.7l0,0l0.7-0.6h0.6V510h0.7h0.7
	l0.7-0.7l0,0h0.7h0.6h0.7l0,0h0.7h0.7h0.7l0,0l0.6,0.7h0.7h0.7v0.7l0.7,0.6h0.7v0.7l0.6,0.7l0,0l0.7,0.7v0.7l0.7,0.6v0.7v0.7h0.7
	v0.7h0.6l0,0v0.7h0.7v0.6v0.7h-0.7v0.7h-0.6l-0.7,0.7h-0.7v0.7l-11.6,4.5v0.7v0.7v0.6l0.7,0.7v0.7v0.7l0.6,0.7v0.6l0.7,0.7l0,0
	l0.7,0.7l0,0l0.7,0.7l0,0l0.7,0.7l0,0h0.6h0.7h0.7l0,0h0.7h0.7l0,0h0.6h0.7V532h0.7h0.7l0.7-0.7l0,0h0.6l0.7-0.7l0.7-0.7h0.7v-0.6
	h0.6l0,0l0.7,0.6V530.7L362.1,530.7L362.1,530.7z M356.3,517.1v-0.7l-0.7-0.7v-0.7v-0.7l-0.6-0.6l0,0l-0.7-0.7l0,0l-0.7-0.7h-0.7
	h-0.7l0,0l0,0h-0.6h-0.7l0,0h-0.7l-0.7,0.7l0,0h-0.7v0.7l0,0l-0.6,0.6v0.7l-0.7,0.7v0.7l0,0v0.7v1.3v0.7l-0.7,0.7v0.7v0.6v1.3
	l7.1-3.2h0.7l0.6-0.7l0,0v-0.7L356.3,517.1L356.3,517.1L356.3,517.1z"/>
<path class="st1" d="M-137.9,586.6c0,29.4,23.9,53.3,53.3,53.3"/>
<line class="st1" x1="-84.3" y1="638.5" x2="251.6" y2="638.5"/>
<path class="st1" d="M251.3,639.9c29.4,0,53.3-23.9,53.3-53.3"/>
<path class="st0" d="M-17.1,599.8L-17.1,599.8L-17.1,599.8v0.7l0,0l0,0l-0.7,0.6h-0.6l-0.7,0.7l0,0l-0.7,0.7h-0.7l-0.7,0.7l0,0h-0.6
	v0.7h-0.7l0,0v-0.7l0,0l-0.7-0.7v-0.7v-0.7l-0.7-0.6v-0.7l0,0l0,0v0.7h-0.7h-0.6v0.6h-1.3v0.7h-0.7l0,0l-0.6,0.7h-0.7l0,0l-0.7,0.7
	l0,0h-0.7l0,0l0,0H-30h-0.6l0,0l-0.7-0.7H-32l0,0h-0.7v-0.7h-0.7v-0.7h-0.6v-0.6h-0.7v-0.7h-0.7v-0.7v-0.7h-0.7v-0.7v-0.6l-0.7-0.7
	l0,0v-0.7v-0.7v-0.7V594l-0.6-0.7v-0.7v-0.7v-0.7l0,0v-0.6v-0.7v-0.7h0.6v-0.7v-0.6v-0.7v-0.7h0.7v-0.7v-0.7l0.7-0.6l0,0v-0.7
	l0.7-0.7l0,0l0.7-0.7v-0.7h0.6l0.7-0.6l0,0l0.7-0.7l0,0h0.7v-0.7h0.7h0.6l0,0h0.7v-0.7h0.7h0.7l0,0h0.7v0.7h0.6h0.7l0,0h0.7h0.7h0.6
	l0,0h0.7l0,0v-0.7l0,0v-9v-1.3l0,0v-0.7v-0.7h-0.7l0,0v-0.7h-0.6h-0.7v-0.7h-0.7v-0.6h-0.7l0.7-0.7v-0.7h0.7l0,0l0,0h0.7l0.6-0.7
	l0,0h0.7v-0.6h0.7l0.7-0.7l0,0l0.7-0.7h0.6l0,0l0,0h0.7l0,0v0.7v0.7l0,0v0.6v0.7v0.7v0.7v0.6v0.7v0.7v0.7v0.7v0.6v0.7v0.7l0,0v0.7
	v25.2v0.6l0.7,0.7v0.7l0,0h0.7l0,0h0.7h0.6l0,0h0.7V599.8L-17.1,599.8L-17.1,599.8z M-23.6,596.6v-9.7v-0.7l0,0l-0.7-0.7V585h-0.6
	v-0.7h-0.7v-0.7h-0.7l0,0l-0.7-0.7h-0.6l0,0h-0.7l0,0h-0.7l0,0h-0.7H-30l0,0h-0.6l0,0l-0.7,0.7l0,0H-32v0.7l0,0l-0.7,0.7l0,0v0.6
	v0.7l-0.7,0.7l0,0v0.7v0.7v0.6v0.7v0.7v0.7v0.6v0.7l0,0v0.7v0.7l0.7,0.7v0.6l0,0v0.7l0.7,0.7v0.7h0.7v0.7l0,0l0.7,0.6l0.6,0.7l0,0
	h0.7v0.7h0.7l0,0h0.7h0.7l0,0l0,0h0.6h0.7l0,0l0.7-0.7h0.7l0,0l0.6-0.7l0,0l0.7-0.6l0,0V596.6L-23.6,596.6z"/>
<polygon class="st0" points="-1,582.4 -1,583 -1,583.7 -1.6,584.3 -1.6,585 -1.6,585 -1.6,585.6 -2.3,585.6 -2.3,585.6 -2.9,585.6 
	-2.9,585.6 -2.9,585.6 -3.5,585.6 -4.2,585.6 -4.8,585 -4.8,585 -5.5,585 -6.1,585 -6.1,585 -6.1,585 -6.8,585 -7.4,585.6 
	-7.4,585.6 -7.4,585.6 -8.1,586.2 -8.1,586.2 -8.1,586.9 -8.1,587.5 -8.1,588.2 -8.7,588.8 -8.7,589.5 -8.7,597.2 -8.1,597.9 
	-8.1,598.5 -8.1,599.2 -8.1,599.8 -7.4,599.8 -7.4,599.8 -7.4,599.8 -6.8,599.8 -6.1,600.5 -5.5,600.5 -5.5,600.5 -4.8,601.1 
	-4.8,601.1 -4.2,601.7 -4.2,601.7 -4.8,602.4 -4.8,602.4 -4.8,602.4 -5.5,602.4 -6.1,602.4 -6.8,602.4 -6.8,602.4 -7.4,602.4 
	-8.1,602.4 -8.7,602.4 -8.7,602.4 -9.4,602.4 -10,602.4 -10,602.4 -10.7,602.4 -11.3,602.4 -11.3,602.4 -12,602.4 -12,602.4 
	-12.6,602.4 -12.6,602.4 -12.6,602.4 -13.2,602.4 -13.9,602.4 -13.9,602.4 -13.9,602.4 -13.9,601.7 -13.9,601.1 -13.9,601.1 
	-13.2,600.5 -12.6,600.5 -12.6,599.8 -12,599.8 -12,599.2 -12,599.2 -12,598.5 -12,597.9 -12,597.9 -12,588.8 -12,587.5 -12,586.9 
	-12,586.9 -12,586.2 -12,586.2 -12,586.2 -12.6,585.6 -12.6,585.6 -13.2,585 -13.9,585 -13.9,584.3 -13.9,584.3 -14.5,584.3 
	-14.5,583.7 -14.5,583 -13.9,583 -13.9,583 -13.2,582.4 -12.6,582.4 -12.6,581.7 -12,581.7 -12,581.7 -11.3,581.1 -11.3,581.1 
	-10.7,581.1 -10.7,580.4 -10,579.8 -10,579.8 -10,579.8 -9.4,579.8 -9.4,580.4 -8.7,580.4 -8.7,581.1 -8.7,581.7 -8.7,582.4 
	-8.7,583 -8.7,583.7 -8.7,583.7 -8.1,583.7 -8.1,583.7 -8.1,583.7 -8.1,583 -7.4,583 -6.8,582.4 -6.1,581.7 -6.1,581.7 -5.5,581.1 
	-5.5,581.1 -4.8,581.1 -4.2,580.4 -4.2,580.4 -3.5,580.4 -3.5,580.4 -2.9,580.4 -2.9,580.4 -2.3,580.4 -1.6,580.4 -1.6,580.4 
	-1.6,581.1 -1,581.7 -1,582.4 -1,582.4 "/>
<path class="st0" d="M9.4,570.1L9.4,570.1v0.7l-0.7,0.7v0.7l0,0l-0.7,0.7l0,0l-0.7,0.6l0,0H6.8l0,0H6.1l-0.7-0.6l0,0l0,0L4.8,572
	v-0.7l0,0v-0.7l0,0v-0.7v-0.6v-0.7h0.7v-0.7l0.7-0.7l0,0h0.6v-0.7h0.7l0,0l0.7,0.7l0,0h0.7v0.7h0.7v0.7v0.7V570.1L9.4,570.1z
	 M11.3,601.7v0.7l0,0l0,0h-0.7l0,0H10H9.4l0,0H8.7H8.1l0,0H7.4H6.8l0,0H6.1H5.5l0,0H4.8H4.2l0,0l0,0H3.5H2.9l0,0l0,0v-0.7v-0.7l0,0
	l0.6-0.6l0,0h0.7v-0.7h0.7v-0.7v-0.7v-0.7v-0.6l0,0v-7.1v-0.7v-0.7v-0.6v-0.7v-0.7l0,0l-0.7-0.7l0,0v-0.7H3.5L2.9,585l0,0H2.3v-0.7
	l0,0v-0.7l0,0l0.7-0.7l0,0h0.6l0.7-0.7l0,0h0.7v-0.6h0.7l0.7-0.7l0,0l0,0l0.6-0.7h0.7v-0.7l0,0h0.7v0.7v0.7v0.7l0,0l0,0v0.6v0.7v0.7
	v0.7v0.7v0.6v0.7l0,0v0.7v0.7v0.7v0.6v0.7v0.7v0.7v0.6v0.7l0,0v0.7v0.7v0.7v0.6v0.7v0.7v0.7l0,0v0.7v0.6l0.7,0.7l0,0v0.7l0,0
	l0.7,0.7l0,0l0.6,0.7h0.7l0,0h0.7v0.6V601.7L11.3,601.7L11.3,601.7z"/>
<polygon class="st0" points="34.6,581.7 33.9,581.7 33.9,582.4 33.3,582.4 33.3,583 32.6,583 32.6,583 32,583.7 32,584.3 
	31.3,584.3 31.3,585 31.3,585.6 31.3,585.6 31.3,586.2 30.7,586.2 30.7,586.9 30.7,587.5 30.7,588.2 30,588.2 30,588.8 30,589.5 
	30,590.1 29.4,590.8 29.4,590.8 29.4,591.4 28.7,592.1 28.7,592.7 28.1,593.4 28.1,594 28.1,594.6 27.5,595.3 27.5,595.9 
	26.8,596.6 26.8,597.2 26.8,597.9 26.2,598.5 26.2,599.2 26.2,599.2 25.5,599.8 25.5,600.5 25.5,601.1 24.9,601.1 24.9,601.7 
	24.9,601.7 24.9,602.4 24.2,602.4 24.2,603.1 24.2,603.1 24.2,602.4 24.2,602.4 23.6,602.4 23.6,601.7 22.9,601.1 22.9,600.5 
	22.9,600.5 22.3,599.8 22.3,599.2 22.3,598.5 21.7,598.5 21.7,597.9 21,597.2 21,596.6 21,595.9 20.4,595.9 20.4,595.3 20.4,594.6 
	19.7,594 19.7,594 19.7,593.4 19,592.7 19,592.1 19,592.1 18.4,591.4 18.4,590.8 18.4,590.1 17.8,589.5 17.8,589.5 17.8,588.8 
	17.8,588.2 17.1,587.5 17.1,587.5 17.1,586.9 16.5,586.2 16.5,585.6 16.5,585 16.5,585 15.8,584.3 15.8,583.7 15.8,583.7 15.2,583 
	15.2,583 15.2,583 14.5,582.4 13.9,582.4 13.9,581.7 13.9,581.7 13.9,581.1 13.9,581.1 14.5,581.1 14.5,581.1 15.2,581.1 
	15.2,581.1 15.8,581.1 15.8,581.1 16.5,581.1 17.1,581.1 17.1,581.1 17.8,581.1 18.4,581.1 19,581.1 19.7,581.1 19.7,581.1 
	20.4,581.1 21,580.4 21,580.4 21.7,580.4 21.7,580.4 21.7,580.4 22.3,580.4 22.3,581.1 22.3,581.1 22.3,581.7 22.3,582.4 
	21.7,582.4 21.7,582.4 21,583 20.4,583 20.4,583 19.7,583.7 19.7,583.7 19.7,583.7 19.7,584.3 20.4,585 20.4,585 20.4,585.6 
	20.4,586.2 20.4,586.2 21,586.9 21,587.5 21,587.5 21,588.2 21.7,588.8 21.7,589.5 21.7,590.1 22.3,590.8 22.3,591.4 22.9,592.1 
	22.9,592.1 22.9,592.7 23.6,594 23.6,594.6 24.2,595.3 24.2,595.3 24.2,595.9 24.9,595.9 24.9,596.6 24.9,596.6 24.9,596.6 
	24.9,596.6 24.9,595.9 24.9,595.9 25.5,595.3 25.5,595.3 25.5,594.6 26.2,593.4 26.2,592.7 26.8,592.1 26.8,591.4 26.8,590.8 
	27.5,590.1 27.5,589.5 27.5,589.5 28.1,588.8 28.1,588.2 28.1,587.5 28.1,586.9 28.7,586.9 28.7,586.2 28.7,585.6 28.7,585 
	28.7,585 29.4,584.3 29.4,584.3 29.4,583.7 28.7,583 28.7,583 28.1,582.4 28.1,582.4 27.5,582.4 27.5,581.7 27.5,581.7 27.5,581.7 
	27.5,581.1 27.5,580.4 28.1,580.4 28.1,580.4 28.1,580.4 28.7,581.1 29.4,581.1 29.4,581.1 30,581.1 30.7,581.1 31.3,581.1 
	32,581.1 32.6,581.1 32.6,581.1 33.3,581.1 33.3,581.1 33.3,581.1 33.9,581.1 33.9,581.1 34.6,581.7 "/>
<path class="st0" d="M52.7,597.9L52.7,597.9v0.7l0,0v0.7H52l-0.7,0.7l0,0l-0.7,0.7l0,0l-0.7,0.6h-0.6l0,0l-0.7,0.7l0,0h-0.7
	l-0.7,0.7l0,0h-0.7h-0.6l0,0h-0.7h-0.7l0,0h-0.7h-0.7l0,0H43l0,0h-0.7l-0.7-0.7l0,0H41v-0.7h-0.6v-0.6h-0.7v-0.7l0,0l-0.7-0.7l0,0
	l-0.7-0.7v-0.7l0,0l-0.7-0.6v-0.7l0,0v-0.7l-0.6-0.7v-0.7V594v-0.7v-0.7v-0.7l0,0v-0.7v-0.6v-0.7v-0.7v-0.7v-0.6h0.6v-0.7v-0.7v-0.7
	l0.7-0.7l0,0V585v-0.7h0.7v-0.7l0.7-0.7l0,0v-0.7h0.7v-0.6H41l0.7-0.7l0,0h0.7v-0.7H43l0,0h0.6l0.7-0.7l0,0h0.7h0.7l0,0h0.7l0,0h0.6
	l0.7,0.7l0,0h0.7l0.7,0.7l0,0h0.7v0.7h0.6v0.6l0.7,0.7l0,0l0.7,0.7v0.7v0.7l0,0H52v0.6v0.7l0,0h0.7v0.7l0,0v0.7l0,0v0.7H52l-0.7,0.6
	l0,0h-0.7l-9.7,3.9v0.7v0.7l0.7,0.6v0.7v0.7l0,0l0.7,0.7v0.7l0,0l0.7,0.6l0,0l0.6,0.7l0,0l0.7,0.7l0,0h0.7l0,0h0.7v0.7h0.7h0.6v-0.7
	h0.7l0,0h0.7l0,0h0.7l0.7-0.7l0,0h0.6l0.7-0.7l0,0l0.7-0.6H52v-0.7h0.7l0,0v0.7V597.9L52.7,597.9L52.7,597.9z M48.1,586.2v-0.7V585
	h-0.7v-0.7v-0.7h-0.7V583h-0.6l0,0l-0.7-0.7h-0.7l0,0l0,0h-0.7l0,0h-0.7v0.7H43l0,0l-0.7,0.7l0,0l-0.7,0.7l0,0v0.7l0,0l-0.7,0.6v0.7
	v0.7v0.7v0.7v0.6v0.7v0.7v0.7l5.8-2.6l0,0l0.7-0.7l0,0l0.7-0.7V586.2L48.1,586.2L48.1,586.2z"/>
<polygon class="st0" points="81.7,598.5 81.7,599.2 81.7,599.2 81.1,599.8 81.1,599.8 80.4,600.5 80.4,600.5 79.8,601.1 79.8,601.1 
	79.1,601.7 78.5,601.7 78.5,601.7 77.8,602.4 77.2,602.4 77.2,602.4 76.6,602.4 76.6,602.4 75.9,603.1 75.3,603.1 75.3,603.1 
	74.6,603.1 74.6,603.1 74,603.1 73.3,603.1 73.3,602.4 72.7,602.4 72,602.4 72,602.4 71.4,601.7 71.4,601.7 70.8,601.7 70.1,601.1 
	70.1,601.1 69.4,601.1 69.4,600.5 68.8,600.5 68.8,599.8 68.8,599.8 68.8,599.2 68.2,599.2 68.2,598.5 67.5,597.9 67.5,597.9 
	67.5,597.2 67.5,596.6 66.9,595.9 66.9,595.3 66.9,595.3 66.9,594.6 66.9,594 66.9,593.4 66.9,592.7 66.9,592.1 66.9,592.1 
	66.9,591.4 66.9,590.8 66.9,590.1 66.9,589.5 66.9,588.8 66.9,588.2 67.5,588.2 67.5,587.5 67.5,586.9 67.5,586.2 68.2,586.2 
	68.2,585.6 68.2,585 68.8,585 68.8,584.3 69.4,583.7 69.4,583.7 69.4,583 70.1,583 70.1,582.4 70.8,582.4 71.4,581.7 71.4,581.7 
	72,581.7 72,581.1 72.7,581.1 72.7,581.1 73.3,580.4 74,580.4 74,580.4 74.6,580.4 75.3,580.4 75.3,580.4 75.9,580.4 75.9,580.4 
	76.6,580.4 77.2,580.4 77.2,580.4 77.8,580.4 78.5,580.4 78.5,580.4 79.1,580.4 79.1,581.1 79.8,581.1 79.8,581.1 80.4,581.7 
	81.1,581.7 81.1,582.4 81.7,582.4 81.7,583 81.7,583 81.7,583 81.7,583.7 81.1,584.3 81.1,585 80.4,585.6 80.4,585.6 79.8,586.2 
	79.8,586.2 79.8,586.2 79.1,586.2 79.1,586.2 78.5,585.6 78.5,585 77.8,585 77.8,584.3 77.2,584.3 76.6,583.7 76.6,583.7 75.9,583 
	75.9,583 75.3,583 75.3,583 74.6,583 74.6,583 74,583 73.3,583 73.3,583 72.7,583.7 72.7,583.7 72,584.3 72,584.3 72,585 71.4,585 
	71.4,585.6 71.4,586.2 70.8,586.2 70.8,586.9 70.8,587.5 70.8,588.2 70.8,588.8 70.8,589.5 70.8,590.1 70.8,590.1 70.8,590.8 
	70.8,591.4 70.8,592.1 70.8,592.7 70.8,593.4 70.8,594 70.8,594.6 71.4,595.3 71.4,595.3 71.4,595.9 71.4,596.6 72,596.6 72,597.2 
	72,597.2 72.7,597.9 72.7,598.5 73.3,598.5 73.3,599.2 74,599.2 74.6,599.2 74.6,599.8 75.3,599.8 75.3,599.8 75.9,599.8 
	76.6,599.8 76.6,599.8 77.2,599.8 77.8,599.8 77.8,599.8 78.5,599.8 79.1,599.2 79.1,599.2 79.8,599.2 79.8,598.5 80.4,598.5 
	81.1,597.9 81.1,597.9 81.1,597.9 81.1,597.9 81.7,597.9 81.7,598.5 81.7,598.5 "/>
<polygon class="st0" points="106.9,601.7 106.9,602.4 106.3,602.4 106.3,602.4 105.6,602.4 105,602.4 104.3,602.4 103.7,602.4 
	103,602.4 103,602.4 102.4,602.4 101.8,602.4 101.1,602.4 101.1,602.4 100.5,602.4 100.5,602.4 99.8,602.4 99.8,602.4 99.2,602.4 
	99.2,602.4 99.2,602.4 98.5,602.4 97.9,602.4 97.9,602.4 97.9,602.4 97.9,601.7 97.9,601.7 97.9,601.1 97.9,601.1 98.5,600.5 
	98.5,600.5 99.2,600.5 99.8,599.8 99.8,599.8 99.8,599.8 99.8,599.2 99.8,598.5 99.8,597.9 99.8,597.9 99.8,590.1 99.8,589.5 
	99.8,588.8 99.8,588.2 99.8,587.5 99.8,586.9 99.2,586.9 99.2,586.2 99.2,585.6 99.2,585.6 98.5,585 98.5,585 98.5,584.3 
	97.9,584.3 97.9,584.3 97.2,583.7 97.2,583.7 96.6,583.7 96,583.7 96,583.7 96,583.7 95.3,583.7 94.6,583.7 94.6,583.7 94,583.7 
	93.3,583.7 93.3,584.3 92.7,584.3 92.7,584.3 92.1,585 92.1,585 91.4,585.6 90.8,585.6 90.8,586.2 90.8,586.9 90.8,586.9 
	90.8,597.9 90.8,597.9 90.8,598.5 90.8,599.2 91.4,599.2 91.4,599.8 91.4,599.8 92.1,600.5 92.7,600.5 92.7,600.5 93.3,600.5 
	94,601.1 94,601.1 94,601.7 94,601.7 94,602.4 94,602.4 94,602.4 93.3,602.4 93.3,602.4 92.7,602.4 92.7,602.4 92.1,602.4 
	91.4,602.4 91.4,602.4 90.8,602.4 90.1,602.4 90.1,602.4 89.5,602.4 88.8,602.4 88.8,602.4 88.2,602.4 87.5,602.4 87.5,602.4 
	86.9,602.4 86.3,602.4 85.6,602.4 85.6,602.4 85.6,602.4 85,602.4 85,601.7 85,601.7 85,601.7 85.6,601.1 85.6,601.1 86.3,600.5 
	86.9,600.5 86.9,600.5 86.9,599.8 87.5,599.8 87.5,599.2 87.5,598.5 87.5,597.9 87.5,572 87.5,571.4 87.5,570.7 87.5,570.1 
	87.5,570.1 86.9,569.5 86.9,568.8 86.9,568.8 86.9,568.2 86.3,568.2 86.3,567.5 85.6,567.5 85,566.9 85,566.9 84.3,566.2 
	84.3,566.2 85,565.6 85,565.6 85.6,564.9 85.6,564.9 86.3,564.9 86.3,564.3 86.9,564.3 86.9,564.3 87.5,563.7 88.2,563.7 88.2,563 
	88.8,563 89.5,562.3 89.5,562.3 90.1,562.3 90.1,562.3 90.1,562.3 90.8,562.3 90.8,563 90.8,563.7 90.8,563.7 90.8,564.3 
	90.8,564.9 90.8,565.6 90.8,566.2 90.8,566.9 90.8,567.5 90.8,568.2 90.8,568.8 90.8,569.5 90.8,570.1 90.8,570.7 90.8,571.4 
	90.8,571.4 90.8,572 90.8,581.7 90.8,582.4 90.8,583 90.8,583 90.8,583 90.8,583 91.4,583 91.4,583 92.1,582.4 92.1,582.4 
	92.7,581.7 93.3,581.7 93.3,581.1 94,581.1 94.6,580.4 94.6,580.4 95.3,580.4 95.3,580.4 96,579.8 96.6,579.8 96.6,579.8 
	97.2,579.8 97.2,579.8 97.9,579.8 98.5,579.8 98.5,579.8 99.2,579.8 99.2,580.4 99.8,580.4 100.5,580.4 100.5,580.4 101.1,581.1 
	101.1,581.1 101.1,581.7 101.8,581.7 101.8,582.4 101.8,582.4 102.4,583 102.4,583.7 102.4,583.7 102.4,584.3 103,585 103,585.6 
	103,585.6 103,586.2 103,586.9 103,587.5 103,588.2 103,597.9 103,598.5 103,598.5 103.7,599.2 103.7,599.8 103.7,599.8 
	104.3,600.5 104.3,600.5 105,600.5 105,600.5 105.6,601.1 105.6,601.1 106.3,601.1 106.3,601.1 106.9,601.7 106.9,601.7 "/>
<path class="st0" d="M125.7,599.8L125.7,599.8v0.7H125l-0.7,0.6l0,0l0,0l-0.7,0.7h-0.6l-0.7,0.7l0,0h-0.7l0,0l0,0h-0.7h-0.6v-0.7
	h-0.7l0,0v-0.7l-0.7-0.6l0,0l0,0h-0.7v0.6h-0.7l-0.6,0.7l0,0h-0.7v0.7H116h-0.7l0,0h-0.7l-0.6,0.7l0,0h-0.7h-0.7v-0.7h-0.7l0,0h-0.7
	l-0.6-0.7l0,0v-0.7h-0.7v-0.6l0,0l-0.7-0.7v-0.7v-0.7v-0.7v-0.6l0,0l0,0v-0.7l0,0v-0.7l0,0v-0.7h0.7v-0.7l0,0l0.7-0.6l0,0v-0.7h0.6
	v-0.7h0.7l0,0l0.7-0.7h0.7l0,0l0.7-0.7h0.6h0.7l0.7-0.6l0,0h0.7h0.7l0.6-0.7l0,0h0.7l0.7-0.7l0,0v-0.7l0,0v-1.9v-0.7v-0.7l0,0V585
	l-0.7-0.7v-0.7l0,0l-0.7-0.7l0,0l0,0l-0.6-0.7h-0.7l0,0H116l0,0l-0.7,0.7l0,0l-0.7,0.7l0,0v0.7l0,0L114,585v0.6l-0.7,0.7l0,0
	l-0.7,0.7l0,0h-0.7l0,0h-0.7l0,0h-0.6v-0.7l0,0l-0.7-0.7V585l0,0l0.7-0.7l0,0v-0.7l0.6-0.7l0,0l0.7-0.7h0.7v-0.6h0.7l0.7-0.7l0,0
	h0.6l0.7-0.7l0,0h0.7l0,0h0.7l0.7-0.7l0,0h0.6l0,0h0.7h0.7v0.7h0.7h0.7l0,0l0.6,0.7l0,0v0.7h0.7v0.6l0,0v0.7l0.7,0.7v0.7l0,0v0.7
	v0.6v11.7v0.6l0,0v0.7h0.7l0,0h0.6l0,0h0.7l0,0h0.7l0,0h0.7v0.7V599.8L125.7,599.8L125.7,599.8z M119.2,593.4v-0.7v-0.7h-0.7h-0.7
	l0,0h-0.6l-0.7,0.7l0,0H116l-0.7,0.7l0,0h-0.7L114,594l0,0v0.6h-0.7v0.7l0,0v0.7h-0.7v0.7l0,0v0.7l0.7,0.6l0,0v0.7v0.7h0.7l0,0
	l0.6,0.7l0,0h0.7h0.7l0,0h0.7l0,0h0.7l0.6-0.7l0,0h0.7v-0.7h0.7v-0.7l0,0V593.4z"/>
<polygon class="st0" points="150.2,601.7 150.2,602.4 150.2,602.4 149.6,602.4 149.6,602.4 148.9,602.4 148.3,602.4 147.6,602.4 
	147,602.4 147,602.4 146.3,602.4 145.7,602.4 145.7,602.4 145,602.4 144.4,602.4 144.4,602.4 143.7,602.4 143.7,602.4 143.1,602.4 
	143.1,602.4 142.4,602.4 141.8,602.4 141.8,602.4 141.2,602.4 141.2,602.4 141.2,601.7 141.2,601.7 141.2,601.1 141.8,601.1 
	141.8,601.1 142.4,600.5 142.4,600.5 143.1,600.5 143.1,599.8 143.1,599.2 143.7,598.5 143.7,597.9 143.7,597.9 143.7,590.1 
	143.7,589.5 143.7,588.8 143.1,588.2 143.1,587.5 143.1,587.5 143.1,586.9 143.1,586.2 142.4,586.2 142.4,585.6 142.4,585 
	141.8,585 141.8,585 141.8,584.3 141.2,584.3 141.2,584.3 140.5,583.7 139.9,583.7 139.9,583.7 139.2,583.7 138.6,583.7 
	138.6,583.7 137.9,583.7 137.9,584.3 137.3,584.3 136.6,584.3 136.6,584.3 136,585 136,585 135.4,585.6 134.7,585.6 134.7,586.2 
	134.7,586.9 134.7,586.9 134,587.5 134,597.9 134,597.9 134.7,598.5 134.7,599.2 134.7,599.2 135.4,599.8 135.4,599.8 136,600.5 
	136,600.5 136.6,600.5 136.6,600.5 137.3,600.5 137.9,601.1 137.9,601.1 137.9,601.7 137.9,601.7 137.9,602.4 137.3,602.4 
	136.6,602.4 136.6,602.4 136,602.4 136,602.4 135.4,602.4 134.7,602.4 134.7,602.4 134,602.4 133.4,602.4 133.4,602.4 132.8,602.4 
	132.1,602.4 132.1,602.4 131.5,602.4 130.8,602.4 130.2,602.4 130.2,603.1 129.5,603.1 128.9,603.1 128.9,603.1 128.9,602.4 
	128.9,602.4 128.9,601.7 128.9,601.7 128.9,601.1 129.5,601.1 130.2,601.1 130.2,600.5 130.2,600.5 130.8,599.8 130.8,599.8 
	130.8,599.2 130.8,598.5 130.8,597.9 130.8,597.2 130.8,588.8 130.8,587.5 130.8,586.9 130.8,586.9 130.8,586.2 130.8,585.6 
	130.8,585.6 130.2,585.6 130.2,585.6 129.5,585 129.5,585 128.9,585 128.9,585 128.2,584.3 128.2,583.7 128.2,583.7 128.9,583 
	128.9,583 129.5,583 129.5,582.4 130.2,582.4 130.8,581.7 130.8,581.7 131.5,581.1 131.5,581.1 132.1,580.4 132.8,580.4 
	132.8,579.8 133.4,579.8 133.4,579.8 133.4,579.8 133.4,580.4 134,581.1 134,581.7 134,581.7 134,582.4 134,583 134.7,583.7 
	134.7,583.7 134.7,583.7 134.7,583 134.7,583 135.4,583 136,582.4 136.6,581.7 136.6,581.7 137.3,581.7 137.3,581.1 137.9,581.1 
	138.6,581.1 138.6,580.4 139.2,580.4 139.2,580.4 139.9,580.4 140.5,580.4 140.5,580.4 141.2,580.4 141.2,579.8 141.8,580.4 
	141.8,580.4 142.4,580.4 143.1,580.4 143.1,580.4 143.7,580.4 143.7,581.1 144.4,581.1 144.4,581.1 145,581.7 145,581.7 145,582.4 
	145.7,582.4 145.7,583 145.7,583 146.3,583.7 146.3,584.3 146.3,584.3 146.3,585 146.3,585.6 146.3,586.2 147,586.9 147,587.5 
	147,588.2 147,588.2 147,597.2 147,597.9 147,598.5 147,599.2 147,599.8 147.6,599.8 147.6,600.5 148.3,600.5 148.3,600.5 
	148.9,600.5 149.6,601.1 150.2,601.1 150.2,601.1 150.2,601.7 150.2,601.7 "/>
<polygon class="st0" points="174.8,601.7 174.1,602.4 174.1,602.4 173.5,602.4 173.5,602.4 172.8,602.4 172.2,602.4 172.2,602.4 
	171.5,602.4 170.9,602.4 170.2,602.4 170.2,602.4 169.6,602.4 168.9,602.4 168.9,602.4 168.3,602.4 167.6,602.4 167.6,602.4 
	167,602.4 167,602.4 166.4,602.4 166.4,602.4 165.7,602.4 165.7,602.4 165.1,602.4 165.1,601.7 165.1,601.7 165.7,601.1 
	165.7,601.1 166.4,601.1 166.4,600.5 167,600.5 167,600.5 167,599.8 167.6,599.2 167.6,598.5 167.6,597.9 167.6,597.9 167.6,590.1 
	167.6,589.5 167.6,588.8 167.6,588.2 167.6,587.5 167.6,587.5 167,586.9 167,586.2 167,586.2 167,585.6 166.4,585 166.4,585 
	165.7,585 165.7,584.3 165.1,584.3 165.1,584.3 164.4,583.7 164.4,583.7 163.8,583.7 163.8,583.7 163.1,583.7 162.5,583.7 
	162.5,583.7 161.8,584.3 161.2,584.3 161.2,584.3 160.6,584.3 159.9,585 159.9,585 159.2,585.6 159.2,585.6 158.6,586.2 
	158.6,586.9 158.6,586.9 158.6,587.5 158.6,597.9 158.6,597.9 158.6,598.5 158.6,599.2 158.6,599.2 159.2,599.8 159.2,599.8 
	159.9,600.5 160.6,600.5 160.6,600.5 161.2,600.5 161.8,600.5 161.8,601.1 161.8,601.1 161.8,601.7 161.8,601.7 161.8,602.4 
	161.2,602.4 161.2,602.4 160.6,602.4 160.6,602.4 159.9,602.4 159.2,602.4 159.2,602.4 158.6,602.4 157.9,602.4 157.9,602.4 
	157.3,602.4 156.7,602.4 156.7,602.4 156,602.4 155.4,602.4 155.4,602.4 154.7,602.4 154.1,603.1 153.4,603.1 153.4,603.1 
	153.4,603.1 152.8,602.4 152.8,602.4 152.8,601.7 152.8,601.7 153.4,601.1 153.4,601.1 154.1,601.1 154.1,600.5 154.7,600.5 
	154.7,599.8 154.7,599.8 154.7,599.2 155.4,598.5 155.4,597.9 155.4,597.2 155.4,588.8 155.4,587.5 155.4,586.9 154.7,586.9 
	154.7,586.2 154.7,585.6 154.7,585.6 154.7,585.6 154.1,585.6 154.1,585 153.4,585 152.8,585 152.8,585 152.8,584.3 152.1,583.7 
	152.8,583.7 152.8,583 153.4,583 153.4,583 154.1,582.4 154.1,582.4 154.7,581.7 155.4,581.7 155.4,581.1 156,581.1 156.7,580.4 
	156.7,580.4 157.3,579.8 157.3,579.8 157.3,579.8 157.3,579.8 157.9,580.4 157.9,581.1 157.9,581.7 157.9,581.7 157.9,582.4 
	158.6,583 158.6,583.7 158.6,583.7 158.6,583.7 158.6,583 159.2,583 159.2,583 159.9,582.4 160.6,581.7 160.6,581.7 161.2,581.7 
	161.8,581.1 161.8,581.1 162.5,581.1 163.1,580.4 163.1,580.4 163.8,580.4 163.8,580.4 164.4,580.4 165.1,580.4 165.1,580.4 
	165.1,579.8 165.7,580.4 166.4,580.4 166.4,580.4 167,580.4 167.6,580.4 167.6,580.4 168.3,581.1 168.3,581.1 168.9,581.1 
	168.9,581.7 168.9,581.7 169.6,582.4 169.6,582.4 169.6,583 170.2,583 170.2,583.7 170.2,584.3 170.2,584.3 170.9,585 170.9,585.6 
	170.9,586.2 170.9,586.9 170.9,587.5 170.9,588.2 170.9,588.2 170.9,597.2 170.9,597.9 170.9,598.5 170.9,599.2 171.5,599.8 
	171.5,599.8 171.5,600.5 172.2,600.5 172.8,600.5 172.8,600.5 173.5,601.1 174.1,601.1 174.1,601.1 174.8,601.7 174.8,601.7 "/>
<path class="st0" d="M192.2,597.9L192.2,597.9v0.7h-0.6v0.7h-0.7v0.7h-0.7l-0.7,0.7l0,0l-0.7,0.6l0,0h-0.6v0.7h-0.7H187v0.7h-0.7
	h-0.7l0,0h-0.6l0,0h-0.7h-0.7l0,0h-0.7h-0.7l0,0h-0.6h-0.7v-0.7h-0.7l0,0l-0.7-0.7h-0.6v-0.6h-0.7v-0.7l0,0v-0.7H178v-0.7l-0.7-0.7
	l0,0v-0.6l-0.7-0.7l0,0v-0.7v-0.7v-0.7V594l-0.6-0.7v-0.7v-0.7l0,0v-0.7v-0.6v-0.7l0.6-0.7v-0.7v-0.6l0,0v-0.7v-0.7l0.7-0.7v-0.7
	l0,0l0.7-0.6v-0.7l0,0l0.7-0.7V583l0,0l0.7-0.7l0,0l0.6-0.6l0,0l0.7-0.7h0.7l0,0l0.7-0.7l0,0h0.6h0.7v-0.7h0.7l0,0h0.7h0.7l0,0h0.6
	h0.7v0.7h0.7l0,0l0.7,0.7h0.7l0,0l0.6,0.7l0,0l0.7,0.6v0.7h0.7v0.7v0.7l0.7,0.7l0,0l0,0v0.6l0.7,0.7l0,0l0,0l0.6,0.7l0,0v0.7h-0.6
	v0.7l0,0l-0.7,0.6h-0.7h-0.7l-9.7,3.9l0.7,0.7v0.7v0.6v0.7v0.7h0.7v0.7v0.7h0.7v0.6h0.6v0.7l0,0l0.7,0.7h0.7l0,0h0.7l0,0l0.7,0.7
	l0,0h0.6l0.7-0.7l0,0h0.7l0,0h0.7l0,0l0.7-0.7h0.6l0,0l0.7-0.7h0.7v-0.6h0.7l0.7-0.7l0,0l0,0l0.6,0.7V597.9L192.2,597.9L192.2,597.9
	z M187,586.2v-0.7V585l0,0l-0.7-0.7v-0.7l0,0l-0.7-0.7l0,0h-0.6l-0.7-0.7l0,0h-0.7l0,0l0,0h-0.7h-0.7v0.7h-0.6l0,0v0.7h-0.7v0.7l0,0
	l-0.7,0.7l0,0v0.6v0.7l-0.7,0.7v0.7v0.7v0.6v0.7v0.7v0.7l5.8-2.6h0.7v-0.7h0.7v-0.7V586.2L187,586.2L187,586.2z"/>
<polygon class="st0" points="205.1,601.7 205.1,601.7 205.1,602.4 204.5,602.4 204.5,602.4 203.8,602.4 203.2,602.4 203.2,602.4 
	202.5,602.4 202.5,602.4 201.9,602.4 201.2,602.4 201.2,602.4 200.6,602.4 200,602.4 200,602.4 199.3,602.4 198.7,602.4 
	198.7,602.4 198,602.4 197.4,602.4 196.7,602.4 196.1,602.4 196.1,602.4 196.1,602.4 195.4,602.4 195.4,601.7 196.1,601.1 
	196.1,601.1 196.7,600.5 196.7,600.5 197.4,600.5 197.4,599.8 197.4,599.8 198,599.2 198,598.5 198,597.9 198,597.9 198,572 
	198,571.4 198,570.7 198,570.1 198,570.1 197.4,569.5 197.4,568.8 197.4,568.8 197.4,568.8 196.7,568.2 196.7,568.2 196.1,567.5 
	196.1,567.5 196.1,567.5 195.4,566.9 195.4,566.9 195.4,566.2 195.4,566.2 195.4,565.6 196.1,565.6 196.1,564.9 196.7,564.9 
	196.7,564.9 197.4,564.3 197.4,564.3 198,564.3 198.7,563.7 198.7,563.7 199.3,563 199.3,563 200,562.3 200.6,562.3 200.6,562.3 
	200.6,562.3 201.2,562.3 201.2,562.3 201.2,563 201.2,563.7 201.2,563.7 201.2,564.3 201.2,564.3 201.2,565.6 201.2,566.2 
	201.2,566.2 201.2,566.9 201.2,567.5 201.2,568.2 201.2,568.8 201.2,569.5 201.2,570.1 201.2,570.7 201.2,571.4 201.2,571.4 
	201.2,572 201.2,597.2 201.2,597.9 201.2,598.5 201.9,598.5 201.9,599.2 201.9,599.8 202.5,599.8 202.5,599.8 203.2,600.5 
	203.2,600.5 203.8,600.5 204.5,600.5 204.5,600.5 205.1,601.1 205.1,601.1 205.1,601.7 "/>
<polygon class="st0" points="42,84.7 42,85.4 42,85.4 42,86 41.4,86.7 40.7,86.7 40.1,87.3 40.1,87.3 39.4,88 38.8,88 38.8,88 
	38.1,88 37.5,88.6 36.8,88.6 36.2,88.6 36.2,88.6 35.5,88.6 34.9,88.6 34.2,88.6 34.2,88 33.6,88 32.9,88 32.9,87.3 32.3,87.3 
	32.3,86.7 31.7,86.7 31.7,86 31.7,85.4 31,85.4 31,84.7 31,84.1 31,83.4 30.4,82.8 30.4,82.2 30.4,81.5 30.4,80.9 30.4,68.6 
	30.4,67.3 30.4,66.7 30.4,66 30.4,66 30.4,65.3 29.7,65.3 29.7,65.3 29.1,64.7 28.4,64.7 27.8,64.1 27.8,63.4 27.8,62.8 28.4,62.1 
	28.4,62.1 29.1,61.5 29.7,61.5 29.7,60.8 30.4,60.8 30.4,60.2 31,59.5 31,59.5 31.7,58.9 31.7,58.2 32.3,57.6 32.3,57 32.9,56.3 
	32.9,55.7 33.6,55.7 33.6,55.7 34.2,55.7 34.2,55.7 34.9,56.3 34.9,60.8 34.9,61.5 34.9,61.5 35.5,61.5 35.5,61.5 41.4,61.5 
	41.4,62.1 41.4,62.1 41.4,63.4 41.4,63.4 41.4,64.1 40.7,64.7 40.7,64.7 40.1,65.3 39.4,65.3 35.5,65.3 34.9,65.3 34.9,65.3 
	34.9,65.3 34.2,66 34.2,66.7 34.2,67.3 34.2,78.3 34.2,79.6 34.2,80.2 34.2,80.9 34.9,81.5 34.9,82.2 34.9,82.8 34.9,83.4 
	34.9,83.4 35.5,84.1 35.5,84.1 36.2,84.7 36.2,84.7 36.8,84.7 37.5,84.7 38.1,84.7 38.1,84.7 38.8,84.7 39.4,84.7 40.1,84.7 
	40.7,84.7 40.7,84.7 41.4,84.1 42,84.1 42,84.1 42,84.7 42,84.7 "/>
<path class="st0" d="M67.2,74.4V75v0.7v0.7V77v0.7v0.7l-0.6,0.7v0.7v0.6l-0.7,0.7v0.7l0,0l-0.7,0.7v0.7l-0.7,0.6v0.7h-0.7v0.7
	l-0.6,0.7h-0.7V86H62l-0.7,0.6l0,0l-0.7,0.7h-0.6l0,0L59.4,88h-0.7h-0.7l0,0h-0.7h-0.6h-0.7l0,0h-0.7h-0.7h-0.7h-0.6H53l0,0
	l-0.7-0.7h-0.7h-0.6v-0.7h-0.7h-0.7V86l-0.7-0.7l0,0l-0.7-0.7l0,0l-0.6-0.7v-0.7h-0.7v-0.6v-0.7l-0.7-0.7v-0.7v-0.7l-0.7-0.6v-0.7
	v-0.7v-0.7V77v-0.6v-0.7l0,0V75v-1.3v-0.6v-0.7v-0.7v-0.7l0.7-0.6l0,0v-0.7l0.7-0.7v-0.7v-0.7l0.7-0.6v-0.7h0.6V66l0.7-0.7l0,0
	l0.7-0.7l0,0l0.7-0.6l0,0l0.7-0.7h0.6v-0.7h0.7l0.7-0.7h0.7l0,0l0.6-0.7h0.7h0.7l0,0h0.7h0.7l0,0h0.6h0.7h0.7h0.7h0.7v0.7h0.6h0.7
	l0.7,0.7l0,0h0.7l0.7,0.7l0,0l0.6,0.7l0,0l0.7,0.6l0,0l0.7,0.7V66l0.7,0.7l0,0v0.7l0.7,0.6v0.7v0.7l0.6,0.7v0.7v0.6v0.7v0.7v0.7v0.6
	V74.4L67.2,74.4z M62.7,76.3v-0.7V75v-0.7v-1.3v-0.7v-0.7v-0.7L62,70.5v-0.7l0,0l-0.7-0.7v-0.7v-0.7h-0.7v-0.6l-0.6-0.7V66h-0.7
	l-0.7-0.7l0,0l-0.7-0.7h-0.7l0,0h-0.6h-0.7l0,0h-0.7h-0.7l0,0h-0.7l-0.6,0.7l0,0L53,66h-0.7v0.7l-0.7,0.7l0,0l-0.6,0.6v0.7v0.7
	l-0.7,0.7v0.7v0.6v0.7v0.7v0.7v0.6V75v0.7v0.7V77v0.7v0.7l0.7,0.7v0.7v0.6v0.7h0.6v0.7l0.7,0.7l0,0v0.7l0.7,0.6l0,0l0.7,0.7h0.6v0.7
	h0.7h0.7l0.7,0.7l0,0h0.7h0.6h0.7l0.7-0.7l0,0h0.7l0.7-0.7l0,0l0.6-0.7v-0.6h0.7v-0.7l0.7-0.7v-0.7l0,0l0.7-0.7v-0.6v-0.7v-0.7V77
	V76.3L62.7,76.3L62.7,76.3z"/>
<polygon class="st0" points="98.2,87.3 98.2,88 97.5,88 96.9,88 96.9,88 96.3,88 95.6,88 95,88 94.3,88 93.7,88 93,88 92.4,88 
	92.4,88 91.7,88 91.1,88 90.5,88 90.5,88 89.8,88 89.1,88 89.1,88 88.5,88 87.9,88 87.2,88 87.2,88 87.2,87.3 87.2,87.3 87.2,87.3 
	87.2,86.7 87.2,86 87.9,86 88.5,86 89.1,85.4 89.1,85.4 89.8,84.7 89.8,84.1 89.8,83.4 89.8,82.8 89.8,82.2 89.8,73.1 89.8,72.5 
	89.8,71.8 89.8,71.2 89.8,70.5 89.8,69.9 89.1,69.2 89.1,68.6 89.1,67.9 88.5,67.9 88.5,67.3 88.5,67.3 87.9,66.7 87.2,66.7 
	87.2,66 86.6,66 86.6,66 85.9,66 85.3,65.3 84.6,65.3 84.6,65.3 84,66 83.3,66 82.7,66 82.1,66 82.1,66.7 81.4,66.7 80.8,66.7 
	80.8,67.3 80.1,67.3 79.5,67.9 79.5,68.6 78.8,69.2 78.8,69.2 78.8,69.9 78.8,82.2 78.8,82.8 78.8,83.4 79.5,84.1 79.5,84.1 
	79.5,84.7 80.1,85.4 80.8,85.4 80.8,85.4 81.4,86 82.1,86 82.7,86 82.7,86 83.3,86.7 83.3,86.7 83.3,87.3 82.7,88 82.7,88 82.1,88 
	81.4,88 80.8,88 80.8,88 80.1,88 79.5,88 78.8,88 78.2,88 78.2,88 77.5,88 76.9,88 76.2,88 75.6,88 75.6,88 74.9,88 74.3,88.6 
	73.6,88.6 73,88.6 73,88.6 72.4,88.6 72.4,88 72.4,87.3 72.4,87.3 72.4,87.3 72.4,86.7 73,86 73.6,86 73.6,86 74.3,85.4 74.3,85.4 
	74.3,84.7 74.9,84.1 74.9,83.4 74.9,82.8 74.9,81.5 74.9,71.2 74.9,70.5 74.9,69.9 74.9,69.2 74.3,68.6 74.3,67.9 74.3,67.9 
	74.3,67.9 73.6,67.3 73.6,67.3 73,67.3 72.4,66.7 72.4,66.7 71.7,66 71.7,66 71.7,65.3 71.7,64.7 72.4,64.7 73,64.1 73.6,64.1 
	73.6,64.1 74.3,63.4 74.9,62.8 75.6,62.8 75.6,62.1 76.2,61.5 76.9,61.5 77.5,60.8 77.5,60.8 77.5,60.8 77.5,60.8 78.2,61.5 
	78.2,62.1 78.2,62.8 78.2,62.8 78.8,64.1 78.8,64.7 78.8,65.3 78.8,65.3 78.8,65.3 79.5,64.7 79.5,64.7 80.1,64.1 80.8,64.1 
	81.4,63.4 81.4,63.4 82.1,62.8 82.7,62.8 83.3,62.1 83.3,62.1 84,62.1 84.6,61.5 85.3,61.5 85.3,61.5 85.9,61.5 86.6,61.5 
	87.2,61.5 87.2,61.5 87.9,61.5 87.9,61.5 88.5,61.5 89.1,61.5 89.8,61.5 89.8,61.5 90.5,62.1 90.5,62.1 91.1,62.8 91.1,62.8 
	91.7,63.4 91.7,63.4 92.4,64.1 92.4,64.7 93,64.7 93,65.3 93,66 93,66.7 93.7,67.3 93.7,67.9 93.7,68.6 93.7,69.2 93.7,69.9 
	93.7,70.5 93.7,71.2 93.7,82.2 93.7,82.8 93.7,83.4 94.3,84.1 94.3,84.7 94.3,84.7 95,85.4 95,85.4 95.6,86 96.3,86 96.9,86 
	97.5,86.7 98.2,86.7 98.2,87.3 98.2,87.3 "/>
<path class="st0" d="M119.5,82.2v0.7h-0.6v0.6l0,0l-0.7,0.7l-0.7,0.7l-0.7,0.7h-0.7V86h-0.6v0.6H115h-0.7l-0.7,0.7l0,0H113l-0.6,0.7
	h-0.7l0,0h-0.7h-0.7h-0.6h-0.7l0,0l0,0h-0.7h-0.7h-0.7h-0.6v-0.7H106h-0.7v-0.7h-0.7L104,86l0,0l-0.6-0.7v-0.7h-0.7v-0.7h-0.7v-0.7
	v-0.6l-0.7-0.7v-0.7h-0.7v-0.7v-0.7v-0.6v-0.7l-0.6-0.7v-0.7v-1.3v-0.7l0,0v-1.3v-0.7v-0.6v-0.7l0.6-0.7v-0.7v-0.6v-0.7v-0.7
	l0.7-0.7v-0.7v-0.6h0.7v-0.7l0.7-0.7v-0.7l0.7-0.7l0,0l0.6-0.6l0,0l0.7-0.7v-0.7h0.7l0.7-0.7l0,0h0.7l0.6-0.7h0.7l0,0l0.7-0.6h0.7
	h0.7l0,0h0.6h0.7h0.7l0,0l0.7,0.6h0.6h0.7v0.7h0.7l0.7,0.7l0,0l0.7,0.7l0.6,0.7v0.6h0.7v0.7l0.7,0.7v0.7v0.7l0,0l0.7,0.6v0.7l0,0
	h0.7v0.7l0,0v0.7v0.7l0,0l-0.7,0.6h-0.7l-0.7,0.7l0,0l-12.3,4.5l0.7,0.6v1.3v0.7v0.7l0.7,0.6v0.7l0,0l0.7,0.7v0.7l0.6,0.7l0,0
	l0.7,0.6l0,0l0.7,0.7h0.7l0,0h0.7l0.6,0.7l0,0h0.7h0.7l0,0l0.7-0.7h0.6l0,0h0.7l0.7-0.7h0.7l0,0l0.7-0.6h0.6l0.7-0.7h0.7v-0.7h0.7
	h0.7l0,0l0,0L119.5,82.2L119.5,82.2L119.5,82.2z M113,68.6v-0.7v-0.6v-0.7l-0.6-0.7l0,0v-0.7l-0.7-0.7h-0.7v-0.6h-0.7h-0.6h-0.7l0,0
	l0,0h-0.7h-0.7v0.6h-0.7l0,0l-0.6,0.7l0,0L106,66l0,0v0.7l-0.7,0.7v0.6v0.7v0.7l-0.7,0.7v0.7v0.6v1.3v0.7v0.6l7.1-2.6l0.7-0.6l0,0
	l0.6-0.7v-0.7l0,0V68.6L113,68.6z"/>
<path class="st2" d="M10.4,170.4l-21.2,12.2L10.4,170.4z M-298.2,348.5l-25.7,14.8L-298.2,348.5z"/>
<path class="st2" d="M-62,100.1L-73.1,120L-62,100.1z M-321.2,264.5l-27.7-0.1L-321.2,264.5z"/>
<path class="st2" d="M13.9,361.2l-25.3-14.5L13.9,361.2z M-10.4,183.4l21.5-12.2L-10.4,183.4z"/>
<path class="st2" d="M-249.4,437.8l15.3-27.7L-249.4,437.8z M-71.9,407.5l15.4,26.8L-71.9,407.5z"/>
<path class="st2" d="M-248.7,99.4l11.6,20.3L-248.7,99.4z M-299.3,181.6l-21.8-12.5L-299.3,181.6z"/>
<path class="st2" d="M-154,452.4V430V452.4z M-154,98.2V75.7V98.2z"/>
<path class="st2" d="M10.5,265.1h27.7H10.5z"/>
<path class="st2" d="M468.4,170.4l-21.2,12.2L468.4,170.4z M159.8,348.5l-25.7,14.8L159.8,348.5z"/>
<path class="st2" d="M396,100.1L384.9,120L396,100.1z M136.7,264.5l-27.7-0.1L136.7,264.5z"/>
<path class="st2" d="M471.9,361.2l-25.3-14.5L471.9,361.2z M447.6,183.4l21.5-12.2L447.6,183.4z"/>
<path class="st2" d="M208.6,437.8l15.3-27.7L208.6,437.8z M386,407.5l15.5,26.8L386,407.5z"/>
<path class="st2" d="M209.3,99.4l11.6,20.3L209.3,99.4z M158.7,181.6L136.9,169L158.7,181.6z"/>
<path class="st2" d="M304,452.4V430V452.4z M304,98.2V75.7V98.2z"/>
<path class="st2" d="M468.5,265.1h27.7H468.5z"/>
<path class="st3" d="M-155.3,430c91.4,0,165.9-74.5,165.9-165.9c0-91.4-74.5-165.9-165.9-165.9c-91.4,0-165.9,74.6-165.9,165.9
	C-321.3,355.4-246.7,430-155.3,430L-155.3,430z"/>
<line class="st4" x1="-60.2" y1="128.2" x2="-155.3" y2="264.1"/>
<path class="st3" d="M-155.3,397.1c73.3,0,133-59.8,133-133c0-73.3-59.8-133-133-133s-133,59.8-133,133
	C-288.4,337.4-228.6,397.1-155.3,397.1L-155.3,397.1z"/>
<path class="st3" d="M302.7,430c91.4,0,165.9-74.5,165.9-165.9c0-91.4-74.5-165.9-165.9-165.9c-91.4,0-165.9,74.6-165.9,165.9
	C136.7,355.4,211.3,430,302.7,430L302.7,430z"/>
<line class="st4" x1="397.8" y1="128.2" x2="302.7" y2="264.1"/>
<path class="st3" d="M302.7,397.1c73.2,0,133-59.8,133-133c0-73.3-59.8-133-133-133c-73.3,0-133.1,59.8-133.1,133
	C169.6,337.4,229.4,397.1,302.7,397.1L302.7,397.1z"/>
</svg>
