<?xml version="1.0" encoding="utf-8"?>
<!-- Generator: Adobe Illustrator 22.1.0, SVG Export Plug-In . SVG Version: 6.00 Build 0)  -->
<svg version="1.1" id="Layer_1" xmlns="http://www.w3.org/2000/svg" xmlns:xlink="http://www.w3.org/1999/xlink" x="0px" y="0px"
	 viewBox="0 0 85.2 69.2" style="enable-background:new 0 0 85.2 69.2;" xml:space="preserve">
<style type="text/css">
	.st0{fill:#EFEBEA;}
</style>
<g>
	<path class="st0" d="M85.2,8.2c-3.1,1.4-6.5,2.3-10,2.8c3.6-2.2,6.4-5.6,7.7-9.7c-3.4,2-7.1,3.5-11.1,4.2C68.6,2.1,64.1,0,59.1,0
		c-9.6,0-17.5,7.8-17.5,17.5c0,1.4,0.2,2.7,0.4,4C27.5,20.8,14.6,13.8,6,3.2C4.5,5.8,3.6,8.8,3.6,12c0,6.1,3.1,11.4,7.8,14.5
		c-2.9-0.1-5.5-0.9-7.9-2.2v0.2c0,8.5,6,15.5,14,17.2c-1.5,0.4-3,0.6-4.6,0.6c-1.1,0-2.2-0.1-3.3-0.3c2.2,6.9,8.7,12,16.3,12.1
		c-6,4.7-13.5,7.5-21.7,7.5c-1.4,0-2.8-0.1-4.2-0.2c7.7,5,16.9,7.8,26.8,7.8c32.1,0,49.7-26.6,49.7-49.7l-0.1-2.3
		C79.9,14.8,82.9,11.7,85.2,8.2L85.2,8.2z"/>
</g>
</svg>
