<?xml version="1.0" encoding="utf-8"?>
<!-- Generator: Adobe Illustrator 22.1.0, SVG Export Plug-In . SVG Version: 6.00 Build 0)  -->
<svg version="1.1" id="Layer_1" xmlns="http://www.w3.org/2000/svg" xmlns:xlink="http://www.w3.org/1999/xlink" x="0px" y="0px"
	 viewBox="0 0 612 792" style="enable-background:new 0 0 612 792;" xml:space="preserve">
<style type="text/css">
	.st0{clip-path:url(#SVGID_2_);fill-rule:evenodd;clip-rule:evenodd;}
</style>
<g>
	<g>
		<defs>
			<rect id="SVGID_1_" x="267" y="369" width="78" height="55"/>
		</defs>
		<clipPath id="SVGID_2_">
			<use xlink:href="#SVGID_1_"  style="overflow:visible;"/>
		</clipPath>
		<path class="st0" d="M343.2,377.7c-0.9-4.1-4.3-7.2-8.4-7.6c-9.6-1.1-19.3-1.1-29-1.1c-9.7,0-19.4,0-29,1.1
			c-4.1,0.5-7.4,3.5-8.4,7.6C267,383.6,267,390,267,396c0,6,0,12.5,1.4,18.3c0.9,4.1,4.3,7.2,8.4,7.6c9.6,1.1,19.3,1.1,29,1.1
			c9.7,0,19.4,0,29-1.1c4.1-0.5,7.4-3.5,8.4-7.6c1.4-5.9,1.4-12.3,1.4-18.3C344.5,390,344.5,383.6,343.2,377.7L343.2,377.7z
			 M295.7,408v-25.6c8.2,4.3,16.4,8.5,24.6,12.9C312.1,399.5,304,403.8,295.7,408L295.7,408z M295.7,408"/>
	</g>
</g>
</svg>
