<?xml version="1.0" encoding="utf-8"?>
<!-- Generator: Adobe Illustrator 22.1.0, SVG Export Plug-In . SVG Version: 6.00 Build 0)  -->
<svg version="1.1" id="Layer_1" xmlns="http://www.w3.org/2000/svg" xmlns:xlink="http://www.w3.org/1999/xlink" x="0px" y="0px"
	 viewBox="0 0 77.6 54" style="enable-background:new 0 0 77.6 54;" xml:space="preserve">
<style type="text/css">
	.st0{fill:#EFEBEA;}
</style>
<g>
	<g>
		<path class="st0" d="M76.2,8.7c-0.9-4.1-4.3-7.2-8.4-7.6C58.2,0,48.5,0,38.8,0s-19.4,0-29,1.1C5.7,1.6,2.4,4.6,1.4,8.7
			C0,14.6,0,21,0,27s0,12.5,1.4,18.3c0.9,4.1,4.3,7.2,8.4,7.6c9.6,1.1,19.3,1.1,29,1.1s19.4,0,29-1.1c4.1-0.5,7.4-3.5,8.4-7.6
			c1.4-5.9,1.4-12.3,1.4-18.3C77.5,21,77.5,14.6,76.2,8.7L76.2,8.7z M28.7,39V13.4c8.2,4.3,16.4,8.5,24.6,12.9
			C45.1,30.5,37,34.8,28.7,39L28.7,39z"/>
	</g>
</g>
</svg>
